<?xml version="1.0" encoding="UTF-8"?>
<svg width="29px" height="29px" viewBox="0 0 29 29" version="1.1" xmlns="http://www.w3.org/2000/svg" xmlns:xlink="http://www.w3.org/1999/xlink">
    <!-- Generator: Sketch 60 (88103) - https://sketch.com -->
    <title>fb</title>
    <desc>Created with Sketch.</desc>
    <g id="Symbols" stroke="none" stroke-width="1" fill="none" fill-rule="evenodd">
        <g id="общее/футер" transform="translate(-77.000000, -32.000000)" fill="#5F5F5F" fill-rule="nonzero">
            <g id="футер">
                <g id="Group" transform="translate(32.000000, 32.000000)">
                    <g id="Group-2">
                        <g id="Group-4">
                            <g id="social">
                                <g id="fb" transform="translate(45.000000, 0.000000)">
                                    <path d="M16.071,29 L16.071,18.55 L19.214,18.55 L20,14.7 L16.071,14.7 L16.071,12.39 C16.071,11.235 16.747,10.85 18.429,10.85 L20,10.85 L20,7.77 C20,7.77 19.136,7 16.857,7 C13.714,7 12.143,9.31 12.143,12.39 L12.143,14.7 L9,14.7 L9,18.55 L12.143,18.55 L12.143,29 L8,29 C3.581722,29 0,25.418278 0,21 L0,8 C0,3.581722 3.581722,0 8,0 L21,0 C25.418278,0 29,3.581722 29,8 L29,21 C29,25.418278 25.418278,29 21,29 L16.071,29 Z" id="Path"></path>
                                </g>
                            </g>
                        </g>
                    </g>
                </g>
            </g>
        </g>
    </g>
</svg>