<svg xmlns="http://www.w3.org/2000/svg" xmlns:xlink="http://www.w3.org/1999/xlink" width="150" height="22" viewBox="0 0 150 22">
    <defs>
        <path id="prefix__a" d="M0.021 0.01L28.959 0.01 28.959 21.482 0.021 21.482z"/>
    </defs>
    <g fill="none" fill-rule="evenodd">
        <path d="M0 0.664H150V120.664H0z" transform="translate(0 -50)"/>
        <g>
            <path fill="#FFF" d="M136.464 13.568c.352.227.972.794 1.469 1.291.467.467 1.064 1.089 1.325 1.469l-5.21 5.212h-5.554l7.97-7.972zM105.5 21.547c1.825.16 2.619.267 5.946.267 4.83 0 6.951-.695 6.951-2.633 0-1.72-2.336-2.13-4.515-2.454-1.799-.268-2.857-.26-2.857-.991s1.861-.695 3.064-.695c.625 0 2.094.079 3.055.269l1.025-1.665c-.8-.09-2.957-.27-5.365-.27-4.336 0-6.977.62-6.977 2.339 0 1.82 2.31 2.074 4.563 2.413 1.82.274 2.796.259 2.796.972 0 .804-1.596.85-3.207.85-.683 0-2.103-.08-3.284-.348l-1.195 1.946zM0 17.69c0 2.884 2.34 4.037 7.497 4.037 2.24 0 4.355-.144 6.053-.458v-3.662H9.39v2.195c-.495.065-.995.097-1.496.097-2.899 0-3.452-1.058-3.452-2.254 0-1.149.663-2.304 3.747-2.304 1.693 0 2.726.098 4.251.358l1.18-1.876c-2.024-.25-4.06-.369-6.1-.356-5.136 0-7.52 1.351-7.52 4.223zm81.404-2.155h5.669l1.183-1.888H77.16v7.89h4.244v-2.293h4.61l1.183-1.881h-5.793v-1.828zm-59.498 2.188l2.592 3.816h4.573l-2.662-3.42c.428-.048 2.147-.181 2.147-2.228 0-2.229-2.677-2.243-4.4-2.243h-7.765v7.89h4.134l.001-6.254h1.919c.924 0 1.768.173 1.768 1.11.001 1.037-.367 1.33-2.307 1.33zm82.02-.183c0-2.54-2.27-4.127-7.406-4.127-5.2 0-7.443 1.572-7.443 4.138 0 2.844 2.244 4.22 7.443 4.22 5.137 0 7.406-1.383 7.406-4.231zm-4.547.053c0 1.743-.88 2.377-2.893 2.377-1.794 0-2.866-.634-2.866-2.377 0-1.753 1.073-2.374 2.865-2.374 1.833 0 2.894.62 2.894 2.374zm-38.227-3.946v7.89h6.506c4.74 0 6.944-.845 6.944-3.963 0-3.118-2.204-3.926-6.946-3.926h-6.504zm4.163 1.79h1.914c1.898 0 2.976.48 2.976 2.156 0 1.564-1.078 2.153-2.976 2.153h-1.912l-.002-4.308zm-10.845 6.1l-5.933-3.999v4H46.06v-7.89h3.575l5.93 4.037v-4.038h2.463v7.89H54.47zm-11.294-7.89v4.633c.002 1.247-.29 1.772-.937 2.306-1.005.83-2.953 1.181-5.194 1.181-2.24 0-4.118-.35-5.123-1.18-.645-.535-.953-1.06-.953-2.307v-4.633h4.187v4.35c0 1.508.665 1.98 1.929 1.98 1.266 0 1.923-.472 1.922-1.98v-4.35h4.17z" transform="translate(0 -50) translate(0 50)"/>
            <g transform="translate(0 -50) translate(0 50) translate(121.014 .057)">
                <mask id="prefix__b" fill="#fff">
                    <use xlink:href="#prefix__a"/>
                </mask>
                <path fill="#FFF" d="M1.337 13.536c-.302 0-.56.108-.776.321-.213.214-.32.473-.32.776 0 .303.107.56.32.774.214.212.473.32.776.32.301 0 .56-.108.772-.322.214-.212.322-.47.322-.772 0-.303-.108-.562-.322-.776-.214-.213-.47-.321-.772-.321zm0-.217c.235 0 .454.06.655.177.41.232.662.667.66 1.137 0 .235-.058.454-.177.655-.116.202-.277.363-.479.48-.203.116-.422.176-.659.176-.237 0-.457-.058-.66-.176-.2-.114-.366-.279-.48-.478-.117-.199-.178-.426-.176-.657 0-.237.058-.456.176-.659.116-.202.277-.361.48-.48.205-.118.423-.175.66-.175zm22.94.472c1.908 2.257 3.955 5.486 4.682 7.691h-3.081c-.673-1.73-2.335-4.254-3.671-5.624l2.07-2.067zM28.958.01v5.552l-8.344 8.344c-.438-.47-.855-.898-1.311-1.345-4.723-4.647-9.568-7.373-10.862-6.1-1.005.989.465 4.065 3.209 7.422l-1.147 1.142c-2.104-2.518-3.723-5.08-4.569-7.238-.655-1.673-1.086-3.763-.007-4.844.969-.968 2.929-.87 5.515.289 2.622 1.174 5.62 3.302 8.388 5.904L28.956.01z" mask="url(#prefix__b)"/>
            </g>
            <path fill="#FFF" d="M122.367 14.175c.194 0 .282.06.282.185 0 .192-.13.205-.316.205h-.233v-.39h.267zm-.501-.223h-.02v1.443h.255v-.606h.21l.368.606h.291l-.404-.625c.226-.04.349-.174.349-.399 0-.282-.168-.42-.516-.42h-.533v.001z" transform="translate(0 -50) translate(0 50)"/>
        </g>
    </g>
</svg>
