<svg xmlns="http://www.w3.org/2000/svg" xmlns:xlink="http://www.w3.org/1999/xlink" width="24" height="24" viewBox="0 0 24 24">
    <defs>
        <path id="a" d="M3.914 19.284h1.82V4.568h-1.82V2.852H13.3c1.057 0 1.967.108 2.73.325.763.217 1.391.516 1.885.897s.858.832 1.092 1.352a4.07 4.07 0 0 1 .351 1.69c0 .624-.108 1.179-.325 1.664a3.745 3.745 0 0 1-.871 1.235c-.364.338-.784.62-1.261.845-.477.225-.966.39-1.469.494v.13c.52.07 1.057.208 1.612.416a5.4 5.4 0 0 1 1.508.858c.45.364.819.81 1.105 1.339.286.529.429 1.148.429 1.859 0 1.612-.52 2.856-1.56 3.731S15.917 21 13.82 21H3.914v-1.716zm6.032-.13h2.886c.936 0 1.66-.234 2.171-.702.511-.468.767-1.127.767-1.976v-1.222c0-.85-.256-1.508-.767-1.976-.511-.468-1.235-.702-2.171-.702H9.946v6.578zm0-8.372h2.418c1.785 0 2.678-.823 2.678-2.47V7.168c0-1.647-.893-2.47-2.678-2.47H9.946v6.084z"/>
    </defs>
    <g fill="none" fill-rule="evenodd">
        <path d="M0 0h24v24H0z"/>
        <mask id="b" fill="#fff">
            <use xlink:href="#a"/>
        </mask>
        <use fill="#9C9C9C" fill-rule="nonzero" xlink:href="#a"/>
        <g fill="#9C9C9C" mask="url(#b)">
            <path d="M0 0h24v24H0z"/>
        </g>
    </g>
</svg>
