<svg xmlns="http://www.w3.org/2000/svg" width="28" height="28" viewBox="0 0 28 28">
    <g fill="none" fill-rule="evenodd">
        <circle cx="14" cy="14" r="14" fill="#FB9090"/>
        <path fill="#FFF" fill-rule="nonzero" d="M21.304 10.13h-3.13C18.174 7.858 16.296 6 14 6c-2.296 0-4.174 1.858-4.174 4.13h-3.13c-.418 0-.696.275-.696.688v11.494c0 .413.278.688.696.688h14.608c.418 0 .696-.275.696-.688V10.818c0-.413-.278-.688-.696-.688zM14 7.377c1.46 0 2.783 1.307 2.783 2.753h-5.566c0-1.515 1.253-2.753 2.783-2.753zm3.478 9.91h-2.782v2.753h-1.392v-2.753h-2.782v-1.376h2.782v-2.753h1.392v2.753h2.782v1.376z"/>
    </g>
</svg>
