<svg xmlns="http://www.w3.org/2000/svg" xmlns:xlink="http://www.w3.org/1999/xlink" width="100" height="18" viewBox="0 0 100 18">
    <defs>
        <path id="prefix__a" d="M0 18L99.707 18 99.707 0 0 0z"/>
    </defs>
    <g fill="none" fill-rule="evenodd" opacity=".795">
        <path fill="#9B9B9B" d="M5.227 11.67c1.33 0 2.412-1.312 2.412-2.817 0-1.561-1.081-2.816-2.412-2.816S2.816 7.292 2.816 8.853c0 1.505 1.08 2.817 2.41 2.817zM2.816 0v5.44c1.003-1.1 2.276-1.447 3.163-1.447 2.489 0 4.475 2.238 4.475 4.86 0 2.644-2.006 4.861-4.475 4.861-.887 0-2.16-.346-3.163-1.447v1.236H0V0h2.816zM16.42 10.474c0-.752-.656-1.234-1.273-1.234-.733 0-1.234.579-1.234 1.195 0 .599.463 1.235 1.234 1.235.713 0 1.273-.501 1.273-1.196zm-4.456-5.979c.907-.347 1.775-.502 2.759-.502 2.41 0 4.513.887 4.513 3.8v5.71H16.42v-.81c-.617.636-1.466 1.022-2.218 1.022-1.562 0-3.105-1.428-3.105-3.203 0-1.833 1.408-3.318 3.124-3.318.81 0 1.543.271 2.2.888.057-2.006-1.737-2.025-2.257-2.025-.887 0-1.485.116-2.2.386V4.495zM26.872 6.501c-.502-.29-.984-.463-1.524-.463-1.544 0-2.527 1.06-2.527 2.893 0 1.466.733 2.74 2.45 2.74.54 0 1.061-.116 1.601-.386l1.1 1.659c-.83.405-1.95.77-2.991.77-1.736 0-4.976-1.002-4.976-4.763 0-2.817 1.755-4.958 4.976-4.958 1.505 0 2.431.52 2.99.868L26.872 6.5zM28.63 4.184L31.446 4.184 31.446 8.237 34.012 4.205 36.944 4.205 33.78 8.16 37.271 13.502 34.358 13.502 32.372 9.916 31.446 10.995 31.446 13.502 28.63 13.502zM48.504 4.205h2.814V5.69c.618-1.427 1.931-1.679 2.644-1.697v2.141c-1.292.038-2.218.83-2.644 1.813v5.556h-2.814V4.205zM58.787 11.67c1.331 0 2.392-1.293 2.392-2.817 0-1.58-1.06-2.816-2.392-2.816-1.35 0-2.412 1.255-2.412 2.816 0 1.505 1.043 2.817 2.412 2.817m0-7.677c2.816 0 5.208 2.161 5.208 4.86 0 2.701-2.392 4.861-5.208 4.861-2.854 0-5.226-2.18-5.226-4.86 0-2.682 2.372-4.86 5.226-4.86M73.14 13.503h-2.816v-1.1c-.521.772-1.332 1.311-2.508 1.311-2.912 0-3.01-2.584-3.01-3.915V4.204h2.818V9.51c0 .81.038 2.16 1.292 2.16 1.06 0 1.408-.675 1.408-1.774V4.204h2.815v9.299zM74.742 4.205h2.814v1.12c.832-1.236 2.123-1.332 2.489-1.332 1.487 0 3.03.772 3.03 3.936v5.574h-2.816V8.217c0-1.64-.367-2.18-1.293-2.18-1.39 0-1.41.966-1.41 2.489v4.977h-2.814V4.205zM89.114 6.037c-1.333 0-2.413 1.255-2.413 2.816 0 1.505 1.08 2.817 2.413 2.817 1.33 0 2.41-1.312 2.41-2.817 0-1.561-1.08-2.816-2.41-2.816zm2.41 6.23c-1.003 1.1-2.275 1.447-3.163 1.447-2.468 0-4.475-2.217-4.475-4.86 0-2.623 1.986-4.86 4.475-4.86.888 0 2.16.346 3.163 1.446V0h2.816v13.503h-2.816v-1.235z"/>
        <mask id="prefix__b" fill="#fff">
            <use xlink:href="#prefix__a"/>
        </mask>
        <path fill="#9B9B9B" d="M95.766 13.514L99.707 13.514 99.707 10.924 95.766 10.924zM41.73 11.67c-1.33 0-2.411-1.312-2.411-2.817 0-1.561 1.08-2.816 2.412-2.816 1.33 0 2.41 1.255 2.41 2.816 0 1.505-1.08 2.817-2.41 2.817zm5.227-7.465h-2.815V5.44c-1.004-1.1-2.276-1.447-3.164-1.447-2.488 0-4.474 2.238-4.474 4.86 0 2.644 2.006 4.861 4.474 4.861.888 0 2.16-.346 3.164-1.447 0 0 .002.605 0 .807l-.002.087c0 1.482-.86 2.596-2.548 2.596-.986 0-2.147-.227-2.992-.977l-1.288 1.828C38.49 17.5 40.286 18 41.817 18c3.115 0 5.144-1.59 5.144-5.073l-.004-8.722z" mask="url(#prefix__b)"/>
    </g>
</svg>
