<svg xmlns="http://www.w3.org/2000/svg" width="42" height="51" viewBox="0 0 42 51">
    <g fill="none" fill-rule="evenodd">
        <path fill="#004BB7" d="M0 38.716L21 50.766 21 24.686 0 12.636z"/>
        <path fill="#409BFF" d="M21 0L0 12.636 21 24.684 42 12.62z"/>
        <path fill="#00F025" d="M21 24.684L21 50.763 42 38.699 42 12.62z"/>
        <path fill="#0061E5" d="M11.95 19.491L9.948 18.345 31.222 6.143 33.175 7.317z"/>
        <g>
            <path fill="#0061E5" d="M13.09 3.905c0 3.343-2.726 7.606-6.09 9.523-3.364 1.917-6.09.763-6.09-2.579C.91 7.506 3.636 3.243 7 1.325c3.364-1.917 6.09-.762 6.09 2.58" transform="translate(24.5 24.106)"/>
            <path fill="#00F025" d="M9.307 6.062c0 1.266-1.034 2.88-2.308 3.606-1.272.727-2.306.29-2.306-.976 0-1.265 1.034-2.881 2.306-3.608 1.274-.725 2.308-.288 2.308.978" transform="translate(24.5 24.106)"/>
        </g>
    </g>
</svg>
