<svg xmlns="http://www.w3.org/2000/svg" xmlns:xlink="http://www.w3.org/1999/xlink" width="74" height="73" viewBox="0 0 74 73">
    <defs>
        <path id="prefix__a" d="M0 0.715L73.686 0.715 73.686 73 0 73z"/>
    </defs>
    <g fill="none" fill-rule="evenodd">
        <g transform="translate(0 -1) translate(0 .286)">
            <mask id="prefix__b" fill="#fff">
                <use xlink:href="#prefix__a"/>
            </mask>
            <path fill="#FFF" d="M-0.001 73L73.686 73 73.686 0.715 -0.001 0.715z" mask="url(#prefix__b)"/>
        </g>
        <path fill="#0061E5" d="M19.922 19.072c0 .828-.672 1.5-1.5 1.5s-1.5-.672-1.5-1.5.672-1.5 1.5-1.5 1.5.672 1.5 1.5M56.764 19.072c0 .828-.672 1.5-1.5 1.5s-1.5-.672-1.5-1.5.672-1.5 1.5-1.5 1.5.672 1.5 1.5M19.922 55.214c0 .83-.672 1.5-1.5 1.5s-1.5-.67-1.5-1.5c0-.828.672-1.5 1.5-1.5s1.5.672 1.5 1.5M56.764 55.214c0 .83-.672 1.5-1.5 1.5s-1.5-.67-1.5-1.5c0-.828.672-1.5 1.5-1.5s1.5.672 1.5 1.5" transform="translate(0 -1)"/>
    </g>
</svg>
