<svg xmlns="http://www.w3.org/2000/svg" xmlns:xlink="http://www.w3.org/1999/xlink" width="42" height="45" viewBox="0 0 42 45">
    <defs>
        <path id="prefix__a" d="M.254 1.085L6.397 4.64c1.944 1.125 4.634.97 7.597-.735L7.85.35C4.887 2.054 2.198 2.21.254 1.085"/>
        <path id="prefix__c" d="M.254 1.085L6.397 4.64c1.944 1.125 4.634.97 7.597-.735L7.85.35C4.887 2.054 2.198 2.21.254 1.085"/>
        <path id="prefix__e" d="M.254 1.085L6.397 4.64c1.944 1.125 4.634.97 7.597-.735L7.85.35C4.887 2.054 2.198 2.21.254 1.085"/>
        <path id="prefix__g" d="M.254 1.085L6.397 4.64c1.944 1.125 4.634.97 7.597-.735L7.85.35C4.887 2.054 2.198 2.21.254 1.085"/>
        <path id="prefix__i" d="M.254 1.085L6.397 4.64c1.944 1.125 4.634.97 7.597-.735L7.85.35C4.887 2.054 2.198 2.21.254 1.085"/>
        <path id="prefix__k" d="M.254 1.085L6.397 4.64c1.944 1.125 4.634.97 7.597-.735L7.85.35C4.887 2.054 2.198 2.21.254 1.085"/>
        <path id="prefix__m" d="M.254 1.085L6.397 4.64c1.944 1.125 4.634.97 7.597-.735L7.85.35C4.887 2.054 2.198 2.21.254 1.085"/>
        <path id="prefix__o" d="M.254 1.085L6.397 4.64c1.944 1.125 4.634.97 7.597-.735L7.85.35C4.887 2.054 2.198 2.21.254 1.085"/>
        <path id="prefix__q" d="M.254 1.085L6.397 4.64c1.944 1.125 4.634.97 7.597-.735L7.85.35C4.887 2.054 2.198 2.21.254 1.085"/>
        <path id="prefix__s" d="M.254 1.085L6.397 4.64c1.944 1.125 4.634.97 7.597-.735L7.85.35C4.887 2.054 2.198 2.21.254 1.085"/>
        <path id="prefix__u" d="M3.061 4.303l6.144 3.559c-.494-1.81-1.458-3.13-2.754-3.88L.307.425c1.296.75 2.26 2.07 2.754 3.878"/>
        <path id="prefix__w" d="M0.632 0.328L17.969 0.328 17.969 6.03 0.632 6.03z"/>
        <path id="prefix__y" d="M.632 2.472L6.776 6.03c4.367-2.512 8.33-2.742 11.192-1.085L11.826 1.39C10.62.69 9.223.328 7.68.328c-2.123 0-4.517.689-7.048 2.144"/>
        <path id="prefix__A" d="M.632 2.472L6.776 6.03c4.367-2.512 8.33-2.742 11.192-1.085L11.826 1.39C10.62.69 9.223.328 7.68.328c-2.123 0-4.517.689-7.048 2.144"/>
        <path id="prefix__C" d="M.632 2.472L6.776 6.03c4.367-2.512 8.33-2.742 11.192-1.085L11.826 1.39C10.62.69 9.223.328 7.68.328c-2.123 0-4.517.689-7.048 2.144"/>
        <path id="prefix__E" d="M.632 2.472L6.776 6.03c4.367-2.512 8.33-2.742 11.192-1.085L11.826 1.39C10.62.69 9.223.328 7.68.328c-2.123 0-4.517.689-7.048 2.144"/>
        <path id="prefix__G" d="M.632 2.472L6.776 6.03c4.367-2.512 8.33-2.742 11.192-1.085L11.826 1.39C10.62.69 9.223.328 7.68.328c-2.123 0-4.517.689-7.048 2.144"/>
        <path id="prefix__I" d="M.632 2.472L6.776 6.03c4.367-2.512 8.33-2.742 11.192-1.085L11.826 1.39C10.62.69 9.223.328 7.68.328c-2.123 0-4.517.689-7.048 2.144"/>
        <path id="prefix__K" d="M.632 2.472L6.776 6.03c4.367-2.512 8.33-2.742 11.192-1.085L11.826 1.39C10.62.69 9.223.328 7.68.328c-2.123 0-4.517.689-7.048 2.144"/>
        <path id="prefix__M" d="M.632 2.472L6.776 6.03c4.367-2.512 8.33-2.742 11.192-1.085L11.826 1.39C10.62.69 9.223.328 7.68.328c-2.123 0-4.517.689-7.048 2.144"/>
        <path id="prefix__O" d="M.632 2.472L6.776 6.03c4.367-2.512 8.33-2.742 11.192-1.085L11.826 1.39C10.62.69 9.223.328 7.68.328c-2.123 0-4.517.689-7.048 2.144"/>
        <path id="prefix__Q" d="M.632 2.472L6.776 6.03c4.367-2.512 8.33-2.742 11.192-1.085L11.826 1.39C10.62.69 9.223.328 7.68.328c-2.123 0-4.517.689-7.048 2.144"/>
        <path id="prefix__S" d="M0 0.104L21.833 0.104 21.833 40.781 0 40.781z"/>
        <path id="prefix__U" d="M0 27.06v.116c.014 4.935 1.77 8.411 4.597 10.048l6.145 3.557c-2.829-1.637-4.584-5.113-4.598-10.048-.029-9.94 7.012-22.082 15.689-27.071L15.689.103C7.046 5.076.027 17.142 0 27.06"/>
        <path id="prefix__W" d="M0 27.06v.116c.014 4.935 1.77 8.411 4.597 10.048l6.145 3.557c-2.829-1.637-4.584-5.113-4.598-10.048-.029-9.94 7.012-22.082 15.689-27.071L15.689.103C7.046 5.076.027 17.142 0 27.06"/>
        <path id="prefix__Y" d="M0 27.06v.116c.014 4.935 1.77 8.411 4.597 10.048l6.145 3.557c-2.829-1.637-4.584-5.113-4.598-10.048-.029-9.94 7.012-22.082 15.689-27.071L15.689.103C7.046 5.076.027 17.142 0 27.06"/>
        <path id="prefix__aa" d="M0 27.06v.116c.014 4.935 1.77 8.411 4.597 10.048l6.145 3.557c-2.829-1.637-4.584-5.113-4.598-10.048-.029-9.94 7.012-22.082 15.689-27.071L15.689.103C7.046 5.076.027 17.142 0 27.06"/>
        <path id="prefix__ac" d="M0 27.06v.116c.014 4.935 1.77 8.411 4.597 10.048l6.145 3.557c-2.829-1.637-4.584-5.113-4.598-10.048-.029-9.94 7.012-22.082 15.689-27.071L15.689.103C7.046 5.076.027 17.142 0 27.06"/>
        <path id="prefix__ae" d="M0 27.06v.116c.014 4.935 1.77 8.411 4.597 10.048l6.145 3.557c-2.829-1.637-4.584-5.113-4.598-10.048-.029-9.94 7.012-22.082 15.689-27.071L15.689.103C7.046 5.076.027 17.142 0 27.06"/>
        <path id="prefix__ag" d="M0 27.06v.116c.014 4.935 1.77 8.411 4.597 10.048l6.145 3.557c-2.829-1.637-4.584-5.113-4.598-10.048-.029-9.94 7.012-22.082 15.689-27.071L15.689.103C7.046 5.076.027 17.142 0 27.06"/>
        <path id="prefix__ai" d="M0 27.06v.116c.014 4.935 1.77 8.411 4.597 10.048l6.145 3.557c-2.829-1.637-4.584-5.113-4.598-10.048-.029-9.94 7.012-22.082 15.689-27.071L15.689.103C7.046 5.076.027 17.142 0 27.06"/>
        <path id="prefix__ak" d="M0 27.06v.116c.014 4.935 1.77 8.411 4.597 10.048l6.145 3.557c-2.829-1.637-4.584-5.113-4.598-10.048-.029-9.94 7.012-22.082 15.689-27.071L15.689.103C7.046 5.076.027 17.142 0 27.06"/>
        <path id="prefix__am" d="M0 27.06v.116c.014 4.935 1.77 8.411 4.597 10.048l6.145 3.557c-2.829-1.637-4.584-5.113-4.598-10.048-.029-9.94 7.012-22.082 15.689-27.071L15.689.103C7.046 5.076.027 17.142 0 27.06"/>
        <path id="prefix__ao" d="M0 27.06v.116c.014 4.935 1.77 8.411 4.597 10.048l6.145 3.557c-2.829-1.637-4.584-5.113-4.598-10.048-.029-9.94 7.012-22.082 15.689-27.071L15.689.103C7.046 5.076.027 17.142 0 27.06"/>
        <path id="prefix__aq" d="M0 27.06v.116c.014 4.935 1.77 8.411 4.597 10.048l6.145 3.557c-2.829-1.637-4.584-5.113-4.598-10.048-.029-9.94 7.012-22.082 15.689-27.071L15.689.103C7.046 5.076.027 17.142 0 27.06"/>
        <path id="prefix__as" d="M0 27.06v.116c.014 4.935 1.77 8.411 4.597 10.048l6.145 3.557c-2.829-1.637-4.584-5.113-4.598-10.048-.029-9.94 7.012-22.082 15.689-27.071L15.689.103C7.046 5.076.027 17.142 0 27.06"/>
        <path id="prefix__au" d="M0 27.06v.116c.014 4.935 1.77 8.411 4.597 10.048l6.145 3.557c-2.829-1.637-4.584-5.113-4.598-10.048-.029-9.94 7.012-22.082 15.689-27.071L15.689.103C7.046 5.076.027 17.142 0 27.06"/>
        <path id="prefix__aw" d="M0 27.06v.116c.014 4.935 1.77 8.411 4.597 10.048l6.145 3.557c-2.829-1.637-4.584-5.113-4.598-10.048-.029-9.94 7.012-22.082 15.689-27.071L15.689.103C7.046 5.076.027 17.142 0 27.06"/>
    </defs>
    <g fill="none" fill-rule="evenodd">
        <path fill="#00F025" d="M31.229 8.888L37.372 12.445 41.274 10.201 35.13 6.645z"/>
        <path fill="#0BD007" d="M34.562 27.463L28.418 23.906 21.636 14.406 27.779 17.963z"/>
        <path fill="#00F025" d="M27.779 17.963L21.636 14.406 26.043 11.871 32.187 15.428z"/>
        <path fill="#0BD007" d="M14.322 37.472l-6.144-3.558c1.944 1.126 4.634.97 7.597-.735l6.144 3.557c-2.963 1.705-5.654 1.86-7.597.736"/>
        <g transform="translate(7.925 32.83)">
            <mask id="prefix__b" fill="#fff">
                <use xlink:href="#prefix__a"/>
            </mask>
            <path fill="#0BD007" d="M6.398 4.642L.254 1.084l.058.034 6.144 3.557c-.019-.011-.04-.021-.058-.033" mask="url(#prefix__b)"/>
            <mask id="prefix__d" fill="#fff">
                <use xlink:href="#prefix__c"/>
            </mask>
            <path fill="#0BD007" d="M6.456 4.675L.313 1.118c.173.097.352.185.538.262l6.144 3.557c-.186-.077-.365-.164-.539-.262" mask="url(#prefix__d)"/>
            <mask id="prefix__f" fill="#fff">
                <use xlink:href="#prefix__e"/>
            </mask>
            <path fill="#0BD007" d="M6.994 4.937L.85 1.38c.184.077.373.143.566.199L7.56 5.136c-.194-.056-.383-.122-.566-.199" mask="url(#prefix__f)"/>
            <mask id="prefix__h" fill="#fff">
                <use xlink:href="#prefix__g"/>
            </mask>
            <path fill="#0BD007" d="M7.56 5.136L1.416 1.579c.195.056.396.102.602.138L8.16 5.274c-.206-.035-.406-.082-.601-.138" mask="url(#prefix__h)"/>
            <g>
                <mask id="prefix__j" fill="#fff">
                    <use xlink:href="#prefix__i"/>
                </mask>
                <path fill="#0BD007" d="M8.16 5.274L2.018 1.717c.211.036.426.061.646.075L8.807 5.35c-.22-.014-.436-.04-.646-.076" mask="url(#prefix__j)"/>
            </g>
            <g>
                <mask id="prefix__l" fill="#fff">
                    <use xlink:href="#prefix__k"/>
                </mask>
                <path fill="#0BD007" d="M8.807 5.35L2.664 1.792c.23.015.466.017.707.006l6.144 3.557c-.24.011-.477.009-.708-.005" mask="url(#prefix__l)"/>
            </g>
            <g>
                <mask id="prefix__n" fill="#fff">
                    <use xlink:href="#prefix__m"/>
                </mask>
                <path fill="#0BD007" d="M9.515 5.355L3.37 1.798c.26-.012.526-.038.796-.08l6.144 3.557c-.27.042-.536.068-.796.08" mask="url(#prefix__n)"/>
            </g>
            <g>
                <mask id="prefix__p" fill="#fff">
                    <use xlink:href="#prefix__o"/>
                </mask>
                <path fill="#0BD007" d="M10.311 5.276L4.167 1.718c.308-.046.62-.113.94-.2l6.143 3.558c-.32.086-.632.152-.939.2" mask="url(#prefix__p)"/>
            </g>
            <g>
                <mask id="prefix__r" fill="#fff">
                    <use xlink:href="#prefix__q"/>
                </mask>
                <path fill="#0BD007" d="M11.25 5.076L5.106 1.518c.41-.11.829-.254 1.255-.43l6.144 3.556c-.426.178-.845.32-1.255.432" mask="url(#prefix__r)"/>
            </g>
            <g>
                <mask id="prefix__t" fill="#fff">
                    <use xlink:href="#prefix__s"/>
                </mask>
                <path fill="#0BD007" d="M12.505 4.644L6.361 1.087c.487-.202.984-.446 1.49-.737l6.143 3.556c-.505.291-1.002.537-1.489.738" mask="url(#prefix__t)"/>
            </g>
        </g>
        <path fill="#0BD007" d="M23.288 7.992l6.144 3.557c1.296.75 2.26 2.07 2.755 3.88l-6.144-3.558c-.494-1.809-1.458-3.129-2.755-3.879"/>
        <g transform="translate(22.981 7.567)">
            <mask id="prefix__v" fill="#fff">
                <use xlink:href="#prefix__u"/>
            </mask>
            <path fill="#0BD007" d="M9.205 7.861L3.061 4.304C2.568 2.495 1.603 1.175.307.425L6.45 3.982c1.295.75 2.26 2.07 2.754 3.88" mask="url(#prefix__v)"/>
        </g>
        <g transform="translate(15.057 .462)">
            <mask id="prefix__x" fill="#fff">
                <use xlink:href="#prefix__w"/>
            </mask>
            <path fill="#00F025" d="M11.826 1.388l6.143 3.558C15.106 3.288 11.143 3.518 6.776 6.03L.632 2.472C5-.04 8.962-.27 11.826 1.388" mask="url(#prefix__x)"/>
        </g>
        <g transform="translate(15.057 .462)">
            <mask id="prefix__z" fill="#fff">
                <use xlink:href="#prefix__y"/>
            </mask>
            <path fill="#00F025" d="M6.776 6.03L.632 2.472c.756-.435 1.5-.801 2.228-1.1l6.144 3.556c-.729.3-1.472.667-2.228 1.102" mask="url(#prefix__z)"/>
            <mask id="prefix__B" fill="#fff">
                <use xlink:href="#prefix__A"/>
            </mask>
            <path fill="#00F025" d="M9.003 4.929L2.86 1.37c.617-.254 1.223-.46 1.815-.621l6.144 3.557c-.592.16-1.198.367-1.815.622" mask="url(#prefix__B)"/>
            <mask id="prefix__D" fill="#fff">
                <use xlink:href="#prefix__C"/>
            </mask>
            <path fill="#00F025" d="M10.818 4.307L4.674.75C5.15.622 5.616.522 6.072.453l6.144 3.557c-.457.07-.923.169-1.398.297" mask="url(#prefix__D)"/>
            <mask id="prefix__F" fill="#fff">
                <use xlink:href="#prefix__E"/>
            </mask>
            <path fill="#00F025" d="M12.216 4.01L6.072.453c.398-.06.787-.099 1.17-.115l6.143 3.557c-.382.016-.772.055-1.17.115" mask="url(#prefix__F)"/>
            <g>
                <mask id="prefix__H" fill="#fff">
                    <use xlink:href="#prefix__G"/>
                </mask>
                <path fill="#00F025" d="M13.385 3.895L7.241.337c.353-.015.7-.012 1.038.01l6.144 3.556c-.338-.02-.685-.024-1.038-.008" mask="url(#prefix__H)"/>
            </g>
            <g>
                <mask id="prefix__J" fill="#fff">
                    <use xlink:href="#prefix__I"/>
                </mask>
                <path fill="#00F025" d="M14.423 3.903L8.279.347c.324.02.641.057.95.111l6.144 3.557c-.31-.054-.626-.091-.95-.112" mask="url(#prefix__J)"/>
            </g>
            <g>
                <mask id="prefix__L" fill="#fff">
                    <use xlink:href="#prefix__K"/>
                </mask>
                <path fill="#00F025" d="M15.373 4.014L9.23.458c.302.052.597.119.885.203l6.143 3.557c-.287-.084-.582-.152-.884-.204" mask="url(#prefix__L)"/>
            </g>
            <g>
                <mask id="prefix__N" fill="#fff">
                    <use xlink:href="#prefix__M"/>
                </mask>
                <path fill="#00F025" d="M16.257 4.218L10.114.66c.284.083.563.181.833.293l6.144 3.558c-.27-.112-.549-.211-.834-.293" mask="url(#prefix__N)"/>
            </g>
            <g>
                <mask id="prefix__P" fill="#fff">
                    <use xlink:href="#prefix__O"/>
                </mask>
                <path fill="#00F025" d="M17.09 4.51L10.946.954c.274.115.539.244.795.386l6.143 3.558c-.256-.144-.52-.273-.794-.386" mask="url(#prefix__P)"/>
            </g>
            <g>
                <mask id="prefix__R" fill="#fff">
                    <use xlink:href="#prefix__Q"/>
                </mask>
                <path fill="#00F025" d="M17.884 4.897L11.74 1.34l.084.049 6.143 3.557c-.027-.017-.056-.032-.084-.049" mask="url(#prefix__R)"/>
            </g>
        </g>
        <g transform="translate(0 2.83)">
            <mask id="prefix__T" fill="#fff">
                <use xlink:href="#prefix__S"/>
            </mask>
            <path fill="#00F025" d="M10.741 40.781l-6.143-3.557C1.77 35.587.014 32.11 0 27.177-.028 17.237 7.012 5.095 15.689.104l6.144 3.557C13.156 8.65 6.115 20.794 6.143 30.733c.015 4.935 1.771 8.41 4.598 10.048" mask="url(#prefix__T)"/>
        </g>
        <g transform="translate(0 2.83)">
            <mask id="prefix__V" fill="#fff">
                <use xlink:href="#prefix__U"/>
            </mask>
            <path fill="#00F025" d="M10.741 40.781l-6.143-3.557C1.77 35.587.014 32.11 0 27.177c-.003-1.001.066-2.024.201-3.059l6.143 3.556c-.135 1.036-.204 2.06-.2 3.059.014 4.935 1.77 8.41 4.597 10.048" mask="url(#prefix__V)"/>
            <mask id="prefix__X" fill="#fff">
                <use xlink:href="#prefix__W"/>
            </mask>
            <path fill="#00F025" d="M6.344 27.675L.201 24.118c.093-.718.218-1.442.374-2.17l6.144 3.557c-.156.727-.281 1.452-.375 2.17" mask="url(#prefix__X)"/>
            <mask id="prefix__Z" fill="#fff">
                <use xlink:href="#prefix__Y"/>
            </mask>
            <path fill="#00F025" d="M6.719 25.505L.575 21.948c.128-.598.276-1.197.442-1.797l6.144 3.556c-.167.6-.315 1.2-.442 1.798" mask="url(#prefix__Z)"/>
            <mask id="prefix__ab" fill="#fff">
                <use xlink:href="#prefix__aa"/>
            </mask>
            <path fill="#00F025" d="M7.16 23.707l-6.143-3.556c.149-.534.312-1.066.49-1.598l6.143 3.556c-.177.532-.341 1.065-.49 1.598" mask="url(#prefix__ab)"/>
            <mask id="prefix__ad" fill="#fff">
                <use xlink:href="#prefix__ac"/>
            </mask>
            <path fill="#00F025" d="M7.65 22.109l-6.143-3.557c.165-.495.344-.99.534-1.482l6.144 3.557c-.19.493-.369.987-.534 1.482" mask="url(#prefix__ad)"/>
            <g>
                <mask id="prefix__af" fill="#fff">
                    <use xlink:href="#prefix__ae"/>
                </mask>
                <path fill="#00F025" d="M8.185 20.627L2.04 17.071c.182-.473.374-.942.578-1.41l6.143 3.557c-.203.468-.396.937-.577 1.41" mask="url(#prefix__af)"/>
            </g>
            <g>
                <mask id="prefix__ah" fill="#fff">
                    <use xlink:href="#prefix__ag"/>
                </mask>
                <path fill="#00F025" d="M8.763 19.218L2.619 15.66c.199-.457.409-.912.627-1.363l6.143 3.556c-.218.452-.427.907-.626 1.364" mask="url(#prefix__ah)"/>
            </g>
            <g>
                <mask id="prefix__aj" fill="#fff">
                    <use xlink:href="#prefix__ai"/>
                </mask>
                <path fill="#00F025" d="M9.39 17.854l-6.144-3.557c.217-.449.444-.896.68-1.337l6.143 3.557c-.235.442-.462.889-.68 1.337" mask="url(#prefix__aj)"/>
            </g>
            <g>
                <mask id="prefix__al" fill="#fff">
                    <use xlink:href="#prefix__ak"/>
                </mask>
                <path fill="#00F025" d="M10.07 16.517L3.926 12.96c.238-.446.486-.89.742-1.327l6.144 3.557c-.257.437-.504.88-.742 1.327" mask="url(#prefix__al)"/>
            </g>
            <g>
                <mask id="prefix__an" fill="#fff">
                    <use xlink:href="#prefix__am"/>
                </mask>
                <path fill="#00F025" d="M10.812 15.19l-6.144-3.557c.264-.45.537-.895.819-1.334l6.143 3.557c-.28.438-.554.884-.818 1.334" mask="url(#prefix__an)"/>
            </g>
            <g>
                <mask id="prefix__ap" fill="#fff">
                    <use xlink:href="#prefix__ao"/>
                </mask>
                <path fill="#00F025" d="M11.63 13.856l-6.143-3.557c.296-.462.603-.917.917-1.364l6.144 3.556c-.315.448-.621.903-.917 1.365" mask="url(#prefix__ap)"/>
            </g>
            <g>
                <mask id="prefix__ar" fill="#fff">
                    <use xlink:href="#prefix__aq"/>
                </mask>
                <path fill="#00F025" d="M12.548 12.492L6.405 8.934c.343-.486.695-.963 1.059-1.428l6.144 3.556c-.364.466-.716.944-1.06 1.43" mask="url(#prefix__ar)"/>
            </g>
            <g>
                <mask id="prefix__at" fill="#fff">
                    <use xlink:href="#prefix__as"/>
                </mask>
                <path fill="#00F025" d="M13.608 11.062L7.464 7.505c.417-.535.848-1.057 1.29-1.56L14.898 9.5c-.443.505-.873 1.026-1.29 1.562" mask="url(#prefix__at)"/>
            </g>
            <g>
                <mask id="prefix__av" fill="#fff">
                    <use xlink:href="#prefix__au"/>
                </mask>
                <path fill="#00F025" d="M14.898 9.5L8.754 5.944c.558-.637 1.134-1.247 1.727-1.828l6.144 3.558c-.593.58-1.17 1.19-1.727 1.826" mask="url(#prefix__av)"/>
            </g>
            <g>
                <mask id="prefix__ax" fill="#fff">
                    <use xlink:href="#prefix__aw"/>
                </mask>
                <path fill="#00F025" d="M16.624 7.673l-6.143-3.557c1.63-1.596 3.383-2.962 5.208-4.012l6.143 3.557c-1.825 1.05-3.577 2.417-5.208 4.012" mask="url(#prefix__ax)"/>
            </g>
        </g>
        <path fill="#0061E5" d="M21.833 6.491c7.741-4.453 14.21-1.734 15.539 5.954l3.901-2.244-6.711 17.262-6.783-9.5 4.407-2.535c-1.234-4.517-5.399-5.986-10.337-3.145-5.89 3.387-10.665 11.628-10.645 18.37.019 6.742 4.826 9.471 10.714 6.084l.018 5.791c-8.678 4.991-15.765.968-15.792-8.965-.029-9.94 7.012-22.082 15.689-27.072"/>
    </g>
</svg>
