<svg xmlns="http://www.w3.org/2000/svg" xmlns:xlink="http://www.w3.org/1999/xlink" width="24" height="24" viewBox="0 0 24 24">
    <defs>
        <path id="a" d="M12 2C6.477 2 2 6.477 2 12s4.477 10 10 10 10-4.477 10-10S17.523 2 12 2zm7.926 9.432h-2.828a11.293 11.293 0 0 0-2.973-7.09 7.946 7.946 0 0 1 5.8 7.09zm-8.494-7.049v7.049H8.04a10.198 10.198 0 0 1 3.392-7.049zm0 8.185v7.049a10.198 10.198 0 0 1-3.392-7.049h3.392zm1.136 7.049v-7.049h3.392a10.198 10.198 0 0 1-3.392 7.049zm0-8.185V4.383a10.198 10.198 0 0 1 3.392 7.049h-3.392zm-2.693-7.09a11.292 11.292 0 0 0-2.973 7.09H4.074a7.946 7.946 0 0 1 5.801-7.09zm-5.8 8.226h2.827a11.293 11.293 0 0 0 2.973 7.09 7.946 7.946 0 0 1-5.8-7.09zm10.05 7.09a11.293 11.293 0 0 0 2.973-7.09h2.828a7.946 7.946 0 0 1-5.801 7.09zM12 2.91A9.09 9.09 0 0 1 21.09 12 9.09 9.09 0 0 1 12 21.09 9.09 9.09 0 0 1 2.91 12 9.09 9.09 0 0 1 12 2.91z"/>
    </defs>
    <g fill="none" fill-rule="evenodd">
        <path d="M0 0h24v24H0z"/>
        <mask id="b" fill="#fff">
            <use xlink:href="#a"/>
        </mask>
        <use fill="#757575" fill-rule="nonzero" xlink:href="#a"/>
        <g fill="#9C9C9C" mask="url(#b)">
            <path d="M0 0h24v24H0z"/>
        </g>
    </g>
</svg>
