<?xml version="1.0" encoding="UTF-8"?>
<svg width="162px" height="137px" viewBox="0 0 162 137" version="1.1" xmlns="http://www.w3.org/2000/svg" xmlns:xlink="http://www.w3.org/1999/xlink">
    <!-- Generator: Sketch 58 (84663) - https://sketch.com -->
    <title>видный берег 2</title>
    <desc>Created with Sketch.</desc>
    <g id="(залито)Квартиры+-адаптив+" stroke="none" stroke-width="1" fill="none" fill-rule="evenodd">
        <g id="видный-берег-2" fill-rule="nonzero">
            <g id="Group" transform="translate(89.393822, 3.173745)" fill="#A1BA47">
                <path d="M68.2355212,71.5679537 C64.2683398,71.5679537 59.9837838,69.6637066 57.2861004,66.7015444 C53.7420849,62.8401544 52.4725869,58.1324324 51.2030888,53.5305019 C50.0393822,49.1930502 48.8756757,45.0671815 45.8606178,42.4752896 C43.0571429,40.0420849 37.9791506,39.4602317 32.5837838,38.8783784 C25.6015444,38.1378378 17.6142857,37.2915058 11.6899614,32.107722 C1.63976834,23.327027 0.423166023,11.7428571 0.634749035,0.528957529 L0.634749035,0.423166023 L4.23166023,0.476061776 L4.23166023,0.581853282 C4.02007722,12.5362934 5.60694981,22.0046332 14.0702703,29.3571429 C19.1482625,33.8003861 26.1833977,34.5409266 32.9540541,35.2814672 C38.9312741,35.9162162 44.5382239,36.5509653 48.2409266,39.7247104 C52.1023166,43.0571429 53.4247104,47.8706564 54.6942085,52.5783784 C55.8050193,56.7571429 57.0216216,61.0416988 59.930888,64.2683398 C61.9409266,66.4899614 65.2733591,67.9710425 68.1826255,67.9710425 C68.6057915,67.9710425 69.0289575,67.9181467 69.4521236,67.865251 L69.5579151,67.865251 L70.1397683,71.4621622 L70.0339768,71.4621622 C69.4521236,71.5150579 68.8173745,71.5679537 68.2355212,71.5679537 Z" id="Path"></path>
                <path d="M0.740540541,0.581853282 L4.07297297,0.634749035 C3.86138996,12.6420849 5.44826255,22.1104247 13.9644788,29.5158301 C19.0953668,33.9590734 26.1305019,34.7525097 32.9540541,35.4401544 C38.8783784,36.0749035 44.4853282,36.6567568 48.1351351,39.8305019 C51.9436293,43.1100386 53.2660232,47.9764479 54.5355212,52.6312741 C55.6992278,56.8100386 56.8629344,61.0945946 59.8250965,64.3741313 C61.8880309,66.6486486 65.2733591,68.1297297 68.1826255,68.1297297 C68.6057915,68.1297297 69.0289575,68.076834 69.4521236,68.0239382 L69.9810811,71.3563707 C69.3992278,71.4621622 68.8173745,71.5150579 68.1826255,71.5150579 C64.3212355,71.5150579 60.0366795,69.6637066 57.3389961,66.7015444 C53.8478764,62.8401544 52.5254826,58.1324324 51.3088803,53.5833977 C50.092278,49.1930502 48.9814672,45.0671815 45.9664093,42.4752896 C43.1100386,39.9891892 38.0320463,39.4602317 32.6366795,38.8783784 C25.6544402,38.1378378 17.7200772,37.2915058 11.7957529,32.107722 C1.74555985,23.2741313 0.528957529,11.7428571 0.740540541,0.581853282 M0.476061776,0.317374517 L0.476061776,0.581853282 C0.264478764,11.8486486 1.48108108,23.4328185 11.5841699,32.2135135 C17.56139,37.4501931 25.5486486,38.2965251 32.530888,39.0370656 C37.8733591,39.6189189 42.9513514,40.1478764 45.7548263,42.5810811 C48.7169884,45.172973 49.8277992,49.2459459 51.0444015,53.5833977 C52.3138996,58.1853282 53.5833977,62.8930502 57.1274131,66.8073359 C59.8779923,69.7694981 64.215444,71.7266409 68.1826255,71.7266409 C68.8173745,71.7266409 69.4521236,71.6737452 70.0339768,71.5679537 L70.2984556,71.5150579 L70.2455598,71.2505792 L69.7166023,67.9181467 L69.6637066,67.653668 L69.3992278,67.7065637 C69.0289575,67.7594595 68.6057915,67.8123552 68.1826255,67.8123552 C65.2733591,67.8123552 61.9938224,66.3312741 59.9837838,64.1625483 C57.0745174,60.9888031 55.9108108,56.7042471 54.7471042,52.5783784 C53.4776062,47.8706564 52.1552124,43.0042471 48.2409266,39.6718147 C44.5382239,36.4451737 38.8783784,35.8633205 32.9011583,35.1756757 C26.1305019,34.4351351 19.1482625,33.6945946 14.0702703,29.3042471 C5.65984556,22.0046332 4.07297297,12.5362934 4.28455598,0.634749035 L4.28455598,0.37027027 L4.02007722,0.37027027 L0.687644788,0.317374517 L0.476061776,0.317374517 L0.476061776,0.317374517 Z" id="Shape"></path>
            </g>
            <g id="Group" transform="translate(119.015444, 2.115830)" fill="#A1BA47">
                <path d="M38.2965251,35.6517375 L38.2965251,35.5459459 C38.3494208,30.3092664 33.4301158,26.1833977 28.8281853,24.0675676 C26.7123552,23.115444 24.3849421,22.3220077 22.1104247,21.5814672 C18.7250965,20.4706564 15.2868726,19.3069498 12.1131274,17.4027027 C6.45328185,14.0173745 2.22162162,8.25173745 0.476061776,1.58687259 L0.423166023,1.48108108 L3.91428571,0.581853282 L3.96718147,0.687644788 C5.5011583,6.45328185 9.15096525,11.4254826 13.9644788,14.334749 C16.7679537,16.0274131 19.9416988,17.0853282 23.2741313,18.1432432 C25.6015444,18.9366795 28.034749,19.7301158 30.3621622,20.7880309 C36.0220077,23.327027 41.9992278,28.5637066 41.9466806,35.5988417 L41.9466806,35.7046332 L38.2965251,35.6517375 Z" id="Path"></path>
                <path d="M3.86138996,0.687644788 C5.3953668,6.50617761 9.04517375,11.4783784 13.911583,14.3876448 C16.7679537,16.0803089 19.8888031,17.1382239 23.2212355,18.2490347 C25.5486486,19.042471 27.9818533,19.8359073 30.2563707,20.8938224 C35.8633205,23.4328185 41.8405405,28.6166023 41.7879933,35.5459459 L38.4552124,35.5459459 C38.5081081,30.2034749 33.5359073,26.0776062 28.9339768,23.9617761 C26.765251,23.0096525 24.4907336,22.2162162 22.2162162,21.4756757 C18.8837838,20.3648649 15.3926641,19.2011583 12.2189189,17.3498069 C6.61196911,13.9644788 2.38030888,8.25173745 0.634749035,1.58687259 L3.86138996,0.687644788 M4.07297297,0.37027027 L3.80849421,0.423166023 L0.581853282,1.26949807 L0.317374517,1.32239382 L0.37027027,1.58687259 C2.11583012,8.3046332 6.4003861,14.123166 12.0602317,17.5084942 C15.2339768,19.4127413 18.7250965,20.5764479 22.057529,21.6872587 C24.3320463,22.4277992 26.6065637,23.2212355 28.7752896,24.1733591 C33.3243243,26.2362934 38.1907336,30.3092664 38.1907336,35.4930502 L38.1907336,35.757529 L38.4552124,35.757529 L41.7876448,35.757529 L42.0524691,35.757529 L42.0524691,35.4930502 C42.1050193,28.4579151 36.0749035,23.1683398 30.3621622,20.5764479 C28.034749,19.5185328 25.6015444,18.7250965 23.2741313,17.9316602 C19.9416988,16.8208494 16.8208494,15.8158301 14.0173745,14.123166 C9.203861,11.2667954 5.55405405,6.29459459 4.07297297,0.581853282 L4.07297297,0.37027027 L4.07297297,0.37027027 Z" id="Shape"></path>
            </g>
            <g id="Group" transform="translate(66.119691, 21.687259)" fill="#A1BA47">
                <path d="M70.5100386,73.5250965 C69.6637066,70.8803089 69.0818533,68.3413127 68.5,65.9081081 C66.5957529,57.8150579 64.9559846,50.8328185 55.5934363,43.9034749 C51.8378378,41.1528958 46.6011583,40.1478764 41.0471042,39.0370656 C35.7046332,38.0320463 30.2034749,36.9212355 25.1254826,34.2235521 C11.6370656,27.0826255 2.59189189,8.99227799 0.37027027,1.32239382 L0.317374517,1.21660232 L3.80849421,0.211583012 L3.86138996,0.317374517 C5.87142857,7.19382239 14.4405405,24.4907336 26.8181467,31.0498069 C31.4200772,33.4830116 36.6567568,34.4880309 41.734749,35.4930502 C47.7119691,36.6567568 53.3189189,37.7146718 57.7092664,40.9942085 C68.1297297,48.7169884 69.9810811,56.5984556 71.9911197,65.0088803 C72.572973,67.3891892 73.1548263,69.8752896 73.9482625,72.4142857 L74.0011583,72.5200772 L70.5629344,73.630888 L70.5100386,73.5250965 Z" id="Path"></path>
                <path d="M3.7027027,0.423166023 C5.71274131,7.2996139 14.334749,24.6494208 26.7123552,31.2084942 C31.3142857,33.6416988 36.603861,34.6996139 41.6818533,35.6517375 C47.6061776,36.815444 53.2660232,37.8733591 57.6034749,41.1 C67.9710425,48.7698842 69.8752896,56.6513514 71.8324324,65.0617761 C72.4142857,67.4420849 72.996139,69.9281853 73.7895753,72.4671815 L70.5629344,73.4722008 C69.7166023,70.8274131 69.134749,68.288417 68.5528958,65.8023166 C66.6486486,57.7092664 65.0088803,50.727027 55.5934363,43.7976834 C51.8378378,40.9942085 46.5482625,39.9891892 40.9942085,38.9312741 C35.6517375,37.9262548 30.1505792,36.815444 25.0725869,34.1706564 C11.5841699,27.0297297 2.64478764,8.99227799 0.37027027,1.37528958 L3.7027027,0.423166023 M3.91428571,0.105791506 L3.64980695,0.158687259 L0.423166023,1.11081081 L0.158687259,1.16370656 L0.211583012,1.42818533 C2.43320463,9.0980695 11.4783784,27.2413127 25.0196911,34.3822394 C30.1505792,37.0799228 35.6517375,38.1378378 40.9942085,39.1957529 C46.5482625,40.253668 51.7320463,41.2586873 55.4876448,44.0092664 C64.7972973,50.8857143 66.4370656,57.8150579 68.3413127,65.8552124 L68.3413127,65.9081081 C68.923166,68.3413127 69.5050193,70.8803089 70.3513514,73.5250965 L70.4571429,73.7895753 L70.7216216,73.6837838 L73.9482625,72.6787645 L74.2127413,72.572973 L74.1069498,72.3084942 C73.3135135,69.7694981 72.7316602,67.2833977 72.1498069,64.9030888 C70.1397683,56.4926641 68.288417,48.5583012 57.8150579,40.7826255 C53.3718147,37.5030888 47.7648649,36.4451737 41.7876448,35.2814672 C36.7096525,34.2764479 31.472973,33.2714286 26.8710425,30.8382239 C14.546332,24.3320463 5.97722008,7.08803089 3.96718147,0.211583012 L3.91428571,0.105791506 L3.91428571,0.105791506 Z" id="Shape"></path>
            </g>
            <path d="M11.5841699,45.2258687 L14.7579151,45.2258687 C14.7579151,46.3895753 15.2868726,47.2888031 16.7150579,47.2888031 C18.1432432,47.2888031 18.6722008,46.3366795 18.6722008,45.2258687 L21.8459459,45.2258687 C21.9517375,48.0293436 20.1003861,50.092278 16.7150579,50.092278 C13.276834,50.092278 11.4783784,48.0293436 11.5841699,45.2258687 Z" id="Path" fill="#EAB54A"></path>
            <path d="M30.4150579,45.2258687 L33.5888031,45.2258687 C33.5888031,46.3895753 34.1177606,47.2888031 35.5459459,47.2888031 C36.9741313,47.2888031 37.5030888,46.3366795 37.5030888,45.2258687 L40.676834,45.2258687 C40.7826255,48.0293436 38.9312741,50.092278 35.5459459,50.092278 C32.107722,50.092278 30.3092664,48.0293436 30.4150579,45.2258687 Z" id="Path" fill="#EAB54A"></path>
            <path d="M49.3517375,45.2258687 L52.5254826,45.2258687 C52.5254826,46.3895753 53.0544402,47.2888031 54.4826255,47.2888031 C55.9108108,47.2888031 56.4397683,46.3366795 56.4397683,45.2258687 L59.6135135,45.2258687 C59.719305,48.0293436 57.8679537,50.092278 54.4826255,50.092278 C51.0972973,50.092278 49.2459459,48.0293436 49.3517375,45.2258687 Z" id="Path" fill="#EAB54A"></path>
            <path d="M11.5841699,57.2861004 L14.7579151,57.2861004 C14.7579151,58.4498069 15.2868726,59.3490347 16.7150579,59.3490347 C18.1432432,59.3490347 18.6722008,58.3969112 18.6722008,57.2861004 L21.8459459,57.2861004 C21.9517375,60.0895753 20.1003861,62.1525097 16.7150579,62.1525097 C13.276834,62.0996139 11.4783784,60.0895753 11.5841699,57.2861004 Z" id="Path" fill="#EAB54A"></path>
            <path d="M30.4150579,57.2861004 L33.5888031,57.2861004 C33.5888031,58.4498069 34.1177606,59.3490347 35.5459459,59.3490347 C36.9741313,59.3490347 37.5030888,58.3969112 37.5030888,57.2861004 L40.676834,57.2861004 C40.7826255,60.0895753 38.9312741,62.1525097 35.5459459,62.1525097 C32.107722,62.0996139 30.3092664,60.0895753 30.4150579,57.2861004 Z" id="Path" fill="#EAB54A"></path>
            <path d="M49.3517375,57.2861004 L52.5254826,57.2861004 C52.5254826,58.4498069 53.0544402,59.3490347 54.4826255,59.3490347 C55.9108108,59.3490347 56.4397683,58.3969112 56.4397683,57.2861004 L59.6135135,57.2861004 C59.719305,60.0895753 57.8679537,62.1525097 54.4826255,62.1525097 C51.0972973,62.0996139 49.2459459,60.0895753 49.3517375,57.2861004 Z" id="Path" fill="#EAB54A"></path>
            <path d="M11.5841699,69.2934363 L14.7579151,69.2934363 C14.7579151,70.4571429 15.2868726,71.3563707 16.7150579,71.3563707 C18.1432432,71.3563707 18.6722008,70.4042471 18.6722008,69.2934363 L21.8459459,69.2934363 C21.9517375,72.0969112 20.1003861,74.1598456 16.7150579,74.1598456 C13.276834,74.1598456 11.4783784,72.0969112 11.5841699,69.2934363 Z" id="Path" fill="#EAB54A"></path>
            <path d="M30.4150579,69.2934363 L33.5888031,69.2934363 C33.5888031,70.4571429 34.1177606,71.3563707 35.5459459,71.3563707 C36.9741313,71.3563707 37.5030888,70.4042471 37.5030888,69.2934363 L40.676834,69.2934363 C40.7826255,72.0969112 38.9312741,74.1598456 35.5459459,74.1598456 C32.107722,74.1598456 30.3092664,72.0969112 30.4150579,69.2934363 Z" id="Path" fill="#EAB54A"></path>
            <path d="M49.3517375,69.2934363 L52.5254826,69.2934363 C52.5254826,70.4571429 53.0544402,71.3563707 54.4826255,71.3563707 C55.9108108,71.3563707 56.4397683,70.4042471 56.4397683,69.2934363 L59.6135135,69.2934363 C59.719305,72.0969112 57.8679537,74.1598456 54.4826255,74.1598456 C51.0972973,74.1598456 49.2459459,72.0969112 49.3517375,69.2934363 Z" id="Path" fill="#EAB54A"></path>
            <path d="M11.5841699,81.3007722 L14.7579151,81.3007722 C14.7579151,82.4644788 15.2868726,83.3637066 16.7150579,83.3637066 C18.1432432,83.3637066 18.6722008,82.411583 18.6722008,81.3007722 L21.8459459,81.3007722 C21.9517375,84.1042471 20.1003861,86.1671815 16.7150579,86.1671815 C13.276834,86.1671815 11.4783784,84.1042471 11.5841699,81.3007722 Z" id="Path" fill="#EAB54A"></path>
            <path d="M30.4150579,81.3007722 L33.5888031,81.3007722 C33.5888031,82.4644788 34.1177606,83.3637066 35.5459459,83.3637066 C36.9741313,83.3637066 37.5030888,82.411583 37.5030888,81.3007722 L40.676834,81.3007722 C40.7826255,84.1042471 38.9312741,86.1671815 35.5459459,86.1671815 C32.107722,86.1671815 30.3092664,84.1042471 30.4150579,81.3007722 Z" id="Path" fill="#EAB54A"></path>
            <path d="M49.3517375,81.3007722 L52.5254826,81.3007722 C52.5254826,82.4644788 53.0544402,83.3637066 54.4826255,83.3637066 C55.9108108,83.3637066 56.4397683,82.411583 56.4397683,81.3007722 L59.6135135,81.3007722 C59.719305,84.1042471 57.8679537,86.1671815 54.4826255,86.1671815 C51.0972973,86.1671815 49.2459459,84.1042471 49.3517375,81.3007722 Z" id="Path" fill="#EAB54A"></path>
            <path d="M65.3262548,0.687644788 L65.3262548,33.9061776 L0.105791506,33.9061776 L0.105791506,97.3281853 L56.3339768,97.3281853 L56.3339768,136.947104 L110.710811,136.947104 L110.710811,97.3281853 L162.019691,97.3281853 L162.019691,0.687644788 L65.3262548,0.687644788 Z M5.71274131,91.7212355 L5.71274131,39.5660232 L65.3262548,39.5660232 L65.3262548,91.7212355 L5.71274131,91.7212355 Z M61.9938224,131.287259 L61.9938224,97.3281853 L105.050965,97.3281853 L105.050965,131.287259 L61.9938224,131.287259 Z M70.9861004,51.7320463 L70.9861004,6.29459459 L156.359846,6.29459459 L156.359846,91.6683398 L110.710811,91.6683398 L110.710811,51.7320463 L70.9861004,51.7320463 Z" id="Shape" fill="#020608"></path>
            <circle id="Oval" fill="#D45A42" cx="70.6687259" cy="105.844402" r="2.90926641"></circle>
            <circle id="Oval" fill="#D45A42" cx="83.5223938" cy="105.844402" r="2.90926641"></circle>
            <circle id="Oval" fill="#D45A42" cx="96.3760618" cy="105.844402" r="2.90926641"></circle>
            <circle id="Oval" fill="#D45A42" cx="70.6687259" cy="122.506564" r="2.90926641"></circle>
            <circle id="Oval" fill="#D45A42" cx="83.5223938" cy="122.506564" r="2.90926641"></circle>
            <circle id="Oval" fill="#D45A42" cx="96.3760618" cy="122.506564" r="2.90926641"></circle>
            <rect id="Rectangle" fill="#BDD52F" x="71.0389961" y="57.3918919" width="34.0119691" height="34.2764479"></rect>
        </g>
    </g>
</svg>