<svg xmlns="http://www.w3.org/2000/svg" xmlns:xlink="http://www.w3.org/1999/xlink" width="24" height="24" viewBox="0 0 24 24">
    <defs>
        <path id="a" d="M6.74 8.76l6.631 13.382c.099.19.295.315.516.315.05 0 .11-.013.172-.025a.532.532 0 0 0 .369-.619l-2.42-8.976 4.986.054c.05.013.099.013.148.013a.59.59 0 0 0 .38-.14.502.502 0 0 0 .16-.491L15.214 1.86a.548.548 0 0 0-.541-.404h-4.029a.542.542 0 0 0-.552.53c0 .075.025.152.062.227l2.1 5.843L7.39 8.04c-.049-.012-.098-.025-.147-.025a.587.587 0 0 0-.418.19.51.51 0 0 0-.085.555"/>
        <path id="c" d="M0 0h24v24H0z"/>
    </defs>
    <g fill="none" fill-rule="evenodd">
        <path d="M0 0h24v24H0z"/>
        <mask id="b" fill="#fff">
            <use xlink:href="#a"/>
        </mask>
        <use fill="#FFF" fill-rule="nonzero" transform="matrix(-1 0 0 1 24.387 0)" xlink:href="#a"/>
    </g>
</svg>
