<svg xmlns="http://www.w3.org/2000/svg" xmlns:xlink="http://www.w3.org/1999/xlink" width="14" height="18" viewBox="0 0 14 18">
    <defs>
        <path id="a" d="M0 0h13.339v18H0z"/>
    </defs>
    <g fill="none" fill-rule="evenodd">
        <mask id="b" fill="#fff">
            <use xlink:href="#a"/>
        </mask>
        <path fill="#898989" d="M6.67 15.316c1.698 0 3.076-1.722 3.076-3.696 0-2.05-1.378-3.695-3.077-3.695-1.698 0-3.076 1.646-3.076 3.695 0 1.975 1.378 3.696 3.076 3.696zM3.592 0v7.14c1.28-1.444 2.904-1.9 4.036-1.9 3.176 0 5.71 2.938 5.71 6.38 0 3.469-2.56 6.38-5.71 6.38-1.132 0-2.756-.456-4.036-1.899v1.62H0V0h3.593z" mask="url(#b)"/>
        <path fill="#898989" d="M7.875 3.398h5.03V0h-5.03z" mask="url(#b)"/>
    </g>
</svg>
