<svg xmlns="http://www.w3.org/2000/svg" width="22" height="14" viewBox="0 0 22 14">
    <path fill="#FFF" fill-rule="nonzero" d="M20.864 12.914h-2.688c-1.71 0-2.077-.594-3.543-2.02-1.344-1.308-1.588-.595-1.588 1.307 0 .475-.245.95-.856.95-1.832 0-3.91.595-6.597-2.376C2.659 7.566.216 1.862.094 1.267c-.245-.713 0-.95.61-.95h2.81c.856 0 .856.475 1.1.95.978 2.258 3.543 7.487 4.154 4.992.367-1.426.367-4.754-1.221-5.11C6.447.91 8.768-.515 11.823.198c1.1.237 1.1.832 1.1 1.545 0 2.852-.367 4.635.366 5.11.733.475 2.444-3.09 3.421-5.467.244-.713.367-1.07 1.1-1.07h3.054c2.077 0 0 3.09-1.833 5.348-1.466 1.902-1.344 1.902.245 3.566 2.077 1.664 4.032 3.684 1.588 3.684z"/>
</svg>
