<svg xmlns="http://www.w3.org/2000/svg" width="122" height="30" viewBox="0 0 122 30">
    <g fill="none" fill-rule="nonzero">
        <path fill="#FFF" d="M118.6 9.5c-2.2-2.1-5.1-3.2-8.2-3.2H93.2v22.9h17.2c3.1 0 6.1-1.1 8.2-3.2 2.2-2.1 3.4-5 3.4-8.2.1-3.3-1.2-6.2-3.4-8.3zm-8.2 14.6h-12V11.2h12c3.9 0 6.4 2.5 6.4 6.5s-2.5 6.4-6.4 6.4zM67.4 15.1c0-5.3-4.1-8.9-10.3-8.9H38.5v22.9h5.2V11.2h13.5c2.3 0 4.9 1 4.9 3.9 0 2.5-1.8 4-4.9 4h-4.9v2.5l7.2 7.5h6.4L59.6 23c5.7-.7 7.8-4.6 7.8-7.9zM72.6 29.1h14.7v-4.6h-9.8v-4.9h6.2v-4.3h-6.2v-4.5h9.8V6.2H72.6zM9.2 30C4.1 30 0 25.9 0 20.8h4.6c0 2.6 2.1 4.7 4.7 4.7s4.7-2.1 4.7-4.7c0-2.4-1.7-4.1-3.5-4.7-1.5-.5-3.5-.5-3.5-.5v-2.7l7.8-7.1 3.1 3.4-5 3.5c3.8 1.1 5.7 4.7 5.7 8.1-.2 5.1-4.3 9.2-9.4 9.2z"/>
        <path fill="#E52628" d="M4.5 4.5h4.4V0H0v8.9h4.5z"/>
        <path fill="#FFF" d="M23.5 15.8h9v5h-9z"/>
    </g>
</svg>
