<svg width="28px" height="28px" viewBox="0 0 28 28" version="1.1" xmlns="http://www.w3.org/2000/svg" xmlns:xlink="http://www.w3.org/1999/xlink">
    <g stroke="none" stroke-width="1" fill="none" fill-rule="evenodd">
        <g transform="translate(-196.000000, -310.000000)" fill="#D45A42" fill-rule="nonzero">
            <g>
                <g transform="translate(196.000000, 134.000000)">
                    <g transform="translate(0.000000, 176.000000)">
                        <g>
                            <g>
                                <path d="M22.0335473,17.3054874 C21.4622593,16.7064049 20.7731799,16.3861033 20.0428736,16.3861033 C19.3184568,16.3861033 18.6234879,16.7004734 18.0286416,17.2995559 L16.1675384,19.1679815 C16.0144096,19.0849404 15.8612809,19.0078308 15.7140417,18.9307211 C15.5020173,18.823954 15.301772,18.7231183 15.1309746,18.6163511 C13.3876627,17.5012272 11.8033691,16.0480072 10.2838608,14.1677186 C9.54766485,13.23054 9.05294121,12.4416491 8.69367761,11.6408953 C9.17662212,11.196032 9.62422923,10.7333742 10.0600572,10.288511 C10.2249651,10.1224287 10.389873,9.95041491 10.5547808,9.78433263 C11.79159,8.53871552 11.79159,6.92534479 10.5547808,5.67972768 L8.946929,4.06042543 C8.76435242,3.87654862 8.57588626,3.6867403 8.39919925,3.49693198 C8.04582522,3.12917835 7.67478248,2.74956171 7.29196062,2.39367111 C6.7206726,1.82424614 6.0374828,1.52173913 5.31895561,1.52173913 C4.60042841,1.52173913 3.90545948,1.82424614 3.31650276,2.39367111 C3.31061319,2.39960262 3.31061319,2.39960262 3.30472363,2.40553413 L1.30227078,4.44004208 C0.548406178,5.19927536 0.118467773,6.12459093 0.0242346978,7.19819425 C-0.117114915,8.93019518 0.389387864,10.5435659 0.778099299,11.5993747 C1.73220918,14.1914446 3.15748445,16.5937062 5.2836182,19.1679815 C7.86324863,22.2701613 10.9670505,24.7198749 14.51257,26.4459444 C15.8671705,27.092479 17.6752676,27.8576438 19.6953891,27.988137 C19.81907,27.9940685 19.9486405,28 20.0664319,28 C21.4269219,28 22.5694979,27.5076847 23.4647121,26.5289855 C23.4706017,26.5171225 23.4823808,26.511191 23.4882704,26.499328 C23.7945279,26.1256428 24.1479019,25.7875468 24.5189447,25.4257246 C24.7721961,25.1825327 25.031337,24.9274778 25.2845884,24.6605598 C25.8676555,24.0496143 26.173913,23.3378331 26.173913,22.6082574 C26.173913,21.8727501 25.861766,21.1669004 25.2669197,20.5737494 L22.0335473,17.3054874 Z M24.1420124,23.5513675 C24.1361228,23.5513675 24.1361228,23.557299 24.1420124,23.5513675 C23.9123192,23.8004909 23.6767366,24.0258883 23.4234852,24.2750117 C23.0406633,24.6427653 22.6519519,25.0283135 22.2867987,25.4613137 C21.6919524,26.1019168 20.9910939,26.4044238 20.0723214,26.4044238 C19.9839779,26.4044238 19.8897448,26.4044238 19.8014013,26.3984923 C18.0521999,26.2857936 16.4266793,25.5977384 15.2075389,25.0105189 C11.8740439,23.3852852 8.946929,21.0779278 6.51453775,18.1536933 C4.50619533,15.7158427 3.16337401,13.4618689 2.27404937,11.0418128 C1.72631962,9.56486676 1.52607433,8.41415381 1.61441784,7.32868747 C1.67331351,6.63470079 1.93834404,6.05934432 2.42717811,5.56702899 L4.43552053,3.54438406 C4.72410932,3.2715346 5.03036681,3.12324684 5.33073474,3.12324684 C5.70177747,3.12324684 6.0021454,3.34864423 6.19061155,3.53845255 C6.19650112,3.54438406 6.20239069,3.55031557 6.20828025,3.55624708 C6.56754385,3.89434315 6.90913875,4.24430224 7.26840235,4.61798738 C7.45097893,4.8077957 7.63944508,4.99760402 7.82791123,5.19334385 L9.43576308,6.8126461 C10.0600572,7.44138616 10.0600572,8.02267415 9.43576308,8.65141421 C9.26496563,8.823428 9.10005775,8.9954418 8.9292603,9.16152408 C8.43453665,9.67163394 7.96337128,10.1461547 7.45097893,10.6088125 C7.4391998,10.6206755 7.42742066,10.6266071 7.42153109,10.6384701 C6.91502832,11.1485799 7.00926139,11.6468268 7.1152736,11.9849229 C7.12116317,12.0027174 7.12705273,12.0205119 7.1329423,12.0383065 C7.55110157,13.0585262 8.14005829,14.0194308 9.03527251,15.1642122 L9.04116207,15.1701438 C10.6666826,17.1868572 12.3805467,18.7587073 14.2710977,19.9628039 C14.51257,20.1170231 14.7599318,20.2415849 14.9955145,20.3602151 C15.2075389,20.4669822 15.4077842,20.5678179 15.5785817,20.6745851 C15.6021399,20.6864481 15.6256982,20.7042426 15.6492565,20.7161057 C15.8495018,20.8169413 16.0379679,20.8643934 16.2323236,20.8643934 C16.7211577,20.8643934 17.0274152,20.5559549 17.1275378,20.4551192 L19.1417698,18.4265428 C19.3420151,18.2248714 19.6600517,17.9816795 20.0310945,17.9816795 C20.3962476,17.9816795 20.6966156,18.2130084 20.8791921,18.4146798 C20.8850817,18.4206113 20.8850817,18.4206113 20.8909713,18.4265428 L24.1361228,21.6948048 C24.7427482,22.2998188 24.7427482,22.9226274 24.1420124,23.5513675 Z" id="Shape"></path>
                                <path d="M14.9675148,6.77229715 C16.5311053,7.03490716 17.9514662,7.77498994 19.0853677,8.90898775 C20.2192692,10.0429856 20.9533213,11.463467 21.2218769,13.0271903 C21.2875238,13.4211053 21.6276943,13.6956522 22.015608,13.6956522 C22.0633512,13.6956522 22.1051265,13.6896838 22.1528697,13.6837154 C22.5944945,13.6120944 22.8869218,13.1943058 22.8153069,12.7526435 C22.4930402,10.8606577 21.5978548,9.13578731 20.231205,7.76902153 C18.8645553,6.40225576 17.1398314,5.50699433 15.2480062,5.18470022 C14.8063814,5.1130793 14.3945962,5.40553137 14.3170134,5.84122526 C14.2394307,6.27691916 14.52589,6.70067623 14.9675148,6.77229715 Z" id="Path"></path>
                                <path d="M27.9877334,12.4612111 C27.4572938,9.34897608 25.9911346,6.51696143 23.738256,4.26327399 C21.4853773,2.00958655 18.654379,0.542901071 15.5432609,0.0122709591 C15.1081811,-0.0652368101 14.6969414,0.232869994 14.6194614,0.668105929 C14.5479414,1.109304 14.8399813,1.52069139 15.281021,1.59819916 C18.0583794,2.06920791 20.5913778,3.38683999 22.6058566,5.39607985 C24.6203354,7.41128185 25.9315347,9.94518969 26.4023744,12.7235451 C26.4679343,13.1170461 26.8076541,13.3913043 27.1950539,13.3913043 C27.2427339,13.3913043 27.2844539,13.3853422 27.3321338,13.3793801 C27.7672136,13.3137966 28.0652134,12.8964471 27.9877334,12.4612111 Z" id="Path"></path>
                            </g>
                        </g>
                    </g>
                </g>
            </g>
        </g>
    </g>
</svg>