<svg xmlns="http://www.w3.org/2000/svg" width="24" height="24" viewBox="0 0 24 24">
    <g fill="none" fill-rule="evenodd">
        <path d="M0 0h24v24H0z"/>
        <path fill="#9C9C9C" d="M22 6a2 2 0 0 0-2-2H4a2 2 0 0 0-2 2v12a2 2 0 0 0 2 2h16a2 2 0 0 0 2-2V6zM9.5 7a1.5 1.5 0 1 1 0 3 1.5 1.5 0 0 1 0-3zm9.5 9.5a.5.5 0 0 1-.5.5h-13a.5.5 0 0 1-.5-.5v-.34a.46.46 0 0 1 .11-.3L8 12.19a.52.52 0 0 1 .35-.19.5.5 0 0 1 .39.18l1.45 1.75a.49.49 0 0 0 .38.18.51.51 0 0 0 .4-.2l2.88-3.72a.51.51 0 0 1 .8 0l4.25 5.67a.51.51 0 0 1 .1.3v.34z"/>
    </g>
</svg>
