<svg xmlns="http://www.w3.org/2000/svg" width="24" height="24" viewBox="0 0 24 24">
    <g fill="none" fill-rule="evenodd">
        <path d="M0 0h24v24H0z"/>
        <path fill="#9C9C9C" d="M20 7.75C20 6.784 19.194 6 18.2 6H3.8C2.806 6 2 6.784 2 7.75v10.5c0 .966.806 1.75 1.8 1.75h14.4c.994 0 1.8-.784 1.8-1.75V7.75zm-11.25.875c.746 0 1.35.588 1.35 1.313 0 .724-.604 1.312-1.35 1.312-.746 0-1.35-.588-1.35-1.313 0-.724.604-1.312 1.35-1.312zm8.55 8.313a.444.444 0 0 1-.45.437H5.15a.444.444 0 0 1-.45-.438v-.297c0-.096.035-.19.099-.263l2.601-3.21A.472.472 0 0 1 7.715 13a.455.455 0 0 1 .351.157l1.305 1.532c.084.1.21.157.342.157a.464.464 0 0 0 .36-.175l2.592-3.255a.464.464 0 0 1 .36-.17c.14 0 .273.063.36.17l3.825 4.961c.058.077.09.168.09.263v.297z"/>
        <path stroke="#979797" d="M3.997 4.515H18.51a3 3 0 0 1 3 3V19"/>
    </g>
</svg>
