<?xml version="1.0" encoding="UTF-8"?>
<svg width="60px" height="70px" viewBox="0 0 60 70" version="1.1" xmlns="http://www.w3.org/2000/svg" xmlns:xlink="http://www.w3.org/1999/xlink">
    <!-- Generator: Sketch 57.1 (83088) - https://sketch.com -->
    <title>Group 27</title>
    <desc>Created with Sketch.</desc>
    <g id="Расположение+-адаптив+" stroke="none" stroke-width="1" fill="none" fill-rule="evenodd">
        <g id="Видный-берег_расположение_инфраструктура_1600" transform="translate(-731.000000, -1029.000000)">
            <g id="Group-27" transform="translate(761.000000, 1064.000000) rotate(-270.000000) translate(-761.000000, -1064.000000) translate(726.000000, 1034.000000)">
                <polygon id="Rectangle" fill="#FFFFFF" points="0 15.2264151 29.53125 15.2264151 29.53125 1 70 1 70 41.490566 47 41 47 58.509434 25.15625 59 25.15625 41.490566 1.09375 41.490566"></polygon>
                <circle id="Oval" fill="#D45A42" fill-rule="nonzero" cx="30" cy="50" r="2"></circle>
                <circle id="Oval" fill="#D45A42" fill-rule="nonzero" cx="36" cy="50" r="2"></circle>
                <circle id="Oval" fill="#D45A42" fill-rule="nonzero" cx="42" cy="50" r="2"></circle>
                <path d="M9.00835688,21 L13.0057433,21 C12.9473593,21.9073719 13.4098959,22.7713127 14.2062061,23.2422633 C15.0025163,23.7132139 16.0007804,23.7132139 16.7970906,23.2422633 C17.5934008,22.7713127 18.0559374,21.9073719 17.9975534,21 L21.9949398,21 C22.1229349,24.4615385 19.8190226,27 15.5065712,27 C11.1941199,27 8.84097863,24.4711538 9.00835688,21 Z" id="Path" fill="#EAB54A" fill-rule="nonzero"></path>
                <path d="M9.00835688,30 L13.0057433,30 C12.9473593,30.9073719 13.4098959,31.7713127 14.2062061,32.2422633 C15.0025163,32.7132139 16.0007804,32.7132139 16.7970906,32.2422633 C17.5934008,31.7713127 18.0559374,30.9073719 17.9975534,30 L21.9949398,30 C22.1229349,33.4615385 19.8190226,36 15.5065712,36 C11.1941199,36 8.84097863,33.4711538 9.00835688,30 Z" id="Path" fill="#EAB54A" fill-rule="nonzero"></path>
                <g id="Group-25" fill-rule="nonzero">
                    <path d="M66.2931576,40.7991605 C65.8516301,39.4533184 65.5338953,38.1708101 65.2244133,36.9278853 C64.2093126,32.8151503 63.3262574,29.2803357 58.3745465,25.7732296 C56.3979885,24.3719705 53.6250303,23.8573838 50.6870151,23.3150886 C47.856287,22.7925852 44.9306511,22.25029 42.2278422,20.8767394 C35.0561141,17.2350491 30.2859658,8.02790598 29.0975552,4.13683905 L29.0769231,4.04183843 L30.1538462,1.09090909 L32.218096,2.34850708 C33.2868403,5.83977976 38.3226139,15.1539032 44.8671253,18.4749664 C47.305843,19.7139328 50.0829276,20.2285195 52.7692308,20.7272727 C55.9341994,21.3131099 58.9258581,21.8672801 61.2614151,23.5258326 C66.7908257,27.4485664 67.7852944,31.4821342 68.8416594,35.7532036 C69.138762,36.9644615 67.7456595,38.9387317 68.1748078,40.2291568 L69.9104037,39.604687 L66.3137897,40.8981195 L66.2931576,40.7991605 Z" id="Path" fill="#A1BA47"></path>
                    <path d="M67.3014656,21.7666547 C67.0523988,21.0658863 66.8731638,20.3980952 66.6985842,19.750915 C66.1259633,17.6094492 65.6278296,15.7689015 62.8345568,13.9427815 C61.7195754,13.2131579 60.1553426,12.945217 58.4980006,12.6628486 C56.9011797,12.3907856 55.2508209,12.1084171 53.7261595,11.3932211 C49.6805693,9.49702422 46.9897164,4.70294383 46.3193309,2.67689867 L46.3076923,2.62743267 L46.9151874,1.09090909 L48.7376726,1.09090909 C49.340554,2.9087848 52.1812468,7.75856893 55.8730225,9.48781804 C57.2487094,10.1329372 58.8152699,10.4008781 60.3306204,10.6605746 C62.1159873,10.965615 63.8035897,11.2541667 65.1210834,12.1177607 C68.2402381,14.1602945 68.8012204,16.2605387 69.3971186,18.4844478 C69.564715,19.1151394 68.1208257,20.7979454 68.3629093,21.4698587 L70,20.4898822 L67.3131043,21.8181818 L67.3014656,21.7666547 Z" id="Path-Copy" fill="#A1BA47"></path>
                    <path d="M28.2140796,0 L28.2140796,14.6288783 L0,14.6288783 L0,42.5598537 L24.3128486,42.5598537 L24.3128486,60 L47.8077515,60 L47.8077515,42.5598537 L70,42.5598537 L70,0 L28.2140796,0 Z M2.44373918,40.0777098 L2.44373918,17.1075939 L28.2140796,17.1075939 L28.2140796,40.0777098 L2.44373918,40.0777098 Z M26.7565878,57.5178561 L26.7565878,42.5598537 L45.3673783,42.5598537 L45.3673783,57.5144277 L26.7565878,57.5178561 Z M30.6679169,22.4764299 L30.6679169,2.48557225 L67.5596269,2.48557225 L67.5596269,40.0777098 L47.8346797,40.0777098 L47.8346797,22.4764299 L30.6679169,22.4764299 Z" id="Shape" fill="#020608"></path>
                    <rect id="Rectangle" fill="#A1BA47" x="30.1538462" y="25.0909091" width="15.0769231" height="15.2727273"></rect>
                </g>
            </g>
        </g>
    </g>
</svg>