<?xml version="1.0" encoding="UTF-8"?>
<svg width="1104px" height="1054px" viewBox="0 0 1104 1054" version="1.1" xmlns="http://www.w3.org/2000/svg" xmlns:xlink="http://www.w3.org/1999/xlink">
    <!-- Generator: Sketch 60 (88103) - https://sketch.com -->
    <title>Group</title>
    <desc>Created with Sketch.</desc>
    <g id="О-компании-+-админка-+моб" stroke="none" stroke-width="1" fill="none" fill-rule="evenodd">
        <g id="3red_этапы-реализации_текст+стрелки" transform="translate(-59.000000, -370.000000)" fill-rule="nonzero">
            <g id="Group-6-Copy" transform="translate(0.000000, -7.000000)">
                <g id="Group-23" transform="translate(59.000000, 377.000000)">
                    <g id="Group">
                        <g id="Ресурс-2" transform="translate(844.000000, 17.000000)" fill="#FAFAFA">
                            <path d="M211.57382,0 C238.318861,0 260,21.8507197 260,48.8049484 L260,48.8049484 L260,166.195052 C260,193.14928 238.318861,215 211.57382,215 L211.57382,215 L70,215 L70,232 L0,173.491416 L70,115 L70,132.04 L153.325751,132.040195 C166.637331,132.040199 177.456295,121.278323 177.680492,107.914364 L177.684034,107.508608 C177.684034,93.9506781 166.778459,82.9598046 153.325751,82.9598046 L153.325751,82.9598046 L128.318369,82.9598046 L128.318369,0 Z" id="Combined-Shape"></path>
                        </g>
                        <g id="Ресурс-3" transform="translate(278.000000, 0.000000)" fill="#FAFAFA">
                            <path d="M174,0 L244,58.0085106 L174,116 L174,99 L0,99 L0,17 L174,17 L174,0 Z" id="Combined-Shape"></path>
                        </g>
                        <g id="Ресурс-5" transform="translate(484.000000, 273.000000)">
                            <polygon id="Rectangle" fill="#FFFFFF" points="5.73405126e-12 16.777971 143.990917 16.777971 143.990917 97.7930435 5.73405126e-12 97.7930435"></polygon>
                            <polygon id="Path" fill="#FAFAFA" points="136.922752 0 206.597064 57.293913 136.922752 114.571014"></polygon>
                        </g>
                        <g id="Ресурс-4" transform="translate(0.000000, 156.000000)" fill="#FAFAFA">
                            <path d="M434,0 L434,82.1880855 L106.465705,82.1880855 C93.1980188,82.2252901 82.4342363,92.8766548 82.2112196,106.090284 L82.2076962,106.491472 C82.2076931,119.407348 92.2786699,129.972945 105.000141,130.764344 L105,116 L175,174.508584 L105,233 L105,213 L48.3624858,213 C21.6526224,213 0,191.352543 0,164.649051 L0,48.3509488 C0,21.6474572 21.6526224,0 48.3624858,0 L434,0 Z" id="Combined-Shape"></path>
                        </g>
                        <g id="Ресурс-6" transform="translate(667.000000, 301.000000)" fill="#FAFAFA">
                            <path d="M388.052518,0 C415.085466,0 437,21.8507197 437,48.8049484 L437,48.8049484 L437,166.195052 C437,193.14928 415.085466,215 388.052518,215 L388.052518,215 L72,215 L72,233 L0,174.508584 L72,116 L72,132.04 L329.177415,132.040195 C342.632293,132.040199 353.567721,121.278323 353.794332,107.914364 L353.797913,107.508608 C353.797913,93.9506781 342.774941,82.9598046 329.177415,82.9598046 L329.177415,82.9598046 L303.900832,82.9598046 L303.900832,0 Z" id="Combined-Shape"></path>
                        </g>
                        <g id="Ресурс-8" transform="translate(0.000000, 430.000000)" fill="#FAFAFA">
                            <path d="M303,0 L303,81.0305068 L105.341425,81.0305068 C92.2005815,81.0396882 81.5252185,91.5487188 81.3039967,104.595468 L81.3005011,104.991593 C81.3004978,118.227658 92.061261,128.960211 105.341425,128.969493 L116,128.969 L116,117 L186,174.508437 L116,232 L116,210 L47.8287862,210 C21.413677,210 0,188.657437 0,162.33005 L0,47.6699496 C0,21.3425634 21.413677,0 47.8287862,0 L303,0 Z" id="Combined-Shape"></path>
                        </g>
                        <g id="Ресурс-9" transform="translate(452.000000, 598.000000)" fill="#FAFAFA">
                            <path d="M80.0394666,-1.66089364e-13 C86.2687439,-0.00443157451 92.2443909,2.49032237 96.6507097,6.93498116 C101.057028,11.37964 103.532733,17.4097743 103.532732,23.6976894 L103.532732,23.6976894 L103.532732,65.0055781 C103.532732,70.2401405 107.691272,75.4078075 112.926724,75.4078075 L112.926724,75.4078075 L119,75.4069941 L119,62 L188,118.991636 L119,176 L119,155.999994 L47.1687769,156 C34.3326133,156 23.9025427,145.601321 23.6952249,132.694201 L23.6920797,132.302317 L23.6920797,90.0746166 C23.6920797,84.8376216 19.4862461,80.5921984 14.2980873,80.5921984 L14.2980873,80.5921984 L0,80.5921984 L0,-1.66089364e-13 Z" id="Combined-Shape"></path>
                        </g>
                        <g id="Ресурс-10" transform="translate(526.000000, 810.000000)" fill="#FAFAFA">
                            <path d="M288,0 L288,57.7216397 C287.99076,83.8354554 266.75281,105 240.557666,105 L240.557666,105 L70,105 L70,122 L0,65.0083639 L70,8 L70,24.606 L183.6436,24.6067684 C196.608856,24.6067684 207.14382,14.233761 207.353223,1.35850525 L207.3564,0.967588179 L207.3564,0 L288,0 Z" id="Combined-Shape"></path>
                        </g>
                        <g id="Ресурс-11" transform="translate(0.000000, 831.000000)" fill="#FAFAFA">
                            <path d="M47.2129218,208 C21.1379451,208 0,186.860699 0,160.78405 L0,47.21595 C0,21.1393009 21.1379451,0 47.2129218,0 L171,0 L171,80.2587877 L103.985003,80.2587877 C90.8823398,80.2679735 80.2628254,90.888169 80.2536402,103.991673 C80.253637,117.10168 90.8758399,127.732019 103.985003,127.741212 L120.35548,127.741212 L120.355,128 L434,128 L434,109 L503,166.008364 L434,223 L434,208 L47.2129218,208 Z" id="Combined-Shape"></path>
                        </g>
                    </g>
                </g>
            </g>
        </g>
    </g>
</svg>