<?xml version="1.0" encoding="UTF-8"?>
<svg width="119px" height="29px" viewBox="0 0 119 29" version="1.1" xmlns="http://www.w3.org/2000/svg" xmlns:xlink="http://www.w3.org/1999/xlink">
    <!-- Generator: Sketch 59.1 (86144) - https://sketch.com -->
    <title>3-red</title>
    <desc>Created with Sketch.</desc>
    <g id="О-ЖК" stroke="none" stroke-width="1" fill="none" fill-rule="evenodd">
        <g id="3red_UI" transform="translate(-128.000000, -7364.000000)" fill-rule="nonzero">
            <g id="хедер-copy" transform="translate(96.000000, 7340.000000)">
                <g id="хедер">
                    <g id="пункты" transform="translate(32.000000, 19.000000)">
                        <g id="3-red" transform="translate(0.000000, 5.000000)">
                            <path d="M114.743089,9.18333333 C112.614634,7.15333333 109.808943,6.09 106.809756,6.09 L90.1691057,6.09 L90.1691057,28.2266667 L106.809756,28.2266667 C109.808943,28.2266667 112.711382,27.1633333 114.743089,25.1333333 C116.871545,23.1033333 118.03252,20.3 118.03252,17.2066667 C118.129268,14.0166667 116.871545,11.2133333 114.743089,9.18333333 Z M106.809756,23.2966667 L95.2,23.2966667 L95.2,10.8266667 L106.809756,10.8266667 C110.582927,10.8266667 113.001626,13.2433333 113.001626,17.11 C113.001626,20.9766667 110.582927,23.2966667 106.809756,23.2966667 Z" id="Shape" fill="#000000"></path>
                            <path d="M65.2081301,14.5966667 C65.2081301,9.47333333 61.2414634,5.99333333 55.2430894,5.99333333 L37.2479675,5.99333333 L37.2479675,28.13 L42.2788618,28.13 L42.2788618,21.8466667 L42.2788618,21.8466667 L42.2788618,16.9166667 L42.2788618,16.9166667 L42.2788618,10.8266667 L55.3398374,10.8266667 C57.5650407,10.8266667 60.0804878,11.7933333 60.0804878,14.5966667 C60.0804878,17.0133333 58.3390244,18.4633333 55.3398374,18.4633333 L50.599187,18.4633333 L50.599187,20.88 L57.5650407,28.13 L63.7569106,28.13 L57.6617886,22.2333333 C63.1764228,21.5566667 65.2081301,17.7866667 65.2081301,14.5966667 Z" id="Path" fill="#000000"></path>
                            <polygon id="Path" fill="#000000" points="70.2390244 28.13 84.4609756 28.13 84.4609756 23.6833333 74.9796748 23.6833333 74.9796748 18.9466667 80.9780488 18.9466667 80.9780488 14.79 74.9796748 14.79 74.9796748 10.44 84.4609756 10.44 84.4609756 5.99333333 70.2390244 5.99333333"></polygon>
                            <g id="Group">
                                <path d="M8.90081301,29 C3.96666667,29 0,25.0366667 0,20.1066667 L4.4504065,20.1066667 C4.4504065,22.62 6.48211382,24.65 8.99756098,24.65 C11.5130081,24.65 13.5447154,22.62 13.5447154,20.1066667 C13.5447154,17.7866667 11.9,16.1433333 10.1585366,15.5633333 C8.70731707,15.08 6.77235772,15.08 6.77235772,15.08 L6.77235772,12.47 L14.3186992,5.60666667 L17.3178862,8.89333333 L12.4804878,12.2766667 C16.1569106,13.34 17.995122,16.82 17.995122,20.1066667 C17.801626,25.0366667 13.8349593,29 8.90081301,29 Z" id="Path" fill="#000000"></path>
                                <polygon id="Path" fill="#E52628" points="4.35365854 4.35 8.61056911 4.35 8.61056911 0 0 0 0 8.60333333 4.35365854 8.60333333"></polygon>
                            </g>
                            <rect id="Rectangle" fill="#000000" x="22.7357724" y="15.2733333" width="8.70731707" height="4.83333333"></rect>
                        </g>
                    </g>
                </g>
            </g>
        </g>
    </g>
</svg>