<?xml version="1.0" encoding="UTF-8"?>
<svg width="29px" height="29px" viewBox="0 0 29 29" version="1.1" xmlns="http://www.w3.org/2000/svg" xmlns:xlink="http://www.w3.org/1999/xlink">
    <!-- Generator: Sketch 60 (88103) - https://sketch.com -->
    <title>ig</title>
    <desc>Created with Sketch.</desc>
    <g id="Symbols" stroke="none" stroke-width="1" fill="none" fill-rule="evenodd">
        <g id="общее/футер" transform="translate(-32.000000, -32.000000)" fill="#5F5F5F">
            <g id="футер">
                <g id="Group" transform="translate(32.000000, 32.000000)">
                    <g id="Group-2">
                        <g id="Group-4">
                            <g id="social">
                                <g id="ig">
                                    <path d="M10.256,0 L18.744,0 C22.311,0 23.604,0.371 24.907,1.069 C26.195386,1.75101862 27.2489814,2.80461402 27.931,4.093 C28.63,5.396 29,6.689 29,10.256 L29,18.744 C29,22.311 28.629,23.604 27.931,24.907 C27.2489814,26.195386 26.195386,27.2489814 24.907,27.931 C23.604,28.63 22.311,29 18.744,29 L10.256,29 C6.689,29 5.396,28.629 4.093,27.931 C2.80461402,27.2489814 1.75101862,26.195386 1.069,24.907 C0.37,23.604 0,22.311 0,18.744 L0,10.256 C0,6.689 0.371,5.396 1.069,4.093 C1.75101862,2.80461402 2.80461402,1.75101862 4.093,1.069 C5.396,0.37 6.689,0 10.256,0 Z M14.346,6 C12.525,6 11.059,6.348 9.836,7.002 C8.62848533,7.64152166 7.64109562,8.62925979 7.002,9.837 C6.348,11.059 6,12.525 6,14.347 L6,14.653 C6,16.475 6.348,17.941 7.002,19.163 C7.64136108,20.370885 8.62911498,21.3586389 9.837,21.998 C11.059,22.652 12.525,23 14.347,23 L14.653,23 C16.475,23 17.941,22.652 19.163,21.998 C20.370885,21.3586389 21.3586389,20.370885 21.998,19.163 C22.652,17.941 23,16.475 23,14.653 L23,14.347 C23,12.525 22.652,11.059 21.998,9.837 C21.3586389,8.62911498 20.370885,7.64136108 19.163,7.002 C17.941,6.348 16.475,6 14.653,6 L14.347,6 L14.346,6 Z M14.5,20 C11.4624339,20 9,17.5375661 9,14.5 C9,11.4624339 11.4624339,9 14.5,9 C17.5375661,9 20,11.4624339 20,14.5 C20,17.5375661 17.5375661,20 14.5,20 Z M23.5,3 C22.6715729,3 22,3.67157288 22,4.5 C22,5.32842712 22.6715729,6 23.5,6 C24.3284271,6 25,5.32842712 25,4.5 C25,3.67157288 24.3284271,3 23.5,3 Z" id="Shape"></path>
                                </g>
                            </g>
                        </g>
                    </g>
                </g>
            </g>
        </g>
    </g>
</svg>