<?xml version="1.0" encoding="UTF-8"?>
<svg width="42px" height="42px" viewBox="0 0 42 42" version="1.1" xmlns="http://www.w3.org/2000/svg" xmlns:xlink="http://www.w3.org/1999/xlink">
    <!-- Generator: Sketch 59.1 (86144) - https://sketch.com -->
    <title>Group 23</title>
    <desc>Created with Sketch.</desc>
    <g id="overflow_о-проекте" stroke="none" stroke-width="1" fill="none" fill-rule="evenodd">
        <g id="3red_админка_о-проекте_контент_исходное" transform="translate(-276.000000, -424.000000)">
            <g id="Group-31" transform="translate(182.000000, 64.000000)">
                <g id="Group" transform="translate(70.000000, 48.000000)">
                    <g id="Group-16" transform="translate(0.000000, 67.000000)">
                        <g id="Group-4" transform="translate(24.000000, 77.000000)">
                            <g id="Group-3" transform="translate(0.000000, 156.000000)">
                                <g id="Group-23" transform="translate(0.000000, 12.000000)">
                                    <g id="Group-18">
                                        <circle id="Oval-2" fill="#D8D8D8" opacity="0.300000012" cx="21" cy="21" r="21"></circle>
                                        <g id="fb-2" transform="translate(14.000000, 13.000000)" fill="#000000" fill-rule="nonzero">
                                            <path d="M13.2142857,0 L1.78571429,0 C0.8,0 0,0.8 0,1.78571429 L0,13.2142857 C0,14.2 0.8,15 1.78571429,15 L13.2142857,15 C14.2,15 15,14.2 15,13.2142857 L15,1.78571429 C15,0.8 14.2,0 13.2142857,0 Z M12,5.83333333 L11.2857143,5.83333333 C10.5214286,5.83333333 10.2142857,6.01666667 10.2142857,6.56666667 L10.2142857,7.66666667 L12,7.66666667 L11.6428571,9.5 L10.2142857,9.5 L10.2142857,15 L8.42857143,15 L8.42857143,9.5 L7,9.5 L7,7.66666667 L8.42857143,7.66666667 L8.42857143,6.56666667 C8.42857143,5.1 9.14285714,4 10.5714286,4 C11.6071429,4 12,4.36666667 12,4.36666667 L12,5.83333333 Z" id="fb"></path>
                                        </g>
                                    </g>
                                </g>
                            </g>
                        </g>
                    </g>
                </g>
            </g>
        </g>
    </g>
</svg>