<svg xmlns="http://www.w3.org/2000/svg" xmlns:xlink="http://www.w3.org/1999/xlink" width="25" height="25" viewBox="0 0 25 25">
    <defs>
        <path id="prefix__a" d="M0 0L25 0 25 25 0 25z"/>
    </defs>
    <g fill="none" fill-rule="evenodd">
        <path fill="#FFF" d="M12.505 16.659c-2.302 0-4.164-1.864-4.164-4.164s1.864-4.163 4.164-4.163 4.163 1.863 4.163 4.163c.002 2.3-1.863 4.164-4.163 4.164m0-10.579c-3.545 0-6.415 2.873-6.415 6.415 0 3.545 2.873 6.415 6.415 6.415 3.544 0 6.414-2.873 6.414-6.415 0-3.545-2.873-6.415-6.414-6.415"/>
        <g>
            <mask id="prefix__b" fill="#fff">
                <use xlink:href="#prefix__a"/>
            </mask>
            <path fill="#FFF" d="M21.295 21.299c-1.576 1.576-3.763 1.436-8.821 1.436-5.208 0-7.296.077-8.82-1.451-1.756-1.747-1.438-4.553-1.438-8.806 0-5.755-.59-9.9 5.185-10.196 1.327-.047 1.718-.062 5.059-.062l.047.03c5.55 0 9.906-.58 10.168 5.194.059 1.318.072 1.714.072 5.05 0 5.148.097 7.248-1.452 8.805M17.654.079c-2.3-.108-7.996-.103-10.299 0C5.332.172 3.548.66 2.11 2.1-.295 4.504.013 7.744.013 12.495c0 4.862-.271 8.027 2.097 10.395 2.413 2.412 5.7 2.097 10.395 2.097 4.816 0 6.479.003 8.181-.657 2.317-.9 4.064-2.968 4.235-6.686.109-2.3.102-7.997 0-10.3-.206-4.388-2.561-7.05-7.267-7.266" mask="url(#prefix__b)"/>
        </g>
        <path fill="#FFF" d="M19.173 4.329c.828 0 1.5.67 1.5 1.498s-.672 1.5-1.5 1.5c-.827 0-1.499-.672-1.499-1.5s.672-1.498 1.5-1.498"/>
    </g>
</svg>
