<svg xmlns="http://www.w3.org/2000/svg" xmlns:xlink="http://www.w3.org/1999/xlink" width="24" height="24" viewBox="0 0 24 24">
    <defs>
        <path id="a" d="M7 7h2V5H7v2zm0 4h2V9H7v2zm4-4h2V5h-2v2zm0 4h2V9h-2v2zm4-4h2V5h-2v2zm0 4h2V9h-2v2zm-8 4h2v-2H7v2zm4 0h2v-2h-2v2zm4 0h2v-2h-2v2zm-8 4h2v-2H7v2zm4 0h2v-2h-2v2zm4 0h2v-2h-2v2z"/>
    </defs>
    <g fill="none" fill-rule="evenodd">
        <mask id="b" fill="#fff">
            <use xlink:href="#a"/>
        </mask>
        <use fill="#000" xlink:href="#a"/>
        <g fill="#FFF" mask="url(#b)">
            <path d="M0 0h24v24H0z"/>
        </g>
    </g>
</svg>
