<svg xmlns="http://www.w3.org/2000/svg" width="20" height="16" viewBox="0 0 20 16">
    <path fill="#FFF" fill-rule="nonzero" d="M5.937 9.23c0 2.21 1.82 4 4.063 4 2.244 0 4.062-1.79 4.062-4 0-2.208-1.818-4-4.062-4s-4.063 1.792-4.063 4zM18.75 2.463h-4.375C14.062 1.23 13.75 0 12.5 0h-5C6.25 0 5.937 1.23 5.625 2.462H1.25c-.688 0-1.25.553-1.25 1.23V14.77C0 15.446.562 16 1.25 16h17.5c.687 0 1.25-.554 1.25-1.23V3.691c0-.677-.563-1.23-1.25-1.23zM10 14.692c-3.063 0-5.547-2.445-5.547-5.461 0-3.017 2.484-5.462 5.547-5.462 3.063 0 5.547 2.445 5.547 5.462 0 3.016-2.483 5.461-5.547 5.461zm8.75-8.538h-2.5v-1.23h2.5v1.23z"/>
</svg>
