<?xml version="1.0" encoding="UTF-8"?>
<svg width="116px" height="56px" viewBox="0 0 116 56" version="1.1" xmlns="http://www.w3.org/2000/svg" xmlns:xlink="http://www.w3.org/1999/xlink">
    <!-- Generator: Sketch 56.3 (81716) - https://sketch.com -->
    <title>bsa</title>
    <desc>Created with Sketch.</desc>
    <g id="О-ЖК+-адаптив+" stroke="none" stroke-width="1" fill="none" fill-rule="evenodd">
        <g id="Видный-берег_О-ЖК_1600" transform="translate(-1158.000000, -5942.000000)" fill-rule="nonzero">
            <g id="Group-18" transform="translate(196.000000, 5863.000000)">
                <g id="Group-17" transform="translate(832.000000, 0.000000)">
                    <g id="bsa" transform="translate(130.000000, 79.000000)">
                        <path d="M116,36.5 C116,38.9827586 113.982759,41 111.5,41 C109.017241,41 107,38.9827586 107,36.5 C107,34.0172414 109.017241,32 111.5,32 C113.982759,32 116,34.0172414 116,36.5" id="Path" fill="#005DA5"></path>
                        <path d="M24.9439252,19.8206628 C27.4065421,18.3021442 28.8364486,15.4249513 28.8364486,12.5477583 C28.8364486,5.19493177 23.6728972,0.959064327 16.5233645,0.959064327 L0,0.959064327 L0,40.2007797 L8.3411215,40.2007797 L8.3411215,8.07212476 L15.9672897,8.07212476 C18.9065421,8.07212476 20.7336449,9.91033138 20.6542056,12.7875244 C20.5747664,15.4249513 18.8271028,17.0233918 15.9672897,17.0233918 L13.2663551,17.0233918 L10.3271028,23.8966862 L17.2383178,23.8966862 C18.5093458,23.8966862 19.6214953,23.9766082 20.5747664,24.6959064 C21.7663551,25.5750487 22.3224299,27.0136452 22.3224299,28.5321637 C22.1635514,31.1695906 20.4953271,32.8479532 17.635514,32.8479532 L13.0280374,32.8479532 L9.92990654,40.1208577 L18.1121495,40.1208577 C25.8971963,40.1208577 30.5046729,35.4054581 30.5046729,28.5321637 C30.5046729,24.5360624 28.5981308,21.2592593 24.9439252,19.8206628 L24.9439252,19.8206628 Z M83.5700935,0.559454191 L64.9813084,40.1208577 L73.9579439,40.1208577 L76.182243,35.005848 L82.7757009,35.005848 L85.8738318,27.8927875 L79.1214953,27.8927875 L83.4906542,17.8226121 L92.7850467,40.1208577 L102,40.1208577 L83.5700935,0.559454191 Z M41.3878505,28.5321637 C41.546729,32.128655 45.4392523,33.6471735 49.2523364,33.6471735 C52.7476636,33.6471735 56.7196262,32.7680312 56.7196262,28.6920078 C56.7196262,24.2163743 51.953271,23.8167641 48.1401869,23.497076 C41.0700935,22.8576998 33.9205607,20.460039 33.9205607,12.3079922 C34,3.67641326 41.0700935,0 48.7757009,0 C56.0841121,0 63.7102804,3.11695906 63.7102804,11.9083821 L55.9252336,11.9083821 C55.4485981,8.71150097 52.1915888,7.35282651 48.8551402,7.35282651 C45.5186916,7.35282651 42.182243,9.11111111 42.182243,12.1481481 C42.182243,15.6647173 45.5981308,16.3840156 49.6495327,16.8635478 C57.911215,17.662768 64.9813084,19.5009747 64.9813084,28.6920078 C64.9813084,37.962963 57.0373832,40.8401559 49.3317757,41 C41.546729,41 33.4439252,37.1637427 33.4439252,28.5321637 L41.3878505,28.5321637 Z" id="Shape" fill="#1A1A1A"></path>
                        <path d="M110.739953,53.1015777 L110.739953,49.9650771 C111.382979,49.9650771 112.026005,49.9650771 112.669031,49.9650771 C113.553191,49.9650771 114.276596,50.6084619 114.276596,51.573539 C114.276596,52.5386161 113.63357,53.1820008 112.669031,53.1820008 L110.739953,53.1820008 L110.739953,53.1015777 Z M110.739953,55.916386 L110.739953,53.7449625 L112.669031,53.7449625 C114.115839,53.7449625 115,52.6994623 115,51.4931159 C115,50.2063464 114.115839,49.1608462 112.669031,49.1608462 C111.78487,49.1608462 110.900709,49.1608462 110.016548,49.1608462 L110.016548,55.916386 L110.739953,55.916386 Z M105.676123,55.9968091 C107.122931,55.9968091 108.248227,55.1121551 108.248227,53.5841163 L108.248227,49.1608462 L107.444444,49.1608462 L107.444444,53.5841163 C107.444444,54.6296165 106.72104,55.2730013 105.676123,55.2730013 C104.631206,55.2730013 103.907801,54.7100396 103.907801,53.5841163 L103.907801,49.1608462 L103.104019,49.1608462 L103.104019,53.5841163 C103.104019,55.1925782 104.229314,55.9968091 105.676123,55.9968091 L105.676123,55.9968091 Z M95.7895981,52.5386161 C95.7895981,50.8497311 96.9148936,49.8042309 98.3617021,49.8042309 C99.8888889,49.8042309 100.933806,50.9301542 100.933806,52.5386161 C100.933806,54.147078 99.8085106,55.2730013 98.2813239,55.2730013 C96.9148936,55.2730013 95.7895981,54.227501 95.7895981,52.5386161 L95.7895981,52.5386161 Z M101.817967,52.5386161 C101.817967,50.3671926 100.29078,49.0804231 98.4420804,49.0804231 C96.5933806,49.0804231 95.0661939,50.4476157 95.0661939,52.5386161 C95.0661939,54.7100396 96.5933806,55.9968091 98.4420804,55.9968091 C100.371158,56.0772322 101.817967,54.6296165 101.817967,52.5386161 L101.817967,52.5386161 Z M89.6808511,52.7798854 L89.6808511,49.884654 L91.5295508,49.884654 C92.4137116,49.884654 93.0567376,50.4476157 93.0567376,51.3322697 C93.0567376,52.2169237 92.4137116,52.7798854 91.5295508,52.7798854 L89.6808511,52.7798854 Z M92.2529551,53.342847 C93.2174941,53.1015777 93.8605201,52.3777699 93.8605201,51.3322697 C93.8605201,50.1259233 92.9763593,49.1608462 91.5295508,49.1608462 L88.8770686,49.1608462 L88.8770686,55.916386 L89.6808511,55.916386 L89.6808511,53.4232701 L91.4491726,53.4232701 L93.2978723,55.916386 L94.1820331,55.916386 L94.1820331,55.8359629 L92.2529551,53.342847 Z M81,52.5386161 C81,54.6296165 82.4468085,55.9968091 84.3758865,55.9968091 C85.7423168,55.9968091 86.8676123,55.3534244 87.3498818,54.147078 C87.5910165,53.5841163 87.6713948,53.0211547 87.5910165,52.3777699 L84.4562648,52.3777699 L84.4562648,53.0211547 L86.8676123,53.0211547 C86.7068558,54.4687703 85.7423168,55.1925782 84.3758865,55.1925782 C82.7683215,55.1925782 81.8037825,54.0666549 81.8037825,52.458193 C81.8037825,50.9301542 82.7683215,49.7238078 84.3758865,49.7238078 C85.4208038,49.7238078 86.2245863,50.0455002 86.5460993,51.0105773 L87.3498818,51.0105773 C86.9479905,49.6433847 85.6619385,49 84.3758865,49 C82.5271868,49.0804231 81,50.4476157 81,52.5386161 L81,52.5386161 Z" id="Shape" fill="#1A1A1A"></path>
                    </g>
                </g>
            </g>
        </g>
    </g>
</svg>