<?xml version="1.0" encoding="UTF-8"?>
<svg width="174px" height="40px" viewBox="0 0 174 40" version="1.1" xmlns="http://www.w3.org/2000/svg" xmlns:xlink="http://www.w3.org/1999/xlink">
    <!-- Generator: Sketch 56.3 (81716) - https://sketch.com -->
    <title>iskona</title>
    <desc>Created with Sketch.</desc>
    <g id="О-ЖК+-адаптив+" stroke="none" stroke-width="1" fill="none" fill-rule="evenodd">
        <g id="Видный-берег_О-ЖК_1600" transform="translate(-713.000000, -5950.000000)" fill="#1A1A1A" fill-rule="nonzero">
            <g id="Group-18" transform="translate(196.000000, 5863.000000)">
                <g id="Group-15" transform="translate(416.000000, 0.000000)">
                    <g id="iskona" transform="translate(101.000000, 87.000000)">
                        <path d="M0,1.21212121 L6.75417008,1.21212121 L6.75417008,22.1336654 C6.75417008,24.3420506 6.63567587,26.4342051 6.28019324,28.5263595 L6.51718166,28.5263595 L18.3666029,1.09589041 L27.2536688,1.09589041 L27.2536688,39.2195932 L20.6179929,39.2195932 L20.6179929,18.298049 C20.6179929,15.7409714 20.8549813,13.4163553 21.210464,11.5566625 L20.8549813,11.5566625 L8.8870659,39.4520548 L0,39.4520548 L0,1.21212121 Z" id="Path"></path>
                        <path d="M46.0660661,6.39053254 C43.9446994,6.39053254 42.4126013,7.5739645 41.2340643,10.0591716 C40.0555272,12.5443787 39.4662587,15.8579882 39.4662587,20.2366864 C39.4662587,29.2307692 41.8233328,33.7278107 46.5374809,33.7278107 C48.5409938,33.7278107 50.7802142,33.0177515 53.0194345,31.7159763 L53.0194345,38.1065089 C51.1337753,39.408284 48.6588475,40 45.712505,40 C41.351918,40 38.0520143,38.2248521 35.6949402,34.7928994 C33.3378662,31.3609467 32.1593291,26.3905325 32.1593291,20.1183432 C32.1593291,13.8461538 33.3378662,8.87573964 35.8127939,5.32544379 C38.169868,1.77514793 41.5876254,0 45.8303587,0 C47.2446031,0 48.5409938,0.236686391 49.8373846,0.591715976 C51.1337753,0.946745562 52.5480197,1.65680473 53.9622642,2.6035503 L51.6051901,8.52071006 C50.7802142,7.92899408 49.9552383,7.4556213 49.0124086,6.98224852 C48.069579,6.62721893 47.1267494,6.39053254 46.0660661,6.39053254 Z" id="Path"></path>
                        <polygon id="Path" points="82.851153 39.4520548 74.766747 39.4520548 64.9248614 20.0990965 64.9248614 39.4520548 57.7777778 39.4520548 57.7777778 1.09589041 64.9248614 1.09589041 64.9248614 19.6327601 75.0010776 1.09589041 82.6168224 1.09589041 72.071945 19.516176"></polygon>
                        <path d="M112.285115,20 C112.285115,26.3905325 111.112173,31.3609467 108.648993,34.7928994 C106.303108,38.2248521 102.901574,40 98.4443914,40 C93.9872091,40 90.5856752,38.2248521 88.1224956,34.7928994 C85.7766101,31.3609467 84.4863732,26.3905325 84.4863732,19.8816568 C84.4863732,13.4911243 85.6593159,8.52071006 88.1224956,5.0887574 C90.468381,1.65680473 93.9872091,0 98.4443914,0 C102.901574,0 106.303108,1.77514793 108.648993,5.20710059 C111.112173,8.63905325 112.285115,13.6094675 112.285115,20 Z M91.9932065,20 C91.9932065,24.3786982 92.5796778,27.8106509 93.6353263,30.1775148 C94.6909747,32.5443787 96.3330945,33.6094675 98.5616856,33.6094675 C102.901574,33.6094675 105.012871,29.112426 105.012871,20 C105.012871,10.887574 102.784279,6.39053254 98.5616856,6.39053254 C96.3330945,6.39053254 94.6909747,7.5739645 93.6353263,9.82248521 C92.4623836,12.1893491 91.9932065,15.5029586 91.9932065,20 Z" id="Shape"></path>
                        <polygon id="Path" points="141.174004 39.4520548 134.131012 39.4520548 134.131012 22.6639464 124.778841 22.6639464 124.778841 39.4520548 117.735849 39.4520548 117.735849 1.09589041 124.778841 1.09589041 124.778841 16.2518216 134.131012 16.2518216 134.131012 1.09589041 141.174004 1.09589041 141.174004 39.4520548"></polygon>
                        <path d="M166.169828,39.4520548 L163.938573,29.8048983 L153.839205,29.8048983 L151.607949,39.4520548 L144.444444,39.4520548 L153.95664,1.09589041 L163.703704,1.09589041 L173.333333,39.4520548 L166.169828,39.4520548 Z M162.646793,23.528435 L160.532972,14.6948941 C160.415537,14.1137401 160.180668,12.8352013 159.71093,10.6268161 C159.241192,8.41843088 159.006323,7.02366127 158.888889,6.32627646 C158.65402,7.83727688 158.419151,9.46450809 158.066847,11.3242009 C157.714544,13.1838937 156.775068,17.2519718 155.365854,23.6446658 L162.646793,23.6446658 L162.646793,23.528435 Z" id="Shape"></path>
                    </g>
                </g>
            </g>
        </g>
    </g>
</svg>