<?xml version="1.0" encoding="UTF-8"?>
<svg width="417px" height="915px" viewBox="0 0 417 915" version="1.1" xmlns="http://www.w3.org/2000/svg" xmlns:xlink="http://www.w3.org/1999/xlink">
    <!-- Generator: Sketch 56.3 (81716) - https://sketch.com -->
    <title>Group 21</title>
    <desc>Created with Sketch.</desc>
    <g id="Главная+-адаптив+" stroke="none" stroke-width="1" fill="none" fill-rule="evenodd">
        <g id="Видный-берег_главная_1600" transform="translate(0.000000, -1616.000000)">
            <g id="Group-21" transform="translate(-21.000000, 1619.000000)">
                <rect id="Rectangle" fill="#BDD52F" x="21" y="21" width="400" height="789"></rect>
                <g id="Group" stroke="#FFFFFF">
                    <path d="M431.280492,216 C423.067441,215.762053 415.266116,210.7316 409.637197,202.042649 C402.654112,190.924339 400.091512,177.309449 397.614332,164.144253 C395.233249,151.506286 392.990974,139.581627 386.936831,131.952326 C381.245723,124.788227 371.09142,123.206543 360.349854,121.531818 C346.469103,119.360879 330.677079,116.879806 318.878441,101.993365 C298.911514,76.748444 296.519754,43.3469939 296.904144,11 L303.598937,11.1705738 C303.182514,45.8280673 306.375087,73.290448 323.277571,94.674199 C333.485262,107.57578 347.50482,109.762226 361.065246,111.886645 C372.88524,113.731944 384.043228,115.468695 391.314606,124.63316 C398.906309,134.185292 401.532974,148.125823 404.063542,161.601153 C406.33785,173.649865 408.6869,186.117259 414.58088,195.514324 C419.353723,203.097105 427.393881,207.516517 433.800382,206.043379 L434.868132,215.626525 C433.681043,215.889898 432.481304,216.014352 431.280492,216 Z" id="Path" stroke-width="5" fill="#FFFFFF" fill-rule="nonzero"></path>
                    <path d="M434.549451,133 L428.184173,133 C428.26538,114.282706 418.936726,99.8415065 410.115616,92.3395849 C405.961789,89.0218259 401.71622,86.1107951 397.39657,83.6186011 C391.042123,79.7176018 384.474507,75.7040738 378.505792,69.1023828 C367.592643,56.6898381 359.719171,36.9238539 356.549451,13.9820138 L362.700881,11 C365.444083,30.9668562 372.279637,48.1826555 381.764223,59.0122982 C387.144187,64.9575711 393.092599,68.5960031 399.396293,72.4594927 C403.931086,75.0745793 408.386918,78.1359863 412.744693,81.6305919 C423.352357,90.5953882 434.65028,108.750038 434.549451,133 Z" id="Path" stroke-width="5" fill="#FFFFFF" fill-rule="nonzero"></path>
                    <path d="M247.926502,11 C243.727458,17.5109773 241.917385,26.3374781 240.514986,34.9117933 C237.78357,51.4758112 236.152873,68.5442005 237.45743,85.4062561 C238.761988,102.268312 243.246403,119.004274 251.579262,131.258209 C273.088148,162.953371 311.548124,155.915096 336.693464,181.764134 C349.934719,195.370701 358.031127,216.737711 363.599955,238.414222 C369.168784,260.090732 372.723702,282.798912 379.222027,303.959588 C385.720353,325.120264 395.789904,345.295123 410.539553,355.37109 C418.179366,360.58675 426.650834,362.822032 435,365" id="Path" stroke-width="14"></path>
                    <path d="M148.67218,11 C128.679695,60.2700734 129.337456,123.016793 150.342548,171.557784 C155.976794,184.567361 163.160241,196.825072 172.844912,204.753852 C184.173987,214.072446 197.848501,216.669805 210.995075,219.825368 C222.009694,222.468294 232.937765,225.639046 243.779289,229.337625 C253.083151,232.515971 262.49087,236.172779 270.392662,243.383867 C288.342625,259.719887 294.928894,291.104639 294.115347,319.812289 C293.3018,348.519938 286.499162,376.304842 283.461343,404.750478 C280.423524,433.196113 281.730392,464.478338 295.08468,487.193835 C304.896738,503.899348 319.978406,513.774101 336.019778,514 C352.061149,514.218246 367.29727,504.763205 377.374096,488.333028 C380.576355,483.104134 383.250675,477.180334 387.223207,472.95393 C398.595556,460.832922 415.342508,466.768115 429.120879,473.261512" id="Path" stroke-width="14"></path>
                    <path d="M52.7516668,0 C16.7408018,96.0250489 26.5910623,315.617482 137.795113,390.184997 C180.055152,418.508023 218.917203,408.278669 242.093827,431.286106 C259.67744,448.748337 261.958388,470.068102 267.090522,492.926288 C283.439924,566.253881 313.560942,590.51272 362.46854,597.33229 C385.512369,600.546902 412.180719,592.739987 429.076923,616" id="Path" stroke-width="14"></path>
                    <path d="M0,383 C14.8949273,422.28574 35.3101078,456.97897 60.0262421,485.007634 C71.079989,497.531235 82.9816086,508.696195 93.0540214,522.742789 C125.95619,568.629789 135.52616,639.344855 167.564754,686.404231 C200.890859,735.348173 256.497173,749.953562 301.465825,725.081669 C314.976832,717.609144 327.608564,706.970109 341.559209,701.31641 C370.606698,689.559784 402.1507,700.757614 429,720.10729" id="Path" stroke-width="14"></path>
                    <path d="M14.7252747,626 C37.7745793,627.712532 57.6581088,661.777647 71.1485502,700.894731 C84.6389916,740.011816 93.6098275,785.194118 106.703692,824.896317 C119.797557,864.598517 138.751183,900.190639 161.725275,905" id="Path" stroke-width="14"></path>
                </g>
            </g>
        </g>
    </g>
</svg>