<svg xmlns="http://www.w3.org/2000/svg" xmlns:xlink="http://www.w3.org/1999/xlink" width="120" height="119" viewBox="0 0 120 119">
    <defs>
        <path id="prefix__a" d="M0 0.317L64.684 0.317 64.684 68.079 0 68.079z"/>
    </defs>
    <g fill="none" fill-rule="evenodd">
        <path d="M0 0H120V119H0z"/>
        <path fill="#FEFEFE" d="M51 68.699L52.654 68.699 52.654 73 53.338 73 53.338 68.699 55 68.699 55 68 51 68zM56.802 70.74L59.568 70.74 59.568 70.039 56.802 70.039 56.802 68.71 59.899 68.71 59.899 68 56 68 56 73 60 73 60 72.3 56.802 72.3zM64.817 68L63.862 68 62.49 69.939 61.057 68 60.101 68 61.91 70.42 60 73 60.945 73 62.48 70.9 64.015 73 65 73 63.039 70.399zM69.278 69.979L66.722 69.979 66.722 68 66 68 66 73 66.722 73 66.722 70.688 69.278 70.688 69.278 73 70 73 70 68 69.278 68zM73.687 71.516c-.298.289-.705.451-1.174.451-.479 0-.885-.162-1.201-.477-.29-.288-.47-.712-.47-1.215 0-.505.18-.919.47-1.207.306-.323.704-.486 1.2-.486.47 0 .859.144 1.166.441.316.297.497.738.497 1.252 0 .503-.171.945-.488 1.241m-1.174-3.573c-.686 0-1.246.243-1.67.64-.46.422-.723 1.015-.723 1.692 0 .648.252 1.233.676 1.656.426.423 1.021.676 1.717.676.686 0 1.273-.253 1.697-.658.444-.423.688-1.017.688-1.674 0-.64-.244-1.207-.65-1.63-.425-.432-1.022-.702-1.735-.702M75.641 72.525L76.364 72.525 76.364 68.663 78.937 68.663 78.937 72.525 79.659 72.525 79.659 68.025 75.641 68.025zM83.96 71.516c-.297.289-.703.451-1.173.451-.479 0-.886-.162-1.202-.477-.288-.288-.469-.712-.469-1.215 0-.505.18-.919.47-1.207.307-.323.704-.486 1.201-.486.47 0 .858.144 1.165.441.316.297.497.738.497 1.252 0 .503-.171.945-.488 1.241m-1.174-3.573c-.686 0-1.246.243-1.67.64-.461.422-.723 1.015-.723 1.692 0 .648.252 1.233.677 1.656.424.423 1.02.676 1.716.676.686 0 1.273-.253 1.697-.658.443-.423.688-1.017.688-1.674 0-.64-.245-1.207-.651-1.63-.424-.432-1.02-.702-1.734-.702M86.348 71.364c-.028.207-.09.351-.19.441-.081.081-.216.126-.397.126-.117 0-.236-.01-.38-.055l-.154.577c.226.081.398.108.679.108.298 0 .559-.09.767-.26.198-.18.316-.425.36-.73l.417-2.908h1.833v3.862h.723v-4.5h-3.188l-.47 3.339zM91.607 71.472L91.607 68.024 90.911 68.024 90.911 72.526 91.588 72.526 94.324 69.078 94.324 72.526 95.011 72.526 95.011 68.024 94.333 68.024zM98.184 71.957c-.479 0-.903-.17-1.22-.485-.28-.288-.451-.703-.451-1.207 0-.504.172-.918.47-1.215.316-.306.722-.459 1.2-.459.579 0 .976.171 1.365.531l.434-.477c-.507-.477-1.04-.702-1.798-.702-.695 0-1.291.252-1.717.675-.423.424-.686 1-.686 1.647 0 .657.263 1.243.696 1.666.425.423 1.012.676 1.707.676.758 0 1.291-.235 1.798-.703l-.434-.477c-.389.351-.786.53-1.364.53M54.757 99.079c-.267.185-.59.277-.971.277-.547 0-.94-.157-1.181-.473-.242-.314-.363-.78-.363-1.397 0-.373.034-.757.104-1.147.067-.39.186-.746.357-1.066.17-.32.396-.582.678-.786.28-.204.634-.306 1.06-.306.302 0 .548.055.738.167.19.11.34.257.448.44.108.184.182.396.22.634.041.237.061.48.061.73 0 .397-.04.787-.12 1.168-.079.382-.204.726-.374 1.03-.171.301-.39.545-.657.729m.98-.39c.222-.327.39-.707.504-1.143.113-.437.17-.901.17-1.394 0-.323-.031-.627-.094-.913-.063-.286-.17-.537-.324-.752-.153-.215-.357-.385-.61-.51-.253-.124-.566-.187-.942-.187-.494 0-.912.107-1.252.323-.341.214-.618.497-.831.845-.214.349-.368.744-.461 1.186-.094.442-.14.888-.14 1.342 0 .352.036.668.11.947.075.28.193.518.354.714.161.196.371.344.627.446.256.102.568.153.938.153.425 0 .802-.094 1.13-.284.325-.19.6-.448.821-.774M57.404 99.32c.11.138.257.243.44.316.18.073.403.11.664.11.255 0 .512-.034.767-.101.256-.069.472-.15.648-.248l-.112-.296c-.232.09-.442.158-.63.204-.187.045-.389.068-.605.068-.2 0-.364-.031-.495-.094-.13-.062-.234-.147-.31-.255-.077-.108-.132-.235-.167-.382-.034-.147-.051-.303-.051-.468 0-.317.033-.617.098-.9.065-.284.165-.529.299-.74.132-.209.297-.374.49-.497.193-.12.417-.182.673-.182.114 0 .256.01.426.029.171.02.364.079.58.174l.153-.314c-.306-.175-.682-.263-1.125-.263-.437 0-.79.098-1.06.293-.271.195-.48.435-.628.718-.147.283-.247.583-.298.896-.05.314-.077.59-.077.829 0 .226.026.433.077.62.051.187.132.349.243.484M61.184 97.448c.045-.273.126-.525.24-.758.113-.234.266-.429.46-.588.192-.159.436-.24.732-.24.194 0 .354.04.481.111.128.075.23.171.308.29.077.12.129.258.158.413.028.157.042.317.042.482 0 .199-.02.426-.06.682-.04.255-.112.498-.218.728-.104.23-.252.424-.442.583-.19.159-.437.238-.737.238-.205 0-.374-.033-.507-.098-.135-.065-.24-.153-.317-.264-.076-.11-.13-.238-.16-.383-.033-.144-.047-.295-.047-.447 0-.227.022-.477.067-.75m-.231 1.822c.113.148.262.264.447.35.184.085.418.127.701.127.385 0 .706-.085.961-.255.256-.17.457-.386.608-.647.151-.261.255-.544.314-.847.06-.304.09-.592.09-.864 0-.221-.024-.432-.072-.63-.05-.198-.13-.375-.247-.528-.116-.154-.266-.276-.45-.367-.186-.09-.413-.135-.685-.135-.363 0-.67.083-.923.25-.252.168-.455.381-.612.639-.156.259-.268.545-.336.86-.068.315-.102.62-.102.914 0 .222.023.43.067.622.046.193.126.365.239.511M65.234 97.901c.011-.143.025-.298.042-.466.017-.165.037-.326.06-.479.022-.151.042-.274.06-.364.102-.09.215-.176.34-.259.126-.08.252-.153.383-.215.131-.061.26-.111.39-.149.127-.037.247-.054.361-.054.148 0 .276.029.384.088.108.06.195.141.264.246.068.104.118.227.15.368.03.141.046.292.046.45 0 .3-.03.588-.09.865-.059.276-.15.524-.272.74-.123.22-.274.393-.456.522-.182.13-.392.195-.63.195-.218 0-.393-.029-.53-.089-.136-.059-.242-.142-.319-.25-.076-.107-.13-.23-.158-.368-.03-.139-.043-.29-.043-.454 0-.073.006-.181.018-.327m-.168 1.395c.111.136.258.245.442.327.184.082.413.123.685.123.386 0 .706-.092.961-.275.255-.185.46-.413.612-.685.153-.272.261-.565.323-.879.063-.315.094-.602.094-.862 0-.222-.025-.425-.073-.613-.047-.186-.122-.345-.22-.475-.1-.13-.226-.233-.379-.306-.153-.074-.337-.11-.553-.11-.12 0-.243.017-.374.05-.13.034-.262.081-.395.14-.133.06-.263.126-.387.2-.125.074-.238.153-.34.238l-.026-.017c.074-.368.158-.682.251-.943.094-.26.207-.472.34-.638.133-.164.29-.288.468-.372.179-.086.392-.136.641-.154.12-.01.271-.025.452-.043.18-.017.39-.047.629-.093l-.068-.356c-.148.027-.298.05-.451.066-.153.018-.304.033-.455.047-.15.015-.29.03-.42.047-.131.017-.244.043-.341.077-.216.074-.4.183-.557.332-.156.147-.292.323-.407.526-.117.204-.213.428-.29.671-.077.244-.143.499-.2.765-.034.176-.068.362-.102.557-.034.195-.062.39-.086.586-.022.196-.04.383-.054.56-.015.18-.022.34-.022.48 0 .194.023.379.069.557.045.18.123.336.233.472M70.059 99.356c-.223 0-.412-.088-.568-.264-.156-.176-.234-.47-.234-.883 0-.363.043-.688.127-.978.086-.289.2-.533.342-.734.142-.202.306-.355.494-.46.188-.105.387-.157.597-.157.147 0 .302.016.465.047.161.031.334.086.515.165L71.44 98.7c-.21.177-.435.33-.673.46-.24.13-.475.196-.707.196zm1.346-.239c-.012.08-.017.144-.017.191v.108c0 .1.029.179.085.232.056.054.15.082.281.082.068 0 .156-.01.264-.03.109-.02.228-.059.359-.115l-.035-.289-.52.017c.011-.125.03-.292.056-.503.025-.21.054-.44.086-.69.03-.25.064-.507.097-.774l.098-.763c.03-.24.06-.455.085-.643.025-.186.047-.328.065-.425l-.341-.017-.068.204c-.17-.069-.346-.12-.525-.157-.179-.037-.36-.055-.54-.055-.36 0-.67.083-.93.25-.262.168-.476.386-.644.655-.167.27-.292.572-.37.904-.08.332-.12.66-.12.983 0 .482.11.846.328 1.09.219.244.492.366.822.366.233 0 .476-.056.725-.166.25-.11.5-.267.75-.47l.009.015zM75.446 95.515c-.12-.016-.238-.03-.354-.038-.117-.009-.223-.013-.32-.013-.233 0-.449.026-.647.076s-.369.13-.51.238c-.14.108-.25.242-.328.399-.078.159-.117.348-.117.57 0 .216.056.405.167.57.112.164.295.286.55.365v.017c-.148.045-.271.121-.37.23-.097.107-.182.239-.255.399l-.595 1.359h.495l.51-1.198c.063-.141.132-.254.206-.335.074-.083.157-.144.251-.183.094-.04.201-.062.32-.068.119-.007.258-.004.418.008l.042-.348c-.205-.022-.387-.055-.546-.093-.158-.04-.291-.091-.396-.153-.105-.063-.187-.14-.243-.235-.056-.092-.085-.21-.085-.352 0-.165.033-.303.098-.416.065-.113.15-.206.251-.277.102-.07.218-.12.346-.153.128-.03.257-.047.387-.047.057 0 .125.003.205.01.079.005.162.014.248.025.084.011.167.024.246.038.08.014.151.033.214.056l-.453 3.72h.461c.006-.067.02-.205.047-.41l.09-.723.106-.88c.036-.312.073-.605.107-.879.033-.275.064-.515.09-.722.025-.208.04-.342.046-.404-.103-.035-.211-.064-.328-.09-.117-.024-.234-.046-.354-.063M54.086 105.554c-.127-.145-.284-.258-.472-.34-.187-.082-.408-.123-.663-.123-.217 0-.434.027-.654.08-.218.053-.436.13-.652.226l.12.305c.228-.085.43-.143.61-.173.179-.032.342-.047.49-.047.375 0 .656.111.844.334.187.224.281.544.281.957v.094c0 .039-.003.073-.008.102l-1.697-.043-.043.365 1.713-.017c-.028.243-.08.468-.153.678-.073.208-.175.388-.302.54-.128.152-.282.272-.46.36-.18.086-.389.13-.627.13-.165 0-.329-.015-.49-.047-.162-.03-.343-.089-.542-.174l-.144.316c.141.088.311.159.507.214.196.055.413.082.652.082.415 0 .754-.085 1.018-.255.265-.17.475-.385.63-.646.155-.26.263-.545.324-.854.06-.309.09-.602.09-.879 0-.244-.03-.466-.09-.666-.061-.202-.155-.374-.282-.519M57.988 105.38l-.166.37-.167.373c-.05.117-.082.185-.093.209-.069.152-.139.27-.21.356-.07.085-.144.146-.22.182-.077.037-.154.06-.23.07-.078.007-.153.011-.228.011h-.886l.116-.888c.037-.291.072-.59.107-.895h-.46l-.505 4.146h.453c.045-.329.087-.662.128-1.003.039-.34.079-.674.119-1.003h.98c.182 0 .34.048.474.145.133.096.228.286.285.569.04.215.08.43.124.645.042.216.085.432.132.647h.451l-.29-1.369c-.022-.1-.045-.196-.067-.284-.024-.088-.055-.167-.094-.238-.04-.07-.092-.13-.154-.179-.063-.048-.14-.083-.23-.105.193-.08.344-.211.451-.396.11-.183.205-.376.291-.573l.434-1.002h-.452c-.01.027-.043.098-.093.212M59.42 107.074c.045-.272.124-.525.238-.758.114-.233.267-.428.46-.588.194-.158.437-.238.734-.238.193 0 .354.037.481.11.128.075.23.17.308.291.076.119.128.257.157.412.028.157.044.316.044.481 0 .2-.02.426-.062.682-.039.255-.112.498-.216.728-.105.23-.253.425-.443.584-.192.16-.437.238-.738.238-.204 0-.373-.032-.507-.098-.134-.065-.24-.153-.316-.264-.077-.11-.13-.238-.161-.383-.032-.145-.047-.294-.047-.447 0-.227.022-.477.068-.75m.215 2.172c.184.084.418.127.702.127.385 0 .706-.085.961-.256.255-.17.457-.386.607-.646.152-.26.256-.544.315-.848.06-.303.09-.591.09-.862 0-.222-.024-.433-.073-.632-.05-.197-.13-.375-.246-.528-.116-.152-.266-.275-.45-.366-.185-.09-.413-.136-.685-.136-.363 0-.671.083-.923.251-.252.168-.456.381-.613.64-.155.257-.268.544-.335.858-.068.315-.102.621-.102.916 0 .221.023.428.068.621.046.193.125.364.238.51.114.15.262.265.446.35M63.631 107.291L65.779 107.291 65.523 109.314 65.983 109.314 66.495 105.184 66.026 105.184 65.805 106.934 63.673 106.934 63.894 105.184 63.426 105.184 62.923 109.314 63.384 109.314zM69.938 107.466c-.039.255-.112.498-.217.728-.105.23-.253.425-.443.584-.19.16-.436.238-.737.238-.205 0-.374-.033-.507-.098-.134-.066-.24-.153-.316-.264-.077-.11-.131-.238-.162-.383-.032-.144-.047-.294-.047-.448 0-.226.023-.476.069-.75.045-.27.125-.524.238-.758.114-.231.267-.427.46-.587.194-.158.438-.238.733-.238.193 0 .354.037.482.11.128.075.23.171.307.29.077.12.129.258.158.413.028.156.042.316.042.481 0 .2-.02.427-.06.682m.211-1.865c-.117-.152-.268-.275-.452-.366-.184-.09-.411-.136-.684-.136-.363 0-.67.084-.923.252-.252.167-.456.38-.612.638-.155.257-.268.544-.336.86-.068.314-.101.62-.101.915 0 .222.022.429.068.621.044.193.124.364.238.511.113.148.261.264.446.35.184.084.418.127.702.127.385 0 .706-.085.96-.255.256-.17.458-.387.608-.648.15-.26.255-.543.314-.846.06-.304.09-.592.09-.864 0-.221-.024-.432-.072-.63-.048-.198-.13-.376-.246-.529M73.637 107.641L73.237 108.507 73.202 108.507 72.973 107.597 72.35 105.167 71.838 105.167 70.918 109.314 71.37 109.314 71.941 106.586 72.094 105.796 72.119 105.796 72.308 106.577 72.921 108.94 73.39 108.94 74.592 106.586 74.967 105.788 74.992 105.788 74.976 106.654 74.917 109.314 75.343 109.314 75.378 105.167 74.856 105.167zM78.736 108.252c-.569.499-1.06.748-1.475.748-.221 0-.38-.048-.478-.141-.096-.093-.145-.243-.145-.446v-.127c0-.04.006-.083.018-.127l.34-2.984h-.462l-.348 3.102c-.005.04-.01.079-.012.12-.004.038-.004.079-.004.118 0 .119.014.232.043.34.03.108.079.2.147.28.07.08.166.142.286.187.12.046.27.068.453.068.216 0 .453-.054.711-.161.26-.108.547-.29.866-.545.005 0 .01.004.013.01.002.005.007.009.012.009l-.085.611h.452c.011-.131.031-.306.06-.528.028-.22.058-.462.089-.725l.097-.825c.035-.286.07-.56.104-.82.034-.26.064-.5.089-.717.025-.22.047-.393.064-.524h-.468l-.367 3.077zM82.708 106.833c-.262.231-.526.392-.793.48-.267.088-.5.131-.7.131-.26 0-.433-.068-.514-.204-.083-.135-.11-.34-.081-.61l.162-1.454h-.452l-.162 1.47c-.017.152-.024.3-.022.441.003.142.034.269.094.379.06.11.155.199.286.267.13.068.315.102.554.102.193 0 .43-.042.712-.127.28-.085.572-.24.873-.468h.009c-.056.335-.105.674-.145 1.02-.04.345-.083.697-.128 1.054h.46l.068-.544c.029-.22.059-.462.09-.723.032-.26.062-.528.095-.802.03-.276.061-.542.092-.804.031-.26.062-.5.09-.722l.069-.543h-.46l-.197 1.657zM86.033 106.96c-.387.18-.938.289-1.655.322.03-.254.084-.49.162-.708.08-.218.184-.408.312-.57.127-.162.28-.29.456-.382.176-.093.375-.14.597-.14.25 0 .43.059.541.178.11.119.166.278.166.476 0 .368-.193.642-.58.824m.784-1.571c-.091-.091-.206-.163-.342-.217-.137-.055-.302-.082-.495-.082-.41 0-.752.09-1.022.27-.27.178-.486.402-.646.67-.158.27-.272.563-.337.878-.066.316-.098.606-.098.874 0 .215.02.418.059.608.04.19.113.358.218.502.105.145.248.26.426.344.179.086.407.128.686.128.278 0 .545-.03.798-.093.252-.062.47-.148.651-.255l-.11-.298c-.21.097-.418.17-.622.218-.205.048-.412.072-.623.072-.21 0-.38-.035-.512-.107-.13-.07-.232-.161-.307-.271-.074-.11-.125-.234-.153-.37-.028-.136-.042-.27-.042-.4v-.114c0-.042.002-.089.008-.14.376-.023.73-.064 1.06-.123.33-.06.62-.15.868-.269.249-.12.444-.272.586-.456.143-.185.214-.414.214-.687 0-.125-.021-.247-.065-.366-.042-.12-.109-.225-.2-.316M88.602 105.401c-.27.195-.478.435-.626.718-.148.283-.247.582-.298.896-.052.315-.077.59-.077.83 0 .225.025.431.077.62.05.187.132.347.242.483.111.136.258.241.44.315.182.073.403.11.664.11.256 0 .511-.034.768-.102.255-.068.471-.15.648-.246l-.112-.296c-.232.09-.442.157-.63.203-.188.044-.39.067-.605.067-.199 0-.364-.031-.495-.093-.13-.063-.234-.148-.311-.254-.077-.109-.132-.237-.165-.384-.035-.147-.052-.302-.052-.466 0-.318.032-.619.098-.901.065-.283.165-.53.298-.74.134-.21.297-.375.49-.497.194-.122.418-.182.674-.182.114 0 .256.01.426.03.17.019.363.077.58.173l.153-.314c-.307-.176-.682-.263-1.125-.263-.437 0-.791.098-1.062.293M93.9 106.743c.109-.184.205-.376.29-.573l.435-1.002h-.452c-.01.027-.043.098-.094.212l-.166.37c-.06.132-.114.257-.166.373-.05.117-.082.186-.094.209-.069.152-.138.271-.208.356-.072.084-.146.146-.223.182-.076.038-.153.06-.23.07-.076.007-.15.011-.226.011h-.887c.041-.3.079-.595.117-.888.036-.291.072-.59.105-.895h-.46l-.503 4.146h.453c.044-.329.087-.663.127-1.003l.12-1.003h.98c.18 0 .34.048.473.146.134.095.228.285.285.568.04.215.082.43.124.645.042.216.086.432.133.647h.451l-.29-1.369c-.023-.1-.045-.196-.069-.284-.022-.088-.053-.167-.092-.238-.041-.07-.091-.13-.154-.179-.063-.048-.14-.083-.23-.105.192-.08.343-.212.451-.396M97.643 108.327c-.211.177-.435.33-.674.46-.238.13-.474.195-.707.195-.222 0-.411-.087-.567-.264-.156-.175-.234-.469-.234-.883 0-.362.042-.688.127-.977.085-.289.2-.534.341-.735.142-.2.307-.355.495-.459.187-.105.386-.157.597-.157.148 0 .302.015.464.047.162.031.334.087.516.166l-.358 2.607zm.383.613c.011-.125.03-.292.056-.503l.085-.69c.03-.25.064-.507.099-.774.033-.267.066-.522.098-.763.03-.24.058-.456.084-.642.026-.188.047-.33.064-.426l-.341-.017-.068.203c-.17-.068-.345-.12-.524-.157-.179-.037-.36-.054-.541-.054-.359 0-.668.083-.93.25-.261.168-.476.386-.644.656-.167.27-.29.57-.37.902-.08.332-.12.66-.12.984 0 .482.11.846.328 1.09.22.244.493.365.823.365.233 0 .475-.055.725-.165.25-.11.5-.267.75-.47l.008.016c-.01.078-.016.143-.016.19v.107c0 .101.028.18.085.233.056.054.15.081.281.081.068 0 .156-.01.264-.03.108-.02.227-.058.358-.115l-.034-.288-.52.017zM102.003 105.206c-.116-.026-.235-.048-.354-.064-.12-.017-.238-.03-.354-.038-.116-.01-.223-.013-.32-.013-.233 0-.448.026-.647.077-.2.05-.369.13-.509.237-.14.108-.251.24-.328.399-.079.16-.118.348-.118.57 0 .215.056.404.167.57.112.163.295.285.549.364v.017c-.147.045-.27.122-.369.23-.097.108-.182.24-.255.399l-.594 1.36h.493l.511-1.198c.063-.141.132-.254.206-.336.073-.082.157-.143.252-.183.093-.04.2-.062.319-.068.119-.005.259-.003.418.008l.042-.348c-.204-.022-.386-.053-.545-.092-.159-.04-.292-.09-.397-.154-.105-.062-.186-.14-.243-.233-.056-.093-.085-.21-.085-.353 0-.164.033-.304.098-.416.065-.113.149-.205.252-.277.101-.07.217-.122.345-.153.128-.031.257-.046.387-.046.057 0 .125.003.205.009.08.005.162.013.248.024.084.011.167.025.247.039.08.014.15.033.213.055l-.452 3.722h.46c.005-.069.021-.206.046-.412l.091-.723.106-.88.107-.878.09-.722c.025-.207.04-.342.045-.405-.101-.034-.21-.063-.327-.088M54.165 116.249c.14-.191.21-.388.21-.594 0-.307-.125-.538-.373-.696-.246-.155-.561-.233-.941-.233-.216 0-.445.027-.687.083-.241.054-.481.139-.72.256.018.052.034.103.051.158.017.054.037.11.06.166.221-.097.436-.166.644-.209.207-.042.396-.063.567-.063.272 0 .499.049.677.148.18.1.27.255.27.463 0 .126-.033.237-.096.336-.061.1-.144.183-.246.255-.103.07-.221.125-.358.161-.136.037-.279.056-.426.056h-.443c-.013.057-.019.111-.022.165-.003.054-.008.11-.013.166h.52c.13 0 .257.014.38.039.122.024.23.066.324.122.093.058.167.13.221.221.054.091.081.202.081.332 0 .176-.038.33-.115.463-.077.133-.178.243-.303.331-.125.087-.267.155-.426.2-.159.045-.324.068-.495.068-.198 0-.403-.019-.618-.056-.212-.036-.404-.092-.575-.166l-.127.323c.181.086.389.15.622.193.233.042.469.063.707.063.25 0 .483-.032.699-.094.216-.062.405-.154.567-.276.162-.122.29-.27.384-.442.093-.172.14-.37.14-.591 0-.254-.072-.458-.217-.611-.145-.153-.331-.259-.559-.315v-.008c.285-.085.496-.223.636-.414M57.92 117.093c-.04.255-.113.498-.217.727-.106.23-.254.424-.444.584-.19.16-.436.239-.737.239-.205 0-.374-.033-.508-.098-.133-.066-.238-.154-.315-.265-.077-.11-.131-.237-.162-.382-.032-.145-.047-.294-.047-.448 0-.227.022-.477.069-.75.045-.271.125-.524.238-.758.114-.233.267-.428.46-.587.194-.159.438-.238.733-.238.194 0 .355.036.483.11.127.075.23.171.306.29.077.12.129.257.158.413.028.157.043.316.043.482 0 .198-.021.426-.06.68m.21-1.864c-.117-.153-.268-.275-.452-.366-.184-.09-.412-.136-.684-.136-.363 0-.67.084-.923.25-.252.17-.456.381-.612.64-.155.257-.268.545-.336.859-.068.315-.102.62-.102.915 0 .222.023.428.068.621.045.194.125.365.239.512.112.147.261.263.446.35.184.084.419.127.702.127.385 0 .705-.086.961-.256.255-.17.457-.386.607-.647.15-.26.255-.543.314-.846.06-.305.09-.592.09-.864 0-.222-.024-.433-.072-.632-.048-.198-.13-.374-.247-.527M61.943 116.561L59.811 116.561 60.034 114.81 59.564 114.81 59.061 118.94 59.523 118.94 59.769 116.918 61.918 116.918 61.662 118.94 62.121 118.94 62.634 114.81 62.164 114.81zM65.848 117.955c-.212.175-.436.328-.674.458-.239.13-.475.196-.708.196-.221 0-.411-.088-.567-.264-.156-.175-.233-.47-.233-.884 0-.362.041-.687.127-.977.086-.289.198-.534.34-.734.142-.202.307-.354.495-.46.187-.105.386-.156.596-.156.15 0 .304.015.466.046.162.031.333.087.515.166l-.357 2.609zm.382.611c.012-.124.03-.292.056-.503l.085-.689c.031-.249.064-.508.1-.775.032-.267.065-.52.097-.763.03-.24.06-.455.085-.642.025-.187.046-.33.063-.426l-.34-.017-.07.204c-.168-.068-.344-.12-.523-.158-.18-.037-.36-.054-.54-.054-.36 0-.67.084-.93.25-.262.168-.475.388-.644.657-.168.27-.291.57-.37.902-.08.333-.12.66-.12.983 0 .483.11.846.328 1.09.219.244.492.366.823.366.233 0 .474-.055.725-.166.25-.11.5-.267.75-.47l.008.016c-.012.08-.017.143-.017.19v.107c0 .101.028.18.085.234.057.055.15.08.282.08.067 0 .156-.01.263-.03.109-.019.227-.057.359-.114l-.034-.288-.52.016zM70.704 85.22c-2.028 0-3.656-1.639-3.656-3.72 0-2.08 1.628-3.721 3.656-3.721 2.027 0 3.654 1.64 3.654 3.72 0 2.082-1.627 3.721-3.654 3.721m0-9.306c-3.15 0-5.683 2.479-5.683 5.586 0 3.106 2.533 5.59 5.683 5.59 3.133 0 5.68-2.484 5.68-5.59 0-3.107-2.547-5.586-5.68-5.586M83.344 77.779c.947 0 1.811.256 2.675.69L87.031 77c-1-.719-2.23-1.086-3.687-1.086-3.15 0-5.684 2.525-5.684 5.586 0 3.063 2.534 5.589 5.684 5.589 1.458 0 2.687-.366 3.687-1.087l-.913-1.512c-.822.472-1.766.73-2.774.73-2.029 0-3.658-1.652-3.658-3.72 0-2.067 1.63-3.721 3.658-3.721M96.851 76.221L96.774 76.145 94.791 76.145 94.639 76.221 91.125 80.079 90.656 80.079 90.656 76.221 90.576 76.145 88.952 76.145 88.876 76.221 88.876 86.783 88.952 86.858 90.576 86.858 90.656 86.783 90.656 81.852 91.125 81.852 94.947 86.783 95.099 86.858 97.082 86.858 97.158 86.783 92.628 80.813zM104.199 85.069h-3.452v-3.003h3.452c1 0 1.626.567 1.626 1.502 0 .98-.626 1.501-1.626 1.501zm-3.452-7.135h2.594c1.026 0 1.487.384 1.487 1.117 0 .844-.461 1.226-1.487 1.226h-2.594v-2.343zm5.128 2.85c.565-.355.981-.952.981-1.824 0-1.746-1.429-2.816-3.515-2.816h-4.303l-.073.077v10.562l.073.075h5.22c2.045 0 3.581-1.331 3.581-3.29 0-1.24-.693-2.31-1.964-2.785zM112.369 82.677l1.924-4.13 1.988 4.13h-3.912zm2.864-6.455l-.078-.079h-1.706l-.076.079-4.756 10.56.08.076h1.888l.076-.075 1.06-2.327h5.205l1.004 2.327.077.075h1.889l.075-.075-4.738-10.561zM61.756 76.144L61.6 76.221 57.508 80.567 53.397 76.221 53.244 76.144 51.661 76.144 51.586 76.221 51.586 86.783 51.661 86.859 53.291 86.859 53.367 86.783 53.367 78.854 57.432 83.123 57.584 83.123 61.632 78.854 61.632 86.783 61.708 86.859 63.35 86.859 63.427 86.783 63.427 76.221 63.35 76.144zM25.294 62.363c-.11-.518-.574-.912-1.127-.912-.102 0-.2.017-.294.042l-5.536-11.97c.167-.09.313-.218.419-.378l26.568 12.278c-.005.04-.012.079-.012.12 0 .03.006.058.008.088l-20.026.732zM5.088 40.771c.063-.14.098-.296.098-.46 0-.205-.058-.395-.152-.56l6.457-4.11c.205.188.474.305.773.305.09 0 .177-.013.26-.032l4.558 11.704c-.058.046-.11.096-.158.15L5.088 40.772zm12.04-33.395c.19.135.42.216.67.216.632 0 1.149-.516 1.149-1.15 0-.043-.009-.084-.013-.126l17.785-1.963c.012.037.02.076.036.112L6.057 23.135l-.02-.017 11.09-15.742zm38.527 6.958c-.1.17-.162.365-.162.575 0 .036.008.07.01.105l-8.011 2.811c-.21-.235-.513-.387-.855-.387-.124 0-.242.025-.356.062L38.585 4.86c.042-.038.08-.08.115-.122l16.955 9.596zm4.437 13.13c-.145.04-.278.106-.393.195l-11.977-8.71c.038-.115.065-.237.065-.366 0-.147-.03-.286-.082-.416l7.903-2.77c.185.388.58.66 1.039.66.107 0 .208-.02.307-.047l3.138 11.454zm-.788 17.575c-.056 0-.109.01-.162.017l-11.82-25.553c.077-.059.147-.127.208-.203l11.897 8.653c-.112.177-.178.385-.178.61 0 .604.47 1.093 1.067 1.138-.666 9.45-.93 13.55-1 15.34l-.012-.002zm-40.366 3.39l14.623-1.798c.148.463.578.8 1.093.8.28 0 .534-.104.734-.27l10.201 13.642c-.06.072-.113.15-.156.237L18.911 48.785c.021-.088.036-.178.036-.273 0-.028-.007-.055-.009-.083zm-6.021-14.577c-.186-.127-.41-.202-.653-.202-.151 0-.295.03-.427.083l-5.664-8.9c.203-.207.33-.489.33-.801 0-.222-.067-.427-.177-.602L36.95 4.806 12.917 33.852zM45.9 19.461L35.164 45.259c-.155-.077-.327-.124-.51-.124-.32 0-.61.13-.818.339L13.35 35.166c.04-.117.067-.24.067-.37 0-.074-.009-.147-.023-.218l32.191-15.526c.072.16.181.297.314.409zm.476.238v40.705c-.174.013-.336.064-.48.146l-6.243-8.344-4.005-5.356c.097-.168.157-.36.157-.569 0-.302-.122-.578-.316-.783l10.753-25.84c.043.016.087.03.134.041zM37.814 5.16c.155 0 .304-.031.44-.087l7.678 12.612c-.27.21-.447.533-.447.898 0 .025.005.049.007.073L13.25 34.212c-.017-.028-.032-.056-.051-.081L37.284 5.026c.16.083.338.134.53.134zM4.782 39.444c-.175-.15-.394-.245-.635-.27L5.38 25.177c.17-.004.328-.045.473-.115l5.652 8.88c-.237.21-.39.513-.39.854 0 .193.052.372.136.531l-6.468 4.117zm13.016 7.92c-.128 0-.248.026-.363.063l-4.547-11.666c.104-.068.195-.154.273-.25l20.45 10.29c-.064.134-.1.282-.106.438l-14.663 1.803c-.18-.398-.58-.678-1.044-.678zM47.224 60.69c-.13-.116-.285-.201-.457-.249V19.72c.07-.008.135-.021.199-.04l11.797 25.5c-.364.192-.613.568-.613 1.006 0 .35.16.66.409.87L47.224 60.69zm11.68-13.432c.124.046.258.075.4.075.632 0 1.148-.514 1.148-1.148 0-.493-.314-.909-.752-1.07.14-2.733.627-9.926 1.015-15.454.48-.137.836-.574.836-1.097 0-.606-.47-1.093-1.06-1.138L57.313 15.84c.29-.21.482-.548.482-.932 0-.633-.513-1.148-1.15-1.148-.277 0-.529.104-.728.266L38.895 4.395c.042-.12.07-.246.07-.38 0-.635-.516-1.148-1.151-1.148-.615 0-1.118.484-1.147 1.094L18.823 5.933c-.19-.376-.576-.638-1.025-.638-.64 0-1.157.515-1.157 1.148 0 .24.076.463.203.648L5.68 22.941c-.105-.032-.215-.054-.33-.054-.636 0-1.151.512-1.151 1.145 0 .507.33.932.788 1.084L3.75 39.203c-.498.126-.866.57-.866 1.108 0 .634.513 1.146 1.151 1.146.328 0 .623-.139.832-.359l11.853 7.006c-.049.128-.079.264-.079.408 0 .637.517 1.151 1.157 1.151.056 0 .109-.009.161-.016l5.554 12.01c-.3.207-.498.552-.498.94 0 .635.518 1.15 1.152 1.15.58 0 1.056-.43 1.135-.987l20.117-.739c.183.394.58.671 1.043.671.635 0 1.152-.517 1.152-1.15 0-.195-.054-.376-.14-.538l11.43-13.746z"/>
        <mask id="prefix__b" fill="#fff">
            <use xlink:href="#prefix__a"/>
        </mask>
        <path fill="#FEFEFE" d="M56.868 54.762l-.152-16.161c.513-.114.9-.571.9-1.122 0-.181-.046-.35-.122-.502l5.298-4.222c.115.097.248.17.395.217l-6.303 21.795-.016-.005zM37.72 66.115l5.695-8.148c.138.06.29.093.45.093.576 0 1.05-.427 1.134-.98l10.442-.932c.037.142.098.273.184.388l-17.818 9.681c-.028-.035-.055-.07-.087-.102zm-27.285-9.06l4.027-2.388c.212.275.54.455.912.455.254 0 .487-.084.677-.224l19.08 11.214-24.635-8.469c.009-.059.017-.118.017-.18 0-.144-.029-.28-.078-.407zM2.305 29.78c0-.082-.01-.162-.027-.24l3.711-1.25c.155.388.52.67.955.712l2.074 26.643L1.55 30.854c.439-.163.753-.581.753-1.074zm6.592-18.967l-1.905 15.91c-.606.033-1.086.528-1.086 1.143 0 .013.003.025.004.038L2.129 29.18c-.118-.188-.287-.34-.489-.433l7.257-17.933zm.629-.275c.634 0 1.153-.514 1.153-1.146 0-.016-.004-.03-.005-.044L28.692 6.51c.017.106.05.206.094.3L7.736 26.943c-.105-.077-.222-.135-.35-.173L9.33 10.519c.064.01.128.02.196.02zm19.49-3.4c.17.167.39.278.637.314.14 1.658.545 5.192 1.474 12.786.65 5.353 1.328 10.751 1.607 12.965-.283.1-.514.306-.646.571L8.199 27.801c-.012-.213-.078-.411-.189-.576L29.016 7.138zm1.949-.939c-.039-.355-.238-.662-.527-.845l1.56-2.806c.114.039.237.065.365.065.527 0 .966-.357 1.103-.834l21.483 9.665-23.984-5.245zM56.32 36.35c-.154.019-.296.068-.425.141L30.758 6.988c.084-.117.147-.25.182-.394l24.485 5.359c-.017.077-.026.156-.026.238 0 .634.517 1.147 1.154 1.147h.007l-.239 23.011zM30.476 7.265L55.59 36.74c-.103.119-.18.258-.226.412l-21.104-2.961c-.048-.59-.535-1.056-1.139-1.059-.885-7.022-2.666-21.349-3.079-25.686.158-.03.305-.094.433-.182zM8.15 28.195l23.827 5.957c-.005.043-.013.086-.013.13 0 .237.072.457.197.64L15.843 52.927c-.143-.064-.301-.102-.469-.102-.165 0-.322.036-.463.098L7.624 28.857c.252-.145.442-.38.527-.663zm8.367 25.84c.002-.022.006-.042.006-.064 0-.324-.135-.614-.352-.823l16.265-17.944c.19.14.424.227.68.227.097 0 .19-.016.28-.039 1.943 4.116 7.94 16.812 9.766 20.612-.212.166-.369.4-.426.672l-26.219-2.641zm27.913 1.88c-.168-.096-.359-.154-.566-.154-.123 0-.24.024-.352.06-1.613-3.361-6.6-13.911-9.753-20.587.226-.152.391-.383.464-.65l21.094 2.958c.018.333.176.624.417.822-4.01 6.343-9.41 14.786-11.304 17.55zM11.353 8.84L31.272 1.81c.07.22.202.409.38.55L30.068 5.2c-.08-.017-.161-.028-.246-.028-.563 0-1.029.405-1.129.937L11.353 8.841zM9.469 56.328L7.373 29.395l7.195 23.759c-.213.208-.346.497-.346.817 0 .12.024.234.057.343l-4.048 2.405c-.188-.218-.456-.363-.762-.391zm27.439 9.454c-.35 0-.66.159-.87.405l-19.706-11.58c.039-.058.073-.12.101-.186L42.73 57.07c.038.268.166.505.356.68l-5.692 8.143c-.148-.07-.312-.11-.486-.11zm8.086-9.094c-.04-.205-.138-.388-.272-.54C45.9 54.474 48.8 50.069 56.08 38.56c.077.028.158.046.241.057l.15 16.106c-.563.04-1.01.474-1.062 1.031l-10.415.935zm18.21-25.901c-.475.142-.822.576-.822 1.097 0 .207.06.4.156.567l-5.276 4.206c-.15-.143-.335-.246-.544-.293l.24-23.103.028-.008 6.218 17.534zm1.48 1.097c0-.612-.48-1.105-1.077-1.144L57.33 13.032c.227-.21.371-.507.371-.84 0-.637-.512-1.148-1.148-1.148-.314 0-.597.125-.805.326L33.505 1.368c-.05-.591-.538-1.05-1.142-1.05-.617 0-1.116.481-1.145 1.095L10.47 8.738c-.209-.298-.553-.493-.944-.493-.636 0-1.155.513-1.155 1.147 0 .319.132.607.345.816L1.254 28.645c-.034-.004-.067-.01-.102-.01-.638 0-1.152.511-1.152 1.145 0 .633.514 1.148 1.152 1.148h.008L8.846 56.44c-.377.189-.639.573-.639 1.022 0 .637.516 1.147 1.152 1.147.436 0 .81-.24 1.006-.591l25.41 8.731c-.009.06-.017.119-.017.181 0 .634.514 1.148 1.15 1.148.637 0 1.155-.514 1.155-1.148 0-.13-.027-.252-.066-.368l17.93-9.741c.18.116.395.185.626.185.636 0 1.148-.513 1.148-1.148 0-.374-.18-.701-.455-.91l6.337-21.923c.61-.027 1.1-.526 1.1-1.142z" mask="url(#prefix__b)"/>
    </g>
</svg>
