<?xml version="1.0" encoding="UTF-8"?>
<svg width="24px" height="24px" viewBox="0 0 24 24" version="1.1" xmlns="http://www.w3.org/2000/svg" xmlns:xlink="http://www.w3.org/1999/xlink">
    <!-- Generator: Sketch 57.1 (83088) - https://sketch.com -->
    <title>smartphone</title>
    <desc>Created with Sketch.</desc>
    <g id="Расположение+-адаптив+" stroke="none" stroke-width="1" fill="none" fill-rule="evenodd">
        <g id="Видный-берег_расположение_офис-продаж_1600" transform="translate(-57.000000, -1064.000000)" fill="#898989" fill-rule="nonzero">
            <g id="Group-22" transform="translate(16.000000, 566.000000)">
                <g id="Group-24" transform="translate(41.000000, 79.000000)">
                    <g id="Group-27" transform="translate(0.000000, 267.000000)">
                        <g id="Group-5" transform="translate(0.000000, 150.000000)">
                            <g id="smartphone" transform="translate(0.000000, 2.000000)">
                                <path d="M17.038,0 L6.962,0 C5.9908,0 5.2,0.7908 5.2,1.762 L5.2,22.2376 C5.2,23.2092 5.9908,24 6.962,24 L17.0376,24 C18.0092,24 18.8,23.2092 18.8,22.238 L18.8,1.762 C18.8,0.7908 18.0092,0 17.038,0 Z M6,3.2 L18,3.2 L18,18.4 L6,18.4 L6,3.2 Z M6.962,0.8 L17.0376,0.8 C17.5684,0.8 18,1.2316 18,1.762 L18,2.4 L6,2.4 L6,1.762 C6,1.2316 6.4316,0.8 6.962,0.8 Z M17.038,23.2 L6.962,23.2 C6.4316,23.2 6,22.7684 6,22.238 L6,19.2 L18,19.2 L18,22.238 C18,22.7684 17.5684,23.2 17.038,23.2 Z" id="Shape"></path>
                                <path d="M12,19.6 C11.1176,19.6 10.4,20.3176 10.4,21.2 C10.4,22.0824 11.1176,22.8 12,22.8 C12.8824,22.8 13.6,22.0824 13.6,21.2 C13.6,20.3176 12.8824,19.6 12,19.6 Z M12,22 C11.5588,22 11.2,21.6412 11.2,21.2 C11.2,20.7588 11.5588,20.4 12,20.4 C12.4412,20.4 12.8,20.7588 12.8,21.2 C12.8,21.6412 12.4412,22 12,22 Z" id="Shape"></path>
                                <path d="M10.4,2 L12,2 C12.2212,2 12.4,1.8212 12.4,1.6 C12.4,1.3788 12.2212,1.2 12,1.2 L10.4,1.2 C10.1788,1.2 10,1.3788 10,1.6 C10,1.8212 10.1788,2 10.4,2 Z" id="Path"></path>
                                <path d="M13.2,2 L13.6,2 C13.8212,2 14,1.8212 14,1.6 C14,1.3788 13.8212,1.2 13.6,1.2 L13.2,1.2 C12.9788,1.2 12.8,1.3788 12.8,1.6 C12.8,1.8212 12.9788,2 13.2,2 Z" id="Path"></path>
                                <path d="M22.6448,1.8276 C22.4884,1.6712 22.2356,1.6712 22.0792,1.8276 C21.9228,1.984 21.9228,2.2368 22.0792,2.3932 C23.5736,3.8876 23.5736,6.3192 22.0792,7.814 C21.9228,7.9704 21.9228,8.2232 22.0792,8.3796 C22.1572,8.4576 22.2596,8.4968 22.362,8.4968 C22.4644,8.4968 22.5668,8.4576 22.6448,8.3796 C24.4512,6.5736 24.4512,3.634 22.6448,1.8276 Z" id="Path"></path>
                                <path d="M20.9604,2.738 C20.804,2.5816 20.5512,2.5816 20.3948,2.738 C20.2384,2.8944 20.2384,3.1472 20.3948,3.3036 C20.8896,3.7984 21.162,4.4576 21.162,5.1592 C21.162,5.8608 20.8896,6.5196 20.3948,7.0144 C20.2384,7.1708 20.2384,7.4236 20.3948,7.58 C20.4728,7.658 20.5752,7.6972 20.6776,7.6972 C20.78,7.6972 20.8824,7.658 20.9604,7.58 C21.6064,6.9344 21.962,6.0744 21.962,5.1592 C21.962,4.244 21.6068,3.3836 20.9604,2.738 Z" id="Path"></path>
                                <path d="M1.9208,2.3932 C2.0772,2.2368 2.0772,1.984 1.9208,1.8276 C1.7644,1.6712 1.5116,1.6712 1.3552,1.8276 C-0.4512,3.634 -0.4512,6.5732 1.3552,8.3796 C1.4332,8.4576 1.5356,8.4968 1.638,8.4968 C1.7404,8.4968 1.8428,8.4576 1.9208,8.3796 C2.0772,8.2232 2.0772,7.9704 1.9208,7.814 C0.426,6.3196 0.426,3.888 1.9208,2.3932 Z" id="Path"></path>
                                <path d="M3.6052,2.6276 C3.4488,2.4712 3.196,2.4712 3.0396,2.6276 C2.3936,3.2732 2.038,4.1332 2.038,5.0484 C2.038,5.9636 2.3936,6.8236 3.0396,7.4696 C3.1176,7.5476 3.22,7.5868 3.3224,7.5868 C3.4248,7.5868 3.5272,7.5476 3.6052,7.4696 C3.7616,7.3132 3.7616,7.0604 3.6052,6.904 C3.1104,6.4092 2.838,5.75 2.838,5.0484 C2.838,4.3468 3.11,3.688 3.6052,3.1932 C3.7612,3.0372 3.7612,2.784 3.6052,2.6276 Z" id="Path"></path>
                            </g>
                        </g>
                    </g>
                </g>
            </g>
        </g>
    </g>
</svg>