<svg xmlns="http://www.w3.org/2000/svg" xmlns:xlink="http://www.w3.org/1999/xlink" width="24" height="24" viewBox="0 0 24 24">
    <defs>
        <path id="a" d="M8.849 13.208a3.949 3.949 0 0 0-5.221-.463 4.04 4.04 0 0 0-1.14 5.165 3.96 3.96 0 0 0 4.92 1.82c1.86-.725 2.902-2.728 2.435-4.686h.994a.99.99 0 0 0 .696-.29l.467-.472.467.471a.99.99 0 0 0 .696.291h.994c-.467 1.958.574 3.961 2.435 4.686a3.96 3.96 0 0 0 4.92-1.82 4.04 4.04 0 0 0-1.14-5.165 3.949 3.949 0 0 0-5.22.463l-1.044-1.054 4.97-5.019c.56-.564.874-1.33.875-2.128V3.502A.5.5 0 0 0 19.456 3h-.288a.485.485 0 0 0-.358.15L8.849 13.209zm10.517 1.425c.67.68.77 1.741.24 2.536a1.978 1.978 0 0 1-2.417.73 2.012 2.012 0 0 1-1.181-2.25 1.993 1.993 0 0 1 1.957-1.608c.526.002 1.03.215 1.401.592zm-14.732 2.83a2.019 2.019 0 0 1-.64-1.994 1.998 1.998 0 0 1 1.468-1.482 1.977 1.977 0 0 1 1.975.646c.567.49.815 1.26.64 1.994a1.998 1.998 0 0 1-1.468 1.482 1.977 1.977 0 0 1-1.975-.646zM5.19 3.151A.485.485 0 0 0 4.832 3h-.288a.5.5 0 0 0-.497.502v1.505c0 .799.315 1.564.875 2.128L8.66 10.92l2.107-2.128-5.577-5.64z"/>
    </defs>
    <g fill="none" fill-rule="evenodd">
        <mask id="b" fill="#fff">
            <use xlink:href="#a"/>
        </mask>
        <use fill="#9C9C9C" fill-rule="nonzero" xlink:href="#a"/>
        <g fill="#9C9C9C" mask="url(#b)">
            <path d="M0 0h24v24H0z"/>
        </g>
    </g>
</svg>
