<svg xmlns="http://www.w3.org/2000/svg" xmlns:xlink="http://www.w3.org/1999/xlink" width="24" height="24" viewBox="0 0 24 24">
    <defs>
        <path id="a" d="M8.65 13.94l5.29-5.29a.5.5 0 0 1 .71 0l.7.7a.5.5 0 0 1 0 .71l-5.29 5.29a.5.5 0 0 1-.71 0l-.7-.7a.5.5 0 0 1 0-.71zM21 7.66V8a4 4 0 0 1-1.18 2.84L17 13.67a1.35 1.35 0 0 1-1.9 0l-.1-.11a.5.5 0 0 1 0-.7l3.44-3.44A2 2 0 0 0 19 8v-.34a2 2 0 0 0-.59-1.42l-.65-.65A2 2 0 0 0 16.34 5H16a2 2 0 0 0-1.42.59L11.14 9a.5.5 0 0 1-.7 0l-.11-.11a1.35 1.35 0 0 1 0-1.9l2.83-2.84A4 4 0 0 1 16 3h.34a4 4 0 0 1 2.83 1.17l.66.66A4 4 0 0 1 21 7.66zM12.86 15a.5.5 0 0 1 .7 0l.11.11a1.35 1.35 0 0 1 0 1.9l-2.85 2.85A4 4 0 0 1 8 21h-.34a4 4 0 0 1-2.83-1.17l-.66-.66A4 4 0 0 1 3 16.35V16a4 4 0 0 1 1.18-2.84L7 10.33a1.35 1.35 0 0 1 1.9 0l.11.11a.5.5 0 0 1 0 .7l-3.42 3.44A2 2 0 0 0 5 16v.34a2 2 0 0 0 .59 1.42l.65.65a2 2 0 0 0 1.42.59H8a2 2 0 0 0 1.43-.59L12.86 15z"/>
    </defs>
    <g fill="none" fill-rule="evenodd">
        <path d="M0 0h24v24H0z"/>
        <mask id="b" fill="#fff">
            <use xlink:href="#a"/>
        </mask>
        <use fill="#9b9b9b" fill-rule="nonzero" xlink:href="#a"/>
        <g fill="#9b9b9b" mask="url(#b)">
            <path d="M0 0h24v24H0z"/>
        </g>
    </g>
</svg>
