<svg xmlns="http://www.w3.org/2000/svg" width="19" height="24" viewBox="0 0 19 24">
    <g fill="#EE4237" fill-rule="evenodd">
        <path d="M1 24v-3h1v2h16V1H2v9H1V0h18v24H1z"/>
        <path fill-rule="nonzero" d="M1.032 15.495V18H.188v-6.398h2.36c.7 0 1.25.178 1.646.536.397.357.596.83.596 1.42 0 .62-.195 1.098-.583 1.434-.388.335-.944.503-1.667.503H1.032zm0-.69h1.516c.452 0 .797-.106 1.037-.318.24-.213.36-.52.36-.921 0-.38-.12-.686-.36-.914-.24-.229-.57-.347-.988-.356H1.032v2.51zM5.866 18v-6.398h1.806c.557 0 1.05.123 1.477.369.428.246.758.596.99 1.05.234.454.352.976.355 1.564v.41c0 .603-.117 1.131-.35 1.586a2.457 2.457 0 0 1-.997 1.045c-.432.244-.936.368-1.51.374h-1.77zm.844-5.704v5.014h.888c.65 0 1.156-.202 1.518-.606.362-.405.543-.98.543-1.727v-.374c0-.727-.171-1.291-.512-1.694-.342-.403-.826-.607-1.453-.613H6.71zm8.587 2.878h-2.685V18h-.844v-6.398h3.964v.694h-3.12v2.188h2.685v.69z"/>
    </g>
</svg>
