<?xml version="1.0" encoding="UTF-8"?>
<svg width="32px" height="32px" viewBox="0 0 32 32" version="1.1" xmlns="http://www.w3.org/2000/svg" xmlns:xlink="http://www.w3.org/1999/xlink">
    <!-- Generator: Sketch 57.1 (83088) - https://sketch.com -->
    <title>discount</title>
    <desc>Created with Sketch.</desc>
    <g id="Новости-и-акции+-адаптив+" stroke="none" stroke-width="1" fill="none" fill-rule="evenodd">
        <g id="Видный-берег_новости-и-акции_просмотр-акции-с-квартирами_1600" transform="translate(-1144.000000, -1324.000000)" fill-rule="nonzero">
            <g id="Group-5" transform="translate(196.000000, 1150.000000)">
                <g id="discount" transform="translate(948.000000, 174.000000)">
                    <path d="M30.529828,16.0011078 L31.9337863,12.3393613 C32.0877817,11.9353893 31.9677852,11.477421 31.6297953,11.20344 L28.5858858,8.73561085 L27.9699041,4.86187907 C27.9019061,4.4339087 27.5659161,4.09993183 27.1379289,4.03193654 L23.264044,3.41597919 L20.7981174,0.37019008 C20.5261255,0.0322134823 20.0581394,-0.0877782093 19.6641511,0.0662111283 L16.00026,1.47211378 L12.3383689,0.0682109898 C11.932381,-0.0877782093 11.4783945,0.0362132054 11.2044026,0.372189942 L8.73647601,3.41797905 L4.8625912,4.0339364 C4.43660387,4.10193169 4.10061386,4.43790843 4.03261588,4.86387893 L3.4166342,8.73761071 L0.370724766,11.2054398 C0.0347347561,11.477421 -0.0872616164,11.9353893 0.0667338047,12.3393613 L1.47069206,16.0011078 L0.0667338047,19.6628542 C-0.0892615569,20.0668263 0.0347347561,20.5247946 0.370724766,20.7967757 L3.4166342,23.262605 L4.03261588,27.1363368 C4.10061386,27.5643071 4.43460393,27.9002839 4.8625912,27.9682792 L8.73647601,28.5842365 L11.2044026,31.6280258 C11.4783945,31.9680022 11.9363809,32.0879939 12.3403689,31.9320047 L16.00026,30.5301018 L19.6621511,31.9340046 C19.7781477,31.9780015 19.8981441,32 20.0201405,32 C20.3141318,32 20.6041231,31.870009 20.7981174,31.6280258 L23.264044,28.5842365 L27.1379289,27.9682792 C27.5659161,27.9002839 27.9019061,27.5643071 27.9699041,27.1363368 L28.5858858,23.262605 L31.6297953,20.7967757 C31.9677852,20.5227947 32.0877817,20.0668263 31.9337863,19.6628542 L30.529828,16.0011078 Z" id="Path" fill="#D45A42"></path>
                    <g id="Group" transform="translate(10.000000, 8.000000)" fill="#FAFAFA">
                        <path d="M2.98582383,5.97883268 C1.34039378,5.97883268 0.00136787565,4.63807004 0.00136787565,2.99050584 C0.00136787565,1.34294163 1.34039378,0.00217898833 2.98582383,0.00217898833 C4.63125389,0.00217898833 5.97027979,1.34294163 5.97027979,2.99050584 C5.97027979,4.63807004 4.63125389,5.97883268 2.98582383,5.97883268 Z M2.98582383,1.99439689 C2.43668394,1.99439689 1.99100518,2.4406537 1.99100518,2.99050584 C1.99100518,3.54035798 2.43668394,3.98661479 2.98582383,3.98661479 C3.53496373,3.98661479 3.98064249,3.54035798 3.98064249,2.99050584 C3.98064249,2.4406537 3.53496373,1.99439689 2.98582383,1.99439689 Z" id="Shape"></path>
                        <path d="M8.95473575,15.9399222 C7.3093057,15.9399222 5.97027979,14.5991595 5.97027979,12.9515953 C5.97027979,11.3040311 7.3093057,9.96326848 8.95473575,9.96326848 C10.6001658,9.96326848 11.9391917,11.3040311 11.9391917,12.9515953 C11.9391917,14.5991595 10.6001658,15.9399222 8.95473575,15.9399222 Z M8.95473575,11.9554864 C8.40758549,11.9554864 7.9599171,12.4037354 7.9599171,12.9515953 C7.9599171,13.4994553 8.40758549,13.9477043 8.95473575,13.9477043 C9.50188601,13.9477043 9.9495544,13.4994553 9.9495544,12.9515953 C9.9495544,12.4037354 9.50188601,11.9554864 8.95473575,11.9554864 Z" id="Shape"></path>
                        <path d="M0.996186528,15.9399222 C0.795233161,15.9399222 0.594279793,15.8801556 0.41919171,15.7546459 C-0.0284766839,15.4338988 -0.131937824,14.8123268 0.188393782,14.3640778 L10.1365803,0.418552529 C10.4569119,-0.0296964981 11.0776788,-0.133291829 11.5253472,0.187455253 C11.9730155,0.506210117 12.074487,1.12977432 11.7561451,1.57603113 L1.80795855,15.5215564 C1.61098446,15.7944903 1.30656995,15.9399222 0.996186528,15.9399222 Z" id="Path"></path>
                    </g>
                </g>
            </g>
        </g>
    </g>
</svg>