<svg xmlns="http://www.w3.org/2000/svg" xmlns:xlink="http://www.w3.org/1999/xlink" width="77" height="74" viewBox="0 0 77 74">
    <defs>
        <path id="a" d="M0 .052h65.992v45.86H0z"/>
    </defs>
    <g fill="none" fill-rule="evenodd">
        <path fill="#000" d="M69.757 66.077c0-3.156-.09-6.18.03-9.196.088-2.233-.356-4.245-1.338-6.251-1.526-3.117-2.857-6.33-4.302-9.573-4.269 1.552-8.44 3.057-12.597 4.598-.372.138-.69.48-.98.777a1123.907 1123.907 0 0 0-8.155 8.415c-.403.421-.659.984-1.04 1.57l-10.96-13.663c-2.106 4.928-3.967 9.682-6.16 14.276-1.418 2.973-.793 5.965-.99 9.047h46.492zM46.001 31.001c9.058 0 18.115-.002 27.172 0 2.805.002 3.826 1.028 3.826 3.84v35.382C76.998 72.933 75.932 74 73.223 74H18.75c-2.702 0-3.749-1.06-3.749-3.79-.001-11.836-.002-23.673 0-35.51.001-2.654 1.038-3.695 3.7-3.696 9.1-.005 18.2-.002 27.3-.002z"/>
        <g>
            <mask id="b" fill="#fff">
                <use xlink:href="#a"/>
            </mask>
            <path fill="#000" d="M65.992 24.064c-2.481 0-4.875.033-7.266-.036-.36-.01-.774-.437-1.048-.77-2.724-3.302-5.423-6.625-8.131-9.94-.238-.29-.494-.565-.804-.918-1.244.877-2.446 1.72-3.643 2.569-3.999 2.836-7.983 5.691-12.007 8.489a3.488 3.488 0 0 1-1.844.584c-4.087.05-8.173.023-12.26.027-6.108.005-10.36 4.17-10.472 10.341-.066 3.575-.013 7.153-.018 10.73 0 .24-.032.481-.272.772-.475-1.324-.95-2.65-1.427-3.973-2.143-5.95-4.289-11.9-6.428-17.851-.88-2.449-.211-3.944 2.16-4.818C19.56 12.994 36.588 6.72 53.617.45c2.477-.912 3.865-.284 4.746 2.161 2.448 6.788 4.883 13.58 7.318 20.373.113.314.186.642.31 1.08" mask="url(#b)"/>
        </g>
    </g>
</svg>
