<?xml version="1.0" encoding="UTF-8"?>
<svg width="32px" height="29px" viewBox="0 0 32 29" version="1.1" xmlns="http://www.w3.org/2000/svg" xmlns:xlink="http://www.w3.org/1999/xlink">
    <!-- Generator: Sketch 59.1 (86144) - https://sketch.com -->
    <title>Иконка_полотенцесушитель</title>
    <desc>Created with Sketch.</desc>
    <g id="overflow_отделка" stroke="none" stroke-width="1" fill="none" fill-rule="evenodd">
        <g id="Artboard" transform="translate(-57.000000, -92.000000)">
            <g id="Иконка_полотенцесушитель" transform="translate(57.000000, 92.000000)">
                <g id="Group">
                    <path d="M31.5,7.5 L31.5,0.5 L4,0.5 C2.06700338,0.5 0.5,2.06700338 0.5,4 C0.5,5.93299662 2.06700338,7.5 4,7.5 L31.5,7.5 Z" id="Rectangle" stroke="#898989"></path>
                    <rect id="Rectangle" fill="#FFFFFF" x="28" y="1" width="4" height="7"></rect>
                    <path d="M27.5,21.5 L27.5,14.5 L4,14.5 C2.06700338,14.5 0.5,16.0670034 0.5,18 C0.5,19.9329966 2.06700338,21.5 4,21.5 L27.5,21.5 Z" id="Rectangle-Copy" stroke="#898989"></path>
                    <rect id="Rectangle-Copy-3" stroke="#898989" x="16.5" y="7.5" width="15" height="7" rx="3.5"></rect>
                    <path d="M4.5,21.5 L4.5,28.5 L28,28.5 C29.9329966,28.5 31.5,26.9329966 31.5,25 C31.5,23.0670034 29.9329966,21.5 28,21.5 L4.5,21.5 Z" id="Rectangle-Copy-2" stroke="#898989"></path>
                    <rect id="Rectangle" stroke="#898989" x="0.5" y="28.5" width="3" height="1"></rect>
                    <rect id="Rectangle-Copy-5" fill="#FFFFFF" x="16" y="8" width="4" height="6"></rect>
                    <rect id="Rectangle-Copy-6" fill="#FFFFFF" x="17" y="15" width="15" height="6"></rect>
                    <rect id="Rectangle-Copy-7" fill="#FFFFFF" x="0" y="22" width="15" height="6"></rect>
                </g>
            </g>
        </g>
    </g>
</svg>