<svg xmlns="http://www.w3.org/2000/svg" width="32" height="32" viewBox="0 0 32 32">
    <defs>
        <filter id="a" width="253.1%" height="253.1%" x="-76.6%" y="-76.6%" filterUnits="objectBoundingBox">
            <feOffset dy="1" in="SourceAlpha" result="shadowOffsetOuter1"/>
            <feGaussianBlur in="shadowOffsetOuter1" result="shadowBlurOuter1" stdDeviation="5"/>
            <feColorMatrix in="shadowBlurOuter1" result="shadowMatrixOuter1" values="0 0 0 0 0 0 0 0 0 0 0 0 0 0 0 0 0 0 0.2 0"/>
            <feMerge>
                <feMergeNode in="shadowMatrixOuter1"/>
                <feMergeNode in="SourceGraphic"/>
            </feMerge>
        </filter>
    </defs>
    <g fill="none" fill-rule="evenodd" filter="url(#a)">
        <circle cx="16" cy="16" r="17.5" fill="#EC1F27" stroke="#FFF" stroke-width="3"/>
        <path fill="#FFF" fill-rule="nonzero" d="M20.518 8v2.752l-2.048-.001v1.792l2.824.001c.424 0 .706.256.706.64v9.6c0 .32-.353.64-.706.64H10.706c-.424 0-.706-.256-.706-.64v-9.6c0-.384.282-.64.706-.64l2.752-.001v-1.792l-1.976.001V8h9.036zm-3.6 6.336H14.94v2.303l-2.47.001v1.792l2.47-.001v2.241h1.977v-2.241l2.54.001V16.64l-2.54-.001v-2.303z"/>
    </g>
</svg>
