<svg xmlns="http://www.w3.org/2000/svg" width="32" height="32" viewBox="0 0 32 32">
    <defs>
        <filter id="a" width="253.1%" height="253.1%" x="-76.6%" y="-76.6%" filterUnits="objectBoundingBox">
            <feOffset dy="1" in="SourceAlpha" result="shadowOffsetOuter1"/>
            <feGaussianBlur in="shadowOffsetOuter1" result="shadowBlurOuter1" stdDeviation="5"/>
            <feColorMatrix in="shadowBlurOuter1" result="shadowMatrixOuter1" values="0 0 0 0 0 0 0 0 0 0 0 0 0 0 0 0 0 0 0.2 0"/>
            <feMerge>
                <feMergeNode in="shadowMatrixOuter1"/>
                <feMergeNode in="SourceGraphic"/>
            </feMerge>
        </filter>
    </defs>
    <g fill="none" fill-rule="evenodd" filter="url(#a)">
        <circle cx="16" cy="16" r="17.5" fill="#F2883D" stroke="#FFF" stroke-width="3"/>
        <g fill="#FFF">
            <path d="M14.005 8v15a1 1 0 0 1-2 0v-5H11a1 1 0 0 1-.97-1.243L10.47 15a16.857 16.857 0 0 1 2.517-5.538L14.005 8z"/>
            <g transform="translate(16 8)">
                <path d="M.5 0a.5.5 0 0 1 .5.5V5h1.5V.5a.5.5 0 0 1 1 0V5H5V.5a.5.5 0 0 1 1 0V6a1 1 0 0 1-1 1H1a1 1 0 0 1-1-1V.5A.5.5 0 0 1 .5 0z"/>
                <rect width="2" height="8" x="2" y="8" rx=".5"/>
            </g>
        </g>
    </g>
</svg>
