<svg xmlns="http://www.w3.org/2000/svg" width="32" height="32" viewBox="0 0 32 32">
    <defs>
        <filter id="a" width="253.1%" height="253.1%" x="-76.6%" y="-76.6%" filterUnits="objectBoundingBox">
            <feOffset dy="1" in="SourceAlpha" result="shadowOffsetOuter1"/>
            <feGaussianBlur in="shadowOffsetOuter1" result="shadowBlurOuter1" stdDeviation="5"/>
            <feColorMatrix in="shadowBlurOuter1" result="shadowMatrixOuter1" values="0 0 0 0 0 0 0 0 0 0 0 0 0 0 0 0 0 0 0.2 0"/>
            <feMerge>
                <feMergeNode in="shadowMatrixOuter1"/>
                <feMergeNode in="SourceGraphic"/>
            </feMerge>
        </filter>
    </defs>
    <g fill="none" fill-rule="evenodd" filter="url(#a)">
        <circle cx="16" cy="16" r="17.5" fill="#FA9191" stroke="#FFF" stroke-width="3"/>
        <path fill="#FFF" fill-rule="nonzero" d="M23.304 11.887h-3.13C20.174 9.749 18.296 8 16 8c-2.296 0-4.174 1.749-4.174 3.887h-3.13c-.418 0-.696.259-.696.647v10.818c0 .389.278.648.696.648h14.608c.418 0 .696-.26.696-.648V12.534c0-.388-.278-.647-.696-.647zM16 9.296c1.46 0 2.783 1.23 2.783 2.59h-5.566c0-1.424 1.253-2.59 2.783-2.59zm3.478 9.327h-2.782v2.592h-1.392v-2.592h-2.782v-1.295h2.782v-2.591h1.392v2.59h2.782v1.296z"/>
    </g>
</svg>
