<svg xmlns="http://www.w3.org/2000/svg" width="28" height="28" viewBox="0 0 28 28">
    <g fill="none" fill-rule="evenodd">
        <circle cx="14" cy="14" r="14" fill="#FFCB00"/>
        <path fill="#FFF" fill-rule="nonzero" d="M21.772 16.19c-.295-.238-.738-.238-.984.048 0 0-.492.476-1.377 1-.295-.81-.984-2.571-1.918-3.762.196-.19.59-.476.983-.428.689.095 1.574 1 1.574 1l.837-1.238s-1.033-.905-2.214-1c-1.18-.096-1.77 1-1.77 1-1.624-1.381-4.133-.334-4.33-1.429C11.983 7.952 9.13 8 9.13 8l.05.381s-2.165 1.524-1.722 2.19c.492.81 2.066-.095 2.066-.095s1.033 1.334.393 3.143c-.393 1.143-.984 2.905-1.279 3.667-.934-.524-1.426-1.048-1.426-1.048-.246-.286-.689-.286-.984-.048-.295.239-.295.667-.05.953C6.279 17.238 8.885 20 14 20s7.723-2.714 7.821-2.857c.246-.238.246-.667-.049-.953zM11 18.46c.092-.433.83-3.46 3-3.46 2.308 0 3 3.514 3 3.514-.83.27-1.8.486-2.908.486A11.509 11.509 0 0 1 11 18.46z"/>
    </g>
</svg>
