<svg xmlns="http://www.w3.org/2000/svg" width="32" height="32" viewBox="0 0 32 32">
    <defs>
        <filter id="a" width="253.1%" height="253.1%" x="-76.6%" y="-76.6%" filterUnits="objectBoundingBox">
            <feOffset dy="1" in="SourceAlpha" result="shadowOffsetOuter1"/>
            <feGaussianBlur in="shadowOffsetOuter1" result="shadowBlurOuter1" stdDeviation="5"/>
            <feColorMatrix in="shadowBlurOuter1" result="shadowMatrixOuter1" values="0 0 0 0 0 0 0 0 0 0 0 0 0 0 0 0 0 0 0.2 0"/>
            <feMerge>
                <feMergeNode in="shadowMatrixOuter1"/>
                <feMergeNode in="SourceGraphic"/>
            </feMerge>
        </filter>
    </defs>
    <g fill="none" fill-rule="evenodd" filter="url(#a)">
        <circle cx="16" cy="16" r="17.5" fill="#2095D2" stroke="#FFF" stroke-width="3"/>
        <g fill="#FFF">
            <path d="M9 14h2v2h10v-2h2v6a4 4 0 0 1-4 4h-6a4 4 0 0 1-4-4v-6z"/>
            <path d="M17 8a3 3 0 0 1 3 3v4h-1v-4a2 2 0 0 0-2-2h-2a2 2 0 0 0-2 2v4h-1v-4a3 3 0 0 1 3-3h2z"/>
        </g>
    </g>
</svg>
