<svg xmlns="http://www.w3.org/2000/svg" width="32" height="32" viewBox="0 0 32 32">
    <defs>
        <filter id="a" width="253.1%" height="253.1%" x="-76.6%" y="-76.6%" filterUnits="objectBoundingBox">
            <feOffset dy="1" in="SourceAlpha" result="shadowOffsetOuter1"/>
            <feGaussianBlur in="shadowOffsetOuter1" result="shadowBlurOuter1" stdDeviation="5"/>
            <feColorMatrix in="shadowBlurOuter1" result="shadowMatrixOuter1" values="0 0 0 0 0 0 0 0 0 0 0 0 0 0 0 0 0 0 0.2 0"/>
            <feMerge>
                <feMergeNode in="shadowMatrixOuter1"/>
                <feMergeNode in="SourceGraphic"/>
            </feMerge>
        </filter>
    </defs>
    <g fill="none" fill-rule="evenodd" filter="url(#a)">
        <circle cx="16" cy="16" r="17.5" fill="#297ACC" stroke="#FFF" stroke-width="3"/>
        <path fill="#FFF" fill-rule="nonzero" d="M22.414 10.433c-.109-.437-.293-.77-.554-.998-.26-.229-.64-.437-1.14-.624-.498-.208-1.215-.395-2.148-.561A14.67 14.67 0 0 0 16.016 8c-.77 0-1.622.083-2.556.25-.933.166-1.65.353-2.148.56-.5.188-.88.396-1.14.625-.26.228-.434.561-.52.998L9 15.423v6.955h1.01v.624c0 .416.135.707.406.873.272.167.548.167.83 0 .283-.166.424-.457.424-.873v-.624h8.335v.624c0 .416.168.707.504.873.337.167.668.167.993 0 .326-.166.489-.457.489-.873v-.624H23v-6.955l-.586-4.99zM12.549 9.2c.087-.156.239-.234.456-.234h6.674v.936h-6.674c-.217 0-.37-.078-.456-.234a.453.453 0 0 1 0-.468zm-2.377 6.097l.554-3.805c.043-.208.227-.312.553-.312h9.54c.325 0 .51.104.553.312l.554 3.868a.492.492 0 0 1 .032.124.452.452 0 0 1-.163.36.625.625 0 0 1-.423.14H10.726a.587.587 0 0 1-.424-.157.536.536 0 0 1-.162-.405c0-.042.01-.083.032-.125zm1.726 4.663a1.1 1.1 0 0 1-.765.296 1.1 1.1 0 0 1-.766-.296.935.935 0 0 1-.325-.717c0-.281.108-.52.325-.718a1.1 1.1 0 0 1 .766-.296 1.1 1.1 0 0 1 .765.296.935.935 0 0 1 .325.718c0 .28-.108.52-.325.717zm9.832 0a1.1 1.1 0 0 1-.765.296 1.1 1.1 0 0 1-.765-.296.935.935 0 0 1-.326-.717c0-.281.109-.52.326-.718a1.1 1.1 0 0 1 .765-.296 1.1 1.1 0 0 1 .765.296.935.935 0 0 1 .326.718c0 .28-.109.52-.326.717z"/>
    </g>
</svg>
