<svg xmlns="http://www.w3.org/2000/svg" width="60" height="75" viewBox="0 0 60 75">
    <g fill="none" fill-rule="evenodd">
        <path fill="#409BFF" d="M14.737 68.68L25.773 75 51.579 60.193 40.544 53.873z"/>
        <path fill="#004BB7" d="M0 67.638L10.526 73.944 10.526 34.827 0 28.521z"/>
        <path fill="#00F025" d="M43.426 15.861L43.426 15.87 10.526 34.782 10.526 73.944 43.509 54.987 43.509 54.979 60 45.5 60 6.338z"/>
        <path fill="#409BFF" d="M49.092 0L0 28.527 10.908 34.859 60 6.332z"/>
        <g>
            <path fill="#00F025" d="M15.026 15.616c-.304-.459-.186-1.082.263-1.392 5.755-3.991 12.882-3.252 18.155 1.883.392.381.408 1.015.036 1.416-.373.403-.992.42-1.386.037-3.645-3.549-9.684-5.852-15.708-1.674-.447.308-1.057.188-1.36-.27" transform="translate(16.842 21.127)"/>
            <path fill="#00F025" d="M17.089 17.603L20.815 12.695 14.756 12.331z" transform="translate(16.842 21.127)"/>
            <path fill="#0BD007" d="M15.135 13.187L19.534 12.807 18.457 12.55 14.756 12.332z" transform="translate(16.842 21.127)"/>
            <path fill="#5AFF6A" d="M17.089 17.603L20.202 13.505 19.973 13.496 16.69 16.703z" transform="translate(16.842 21.127)"/>
            <path fill="#00A748" d="M14.393 12.391c.697-.323 1.8.636 2.467 2.141.666 1.507.642 2.987-.054 3.31-.697.324-1.801-.633-2.467-2.138-.666-1.505-.643-2.99.054-3.313" transform="translate(16.842 21.127)"/>
            <path fill="#0061E5" d="M23.488 7.06L24.731 0.975 28.919 5.476z" transform="translate(16.842 21.127)"/>
            <path fill="#007EE5" d="M28.038 5.734L24.732 0.975 28.918 5.475z" transform="translate(16.842 21.127)"/>
            <path fill="#004BB7" d="M23.488 7.06L24.731 0.975 24.415 6.79z" transform="translate(16.842 21.127)"/>
            <path fill="#409BFF" d="M29.11 5.798c-.208-.752-1.636-.996-3.19-.543-1.55.453-2.638 1.429-2.428 2.183.209.753 1.636.997 3.186.544 1.554-.451 2.642-1.431 2.433-2.184" transform="translate(16.842 21.127)"/>
            <path fill="#00F025" d="M11.853 35.024c-.667-1.96-1.156-5.326-1.19-7.241l-.002-.002v-.004c-.12-4.952 1.644-8.834 5.238-11.542.435-.33.53-.948.208-1.401-.318-.446-.931-.544-1.366-.215-4.08 3.073-6.166 7.639-6.036 13.203v.005c.04 2.108.537 5.62 1.3 7.857.03.085.067.163.114.233.244.368.706.536 1.134.382.508-.18.78-.754.6-1.275" transform="translate(16.842 21.127)"/>
            <path fill="#0BD007" d="M10.12 35.918c.18.271.483.436.8.438-1.282-3.054-2.056-7.894-1.315-12.306.755-4.481 3.443-7.646 6.193-9.497-.324-.184-.74-.173-1.057.067-4.08 3.072-6.166 7.636-6.036 13.2v.008c.04 2.108.538 5.62 1.3 7.857.03.085.068.162.115.233" transform="translate(16.842 21.127)"/>
            <path fill="#5AFF6A" d="M11.853 35.024c-.667-1.96-1.156-5.326-1.19-7.241l-.002-.002v-.004c-.12-4.952 1.644-8.834 5.238-11.542.27-.2.406-.512.399-.826-1.258.735-5.807 4.597-6.116 10.02-.295 5.197.49 7.9 1.574 10.453.152-.25.2-.56.097-.858" transform="translate(16.842 21.127)"/>
            <path fill="#0061E5" d="M20.762 24.299c-.304-.459-.186-1.082.263-1.392 6.024-4.178 6.18-10.78 4.32-15.565-.198-.514.045-1.097.549-1.302.501-.203 1.072.046 1.27.56 2.692 6.925.713 13.976-5.044 17.969-.447.307-1.055.188-1.358-.27" transform="translate(16.842 21.127)"/>
            <path fill="#007EE5" d="M24.827 22.161c3.604-4.092 4.55-9.87 2.337-15.561-.137-.351-.45-.575-.794-.62.924 2.136 1.95 5.025 1.3 9.216-.57 3.67-2.762 6.126-2.762 6.126l-.081.84z" transform="translate(16.842 21.127)"/>
            <path fill="#004BB7" d="M25.572 6.253c-.274.274-.378.701-.227 1.09 1.525 3.916 1.693 9.048-1.599 13.072l.554.158s1.8-1.855 2.48-5.389c.56-2.908-.475-6.956-1.208-8.93" transform="translate(16.842 21.127)"/>
            <path fill="#0061E5" d="M19.729 21.598L25.561 19.879 23.637 25.776z" transform="translate(16.842 21.127)"/>
            <path fill="#007EE5" d="M23.003 25.097L24.909 21.322 24.994 21.621 24.817 22.158 23.638 25.775z" transform="translate(16.842 21.127)"/>
            <path fill="#004BB7" d="M19.729 21.598L23.746 20.413 24.3 20.572 20.395 22.312z" transform="translate(16.842 21.127)"/>
            <path fill="#0049A0" d="M23.447 26.099c.552-.542.096-1.949-1.021-3.141-1.119-1.194-2.47-1.721-3.02-1.18-.553.542-.095 1.949 1.02 3.141 1.118 1.195 2.47 1.723 3.021 1.18" transform="translate(16.842 21.127)"/>
            <path fill="#0061E5" d="M6.921 25.41c-.18-.27-.226-.631-.088-.957.213-.508.788-.745 1.284-.526 4.412 1.94 8.56 1.726 12.327-.638.462-.29 1.066-.144 1.346.33.282.474.137 1.09-.323 1.38-4.28 2.684-9.163 2.952-14.122.77-.177-.077-.321-.203-.424-.358" transform="translate(16.842 21.127)"/>
            <path fill="#0061E5" d="M9.221 22.143L13.651 26.395 7.721 27.722z" transform="translate(16.842 21.127)"/>
            <path fill="#007EE5" d="M7.964 26.817L11.933 26.51 13.017 26.902 11.122 26.961 7.721 27.721z" transform="translate(16.842 21.127)"/>
            <path fill="#004BB7" d="M9.221 22.143L12.341 25.14 12.577 25.432 12.449 25.55 8.965 23.097z" transform="translate(16.842 21.127)"/>
            <path fill="#0049A0" d="M7.353 27.722c.736.207 1.682-.915 2.11-2.509.427-1.593.18-3.054-.56-3.263-.736-.207-1.68.915-2.11 2.509-.427 1.595-.176 3.056.56 3.263" transform="translate(16.842 21.127)"/>
            <path fill="#0061E5" d="M.542 21.418c-.244-.368-.226-.871.072-1.22.356-.418.975-.46 1.382-.098 1.525 1.364 4.394 3.08 6.116 3.824.5.218.732.806.52 1.315-.21.512-.784.75-1.282.532-1.893-.82-4.895-2.6-6.64-4.16-.065-.058-.123-.123-.168-.193" transform="translate(16.842 21.127)"/>
            <path fill="#007EE5" d="M16.48 26.462c-2.347.438-4.548.048-4.548.048l-.81.45c3.638.696 7.158.038 10.345-1.96.34-.215.507-.607.458-.988-1.35 1.122-3.318 2.05-5.446 2.45" transform="translate(16.842 21.127)"/>
            <path fill="#004BB7" d="M17.766 25.165c1.766-.569 3.132-1.569 3.57-1.944-.282-.12-.613-.106-.892.066-2.541 1.597-5.257 2.21-8.11 1.845l.002.013.115.4c1.058.443 3.03.354 5.315-.38" transform="translate(16.842 21.127)"/>
            <path fill="#007EE5" d="M7.351 25.772c.36.157.763.072 1.036-.183-1.114-.318-2.76-1.215-4.122-2.074-1.375-.867-2.89-1.936-3.858-2.912-.07.278-.025.575.136.816.045.07.1.134.166.194 1.745 1.558 4.747 3.338 6.642 4.159" transform="translate(16.842 21.127)"/>
            <path fill="#004BB7" d="M1.083 19.894c.754.664 2.055 1.662 3.497 2.588 1.718 1.1 2.958 1.767 4.064 2.011-.09-.247-.274-.456-.53-.567-1.724-.747-4.591-2.46-6.118-3.827-.26-.23-.605-.296-.913-.205" transform="translate(16.842 21.127)"/>
            <path fill="#FFF20F" d="M3.809 31.435c-.094-.144-.153-.314-.166-.5-.033-.552.377-1.029.918-1.064 5.47-.345 8.606-2.479 10.483-7.132 2.486-6.176 9.67-12.626 18.58-13.003.54-.024.997.405 1.02.96.022.552-.398 1.02-.938 1.042-8.003.34-14.658 6.317-16.854 11.767-2.174 5.392-5.928 7.973-12.171 8.368-.358.024-.684-.155-.872-.438" transform="translate(16.842 21.127)"/>
            <path fill="#FCFF00" d="M16.851 23.504c2.198-5.45 8.851-11.426 16.856-11.766.417-.016.762-.301.884-.684-2.216-.013-6.24.697-10.199 3.161-4.29 2.673-6.566 5.712-8.003 8.979-1.438 3.266-4.026 6.877-7.696 7.505-2.427.414-4.064.618-4.9.706.006.01.012.02.015.03.19.283.516.462.874.438 6.243-.396 9.997-2.976 12.17-8.369" transform="translate(16.842 21.127)"/>
            <path fill="#E9E611" d="M11.47 28.42c2.376-1.395 3.246-3.721 4.93-6.999 1.598-3.114 4.64-6.131 8.12-8.39 3.109-2.02 7.936-2.86 9.95-2.862-.184-.273-.495-.447-.845-.432-8.91.377-16.094 6.826-18.583 13.003-1.876 4.652-5.01 6.786-10.48 7.131-.41.028-.742.305-.868.677 2.674-.006 5.45-.762 7.775-2.128" transform="translate(16.842 21.127)"/>
            <path fill="#00F025" d="M31.661 19.432L37.639 20.511 35.117 14.855z" transform="translate(16.842 21.127)"/>
            <path fill="#0BD007" d="M34.554 15.599L37.638 20.511 35.117 14.856z" transform="translate(16.842 21.127)"/>
            <path fill="#5AFF6A" d="M31.661 19.432L37.639 20.511 32.251 18.652z" transform="translate(16.842 21.127)"/>
            <path fill="#00A748" d="M34.895 14.554c.604.479.294 1.926-.693 3.235-.987 1.307-2.278 1.978-2.882 1.501-.605-.48-.296-1.928.693-3.235.987-1.309 2.277-1.98 2.882-1.501" transform="translate(16.842 21.127)"/>
            <path fill="#00F025" d="M28.847 13.094L28.688 14.643 25.616 13.644 25.802 12.252z" transform="translate(16.842 21.127)"/>
            <path fill="#00F025" d="M20.291 13.029l-.758-.222-1.079-.26c5.054-1.914 10.65-.666 14.99 3.56.392.38.408 1.016.036 1.417-.373.402-.992.418-1.386.036-2.992-2.914-7.6-4.988-12.49-3.326l.368-.738.319-.467z" transform="translate(16.842 21.127)"/>
            <path fill="#5AFF6A" d="M32.094 17.56c.231.225.542.308.834.26-.502-.647-2.122-2.578-5.625-3.932-3.86-1.491-7.331-.391-7.331-.391l-.367.74.121-.042c4.845-1.59 9.4.477 12.368 3.365" transform="translate(16.842 21.127)"/>
            <path fill="#0BD007" d="M33.444 16.107c-4.34-4.226-9.934-5.472-14.988-3.557.137.007.292.242 1.077.255 0 0 2.98-1.248 6.794-.283 3.793.958 6.011 3.036 7.411 4.41.031-.297-.066-.604-.294-.825" transform="translate(16.842 21.127)"/>
        </g>
    </g>
</svg>
