<svg xmlns="http://www.w3.org/2000/svg" xmlns:xlink="http://www.w3.org/1999/xlink" width="42" height="30" viewBox="0 0 42 30">
    <defs>
        <path id="prefix__a" d="M.909 6.692c2.846 1.4 4.352 3.391 4.485 5.469L4.976 5.59C4.844 3.511 3.337 1.52.491.12"/>
        <path id="prefix__c" d="M.909 6.692c2.846 1.4 4.352 3.391 4.485 5.469L4.976 5.59C4.844 3.511 3.337 1.52.491.12"/>
        <path id="prefix__e" d="M.909 6.692c2.846 1.4 4.352 3.391 4.485 5.469L4.976 5.59C4.844 3.511 3.337 1.52.491.12"/>
        <path id="prefix__g" d="M.909 6.692c2.846 1.4 4.352 3.391 4.485 5.469L4.976 5.59C4.844 3.511 3.337 1.52.491.12"/>
        <path id="prefix__i" d="M.909 6.692c2.846 1.4 4.352 3.391 4.485 5.469L4.976 5.59C4.844 3.511 3.337 1.52.491.12"/>
        <path id="prefix__k" d="M.909 6.692c2.846 1.4 4.352 3.391 4.485 5.469L4.976 5.59C4.844 3.511 3.337 1.52.491.12"/>
        <path id="prefix__m" d="M.909 6.692c2.846 1.4 4.352 3.391 4.485 5.469L4.976 5.59C4.844 3.511 3.337 1.52.491.12"/>
        <path id="prefix__o" d="M.909 6.692c2.846 1.4 4.352 3.391 4.485 5.469L4.976 5.59C4.844 3.511 3.337 1.52.491.12"/>
        <path id="prefix__q" d="M.909 6.692c2.846 1.4 4.352 3.391 4.485 5.469L4.976 5.59C4.844 3.511 3.337 1.52.491.12"/>
        <path id="prefix__s" d="M.909 6.692c2.846 1.4 4.352 3.391 4.485 5.469L4.976 5.59C4.844 3.511 3.337 1.52.491.12"/>
        <path id="prefix__u" d="M.147 4.37l.418 6.572C.477 9.557 1 8.13 2.143 6.813L1.725.241C.582 1.558.059 2.984.147 4.37"/>
        <path id="prefix__w" d="M.965 7.353c.195 3.064 2.415 5.995 6.609 8.059L7.156 8.84C2.962 6.777.742 3.845.546.782"/>
        <path id="prefix__y" d="M.965 7.353c.195 3.064 2.415 5.995 6.609 8.059L7.156 8.84C2.962 6.777.742 3.845.546.782"/>
        <path id="prefix__A" d="M.965 7.353c.195 3.064 2.415 5.995 6.609 8.059L7.156 8.84C2.962 6.777.742 3.845.546.782"/>
        <path id="prefix__C" d="M.965 7.353c.195 3.064 2.415 5.995 6.609 8.059L7.156 8.84C2.962 6.777.742 3.845.546.782"/>
        <path id="prefix__E" d="M.965 7.353c.195 3.064 2.415 5.995 6.609 8.059L7.156 8.84C2.962 6.777.742 3.845.546.782"/>
        <path id="prefix__G" d="M.965 7.353c.195 3.064 2.415 5.995 6.609 8.059L7.156 8.84C2.962 6.777.742 3.845.546.782"/>
        <path id="prefix__I" d="M.965 7.353c.195 3.064 2.415 5.995 6.609 8.059L7.156 8.84C2.962 6.777.742 3.845.546.782"/>
        <path id="prefix__K" d="M.965 7.353c.195 3.064 2.415 5.995 6.609 8.059L7.156 8.84C2.962 6.777.742 3.845.546.782"/>
        <path id="prefix__M" d="M.965 7.353c.195 3.064 2.415 5.995 6.609 8.059L7.156 8.84C2.962 6.777.742 3.845.546.782"/>
        <path id="prefix__O" d="M.965 7.353c.195 3.064 2.415 5.995 6.609 8.059L7.156 8.84C2.962 6.777.742 3.845.546.782"/>
        <path id="prefix__Q" d="M0.156 0.17L35 0.17 35 20 0.156 20z"/>
        <path id="prefix__S" d="M29.172 8.91C21.504 14.076 8.487 14.939.156 10.84l.418 6.572c8.332 4.098 21.347 3.236 29.016-1.93 3.807-2.564 5.588-5.716 5.396-8.74L34.567.169c.194 3.025-1.589 6.176-5.395 8.741"/>
        <path id="prefix__U" d="M29.172 8.91C21.504 14.076 8.487 14.939.156 10.84l.418 6.572c8.332 4.098 21.347 3.236 29.016-1.93 3.807-2.564 5.588-5.716 5.396-8.74L34.567.169c.194 3.025-1.589 6.176-5.395 8.741"/>
        <path id="prefix__W" d="M29.172 8.91C21.504 14.076 8.487 14.939.156 10.84l.418 6.572c8.332 4.098 21.347 3.236 29.016-1.93 3.807-2.564 5.588-5.716 5.396-8.74L34.567.169c.194 3.025-1.589 6.176-5.395 8.741"/>
        <path id="prefix__Y" d="M29.172 8.91C21.504 14.076 8.487 14.939.156 10.84l.418 6.572c8.332 4.098 21.347 3.236 29.016-1.93 3.807-2.564 5.588-5.716 5.396-8.74L34.567.169c.194 3.025-1.589 6.176-5.395 8.741"/>
        <path id="prefix__aa" d="M29.172 8.91C21.504 14.076 8.487 14.939.156 10.84l.418 6.572c8.332 4.098 21.347 3.236 29.016-1.93 3.807-2.564 5.588-5.716 5.396-8.74L34.567.169c.194 3.025-1.589 6.176-5.395 8.741"/>
        <path id="prefix__ac" d="M29.172 8.91C21.504 14.076 8.487 14.939.156 10.84l.418 6.572c8.332 4.098 21.347 3.236 29.016-1.93 3.807-2.564 5.588-5.716 5.396-8.74L34.567.169c.194 3.025-1.589 6.176-5.395 8.741"/>
        <path id="prefix__ae" d="M29.172 8.91C21.504 14.076 8.487 14.939.156 10.84l.418 6.572c8.332 4.098 21.347 3.236 29.016-1.93 3.807-2.564 5.588-5.716 5.396-8.74L34.567.169c.194 3.025-1.589 6.176-5.395 8.741"/>
        <path id="prefix__ag" d="M29.172 8.91C21.504 14.076 8.487 14.939.156 10.84l.418 6.572c8.332 4.098 21.347 3.236 29.016-1.93 3.807-2.564 5.588-5.716 5.396-8.74L34.567.169c.194 3.025-1.589 6.176-5.395 8.741"/>
        <path id="prefix__ai" d="M29.172 8.91C21.504 14.076 8.487 14.939.156 10.84l.418 6.572c8.332 4.098 21.347 3.236 29.016-1.93 3.807-2.564 5.588-5.716 5.396-8.74L34.567.169c.194 3.025-1.589 6.176-5.395 8.741"/>
        <path id="prefix__ak" d="M29.172 8.91C21.504 14.076 8.487 14.939.156 10.84l.418 6.572c8.332 4.098 21.347 3.236 29.016-1.93 3.807-2.564 5.588-5.716 5.396-8.74L34.567.169c.194 3.025-1.589 6.176-5.395 8.741"/>
        <path id="prefix__am" d="M29.172 8.91C21.504 14.076 8.487 14.939.156 10.84l.418 6.572c8.332 4.098 21.347 3.236 29.016-1.93 3.807-2.564 5.588-5.716 5.396-8.74L34.567.169c.194 3.025-1.589 6.176-5.395 8.741"/>
        <path id="prefix__ao" d="M29.172 8.91C21.504 14.076 8.487 14.939.156 10.84l.418 6.572c8.332 4.098 21.347 3.236 29.016-1.93 3.807-2.564 5.588-5.716 5.396-8.74L34.567.169c.194 3.025-1.589 6.176-5.395 8.741"/>
        <path id="prefix__aq" d="M29.172 8.91C21.504 14.076 8.487 14.939.156 10.84l.418 6.572c8.332 4.098 21.347 3.236 29.016-1.93 3.807-2.564 5.588-5.716 5.396-8.74L34.567.169c.194 3.025-1.589 6.176-5.395 8.741"/>
        <path id="prefix__as" d="M29.172 8.91C21.504 14.076 8.487 14.939.156 10.84l.418 6.572c8.332 4.098 21.347 3.236 29.016-1.93 3.807-2.564 5.588-5.716 5.396-8.74L34.567.169c.194 3.025-1.589 6.176-5.395 8.741"/>
        <path id="prefix__au" d="M29.172 8.91C21.504 14.076 8.487 14.939.156 10.84l.418 6.572c8.332 4.098 21.347 3.236 29.016-1.93 3.807-2.564 5.588-5.716 5.396-8.74L34.567.169c.194 3.025-1.589 6.176-5.395 8.741"/>
    </defs>
    <g fill="none" fill-rule="evenodd">
        <path fill="#0061E9" d="M0.418 10.338L4.163 12.179 3.745 5.608 -0.001 3.765z"/>
        <path fill="#004ABC" d="M16.804 0L12.957 10.14 13.376 16.712 17.222 6.573z"/>
        <path fill="#0061E9" d="M12.957 10.14L13.376 16.712 9.144 14.63 8.726 8.058z"/>
        <path fill="#004ABC" d="M34.975 10.406l.42 6.571c-.134-2.078-1.64-4.069-4.486-5.468l-.418-6.573c2.845 1.401 4.352 3.391 4.484 5.47"/>
        <g transform="translate(30 4.817)">
            <mask id="prefix__b" fill="#fff">
                <use xlink:href="#prefix__a"/>
            </mask>
            <path fill="#004ABC" d="M4.975 5.59l.42 6.57c-.003-.02-.004-.04-.006-.062l-.418-6.57.004.062" mask="url(#prefix__b)"/>
            <mask id="prefix__d" fill="#fff">
                <use xlink:href="#prefix__c"/>
            </mask>
            <path fill="#004ABC" d="M4.971 5.527l.418 6.571c-.014-.183-.038-.367-.074-.549l-.419-6.572c.037.182.06.365.075.55" mask="url(#prefix__d)"/>
            <mask id="prefix__f" fill="#fff">
                <use xlink:href="#prefix__e"/>
            </mask>
            <path fill="#004ABC" d="M4.896 4.977l.42 6.572c-.037-.18-.083-.36-.14-.539l-.418-6.572c.057.18.103.358.138.54" mask="url(#prefix__f)"/>
            <mask id="prefix__h" fill="#fff">
                <use xlink:href="#prefix__g"/>
            </mask>
            <path fill="#004ABC" d="M4.759 4.438l.418 6.572c-.057-.179-.124-.357-.203-.534l-.418-6.572c.078.177.146.355.203.534" mask="url(#prefix__h)"/>
            <g>
                <mask id="prefix__j" fill="#fff">
                    <use xlink:href="#prefix__i"/>
                </mask>
                <path fill="#004ABC" d="M4.556 3.904l.417 6.572c-.08-.18-.171-.359-.274-.536l-.418-6.572c.103.177.194.355.275.536" mask="url(#prefix__j)"/>
            </g>
            <g>
                <mask id="prefix__l" fill="#fff">
                    <use xlink:href="#prefix__k"/>
                </mask>
                <path fill="#004ABC" d="M4.28 3.368L4.7 9.94c-.109-.185-.23-.368-.36-.55l-.42-6.57c.132.18.253.362.36.548" mask="url(#prefix__l)"/>
            </g>
            <g>
                <mask id="prefix__n" fill="#fff">
                    <use xlink:href="#prefix__m"/>
                </mask>
                <path fill="#004ABC" d="M3.92 2.82l.419 6.571c-.144-.193-.301-.384-.473-.571l-.418-6.572c.17.186.329.378.472.572" mask="url(#prefix__n)"/>
            </g>
            <g>
                <mask id="prefix__p" fill="#fff">
                    <use xlink:href="#prefix__o"/>
                </mask>
                <path fill="#004ABC" d="M3.448 2.248l.418 6.572c-.194-.212-.407-.42-.639-.62l-.418-6.572c.232.2.444.408.639.62" mask="url(#prefix__p)"/>
            </g>
            <g>
                <mask id="prefix__r" fill="#fff">
                    <use xlink:href="#prefix__q"/>
                </mask>
                <path fill="#004ABC" d="M2.81 1.628L3.226 8.2c-.297-.258-.623-.506-.98-.743L1.83.885c.356.237.683.485.98.743" mask="url(#prefix__r)"/>
            </g>
            <g>
                <mask id="prefix__t" fill="#fff">
                    <use xlink:href="#prefix__s"/>
                </mask>
                <path fill="#004ABC" d="M1.829.884l.418 6.572c-.407-.27-.853-.526-1.338-.764L.49.12c.484.238.93.494 1.338.764" mask="url(#prefix__t)"/>
            </g>
        </g>
        <path fill="#004ABC" d="M7.565 18.759l-.418-6.572c-.089-1.386.435-2.812 1.578-4.13l.418 6.573C8 15.947 7.477 17.373 7.565 18.759"/>
        <g transform="translate(7 7.817)">
            <mask id="prefix__v" fill="#fff">
                <use xlink:href="#prefix__u"/>
            </mask>
            <path fill="#004ABC" d="M1.725.24l.418 6.573C1 8.13.477 9.556.565 10.942L.147 4.37C.058 2.984.581 1.558 1.725.24" mask="url(#prefix__v)"/>
        </g>
        <path fill="#0061E9" d="M.965 19.17l-.418-6.571c.195 3.062 2.415 5.995 6.609 8.057l.418 6.573C3.38 25.165 1.16 22.233.964 19.17"/>
        <g transform="translate(0 11.817)">
            <mask id="prefix__x" fill="#fff">
                <use xlink:href="#prefix__w"/>
            </mask>
            <path fill="#0061E9" d="M7.156 8.84l.418 6.572c-.726-.357-1.393-.74-1.999-1.146l-.419-6.572c.607.407 1.274.79 2 1.145" mask="url(#prefix__x)"/>
            <mask id="prefix__z" fill="#fff">
                <use xlink:href="#prefix__y"/>
            </mask>
            <path fill="#0061E9" d="M5.156 7.695l.419 6.571c-.515-.342-.987-.702-1.416-1.075L3.74 6.619c.43.373.901.732 1.416 1.076" mask="url(#prefix__z)"/>
            <mask id="prefix__B" fill="#fff">
                <use xlink:href="#prefix__A"/>
            </mask>
            <path fill="#0061E9" d="M3.74 6.619l.419 6.572c-.345-.3-.661-.607-.95-.923L2.79 5.696c.289.316.606.624.95.923" mask="url(#prefix__B)"/>
            <mask id="prefix__D" fill="#fff">
                <use xlink:href="#prefix__C"/>
            </mask>
            <path fill="#0061E9" d="M2.79 5.696l.419 6.572c-.252-.274-.482-.555-.692-.841l-.418-6.572c.209.286.44.567.69.841" mask="url(#prefix__D)"/>
            <g>
                <mask id="prefix__F" fill="#fff">
                    <use xlink:href="#prefix__E"/>
                </mask>
                <path fill="#0061E9" d="M2.098 4.855l.418 6.572c-.194-.263-.37-.532-.528-.803L1.57 4.051c.158.272.335.54.53.804" mask="url(#prefix__F)"/>
            </g>
            <g>
                <mask id="prefix__H" fill="#fff">
                    <use xlink:href="#prefix__G"/>
                </mask>
                <path fill="#0061E9" d="M1.57 4.051l.418 6.572c-.15-.26-.286-.522-.404-.788l-.418-6.573c.118.267.253.53.403.79" mask="url(#prefix__H)"/>
            </g>
            <g>
                <mask id="prefix__J" fill="#fff">
                    <use xlink:href="#prefix__I"/>
                </mask>
                <path fill="#0061E9" d="M1.166 3.262l.418 6.572c-.115-.26-.215-.52-.3-.786L.868 2.476c.084.265.184.526.299.786" mask="url(#prefix__J)"/>
            </g>
            <g>
                <mask id="prefix__L" fill="#fff">
                    <use xlink:href="#prefix__K"/>
                </mask>
                <path fill="#0061E9" d="M.867 2.476l.418 6.572c-.083-.262-.151-.527-.203-.794l-.418-6.57c.052.265.119.53.203.792" mask="url(#prefix__L)"/>
            </g>
            <g>
                <mask id="prefix__N" fill="#fff">
                    <use xlink:href="#prefix__M"/>
                </mask>
                <path fill="#0061E9" d="M.664 1.683l.418 6.571c-.053-.268-.09-.539-.11-.81L.554.871c.02.272.057.542.11.812" mask="url(#prefix__N)"/>
            </g>
            <g>
                <mask id="prefix__P" fill="#fff">
                    <use xlink:href="#prefix__O"/>
                </mask>
                <path fill="#0061E9" d="M.553.872l.418 6.572-.006-.091L.546.782l.006.09" mask="url(#prefix__P)"/>
            </g>
        </g>
        <g transform="translate(7 9.817)">
            <mask id="prefix__R" fill="#fff">
                <use xlink:href="#prefix__Q"/>
            </mask>
            <path fill="#0061E9" d="M34.567.17l.42 6.572c.191 3.025-1.59 6.176-5.398 8.74-7.668 5.167-20.683 6.029-29.015 1.93L.156 10.84c8.331 4.1 21.348 3.236 29.015-1.93 3.807-2.564 5.59-5.716 5.396-8.74" mask="url(#prefix__R)"/>
        </g>
        <g transform="translate(7 9.817)">
            <mask id="prefix__T" fill="#fff">
                <use xlink:href="#prefix__S"/>
            </mask>
            <path fill="#0061E9" d="M34.567.17l.42 6.572c.191 3.025-1.59 6.176-5.398 8.74-.77.52-1.597.997-2.467 1.429l-.418-6.572c.87-.432 1.695-.908 2.467-1.43 3.807-2.563 5.59-5.715 5.396-8.74" mask="url(#prefix__T)"/>
            <mask id="prefix__V" fill="#fff">
                <use xlink:href="#prefix__U"/>
            </mask>
            <path fill="#0061E9" d="M26.704 10.339l.418 6.572c-.604.3-1.228.578-1.87.835l-.418-6.572c.642-.257 1.266-.535 1.87-.835" mask="url(#prefix__V)"/>
            <mask id="prefix__X" fill="#fff">
                <use xlink:href="#prefix__W"/>
            </mask>
            <path fill="#0061E9" d="M24.834 11.174l.419 6.572c-.528.21-1.068.407-1.618.59l-.418-6.572c.55-.183 1.09-.38 1.617-.59" mask="url(#prefix__X)"/>
            <mask id="prefix__Z" fill="#fff">
                <use xlink:href="#prefix__Y"/>
            </mask>
            <path fill="#0061E9" d="M23.217 11.763l.418 6.572c-.488.161-.985.312-1.488.45l-.418-6.572c.503-.138.999-.289 1.488-.45" mask="url(#prefix__Z)"/>
            <mask id="prefix__ab" fill="#fff">
                <use xlink:href="#prefix__aa"/>
            </mask>
            <path fill="#0061E9" d="M21.728 12.214l.418 6.57c-.468.13-.94.249-1.42.358l-.419-6.573c.48-.108.952-.226 1.421-.355" mask="url(#prefix__ab)"/>
            <g>
                <mask id="prefix__ad" fill="#fff">
                    <use xlink:href="#prefix__ac"/>
                </mask>
                <path fill="#0061E9" d="M20.307 12.569l.42 6.572c-.46.104-.923.199-1.389.284l-.419-6.572c.467-.085.93-.18 1.388-.284" mask="url(#prefix__ad)"/>
            </g>
            <g>
                <mask id="prefix__af" fill="#fff">
                    <use xlink:href="#prefix__ae"/>
                </mask>
                <path fill="#0061E9" d="M18.92 12.853l.419 6.572c-.456.083-.916.157-1.378.223l-.418-6.57c.462-.067.92-.142 1.377-.225" mask="url(#prefix__af)"/>
            </g>
            <g>
                <mask id="prefix__ah" fill="#fff">
                    <use xlink:href="#prefix__ag"/>
                </mask>
                <path fill="#0061E9" d="M17.543 13.077l.418 6.57c-.46.067-.921.122-1.384.17l-.42-6.572c.465-.047.926-.104 1.386-.168" mask="url(#prefix__ah)"/>
            </g>
            <g>
                <mask id="prefix__aj" fill="#fff">
                    <use xlink:href="#prefix__ai"/>
                </mask>
                <path fill="#0061E9" d="M16.158 13.245l.419 6.572c-.469.047-.939.086-1.409.115l-.418-6.572c.471-.03.94-.067 1.408-.115" mask="url(#prefix__aj)"/>
            </g>
            <g>
                <mask id="prefix__al" fill="#fff">
                    <use xlink:href="#prefix__ak"/>
                </mask>
                <path fill="#0061E9" d="M14.75 13.36l.418 6.571c-.483.031-.97.051-1.453.061l-.418-6.571c.484-.011.969-.032 1.453-.061" mask="url(#prefix__al)"/>
            </g>
            <g>
                <mask id="prefix__an" fill="#fff">
                    <use xlink:href="#prefix__am"/>
                </mask>
                <path fill="#0061E9" d="M13.297 13.42l.418 6.572c-.51.01-1.02.01-1.527-.001l-.418-6.571c.507.01 1.017.012 1.527 0" mask="url(#prefix__an)"/>
            </g>
            <g>
                <mask id="prefix__ap" fill="#fff">
                    <use xlink:href="#prefix__ao"/>
                </mask>
                <path fill="#0061E9" d="M11.77 13.42l.417 6.57c-.553-.01-1.104-.036-1.65-.075l-.419-6.571c.547.038 1.098.063 1.651.076" mask="url(#prefix__ap)"/>
            </g>
            <g>
                <mask id="prefix__ar" fill="#fff">
                    <use xlink:href="#prefix__aq"/>
                </mask>
                <path fill="#0061E9" d="M10.118 13.343l.418 6.571c-.629-.044-1.254-.105-1.872-.184l-.419-6.573c.619.08 1.243.141 1.873.186" mask="url(#prefix__ar)"/>
            </g>
            <g>
                <mask id="prefix__at" fill="#fff">
                    <use xlink:href="#prefix__as"/>
                </mask>
                <path fill="#0061E9" d="M8.245 13.158l.419 6.572c-.78-.1-1.55-.227-2.303-.384l-.42-6.572c.756.156 1.525.284 2.304.384" mask="url(#prefix__at)"/>
            </g>
            <g>
                <mask id="prefix__av" fill="#fff">
                    <use xlink:href="#prefix__au"/>
                </mask>
                <path fill="#0061E9" d="M5.942 12.774l.42 6.572c-2.075-.429-4.035-1.072-5.788-1.934L.156 10.84c1.753.863 3.713 1.505 5.786 1.935" mask="url(#prefix__av)"/>
            </g>
        </g>
        <path fill="#00F000" d="M7.156 20.656C-.278 17-1.512 10.611 3.746 5.608L0 3.765 16.803 0l-3.846 10.14-4.232-2.083c-2.855 3.29-1.842 7.256 2.899 9.59 5.655 2.781 14.488 2.194 19.689-1.31 5.201-3.504 4.832-8.619-.822-11.4l4.468-3.01c8.332 4.098 8.876 11.637 1.213 16.8-7.668 5.165-20.685 6.03-29.016 1.93"/>
    </g>
</svg>
