<svg xmlns="http://www.w3.org/2000/svg" xmlns:xlink="http://www.w3.org/1999/xlink" width="203" height="49" viewBox="0 0 203 49">
    <defs>
        <path id="prefix__a" d="M0 0H203V49H0z"/>
        <path id="prefix__c" d="M0 73.098L213.713 73.098 213.713 0.414 0 0.414z"/>
        <path id="prefix__e" d="M.233 22.186c0 12.221 9.907 22.13 22.129 22.13 12.221 0 22.13-9.909 22.13-22.13 0-12.222-9.909-22.13-22.13-22.13C10.14.057.232 9.965.232 22.187m12.654 0c0-5.233 4.243-9.476 9.476-9.476 5.233 0 9.475 4.243 9.475 9.476 0 5.233-4.242 9.475-9.475 9.475s-9.476-4.242-9.476-9.475"/>
        <path id="prefix__g" d="M.233 22.186c0 12.221 9.907 22.13 22.129 22.13 12.221 0 22.13-9.909 22.13-22.13 0-12.222-9.909-22.13-22.13-22.13C10.14.057.232 9.965.232 22.187m12.654 0c0-5.233 4.243-9.476 9.476-9.476 5.233 0 9.475 4.243 9.475 9.476 0 5.233-4.242 9.475-9.475 9.475s-9.476-4.242-9.476-9.475"/>
        <path id="prefix__i" d="M.233 22.186c0 12.221 9.907 22.13 22.129 22.13 12.221 0 22.13-9.909 22.13-22.13 0-12.222-9.909-22.13-22.13-22.13C10.14.057.232 9.965.232 22.187m12.654 0c0-5.233 4.243-9.476 9.476-9.476 5.233 0 9.475 4.243 9.475 9.476 0 5.233-4.242 9.475-9.475 9.475s-9.476-4.242-9.476-9.475"/>
        <path id="prefix__k" d="M.233 22.186c0 12.221 9.907 22.13 22.129 22.13 12.221 0 22.13-9.909 22.13-22.13 0-12.222-9.909-22.13-22.13-22.13C10.14.057.232 9.965.232 22.187m12.654 0c0-5.233 4.243-9.476 9.476-9.476 5.233 0 9.475 4.243 9.475 9.476 0 5.233-4.242 9.475-9.475 9.475s-9.476-4.242-9.476-9.475"/>
        <path id="prefix__m" d="M.233 22.186c0 12.221 9.907 22.13 22.129 22.13 12.221 0 22.13-9.909 22.13-22.13 0-12.222-9.909-22.13-22.13-22.13C10.14.057.232 9.965.232 22.187m12.654 0c0-5.233 4.243-9.476 9.476-9.476 5.233 0 9.475 4.243 9.475 9.476 0 5.233-4.242 9.475-9.475 9.475s-9.476-4.242-9.476-9.475"/>
        <path id="prefix__o" d="M.233 22.186c0 12.221 9.907 22.13 22.129 22.13 12.221 0 22.13-9.909 22.13-22.13 0-12.222-9.909-22.13-22.13-22.13C10.14.057.232 9.965.232 22.187m12.654 0c0-5.233 4.243-9.476 9.476-9.476 5.233 0 9.475 4.243 9.475 9.476 0 5.233-4.242 9.475-9.475 9.475s-9.476-4.242-9.476-9.475"/>
        <path id="prefix__q" d="M.233 22.186c0 12.221 9.907 22.13 22.129 22.13 12.221 0 22.13-9.909 22.13-22.13 0-12.222-9.909-22.13-22.13-22.13C10.14.057.232 9.965.232 22.187m12.654 0c0-5.233 4.243-9.476 9.476-9.476 5.233 0 9.475 4.243 9.475 9.476 0 5.233-4.242 9.475-9.475 9.475s-9.476-4.242-9.476-9.475"/>
        <path id="prefix__s" d="M.233 22.186c0 12.221 9.907 22.13 22.129 22.13 12.221 0 22.13-9.909 22.13-22.13 0-12.222-9.909-22.13-22.13-22.13C10.14.057.232 9.965.232 22.187m12.654 0c0-5.233 4.243-9.476 9.476-9.476 5.233 0 9.475 4.243 9.475 9.476 0 5.233-4.242 9.475-9.475 9.475s-9.476-4.242-9.476-9.475"/>
        <path id="prefix__u" d="M.233 22.186c0 12.221 9.907 22.13 22.129 22.13 12.221 0 22.13-9.909 22.13-22.13 0-12.222-9.909-22.13-22.13-22.13C10.14.057.232 9.965.232 22.187m12.654 0c0-5.233 4.243-9.476 9.476-9.476 5.233 0 9.475 4.243 9.475 9.476 0 5.233-4.242 9.475-9.475 9.475s-9.476-4.242-9.476-9.475"/>
        <path id="prefix__w" d="M.233 22.186c0 12.221 9.907 22.13 22.129 22.13 12.221 0 22.13-9.909 22.13-22.13 0-12.222-9.909-22.13-22.13-22.13C10.14.057.232 9.965.232 22.187m12.654 0c0-5.233 4.243-9.476 9.476-9.476 5.233 0 9.475 4.243 9.475 9.476 0 5.233-4.242 9.475-9.475 9.475s-9.476-4.242-9.476-9.475"/>
        <path id="prefix__y" d="M.233 22.186c0 12.221 9.907 22.13 22.129 22.13 12.221 0 22.13-9.909 22.13-22.13 0-12.222-9.909-22.13-22.13-22.13C10.14.057.232 9.965.232 22.187m12.654 0c0-5.233 4.243-9.476 9.476-9.476 5.233 0 9.475 4.243 9.475 9.476 0 5.233-4.242 9.475-9.475 9.475s-9.476-4.242-9.476-9.475"/>
        <path id="prefix__A" d="M.233 22.186c0 12.221 9.907 22.13 22.129 22.13 12.221 0 22.13-9.909 22.13-22.13 0-12.222-9.909-22.13-22.13-22.13C10.14.057.232 9.965.232 22.187m12.654 0c0-5.233 4.243-9.476 9.476-9.476 5.233 0 9.475 4.243 9.475 9.476 0 5.233-4.242 9.475-9.475 9.475s-9.476-4.242-9.476-9.475"/>
    </defs>
    <g fill="none" fill-rule="evenodd">
        <mask id="prefix__b" fill="#fff">
            <use xlink:href="#prefix__a"/>
        </mask>
        <use fill="#FFF" xlink:href="#prefix__a"/>
        <g mask="url(#prefix__b)">
            <g>
                <g transform="translate(-11 -11) translate(0 .488)">
                    <path fill="#212121" d="M104.05 36.299v-7.072s-.108-.108-.434-.217c-1.306-.435-2.612-.653-3.917-.544-1.958.109-3.481.979-4.352 2.72-.652 1.304-.87 2.829-.978 4.242-.11 1.958 0 3.916.652 5.875.544 1.632 1.633 2.829 3.373 3.155 1.849.435 3.59 0 5.222-.871.326-.217.435-.326.435-.326v-6.962zm7.18 12.945c-1.958.11-4.133.327-6.31.544-.107-.761-.325-1.414-.435-2.067-1.087.436-2.067.979-3.046 1.415-2.936 1.087-5.874.98-8.594-.653-2.393-1.414-3.699-3.59-4.568-6.092-1.089-3.699-1.197-7.506 0-11.206 1.413-4.46 4.678-6.854 9.247-7.505 2.175-.328 4.351-.218 6.635.435V11.06c2.284-.217 4.46-.326 6.637-.544v30.678c-.11 3.264.217 5.548.435 8.05zM74.352 44.675l.217-1.632c.108-.87.217-1.63.327-2.067.544-2.175 1.414-4.242 2.067-6.31.98-3.371 3.48-10.66 3.48-10.66h7.072c-.545 1.414-.979 2.719-1.524 4.025-2.719 6.962-8.376 21.323-8.376 21.323H70.87s-9.792-25.13-9.792-25.348c1.524-.108 7.398-.544 7.398-.544s2.502 8.267 3.699 12.075c.544 1.741 1.196 3.59 1.74 5.44.11.326.218 1.087.327 2.066l.109 1.632zM116.343 11.06c2.176-.217 4.46-.326 6.637-.545v38.73h-6.637V11.06zM140.276 23.897c-1.631 2.067-3.263 4.025-4.786 6.092-.98 1.306-2.067 2.611-3.046 3.916-.544.653-2.719 1.523-3.807 1.632 1.088 0 3.155.87 3.698 1.523 2.502 3.373 5.221 7.398 7.725 10.77v1.414h-6.854l-8.92-13.816c2.719-3.59 5.873-7.94 8.485-11.53h7.505zM154.491 35.095L154.491 30.05 151.265 30.05 151.265 35.095 150.268 35.095 150.268 29.181 155.489 29.181 155.489 35.095zM158.398 32.138c0 1.162.54 2.241 1.854 2.241 1.185 0 1.818-.927 1.818-2.24 0-1.315-.633-2.24-1.818-2.24-1.314 0-1.854 1.078-1.854 2.24zm-.023-2.956v.633h.258c.328-.41.903-.786 1.842-.786 1.63 0 2.592 1.361 2.592 3.11 0 1.783-.962 3.108-2.592 3.108-.939 0-1.49-.364-1.807-.786h-.258v2.98h-.997v-8.26h.962zM169.086 32.138c0-1.161-.61-2.24-1.912-2.24-1.314 0-1.912 1.079-1.912 2.24 0 1.162.598 2.241 1.912 2.241 1.302 0 1.912-1.08 1.912-2.24m.997 0c0 1.747-1.067 3.108-2.909 3.108-1.854 0-2.91-1.36-2.91-3.109 0-1.748 1.056-3.109 2.91-3.109 1.842 0 2.909 1.361 2.909 3.11M176.817 29.181L176.817 34.227 177.896 34.227 177.896 36.773 176.934 36.773 176.934 35.095 171.643 35.095 171.643 29.181 172.641 29.181 172.641 34.227 175.821 34.227 175.821 29.181zM179.867 31.294h3.414c-.058-.751-.633-1.396-1.63-1.396-1.068 0-1.655.645-1.784 1.396zm4.447.833h-4.505c.035 1.407.668 2.252 1.888 2.252.833 0 1.326-.352 1.502-.915h1.01c-.188 1.008-1.045 1.783-2.512 1.783-1.841 0-2.874-1.349-2.874-3.167 0-1.82 1.056-3.051 2.851-3.051 1.76 0 2.604 1.303 2.64 2.758v.34zM190.86 33.311c-.222 1.162-1.114 1.937-2.488 1.937-1.841 0-2.873-1.361-2.873-3.11 0-1.782 1.032-3.109 2.873-3.109 1.41 0 2.253.774 2.453 1.865h-.998c-.188-.598-.644-.996-1.455-.996-1.336 0-1.877 1.043-1.877 2.217 0 1.184.552 2.265 1.877 2.265.846 0 1.339-.41 1.491-1.069h.997zM197.348 33.311c-.223 1.162-1.115 1.937-2.488 1.937-1.841 0-2.874-1.361-2.874-3.11 0-1.782 1.033-3.109 2.875-3.109 1.407 0 2.252.774 2.451 1.865h-.998c-.187-.598-.644-.996-1.453-.996-1.338 0-1.878 1.043-1.878 2.217 0 1.184.55 2.265 1.877 2.265.845 0 1.338-.41 1.49-1.069h.998z"/>
                    <mask id="prefix__d" fill="#fff">
                        <use xlink:href="#prefix__c"/>
                    </mask>
                    <path fill="#212121" d="M204.645 35.095h.997v-5.914h-.997v5.914zm-4.81-.868h1.49c1.032 0 1.372-.423 1.372-1.115 0-.705-.34-1.114-1.372-1.114h-1.49v2.229zm0-5.046v1.972h1.63c1.444 0 2.23.74 2.23 1.96 0 1.231-.786 1.982-2.23 1.982h-2.628v-5.914h.997zM150.268 49.173L150.268 43.259 151.242 43.259 151.242 47.835 151.5 47.835 154.093 43.259 155.548 43.259 155.548 49.173 154.574 49.173 154.574 44.597 154.316 44.597 151.676 49.173zM164.112 46.779v-.54h-1.772c-.974 0-1.42.423-1.42 1.127 0 .67.493 1.09 1.372 1.09.987 0 1.82-.738 1.82-1.677zm.035 1.771h-.258c-.364.459-.998.775-1.842.775-1.362 0-2.125-.914-2.125-1.924 0-.95.623-1.959 2.265-1.959h1.925v-.235c0-.716-.411-1.231-1.444-1.231-.88 0-1.325.34-1.372.856h-.998c.082-1.092 1.02-1.725 2.347-1.725 1.49 0 2.44.717 2.44 2.041v4.024h-.938v-.622zM171.138 49.173L171.138 44.128 167.912 44.128 167.912 49.173 166.915 49.173 166.915 43.259 172.135 43.259 172.135 49.173zM178.283 49.173L178.283 44.128 175.056 44.128 175.056 49.173 174.059 49.173 174.059 43.259 179.28 43.259 179.28 49.173zM184.935 46.779v-.54h-1.772c-.974 0-1.42.423-1.42 1.127 0 .67.493 1.09 1.373 1.09.986 0 1.819-.738 1.819-1.677zm.035 1.771h-.258c-.363.459-.997.775-1.842.775-1.361 0-2.124-.914-2.124-1.924 0-.95.622-1.959 2.265-1.959h1.924v-.235c0-.716-.41-1.231-1.443-1.231-.88 0-1.326.34-1.373.856h-.997c.082-1.092 1.02-1.725 2.346-1.725 1.49 0 2.44.717 2.44 2.041v4.024h-.938v-.622zM188.724 46.216c0 1.161.54 2.24 1.854 2.24 1.185 0 1.817-.926 1.817-2.24s-.632-2.24-1.817-2.24c-1.314 0-1.854 1.078-1.854 2.24zm-.023-2.957v.634h.258c.328-.41.903-.786 1.842-.786 1.63 0 2.592 1.36 2.592 3.109 0 1.784-.962 3.109-2.592 3.109-.939 0-1.491-.364-1.807-.786h-.258v2.98h-.998v-8.26h.963zM198.684 46.779v-.54h-1.771c-.974 0-1.42.423-1.42 1.127 0 .67.493 1.09 1.372 1.09.987 0 1.82-.738 1.82-1.677zm.036 1.771h-.258c-.364.459-.999.775-1.842.775-1.362 0-2.125-.914-2.125-1.924 0-.95.623-1.959 2.265-1.959h1.924v-.235c0-.716-.41-1.231-1.443-1.231-.88 0-1.325.34-1.372.856h-.998c.082-1.092 1.02-1.725 2.347-1.725 1.49 0 2.44.717 2.44 2.041v4.024h-.938v-.622zM200.808 43.259L205.899 43.259 205.899 44.128 203.858 44.128 203.858 49.173 202.86 49.173 202.86 44.128 200.808 44.128zM212.716 49.173h.996v-5.914h-.996v5.914zm-4.811-.868h1.49c1.033 0 1.373-.422 1.373-1.116 0-.703-.34-1.113-1.373-1.113h-1.49v2.229zm0-5.046v1.971h1.63c1.444 0 2.23.74 2.23 1.96 0 1.232-.786 1.983-2.23 1.983h-2.627v-5.914h.997z" mask="url(#prefix__d)"/>
                </g>
                <g transform="translate(-11 -11) translate(10.83 14.927)">
                    <mask id="prefix__f" fill="#fff">
                        <use xlink:href="#prefix__e"/>
                    </mask>
                    <path stroke="#0061E5" stroke-width="1.5" d="M22.761-13.761s-2.289 5.397-3.526 6.89c-1.215 1.6-4.855 3.835-6.07 5.434C12.141.01 11.363 3.632 10.34 5.078c-.941 1.318-4.057 2.883-4.999 4.2-1.297 1.728-2.28 5.952-3.578 7.68-1.002 1.555-4.391 3.401-5.498 4.978-.942 1.317-1.66 4.703-2.6 6.02-.751 1.166-4.063 3.886-4.063 3.886" mask="url(#prefix__f)"/>
                    <mask id="prefix__h" fill="#fff">
                        <use xlink:href="#prefix__g"/>
                    </mask>
                    <path stroke="#1660DA" stroke-width="1.5" d="M25.835-11.373s-2.289 5.397-3.526 6.89c-1.215 1.6-4.855 3.835-6.067 5.444-1.025 1.447-1.802 5.068-2.827 6.516-.942 1.317-4.058 2.881-4.999 4.199-1.298 1.729-2.28 5.952-3.578 7.681-1.014 1.546-4.401 3.401-5.51 4.969-.942 1.318-1.66 4.703-2.6 6.02-.751 1.166-4.064 3.887-4.064 3.887" mask="url(#prefix__h)"/>
                    <mask id="prefix__j" fill="#fff">
                        <use xlink:href="#prefix__i"/>
                    </mask>
                    <path stroke="#2C5ECF" stroke-width="1.5" d="M28.909-8.985s-2.289 5.397-3.526 6.89c-1.215 1.6-4.855 3.835-6.065 5.453-1.025 1.447-1.802 5.07-2.828 6.516-.94 1.317-4.057 2.882-4.998 4.2-1.297 1.729-2.28 5.951-3.578 7.681-1.025 1.538-4.41 3.403-5.522 4.961-.942 1.318-1.66 4.703-2.6 6.02-.751 1.165-4.064 3.887-4.064 3.887" mask="url(#prefix__j)"/>
                    <mask id="prefix__l" fill="#fff">
                        <use xlink:href="#prefix__k"/>
                    </mask>
                    <path stroke="#415DC4" stroke-width="1.5" d="M31.982-6.596S29.694-1.2 28.456.294c-1.215 1.599-4.854 3.834-6.063 5.462-1.025 1.447-1.802 5.07-2.827 6.516-.941 1.318-4.057 2.882-4.998 4.2-1.297 1.729-2.28 5.952-3.578 7.68-1.037 1.532-4.42 3.407-5.535 4.954-.94 1.317-1.657 4.704-2.599 6.021-.75 1.165-4.063 3.886-4.063 3.886" mask="url(#prefix__l)"/>
                    <g>
                        <mask id="prefix__n" fill="#fff">
                            <use xlink:href="#prefix__m"/>
                        </mask>
                        <path stroke="#575CB9" stroke-width="1.5" d="M35.056-4.208s-2.289 5.397-3.526 6.89c-1.215 1.6-4.854 3.834-6.06 5.472-1.025 1.447-1.803 5.069-2.827 6.516-.942 1.318-4.058 2.882-4.999 4.2-1.298 1.728-2.28 5.952-3.578 7.68-1.049 1.523-4.43 3.408-5.546 4.946-.942 1.318-1.658 4.704-2.6 6.021-.751 1.165-4.063 3.886-4.063 3.886" mask="url(#prefix__n)"/>
                    </g>
                    <g>
                        <mask id="prefix__p" fill="#fff">
                            <use xlink:href="#prefix__o"/>
                        </mask>
                        <path stroke="#6D5AAE" stroke-width="1.5" d="M38.13-1.82s-2.289 5.397-3.526 6.89c-1.215 1.6-4.854 3.834-6.06 5.482-1.023 1.447-1.801 5.069-2.826 6.516-.94 1.318-4.057 2.882-4.998 4.2-1.298 1.729-2.28 5.952-3.578 7.681-1.06 1.514-4.44 3.41-5.558 4.937-.942 1.318-1.658 4.704-2.6 6.021-.751 1.165-4.063 3.887-4.063 3.887" mask="url(#prefix__p)"/>
                    </g>
                    <g>
                        <mask id="prefix__r" fill="#fff">
                            <use xlink:href="#prefix__q"/>
                        </mask>
                        <path stroke="#8359A4" stroke-width="1.5" d="M41.204.569s-2.289 5.396-3.526 6.89c-1.215 1.599-4.855 3.833-6.056 5.491-1.026 1.447-1.803 5.07-2.828 6.516-.941 1.317-4.057 2.882-4.998 4.2-1.299 1.728-2.28 5.951-3.579 7.68-1.07 1.507-4.449 3.413-5.57 4.93-.94 1.318-1.658 4.704-2.6 6.021-.75 1.166-4.062 3.887-4.062 3.887" mask="url(#prefix__r)"/>
                    </g>
                    <g>
                        <mask id="prefix__t" fill="#fff">
                            <use xlink:href="#prefix__s"/>
                        </mask>
                        <path stroke="#995799" stroke-width="1.5" d="M44.278 2.957s-2.289 5.397-3.526 6.89c-1.215 1.598-4.855 3.834-6.055 5.5-1.025 1.448-1.802 5.07-2.827 6.517-.941 1.317-4.057 2.882-4.999 4.2-1.297 1.728-2.28 5.952-3.578 7.68-1.084 1.5-4.458 3.415-5.58 4.923-.942 1.317-1.66 4.704-2.6 6.022-.751 1.165-4.063 3.885-4.063 3.885" mask="url(#prefix__t)"/>
                    </g>
                    <g>
                        <mask id="prefix__v" fill="#fff">
                            <use xlink:href="#prefix__u"/>
                        </mask>
                        <path stroke="#AF568E" stroke-width="1.5" d="M47.352 5.345s-2.29 5.396-3.526 6.89c-1.215 1.599-4.855 3.834-6.053 5.51-1.025 1.448-1.802 5.07-2.827 6.516-.94 1.318-4.057 2.883-4.998 4.2-1.299 1.728-2.28 5.952-3.578 7.68-1.097 1.494-4.47 3.418-5.594 4.916-.94 1.318-1.658 4.704-2.6 6.022-.75 1.165-4.063 3.885-4.063 3.885" mask="url(#prefix__v)"/>
                    </g>
                    <g>
                        <mask id="prefix__x" fill="#fff">
                            <use xlink:href="#prefix__w"/>
                        </mask>
                        <path stroke="#C45583" stroke-width="1.5" d="M50.425 7.733s-2.288 5.396-3.526 6.89c-1.215 1.599-4.854 3.834-6.05 5.52-1.024 1.447-1.802 5.069-2.827 6.516-.94 1.318-4.057 2.882-4.998 4.2-1.299 1.729-2.28 5.952-3.578 7.681-1.109 1.485-4.48 3.419-5.605 4.908-.942 1.317-1.66 4.703-2.6 6.02-.751 1.166-4.064 3.887-4.064 3.887" mask="url(#prefix__x)"/>
                    </g>
                    <g>
                        <mask id="prefix__z" fill="#fff">
                            <use xlink:href="#prefix__y"/>
                        </mask>
                        <path stroke="#DA5378" stroke-width="1.5" d="M53.498 10.12s-2.287 5.398-3.525 6.891c-1.215 1.6-4.855 3.835-6.048 5.53-1.025 1.447-1.803 5.07-2.827 6.516-.941 1.317-4.057 2.882-4.999 4.2-1.298 1.729-2.28 5.951-3.578 7.68-1.119 1.478-4.488 3.42-5.617 4.9-.94 1.318-1.658 4.705-2.6 6.023-.75 1.164-4.063 3.886-4.063 3.886" mask="url(#prefix__z)"/>
                    </g>
                    <g>
                        <mask id="prefix__B" fill="#fff">
                            <use xlink:href="#prefix__A"/>
                        </mask>
                        <path stroke="#F0526D" stroke-width="1.5" d="M56.572 12.51s-2.288 5.396-3.525 6.89c-1.215 1.598-4.855 3.834-6.046 5.539-1.025 1.447-1.803 5.07-2.827 6.516-.941 1.318-4.058 2.882-4.999 4.2-1.298 1.728-2.28 5.952-3.578 7.68-1.13 1.47-4.498 3.424-5.628 4.894-.942 1.316-1.658 4.703-2.6 6.02-.751 1.166-4.063 3.887-4.063 3.887" mask="url(#prefix__B)"/>
                    </g>
                </g>
            </g>
        </g>
    </g>
</svg>
