<svg xmlns="http://www.w3.org/2000/svg" width="58" height="66" viewBox="0 0 58 66">
    <g fill="none" fill-rule="evenodd">
        <path stroke="#00F025" d="M48 20.556c0 11.016-8.955 25.07-20 31.39-11.046 6.32-20 2.514-20-8.502s8.954-25.07 20-31.39c11.045-6.32 20-2.515 20 8.502z" transform="translate(1 1)"/>
        <path stroke="#0061E5" d="M48 20.556c0 11.016-8.954 25.07-20 31.39S8 54.46 8 43.445c0-11.017 8.954-25.071 20-31.391 11.046-6.32 20-2.514 20 8.502z" transform="translate(1 1)"/>
        <path stroke="#00F025" d="M55 15.827c0 15.086-12.312 34.334-27.5 42.99C12.312 67.475 0 62.26 0 47.175 0 32.086 12.312 12.838 27.5 4.182 42.688-4.474 55 .74 55 15.827z" transform="translate(1 1)"/>
        <path stroke="#0061E5" d="M56 16.826c0 15.088-12.312 34.335-27.5 42.991C13.313 68.474 1 63.261 1 48.173c0-15.087 12.313-34.335 27.5-42.99C43.688-3.475 56 1.74 56 16.825z" transform="translate(1 1)"/>
        <path stroke="#00F025" d="M41 24.537c0 7.184-5.82 16.35-13 20.47-7.18 4.124-13 1.641-13-5.543 0-7.185 5.82-16.35 13-20.473 7.18-4.121 13-1.639 13 5.546z" transform="translate(1 1)"/>
        <path stroke="#0061E5" d="M41 24.537c0 7.184-5.82 16.35-13 20.471-7.18 4.122-13 1.64-13-5.544 0-7.185 5.82-16.35 13-20.473 7.18-4.121 13-1.639 13 5.546z" transform="translate(1 1)"/>
        <path fill="#0061E5" d="M33.403 28.183L35 25.976l-2.792-1.546c-1.054-.667-2.66-.58-4.462.416C24.572 26.598 22 30.495 22 33.549c0 1.36.512 2.32 1.358 2.816l-.001.002L26.3 38l1.57-2.17c2.786-1.597 5.077-4.825 5.532-7.647" transform="translate(1 1)"/>
        <path fill="#00F025" d="M36 29.266c0 3.113-2.463 7.085-5.5 8.871-3.038 1.786-5.5.71-5.5-2.403s2.462-7.085 5.5-8.87c3.037-1.787 5.5-.712 5.5 2.402" transform="translate(1 1)"/>
    </g>
</svg>
