<svg xmlns="http://www.w3.org/2000/svg" xmlns:xlink="http://www.w3.org/1999/xlink" width="12" height="15" viewBox="0 0 12 15">
    <defs>
        <path id="a" d="M0 0h11.433v15H0z"/>
    </defs>
    <g fill="none" fill-rule="evenodd">
        <mask id="b" fill="#D45A42">
            <use xlink:href="#a"/>
        </mask>
        <path fill="#D45A42" d="M5.716 12.764c1.456 0 2.638-1.435 2.638-3.08 0-1.708-1.182-3.08-2.637-3.08-1.456 0-2.637 1.372-2.637 3.08 0 1.645 1.18 3.08 2.636 3.08zM3.08 0v5.95c1.098-1.203 2.49-1.583 3.46-1.583 2.722 0 4.895 2.448 4.895 5.316 0 2.89-2.195 5.317-4.895 5.317-.97 0-2.362-.38-3.46-1.582v1.35H0V0h3.08z"/>
        <path fill="#D45A42" d="M6.75 2.832h4.311V0H6.75z"/>
    </g>
</svg>
