<svg xmlns="http://www.w3.org/2000/svg" width="24" height="22" viewBox="0 0 24 22">
    <path fill="#E52628" fill-rule="nonzero" d="M17.625 0c1.798 0 3.44.767 4.624 2.161C23.379 3.491 24 5.271 24 7.175c0 2.072-.78 3.999-2.454 6.065-1.496 1.846-3.648 3.75-6.14 5.953-.93.821-1.89 1.67-2.912 2.598l-.03.028a.687.687 0 0 1-.927 0l-.03-.028c-1.023-.928-1.984-1.777-2.912-2.598-2.493-2.204-4.645-4.107-6.141-5.953C.78 11.174 0 9.247 0 7.175 0 5.27.622 3.49 1.751 2.16 2.935.768 4.577 0 6.375 0c2.529 0 4.13 1.567 5.028 2.882.233.34.43.683.597 1.005.166-.322.364-.664.597-1.005C13.495 1.567 15.097 0 17.625 0z"/>
</svg>
