<svg xmlns="http://www.w3.org/2000/svg" width="23" height="24" viewBox="0 0 23 24">
    <path fill="none" fill-rule="nonzero" stroke="#000" stroke-width="1.5" d="M19.648 16.312c-1.361-1.136-2.743-1.825-4.087-.69l-.803.686c-.587.498-1.68 2.825-5.902-1.918-4.221-4.737-1.71-5.474-1.121-5.968l.807-.687c1.338-1.137.833-2.57-.132-4.043l-.582-.893c-.969-1.47-2.024-2.437-3.365-1.3l-.724.617a6.626 6.626 0 0 0-2.652 4.395c-.483 3.124 1.042 6.7 4.538 10.625 3.49 3.926 6.908 5.898 10.146 5.864 2.69-.029 4.316-1.439 4.824-1.951l.727-.62c1.338-1.134.507-2.29-.855-3.429l-.819-.688z"/>
</svg>
