<?xml version="1.0" encoding="UTF-8"?>
<svg width="2267px" height="2660px" viewBox="0 0 2267 2660" version="1.1" xmlns="http://www.w3.org/2000/svg" xmlns:xlink="http://www.w3.org/1999/xlink">
    <g stroke="none" stroke-width="1" fill="none" fill-rule="evenodd">
        <g id="path" transform="translate(-49.000000, -43.000000)" stroke-width="14">
            <g id="Path-1" transform="translate(843.000000, 531.636741)" stroke="#F3F7E8">
                <path d="M92.7980617,34 C71.7392229,54.6180947 62.6614322,82.5686808 55.6281889,109.720679 C41.9297209,162.173402 33.7515311,216.223302 40.294083,269.619811 C46.8366348,323.01632 69.3266569,376.013535 111.117207,414.817661 C218.987531,515.185675 411.870138,492.897805 537.977826,574.753092 C604.384727,617.840554 644.98944,685.502752 672.917958,754.145036 C700.846476,822.787319 718.67493,894.696555 751.265017,961.705362 C783.855103,1028.71417 834.355425,1092.60122 908.327152,1124.50845 C946.641972,1141.02471 989.127668,1148.1031 1031,1155" id="Path" transform="translate(534.500000, 594.500000) rotate(-4.000000) translate(-534.500000, -594.500000) "></path>
            </g>
            <g id="Path-4" transform="translate(1354.000000, 946.636741)" stroke="#DDE6BC">
                <path d="M47.3040601,0 C-17.68846,121.656921 -15.550178,276.590174 52.7341711,396.446853 C71.0502449,428.569906 94.4025357,458.83646 125.885925,478.414083 C162.71502,501.423415 207.168778,507.836774 249.906284,515.628443 C285.71313,522.154317 321.238623,529.98349 356.482763,539.115964 C386.7282,546.96389 417.31126,555.993224 442.99878,573.798734 C501.351371,614.135387 522.762327,691.630143 520.11761,762.514637 C517.472893,833.399132 495.358555,902.005197 485.483068,972.24273 C475.607581,1042.48026 479.85601,1119.72186 523.268762,1175.81062 C555.166267,1217.05962 604.19447,1241.44221 656.342521,1242 C708.490572,1242.53889 758.020877,1219.19264 790.779101,1178.6235 C801.189158,1165.7124 809.882963,1151.08544 822.797061,1140.64966 C859.766832,1110.72065 914.208618,1125.37574 959,1141.40914" id="Path"></path>
            </g>
            <g id="Path-3" transform="translate(0.000000, 0.636741)" stroke="#F3F7E8">
                <path d="M389.70326,354 C234.081623,602.636287 276.64971,1171.22384 757.220127,1364.30044 C939.847688,1437.63685 1107.79078,1411.15013 1207.949,1470.72295 C1283.93692,1515.93766 1293.79408,1571.14062 1315.97269,1630.327 C1386.62694,1820.19309 1516.7955,1883.00615 1728.15061,1900.66396 C1827.73495,1908.98751 1942.98273,1888.77318 2016,1949" id="Path" transform="translate(1162.500000, 1151.500000) rotate(-323.000000) translate(-1162.500000, -1151.500000) "></path>
            </g>
            <g id="Path-2" transform="translate(55.000000, 1736.636741)" opacity="0.596687" stroke="#8BAD00">
                <path d="M0,0 C68.6416579,106.426623 162.722804,200.411956 276.62443,276.342714 C327.564425,310.269645 382.411749,340.515963 428.829371,378.568741 C580.455449,502.878439 624.557617,694.448351 772.204008,821.93406 C925.78375,954.525135 1182.03942,994.091713 1389.27258,926.71277 C1451.53659,906.469404 1509.74856,877.647839 1574.03859,862.331744 C1707.9008,830.482578 1853.26791,860.817944 1977,913.236981" id="Path"></path>
            </g>
        </g>
    </g>
</svg>