<?xml version="1.0" encoding="UTF-8"?>
<svg width="43px" height="43px" viewBox="0 0 43 43" version="1.1" xmlns="http://www.w3.org/2000/svg" xmlns:xlink="http://www.w3.org/1999/xlink">
    <!-- Generator: Sketch 57.1 (83088) - https://sketch.com -->
    <title>Group 29</title>
    <desc>Created with Sketch.</desc>
    <g id="Расположение+-адаптив+" stroke="none" stroke-width="1" fill="none" fill-rule="evenodd">
        <g id="Видный-берег_расположение_офис-продаж_1600" transform="translate(-750.000000, -1021.000000)">
            <g id="Group-29" transform="translate(750.000000, 1021.000000)">
                <rect id="Rectangle" stroke="#121212" stroke-width="2" fill="#FFFFFF" x="1" y="1" width="41" height="41"></rect>
                <g id="Group-28" transform="translate(7.000000, 5.000000)" fill="#EAB54A" fill-rule="nonzero">
                    <path d="M0.00835687903,0 L4.00574329,0 C3.94735929,0.907371943 4.40989586,1.77131275 5.2062061,2.24226333 C6.00251633,2.71321392 7.00078036,2.71321392 7.7970906,2.24226333 C8.59340083,1.77131275 9.05593741,0.907371943 8.99755341,0 L12.9949398,0 C13.1229349,3.46153846 10.8190226,6 6.50657124,6 C2.19411989,6 -0.15902137,3.47115385 0.00835687903,0 Z" id="Path"></path>
                    <path d="M0.00835687903,9 L4.00574329,9 C3.94735929,9.90737194 4.40989586,10.7713127 5.2062061,11.2422633 C6.00251633,11.7132139 7.00078036,11.7132139 7.7970906,11.2422633 C8.59340083,10.7713127 9.05593741,9.90737194 8.99755341,9 L12.9949398,9 C13.1229349,12.4615385 10.8190226,15 6.50657124,15 C2.19411989,15 -0.15902137,12.4711538 0.00835687903,9 Z" id="Path-Copy-3"></path>
                    <path d="M16.0083569,0 L20.0057433,0 C19.9473593,0.907371943 20.4098959,1.77131275 21.2062061,2.24226333 C22.0025163,2.71321392 23.0007804,2.71321392 23.7970906,2.24226333 C24.5934008,1.77131275 25.0559374,0.907371943 24.9975534,0 L28.9949398,0 C29.1229349,3.46153846 26.8190226,6 22.5065712,6 C18.1941199,6 15.8409786,3.47115385 16.0083569,0 Z" id="Path-Copy-2"></path>
                    <path d="M16.0083569,9 L20.0057433,9 C19.9473593,9.90737194 20.4098959,10.7713127 21.2062061,11.2422633 C22.0025163,11.7132139 23.0007804,11.7132139 23.7970906,11.2422633 C24.5934008,10.7713127 25.0559374,9.90737194 24.9975534,9 L28.9949398,9 C29.1229349,12.4615385 26.8190226,15 22.5065712,15 C18.1941199,15 15.8409786,12.4711538 16.0083569,9 Z" id="Path-Copy-4"></path>
                    <path d="M0.00835687903,18 L4.00574329,18 C3.94735929,18.9073719 4.40989586,19.7713127 5.2062061,20.2422633 C6.00251633,20.7132139 7.00078036,20.7132139 7.7970906,20.2422633 C8.59340083,19.7713127 9.05593741,18.9073719 8.99755341,18 L12.9949398,18 C13.1229349,21.4615385 10.8190226,24 6.50657124,24 C2.19411989,24 -0.15902137,21.4711538 0.00835687903,18 Z" id="Path"></path>
                    <path d="M0.00835687903,27 L4.00574329,27 C3.94735929,27.9073719 4.40989586,28.7713127 5.2062061,29.2422633 C6.00251633,29.7132139 7.00078036,29.7132139 7.7970906,29.2422633 C8.59340083,28.7713127 9.05593741,27.9073719 8.99755341,27 L12.9949398,27 C13.1229349,30.4615385 10.8190226,33 6.50657124,33 C2.19411989,33 -0.15902137,30.4711538 0.00835687903,27 Z" id="Path-Copy-3"></path>
                    <path d="M16.0083569,18 L20.0057433,18 C19.9473593,18.9073719 20.4098959,19.7713127 21.2062061,20.2422633 C22.0025163,20.7132139 23.0007804,20.7132139 23.7970906,20.2422633 C24.5934008,19.7713127 25.0559374,18.9073719 24.9975534,18 L28.9949398,18 C29.1229349,21.4615385 26.8190226,24 22.5065712,24 C18.1941199,24 15.8409786,21.4711538 16.0083569,18 Z" id="Path-Copy-2"></path>
                    <path d="M16.0083569,27 L20.0057433,27 C19.9473593,27.9073719 20.4098959,28.7713127 21.2062061,29.2422633 C22.0025163,29.7132139 23.0007804,29.7132139 23.7970906,29.2422633 C24.5934008,28.7713127 25.0559374,27.9073719 24.9975534,27 L28.9949398,27 C29.1229349,30.4615385 26.8190226,33 22.5065712,33 C18.1941199,33 15.8409786,30.4711538 16.0083569,27 Z" id="Path-Copy-4"></path>
                </g>
            </g>
        </g>
    </g>
</svg>