<?xml version="1.0" encoding="UTF-8"?>
<svg width="24px" height="34px" viewBox="0 0 24 34" version="1.1" xmlns="http://www.w3.org/2000/svg" xmlns:xlink="http://www.w3.org/1999/xlink">
    <!-- Generator: Sketch 57.1 (83088) - https://sketch.com -->
    <title>placeholder</title>
    <desc>Created with Sketch.</desc>
    <g id="Расположение+-адаптив+" stroke="none" stroke-width="1" fill="none" fill-rule="evenodd">
        <g id="Видный-берег_расположение_объект_1600" transform="translate(-56.000000, -912.000000)" fill="#898989" fill-rule="nonzero">
            <g id="Group-28" transform="translate(16.000000, 566.000000)">
                <g id="Group-24" transform="translate(40.000000, 79.000000)">
                    <g id="Group-29" transform="translate(0.000000, 267.000000)">
                        <g id="placeholder">
                            <path d="M12.0350769,7.41818182 C9.66030769,7.41818182 7.72738462,9.35989091 7.72738462,11.7454545 C7.72738462,14.1310182 9.66030769,16.0727273 12.0350769,16.0727273 C14.4098462,16.0727273 16.3427692,14.1310182 16.3427692,11.7454545 C16.3427692,9.35989091 14.4098462,7.41818182 12.0350769,7.41818182 Z M12.0350769,14.8363636 C10.3384615,14.8363636 8.95815385,13.4497818 8.95815385,11.7454545 C8.95815385,10.0411273 10.3384615,8.65454545 12.0350769,8.65454545 C13.7316923,8.65454545 15.112,10.0411273 15.112,11.7454545 C15.112,13.4497818 13.7316923,14.8363636 12.0350769,14.8363636 Z" id="Shape"></path>
                            <path d="M20.2707692,3.47232727 C18.0418462,1.23327273 15.0781538,0 11.9261538,0 C8.77353846,0 5.81046154,1.23327273 3.58153846,3.47232727 C-0.543384615,7.61538182 -1.056,15.4106545 2.47138462,20.1335636 L11.9261538,33.8497818 L21.3667692,20.1527273 C24.9083077,15.4106545 24.3956923,7.61538182 20.2707692,3.47232727 Z M20.3686154,19.4300727 L11.9261538,31.6774909 L3.47015385,19.4109091 C0.270769231,15.1256727 0.729230769,8.08581818 4.45230769,4.34643636 C6.44861538,2.34105455 9.10276923,1.23636364 11.9261538,1.23636364 C14.7495385,1.23636364 17.4036923,2.34105455 19.4006154,4.34643636 C23.1236923,8.08581818 23.5821538,15.1256727 20.3686154,19.4300727 Z" id="Shape"></path>
                        </g>
                    </g>
                </g>
            </g>
        </g>
    </g>
</svg>