<svg xmlns="http://www.w3.org/2000/svg" xmlns:xlink="http://www.w3.org/1999/xlink" width="24" height="24" viewBox="0 0 24 24">
    <defs>
        <path id="a" d="M12 7c-3.636 0-6.742 2.28-8 5.5 1.258 3.22 4.364 5.5 8 5.5 3.64 0 6.742-2.28 8-5.5C18.742 9.28 15.64 7 12 7zm0 9.167c-2.007 0-3.636-1.643-3.636-3.667S9.993 8.833 12 8.833s3.636 1.643 3.636 3.667-1.629 3.667-3.636 3.667zm0-5.867a2.193 2.193 0 0 0-2.182 2.2c0 1.214.978 2.2 2.182 2.2a2.193 2.193 0 0 0 2.182-2.2c0-1.214-.978-2.2-2.182-2.2z"/>
    </defs>
    <g fill="none" fill-rule="evenodd">
        <mask id="b" fill="#fff">
            <use xlink:href="#a"/>
        </mask>
        <use fill="#9C9C9C" opacity=".5" xlink:href="#a"/>
        <g fill="#9C9C9C" mask="url(#b)">
            <path d="M0 0h24v24H0z"/>
        </g>
    </g>
</svg>
