<?xml version="1.0" encoding="UTF-8"?>
<svg width="262px" height="40px" viewBox="0 0 262 40" version="1.1" xmlns="http://www.w3.org/2000/svg" xmlns:xlink="http://www.w3.org/1999/xlink">
    <!-- Generator: Sketch 56.3 (81716) - https://sketch.com -->
    <title>3red_new</title>
    <desc>Created with Sketch.</desc>
    <g id="О-ЖК+-адаптив+" stroke="none" stroke-width="1" fill="none" fill-rule="evenodd">
        <g id="Видный-берег_О-ЖК_1600" transform="translate(-253.000000, -5950.000000)" fill-rule="nonzero">
            <g id="Group-18" transform="translate(196.000000, 5863.000000)">
                <g id="Group-16">
                    <g id="Group-22">
                        <g id="3red_new" transform="translate(57.000000, 87.000000)">
                            <rect id="Rectangle" fill="#ED1C24" x="144" y="0" width="118" height="40"></rect>
                            <g id="Group" transform="translate(0.000000, 7.000000)" fill="#000000">
                                <path d="M27.7,6.2 C27.6,6.3 27.45,6.35 27.25,6.45 C27.2,5.9 27.15,5.45 27.1,5 C25.5,5 24,5 22.5,5 C22.5,14.35 22.5,23.65 22.5,33 C24.05,33 25.55,33 27.15,33 C27.15,29.95 27.15,27 27.15,24 C27.3,24 27.4,23.95 27.45,24 C27.6,24.05 27.8,24.1 27.95,24.2 C29.85,24.95 31.85,25.25 33.85,25.1 C37.25,24.8 39.85,23.25 41.45,20.15 C42.7,17.65 42.9,15 42.4,12.3 C41.15,5.4 33.45,2.2 27.7,6.2 Z M37.75,16.5 C37.2,19.1 35.25,20.8 32.6,21.05 C30.9,21.2 28.9,20.85 27.2,20 C27.2,16.6 27.2,13.2 27.2,9.8 C29,8.5 30.95,8.05 33.1,8.4 C35.55,8.85 37.15,10.25 37.7,12.75 C38,14 38,15.25 37.75,16.5 Z" id="Shape"></path>
                                <path d="M136.55,12.1 C136.55,11.35 136.5,10.65 136.35,9.9 C135.95,7.55 134.65,5.9 132.3,5.15 C131.25,4.8 130.15,4.65 129.05,4.6 C126.2,4.5 123.4,4.85 120.6,5.5 C119.8,5.7 118.95,5.9 118.1,6.15 C118.4,7.4 118.65,8.6 118.95,9.8 C119.2,9.8 119.35,9.8 119.5,9.75 C121.35,9.25 123.2,8.95 125.05,8.75 C126.45,8.6 127.85,8.55 129.25,8.85 C130.45,9.1 131.45,9.65 131.7,11 C131.9,12 131.8,13.05 131.8,14.1 C131.65,14.1 131.55,14.1 131.45,14.1 C129.45,13.6 127.4,13.4 125.4,13.35 C123.95,13.3 122.5,13.45 121.05,13.95 C116.9,15.35 116.55,19.35 117.55,21.95 C117.85,22.7 118.35,23.3 119,23.8 C119.65,24.3 120.4,24.65 121.2,24.85 C123.7,25.5 126.15,25.35 128.6,24.6 C129.65,24.25 130.7,23.75 131.75,23.35 C131.8,23.85 131.8,24.35 131.85,24.85 C133.4,24.85 134.9,24.85 136.5,24.85 C136.5,24.55 136.5,24.35 136.5,24.15 C136.55,20.05 136.55,16.1 136.55,12.1 Z M131.85,20.05 C131.2,20.3 130.55,20.55 129.85,20.7 C128.65,20.95 127.4,21.2 126.15,21.4 C125.3,21.55 124.45,21.45 123.6,21.25 C122.35,20.95 121.75,20.2 121.8,19.05 C121.85,18.35 122.15,17.8 122.8,17.5 C123.35,17.25 123.95,17.1 124.55,17.05 C126.9,16.9 129.25,17.1 131.55,17.45 C131.6,17.45 131.65,17.5 131.75,17.55 C131.75,17.65 131.8,17.8 131.8,17.95 C131.85,18.65 131.85,19.3 131.85,20.05 Z" id="Shape"></path>
                                <path d="M115.3,5.05 C113.35,5.05 111.55,5.05 109.75,5.05 C107.8,7.55 105.9,10 104.05,12.4 C102.8,12.4 101.7,12.4 100.45,12.4 C100.45,7.15 100.45,10.25 100.45,5 C98.85,5 97.35,5 95.85,5 C95.8,5.15 95.8,5.2 95.8,5.3 C95.8,14.5 95.8,15.45 95.8,24.6 C95.8,24.6 95.85,24.65 95.85,24.65 C95.85,24.65 95.9,24.7 95.9,24.7 C97.4,24.7 98.9,24.7 100.45,24.7 C100.45,21.85 100.45,19 100.45,16.15 C101.7,16.15 102.85,16.15 104.1,16.15 C106.2,19.05 108.25,21.9 110.25,24.7 C112.15,24.7 113.95,24.7 115.85,24.7 C113.2,21.15 110.55,17.7 107.95,14.15 C110.4,11.15 112.8,8.1 115.3,5.05 Z" id="Path"></path>
                                <path d="M60.65,5.25 C58,4.35 55.25,4.35 52.55,5.1 C49.4,5.95 47.2,7.95 46.15,11.05 C45.35,13.4 45.3,15.8 46,18.15 C46.85,21.1 48.7,23.15 51.55,24.3 C53.1,24.9 54.7,25.15 56.4,25.2 C57.55,25.05 58.7,24.95 59.8,24.7 C62.95,23.95 65.2,22.1 66.4,19.05 C67.25,16.9 67.4,14.65 66.95,12.4 C66.2,8.9 64.1,6.4 60.65,5.25 Z M62.05,17.25 C61.05,20.6 58.2,21.7 55.5,21.4 C51.85,20.95 50.55,18.2 50.3,15.6 C50.3,15.35 50.3,15.1 50.3,14.85 C50.3,13.4 50.6,12.05 51.4,10.85 C52.8,8.75 54.8,8.1 57.2,8.35 C60.5,8.75 62.1,11.25 62.4,14.15 C62.45,15.2 62.35,16.25 62.05,17.25 Z" id="Shape"></path>
                                <polygon id="Path" points="75.5 18.65 75.5 5 70.8 5 70.85 24.7 75.5 24.7 85.95 11.1 86 24.7 90.65 24.7 90.65 5 85.95 5"></polygon>
                                <polygon id="Path" points="0 4.25 8.3 4.25 8.3 24.7 13.2 24.7 13.2 4.25 21.55 4.25 21.55 0.25 0 0.25"></polygon>
                            </g>
                            <polygon id="Path" fill="#ED1C24" points="84.0240964 0 82 0 78 0 78 4 82 4 82 8 86 8 86 4 86 1.97590361 86 0"></polygon>
                            <g id="Group" transform="translate(152.000000, 7.000000)" fill="#FFFFFF">
                                <path d="M31.4541872,7.55 C30.7507389,4.3 29.1931034,2.2 26.1783251,1.25 C25.1231527,0.9 23.9674877,0.75 22.71133,0.75 C19.5458128,0.75 0.452216749,0.75 0.452216749,0.75 L0.452216749,25.2 L8.49162562,25.2 C8.49162562,25.2 8.49162562,20.7 8.49162562,20.6 C8.64236453,20.6 19.0935961,20.6 19.244335,20.6 C20.3497537,20.6 21.4551724,20.6 22.6108374,20.6 C23.2137931,20.6 24.0679803,20.55 24.8719212,20.45 C28.28867,19.9 30.1980296,18.05 31.3536946,14.9 C31.9064039,13.3 31.9064039,9.65 31.4541872,7.55 Z M8.49162562,8 L21.7566502,8 L23.8167488,10.95 L21.7566502,13.9 L8.49162562,13.9 L8.49162562,8 Z" id="Shape"></path>
                                <path d="M98.4827586,17.95 L98.4827586,0.75 L94.3123153,0.8 L69.3399015,0.8 L67.1793103,17.95 L63.3103448,17.95 L63.3103448,27.95 L71.3497537,27.95 L71.3497537,25.2 L92.9054187,25.2 L92.9054187,27.95 L101.748768,27.95 L101.748768,17.95 L98.4827586,17.95 L98.4827586,17.95 Z M89.5891626,8.05 L89.5891626,17.95 L75.8216749,17.95 L77.0275862,8.05 L89.5891626,8.05 Z" id="Shape"></path>
                                <path d="M62.4059113,13 C62.4059113,6.35 57.3812808,0.75 48.8394089,0.3 C38.9408867,-0.2 32.3586207,2.1 32.3586207,2.1 L36.7300493,8.35 C39.7950739,7.9 44.6187192,7.35 48.68867,7.7 C51.8541872,8 53.2108374,9.4 53.7635468,10.75 L44.0660099,10.75 L44.0660099,15.35 L53.7635468,15.35 C53.1605911,16.7 51.8039409,18.05 48.68867,18.35 C44.6187192,18.7 39.7950739,18.15 36.7300493,17.7 L32.3586207,23.95 C32.3586207,23.95 38.8906404,26.25 48.8394089,25.75 C57.3812808,25.2 62.4059113,19.65 62.4059113,13 L62.4059113,13 L62.4059113,13 Z" id="Path"></path>
                            </g>
                        </g>
                    </g>
                </g>
            </g>
        </g>
    </g>
</svg>