<?xml version="1.0" encoding="UTF-8"?>
<svg width="321px" height="137px" viewBox="0 0 321 137" version="1.1" xmlns="http://www.w3.org/2000/svg" xmlns:xlink="http://www.w3.org/1999/xlink">
    <!-- Generator: Sketch 58 (84663) - https://sketch.com -->
    <title>видный берег 2</title>
    <desc>Created with Sketch.</desc>
    <g id="(залито)Квартиры+-адаптив+" stroke="none" stroke-width="1" fill="none" fill-rule="evenodd">
        <g id="видный-берег-2" fill-rule="nonzero">
            <g id="Group" transform="translate(179.316602, 78.814672)" fill="#201600">
                <path d="M1.42818533,9.52123552 C1.69266409,8.88648649 1.95714286,8.51621622 2.43320463,8.35752896 L2.43320463,8.3046332 C1.58687259,7.82857143 1.58687259,6.29459459 1.16370656,5.60694981 C1.00501931,5.3953668 0.793436293,5.28957529 0.581853282,5.28957529 C0.423166023,5.28957529 0.317374517,5.28957529 0.158687259,5.34247104 L0.158687259,3.91428571 C0.37027027,3.86138996 0.634749035,3.80849421 0.846332046,3.80849421 C1.53397683,3.80849421 1.95714286,4.12586873 2.22162162,4.6019305 C2.90926641,5.71274131 2.85637066,7.66988417 3.96718147,7.66988417 L4.91930502,7.66988417 L4.91930502,4.02007722 L6.45328185,4.02007722 L6.45328185,7.66988417 L7.40540541,7.66988417 C8.56911197,7.66988417 8.51621622,5.71274131 9.15096525,4.6019305 C9.41544402,4.12586873 9.83861004,3.80849421 10.5262548,3.80849421 C10.7378378,3.80849421 11.0023166,3.80849421 11.2138996,3.91428571 L11.2138996,5.34247104 C11.0552124,5.28957529 10.9494208,5.28957529 10.7907336,5.28957529 C10.5262548,5.28957529 10.3146718,5.3953668 10.2088803,5.60694981 C9.73281853,6.29459459 9.73281853,7.82857143 8.88648649,8.3046332 L8.88648649,8.35752896 C9.36254826,8.51621622 9.62702703,8.88648649 9.89150579,9.52123552 L11.3725869,12.7478764 L9.73281853,12.7478764 L8.56911197,9.89150579 C8.3046332,9.203861 7.98725869,8.99227799 7.72277992,8.99227799 L6.45328185,8.99227799 L6.45328185,12.7478764 L4.91930502,12.7478764 L4.91930502,8.99227799 L3.5969112,8.99227799 C3.38532819,8.99227799 3.06795367,9.203861 2.8034749,9.89150579 L1.63976834,12.7478764 L0,12.7478764 L1.42818533,9.52123552 Z" id="Path"></path>
                <path d="M13.1710425,4.07297297 L14.7050193,4.07297297 L14.7050193,8.67490347 C14.7050193,9.36254826 14.6521236,9.89150579 14.6521236,10.4733591 L14.7050193,10.4733591 C15.0223938,9.9972973 15.3397683,9.41544402 15.8687259,8.67490347 L18.9366795,4.12586873 L20.4177606,4.12586873 L20.4177606,12.7478764 L18.8837838,12.7478764 L18.8837838,8.14594595 C18.8837838,7.45830116 18.8837838,6.92934363 18.9366795,6.34749035 L18.8837838,6.34749035 C18.619305,6.82355212 18.2490347,7.40540541 17.772973,8.14594595 L14.7050193,12.6949807 L13.2239382,12.6949807 L13.2239382,4.07297297 L13.1710425,4.07297297 Z" id="Path"></path>
                <path d="M22.0046332,12.853668 L22.0046332,11.3725869 C22.1104247,11.4254826 22.2162162,11.4254826 22.269112,11.4254826 C22.6393822,11.4254826 22.9567568,11.2138996 23.2212355,10.7378378 C23.9088803,9.67992278 24.6494208,7.14092664 24.9667954,4.07297297 L29.6216216,4.07297297 L29.6216216,12.6949807 L28.034749,12.6949807 L28.034749,5.44826255 L26.1833977,5.44826255 C25.8660232,8.25173745 25.1254826,10.6849421 24.2791506,11.8486486 C23.8030888,12.5362934 23.2212355,12.853668 22.3749035,12.853668 C22.3749035,12.9065637 22.1633205,12.853668 22.0046332,12.853668 Z" id="Path"></path>
                <path d="M31.7374517,8.41042471 C31.7374517,5.87142857 33.3243243,3.86138996 35.7046332,3.86138996 C38.0849421,3.86138996 39.6718147,5.81853282 39.6718147,8.41042471 C39.6718147,10.9494208 38.0849421,12.9065637 35.7046332,12.9065637 C33.3243243,12.9065637 31.7374517,10.9494208 31.7374517,8.41042471 Z M38.0320463,8.41042471 C38.0320463,6.55907336 37.1328185,5.23667954 35.7046332,5.23667954 C34.2235521,5.23667954 33.3243243,6.55907336 33.3243243,8.41042471 C33.3243243,10.2617761 34.2235521,11.5841699 35.6517375,11.5841699 C37.1857143,11.5841699 38.0320463,10.2617761 38.0320463,8.41042471 Z" id="Shape"></path>
                <path d="M41.7876448,4.07297297 L43.3216216,4.07297297 L43.3216216,8.67490347 C43.3216216,9.36254826 43.2687259,9.89150579 43.2687259,10.4733591 L43.3216216,10.4733591 C43.6389961,9.9972973 43.9563707,9.41544402 44.4853282,8.67490347 L47.5532819,4.12586873 L49.0343629,4.12586873 L49.0343629,12.7478764 L47.5003861,12.7478764 L47.5003861,8.14594595 C47.5003861,7.45830116 47.5003861,6.92934363 47.5532819,6.34749035 L47.5003861,6.34749035 C47.2359073,6.82355212 46.8656371,7.40540541 46.3895753,8.14594595 L43.3216216,12.6949807 L41.7876448,12.6949807 L41.7876448,4.07297297 Z M42.7397683,0.0528957529 L44.0621622,0.0528957529 C44.0621622,0.846332046 44.4324324,1.58687259 45.4903475,1.58687259 C46.4953668,1.58687259 46.8656371,0.846332046 46.8656371,0.0528957529 L48.1880309,0.0528957529 C48.2409266,1.63976834 47.2359073,2.8034749 45.4903475,2.8034749 C43.6918919,2.8034749 42.7397683,1.63976834 42.7397683,0.0528957529 Z" id="Shape"></path>
                <path d="M57.4447876,4.07297297 L58.9787645,4.07297297 L58.9787645,7.66988417 L60.0366795,7.66988417 C61.2003861,7.66988417 61.1474903,5.71274131 61.7822394,4.65482625 C62.0996139,4.12586873 62.5756757,3.80849421 63.2104247,3.80849421 C63.4220077,3.80849421 63.6864865,3.80849421 63.8980695,3.91428571 L63.8980695,5.34247104 C63.7393822,5.28957529 63.6335907,5.23667954 63.4749035,5.23667954 C63.2104247,5.23667954 62.9988417,5.34247104 62.8930502,5.55405405 C62.4169884,6.24169884 62.3640927,7.77567568 61.5706564,8.25173745 L61.5706564,8.3046332 C62.0467181,8.41042471 62.2583012,8.83359073 62.5756757,9.41544402 L64.1096525,12.6949807 L62.4698842,12.6949807 L61.2003861,9.83861004 C60.8830116,9.203861 60.6185328,8.93938224 60.4069498,8.93938224 L58.9787645,8.93938224 L58.9787645,12.6949807 L57.4447876,12.6949807 L57.4447876,4.07297297 L57.4447876,4.07297297 Z" id="Path"></path>
                <path d="M65.4849421,8.41042471 C65.4849421,5.87142857 67.0718147,3.86138996 69.4521236,3.86138996 C71.8324324,3.86138996 73.419305,5.81853282 73.419305,8.41042471 C73.419305,10.9494208 71.8324324,12.9065637 69.4521236,12.9065637 C67.0718147,12.9065637 65.4849421,10.9494208 65.4849421,8.41042471 Z M71.8324324,8.41042471 C71.8324324,6.55907336 70.9332046,5.23667954 69.5050193,5.23667954 C68.0239382,5.23667954 67.1247104,6.55907336 67.1247104,8.41042471 C67.1247104,10.2617761 68.0239382,11.5841699 69.4521236,11.5841699 C70.9332046,11.5841699 71.8324324,10.2617761 71.8324324,8.41042471 Z" id="Shape"></path>
                <path d="M75.5351351,4.07297297 L77.069112,4.07297297 L78.7088803,6.87644788 C79.0791506,7.51119691 79.4494208,8.25173745 79.6610039,8.72779923 L79.7138996,8.72779923 C79.9254826,8.3046332 80.2957529,7.56409266 80.7189189,6.87644788 L82.3057915,4.07297297 L83.8926641,4.07297297 L83.8926641,12.6949807 L82.3586873,12.6949807 L82.3586873,8.14594595 C82.3586873,7.56409266 82.3586873,6.87644788 82.411583,6.50617761 L82.3586873,6.50617761 C82.1471042,6.87644788 81.8297297,7.45830116 81.565251,7.98725869 L80.0841699,10.4733591 L79.3436293,10.4733591 L77.8625483,7.98725869 C77.5451737,7.45830116 77.2277992,6.92934363 77.069112,6.50617761 L77.0162162,6.50617761 C77.069112,6.87644788 77.069112,7.61698842 77.069112,8.25173745 L77.069112,12.6949807 L75.5351351,12.6949807 L75.5351351,4.07297297 L75.5351351,4.07297297 Z" id="Path"></path>
                <polygon id="Path" points="86.4316602 4.07297297 93.2023166 4.07297297 93.2023166 12.6949807 91.6683398 12.6949807 91.6683398 5.44826255 88.0185328 5.44826255 88.0185328 12.6949807 86.484556 12.6949807 86.484556 4.07297297"></polygon>
                <path d="M94.8420849,12.853668 L94.8420849,11.3725869 C94.9478764,11.4254826 95.053668,11.4254826 95.1065637,11.4254826 C95.476834,11.4254826 95.7942085,11.2138996 96.0586873,10.7378378 C96.746332,9.67992278 97.4868726,7.14092664 97.8042471,4.07297297 L102.459073,4.07297297 L102.459073,12.6949807 L100.925097,12.6949807 L100.925097,5.44826255 L99.0737452,5.44826255 C98.7563707,8.25173745 98.0158301,10.6849421 97.1694981,11.8486486 C96.6934363,12.5362934 96.111583,12.853668 95.265251,12.853668 C95.1594595,12.9065637 95.0007722,12.853668 94.8420849,12.853668 Z" id="Path"></path>
                <path d="M106.161776,8.78069498 C106.161776,10.4204633 107.166795,11.6370656 108.806564,11.6370656 C109.6,11.6370656 110.287645,11.3725869 110.869498,11.0552124 L111.34556,12.1660232 C110.552124,12.6949807 109.547104,12.9594595 108.594981,12.9594595 C105.844402,12.9594595 104.574903,10.8436293 104.574903,8.41042471 C104.574903,5.76563707 105.950193,3.91428571 108.118919,3.91428571 C110.287645,3.91428571 111.557143,5.65984556 111.557143,8.41042471 L111.557143,8.83359073 L106.161776,8.83359073 L106.161776,8.78069498 Z M109.97027,7.56409266 C109.97027,6.34749035 109.388417,5.13088803 108.118919,5.13088803 C106.902317,5.13088803 106.214672,6.24169884 106.161776,7.56409266 L109.97027,7.56409266 Z" id="Shape"></path>
                <path d="M113.672973,4.07297297 L115.20695,4.07297297 L115.20695,7.66988417 L116.264865,7.66988417 C117.428571,7.66988417 117.375676,5.71274131 118.010425,4.65482625 C118.327799,4.12586873 118.803861,3.80849421 119.43861,3.80849421 C119.650193,3.80849421 119.914672,3.80849421 120.126255,3.91428571 L120.126255,5.34247104 C119.967568,5.28957529 119.861776,5.23667954 119.703089,5.23667954 C119.43861,5.23667954 119.227027,5.34247104 119.121236,5.55405405 C118.645174,6.24169884 118.592278,7.77567568 117.798842,8.25173745 L117.798842,8.3046332 C118.274903,8.41042471 118.486486,8.83359073 118.803861,9.41544402 L120.337838,12.6949807 L118.698069,12.6949807 L117.428571,9.83861004 C117.111197,9.203861 116.846718,8.93938224 116.635135,8.93938224 L115.20695,8.93938224 L115.20695,12.6949807 L113.672973,12.6949807 L113.672973,4.07297297 L113.672973,4.07297297 Z" id="Path"></path>
                <path d="M121.766023,8.51621622 C121.766023,5.92432432 123.458687,3.91428571 125.997683,3.91428571 C126.896911,3.91428571 127.637452,4.17876448 128.113514,4.44324324 L128.113514,5.87142857 C127.53166,5.5011583 126.896911,5.23667954 126.103475,5.23667954 C124.410811,5.23667954 123.352896,6.61196911 123.352896,8.41042471 C123.352896,10.4204633 124.410811,11.5841699 125.997683,11.5841699 C126.844015,11.5841699 127.425869,11.2667954 128.007722,11.0023166 L128.483784,12.1131274 C127.849035,12.5362934 126.896911,12.9065637 125.838996,12.9065637 C123.194208,12.9065637 121.766023,10.9494208 121.766023,8.51621622 Z" id="Path"></path>
            </g>
            <g id="Group" transform="translate(89.393822, 3.173745)" fill="#A1BA47">
                <path d="M68.2355212,71.5679537 C64.2683398,71.5679537 59.9837838,69.6637066 57.2861004,66.7015444 C53.7420849,62.8401544 52.4725869,58.1324324 51.2030888,53.5305019 C50.0393822,49.1930502 48.8756757,45.0671815 45.8606178,42.4752896 C43.0571429,40.0420849 37.9791506,39.4602317 32.5837838,38.8783784 C25.6015444,38.1378378 17.6142857,37.2915058 11.6899614,32.107722 C1.63976834,23.327027 0.423166023,11.7428571 0.634749035,0.528957529 L0.634749035,0.423166023 L4.23166023,0.476061776 L4.23166023,0.581853282 C4.02007722,12.5362934 5.60694981,22.0046332 14.0702703,29.3571429 C19.1482625,33.8003861 26.1833977,34.5409266 32.9540541,35.2814672 C38.9312741,35.9162162 44.5382239,36.5509653 48.2409266,39.7247104 C52.1023166,43.0571429 53.4247104,47.8706564 54.6942085,52.5783784 C55.8050193,56.7571429 57.0216216,61.0416988 59.930888,64.2683398 C61.9409266,66.4899614 65.2733591,67.9710425 68.1826255,67.9710425 C68.6057915,67.9710425 69.0289575,67.9181467 69.4521236,67.865251 L69.5579151,67.865251 L70.1397683,71.4621622 L70.0339768,71.4621622 C69.4521236,71.5150579 68.8173745,71.5679537 68.2355212,71.5679537 Z" id="Path"></path>
                <path d="M0.740540541,0.581853282 L4.07297297,0.634749035 C3.86138996,12.6420849 5.44826255,22.1104247 13.9644788,29.5158301 C19.0953668,33.9590734 26.1305019,34.7525097 32.9540541,35.4401544 C38.8783784,36.0749035 44.4853282,36.6567568 48.1351351,39.8305019 C51.9436293,43.1100386 53.2660232,47.9764479 54.5355212,52.6312741 C55.6992278,56.8100386 56.8629344,61.0945946 59.8250965,64.3741313 C61.8880309,66.6486486 65.2733591,68.1297297 68.1826255,68.1297297 C68.6057915,68.1297297 69.0289575,68.076834 69.4521236,68.0239382 L69.9810811,71.3563707 C69.3992278,71.4621622 68.8173745,71.5150579 68.1826255,71.5150579 C64.3212355,71.5150579 60.0366795,69.6637066 57.3389961,66.7015444 C53.8478764,62.8401544 52.5254826,58.1324324 51.3088803,53.5833977 C50.092278,49.1930502 48.9814672,45.0671815 45.9664093,42.4752896 C43.1100386,39.9891892 38.0320463,39.4602317 32.6366795,38.8783784 C25.6544402,38.1378378 17.7200772,37.2915058 11.7957529,32.107722 C1.74555985,23.2741313 0.528957529,11.7428571 0.740540541,0.581853282 M0.476061776,0.317374517 L0.476061776,0.581853282 C0.264478764,11.8486486 1.48108108,23.4328185 11.5841699,32.2135135 C17.56139,37.4501931 25.5486486,38.2965251 32.530888,39.0370656 C37.8733591,39.6189189 42.9513514,40.1478764 45.7548263,42.5810811 C48.7169884,45.172973 49.8277992,49.2459459 51.0444015,53.5833977 C52.3138996,58.1853282 53.5833977,62.8930502 57.1274131,66.8073359 C59.8779923,69.7694981 64.215444,71.7266409 68.1826255,71.7266409 C68.8173745,71.7266409 69.4521236,71.6737452 70.0339768,71.5679537 L70.2984556,71.5150579 L70.2455598,71.2505792 L69.7166023,67.9181467 L69.6637066,67.653668 L69.3992278,67.7065637 C69.0289575,67.7594595 68.6057915,67.8123552 68.1826255,67.8123552 C65.2733591,67.8123552 61.9938224,66.3312741 59.9837838,64.1625483 C57.0745174,60.9888031 55.9108108,56.7042471 54.7471042,52.5783784 C53.4776062,47.8706564 52.1552124,43.0042471 48.2409266,39.6718147 C44.5382239,36.4451737 38.8783784,35.8633205 32.9011583,35.1756757 C26.1305019,34.4351351 19.1482625,33.6945946 14.0702703,29.3042471 C5.65984556,22.0046332 4.07297297,12.5362934 4.28455598,0.634749035 L4.28455598,0.37027027 L4.02007722,0.37027027 L0.687644788,0.317374517 L0.476061776,0.317374517 L0.476061776,0.317374517 Z" id="Shape"></path>
            </g>
            <g id="Group" transform="translate(119.015444, 2.115830)" fill="#A1BA47">
                <path d="M38.2965251,35.6517375 L38.2965251,35.5459459 C38.3494208,30.3092664 33.4301158,26.1833977 28.8281853,24.0675676 C26.7123552,23.115444 24.3849421,22.3220077 22.1104247,21.5814672 C18.7250965,20.4706564 15.2868726,19.3069498 12.1131274,17.4027027 C6.45328185,14.0173745 2.22162162,8.25173745 0.476061776,1.58687259 L0.423166023,1.48108108 L3.91428571,0.581853282 L3.96718147,0.687644788 C5.5011583,6.45328185 9.15096525,11.4254826 13.9644788,14.334749 C16.7679537,16.0274131 19.9416988,17.0853282 23.2741313,18.1432432 C25.6015444,18.9366795 28.034749,19.7301158 30.3621622,20.7880309 C36.0220077,23.327027 41.9992278,28.5637066 41.9466806,35.5988417 L41.9466806,35.7046332 L38.2965251,35.6517375 Z" id="Path"></path>
                <path d="M3.86138996,0.687644788 C5.3953668,6.50617761 9.04517375,11.4783784 13.911583,14.3876448 C16.7679537,16.0803089 19.8888031,17.1382239 23.2212355,18.2490347 C25.5486486,19.042471 27.9818533,19.8359073 30.2563707,20.8938224 C35.8633205,23.4328185 41.8405405,28.6166023 41.7879933,35.5459459 L38.4552124,35.5459459 C38.5081081,30.2034749 33.5359073,26.0776062 28.9339768,23.9617761 C26.765251,23.0096525 24.4907336,22.2162162 22.2162162,21.4756757 C18.8837838,20.3648649 15.3926641,19.2011583 12.2189189,17.3498069 C6.61196911,13.9644788 2.38030888,8.25173745 0.634749035,1.58687259 L3.86138996,0.687644788 M4.07297297,0.37027027 L3.80849421,0.423166023 L0.581853282,1.26949807 L0.317374517,1.32239382 L0.37027027,1.58687259 C2.11583012,8.3046332 6.4003861,14.123166 12.0602317,17.5084942 C15.2339768,19.4127413 18.7250965,20.5764479 22.057529,21.6872587 C24.3320463,22.4277992 26.6065637,23.2212355 28.7752896,24.1733591 C33.3243243,26.2362934 38.1907336,30.3092664 38.1907336,35.4930502 L38.1907336,35.757529 L38.4552124,35.757529 L41.7876448,35.757529 L42.0524691,35.757529 L42.0524691,35.4930502 C42.1050193,28.4579151 36.0749035,23.1683398 30.3621622,20.5764479 C28.034749,19.5185328 25.6015444,18.7250965 23.2741313,17.9316602 C19.9416988,16.8208494 16.8208494,15.8158301 14.0173745,14.123166 C9.203861,11.2667954 5.55405405,6.29459459 4.07297297,0.581853282 L4.07297297,0.37027027 L4.07297297,0.37027027 Z" id="Shape"></path>
            </g>
            <g id="Group" transform="translate(66.119691, 21.687259)" fill="#A1BA47">
                <path d="M70.5100386,73.5250965 C69.6637066,70.8803089 69.0818533,68.3413127 68.5,65.9081081 C66.5957529,57.8150579 64.9559846,50.8328185 55.5934363,43.9034749 C51.8378378,41.1528958 46.6011583,40.1478764 41.0471042,39.0370656 C35.7046332,38.0320463 30.2034749,36.9212355 25.1254826,34.2235521 C11.6370656,27.0826255 2.59189189,8.99227799 0.37027027,1.32239382 L0.317374517,1.21660232 L3.80849421,0.211583012 L3.86138996,0.317374517 C5.87142857,7.19382239 14.4405405,24.4907336 26.8181467,31.0498069 C31.4200772,33.4830116 36.6567568,34.4880309 41.734749,35.4930502 C47.7119691,36.6567568 53.3189189,37.7146718 57.7092664,40.9942085 C68.1297297,48.7169884 69.9810811,56.5984556 71.9911197,65.0088803 C72.572973,67.3891892 73.1548263,69.8752896 73.9482625,72.4142857 L74.0011583,72.5200772 L70.5629344,73.630888 L70.5100386,73.5250965 Z" id="Path"></path>
                <path d="M3.7027027,0.423166023 C5.71274131,7.2996139 14.334749,24.6494208 26.7123552,31.2084942 C31.3142857,33.6416988 36.603861,34.6996139 41.6818533,35.6517375 C47.6061776,36.815444 53.2660232,37.8733591 57.6034749,41.1 C67.9710425,48.7698842 69.8752896,56.6513514 71.8324324,65.0617761 C72.4142857,67.4420849 72.996139,69.9281853 73.7895753,72.4671815 L70.5629344,73.4722008 C69.7166023,70.8274131 69.134749,68.288417 68.5528958,65.8023166 C66.6486486,57.7092664 65.0088803,50.727027 55.5934363,43.7976834 C51.8378378,40.9942085 46.5482625,39.9891892 40.9942085,38.9312741 C35.6517375,37.9262548 30.1505792,36.815444 25.0725869,34.1706564 C11.5841699,27.0297297 2.64478764,8.99227799 0.37027027,1.37528958 L3.7027027,0.423166023 M3.91428571,0.105791506 L3.64980695,0.158687259 L0.423166023,1.11081081 L0.158687259,1.16370656 L0.211583012,1.42818533 C2.43320463,9.0980695 11.4783784,27.2413127 25.0196911,34.3822394 C30.1505792,37.0799228 35.6517375,38.1378378 40.9942085,39.1957529 C46.5482625,40.253668 51.7320463,41.2586873 55.4876448,44.0092664 C64.7972973,50.8857143 66.4370656,57.8150579 68.3413127,65.8552124 L68.3413127,65.9081081 C68.923166,68.3413127 69.5050193,70.8803089 70.3513514,73.5250965 L70.4571429,73.7895753 L70.7216216,73.6837838 L73.9482625,72.6787645 L74.2127413,72.572973 L74.1069498,72.3084942 C73.3135135,69.7694981 72.7316602,67.2833977 72.1498069,64.9030888 C70.1397683,56.4926641 68.288417,48.5583012 57.8150579,40.7826255 C53.3718147,37.5030888 47.7648649,36.4451737 41.7876448,35.2814672 C36.7096525,34.2764479 31.472973,33.2714286 26.8710425,30.8382239 C14.546332,24.3320463 5.97722008,7.08803089 3.96718147,0.211583012 L3.91428571,0.105791506 L3.91428571,0.105791506 Z" id="Shape"></path>
            </g>
            <path d="M11.5841699,45.2258687 L14.7579151,45.2258687 C14.7579151,46.3895753 15.2868726,47.2888031 16.7150579,47.2888031 C18.1432432,47.2888031 18.6722008,46.3366795 18.6722008,45.2258687 L21.8459459,45.2258687 C21.9517375,48.0293436 20.1003861,50.092278 16.7150579,50.092278 C13.276834,50.092278 11.4783784,48.0293436 11.5841699,45.2258687 Z" id="Path" fill="#EAB54A"></path>
            <path d="M30.4150579,45.2258687 L33.5888031,45.2258687 C33.5888031,46.3895753 34.1177606,47.2888031 35.5459459,47.2888031 C36.9741313,47.2888031 37.5030888,46.3366795 37.5030888,45.2258687 L40.676834,45.2258687 C40.7826255,48.0293436 38.9312741,50.092278 35.5459459,50.092278 C32.107722,50.092278 30.3092664,48.0293436 30.4150579,45.2258687 Z" id="Path" fill="#EAB54A"></path>
            <path d="M49.3517375,45.2258687 L52.5254826,45.2258687 C52.5254826,46.3895753 53.0544402,47.2888031 54.4826255,47.2888031 C55.9108108,47.2888031 56.4397683,46.3366795 56.4397683,45.2258687 L59.6135135,45.2258687 C59.719305,48.0293436 57.8679537,50.092278 54.4826255,50.092278 C51.0972973,50.092278 49.2459459,48.0293436 49.3517375,45.2258687 Z" id="Path" fill="#EAB54A"></path>
            <path d="M11.5841699,57.2861004 L14.7579151,57.2861004 C14.7579151,58.4498069 15.2868726,59.3490347 16.7150579,59.3490347 C18.1432432,59.3490347 18.6722008,58.3969112 18.6722008,57.2861004 L21.8459459,57.2861004 C21.9517375,60.0895753 20.1003861,62.1525097 16.7150579,62.1525097 C13.276834,62.0996139 11.4783784,60.0895753 11.5841699,57.2861004 Z" id="Path" fill="#EAB54A"></path>
            <path d="M30.4150579,57.2861004 L33.5888031,57.2861004 C33.5888031,58.4498069 34.1177606,59.3490347 35.5459459,59.3490347 C36.9741313,59.3490347 37.5030888,58.3969112 37.5030888,57.2861004 L40.676834,57.2861004 C40.7826255,60.0895753 38.9312741,62.1525097 35.5459459,62.1525097 C32.107722,62.0996139 30.3092664,60.0895753 30.4150579,57.2861004 Z" id="Path" fill="#EAB54A"></path>
            <path d="M49.3517375,57.2861004 L52.5254826,57.2861004 C52.5254826,58.4498069 53.0544402,59.3490347 54.4826255,59.3490347 C55.9108108,59.3490347 56.4397683,58.3969112 56.4397683,57.2861004 L59.6135135,57.2861004 C59.719305,60.0895753 57.8679537,62.1525097 54.4826255,62.1525097 C51.0972973,62.0996139 49.2459459,60.0895753 49.3517375,57.2861004 Z" id="Path" fill="#EAB54A"></path>
            <path d="M11.5841699,69.2934363 L14.7579151,69.2934363 C14.7579151,70.4571429 15.2868726,71.3563707 16.7150579,71.3563707 C18.1432432,71.3563707 18.6722008,70.4042471 18.6722008,69.2934363 L21.8459459,69.2934363 C21.9517375,72.0969112 20.1003861,74.1598456 16.7150579,74.1598456 C13.276834,74.1598456 11.4783784,72.0969112 11.5841699,69.2934363 Z" id="Path" fill="#EAB54A"></path>
            <path d="M30.4150579,69.2934363 L33.5888031,69.2934363 C33.5888031,70.4571429 34.1177606,71.3563707 35.5459459,71.3563707 C36.9741313,71.3563707 37.5030888,70.4042471 37.5030888,69.2934363 L40.676834,69.2934363 C40.7826255,72.0969112 38.9312741,74.1598456 35.5459459,74.1598456 C32.107722,74.1598456 30.3092664,72.0969112 30.4150579,69.2934363 Z" id="Path" fill="#EAB54A"></path>
            <path d="M49.3517375,69.2934363 L52.5254826,69.2934363 C52.5254826,70.4571429 53.0544402,71.3563707 54.4826255,71.3563707 C55.9108108,71.3563707 56.4397683,70.4042471 56.4397683,69.2934363 L59.6135135,69.2934363 C59.719305,72.0969112 57.8679537,74.1598456 54.4826255,74.1598456 C51.0972973,74.1598456 49.2459459,72.0969112 49.3517375,69.2934363 Z" id="Path" fill="#EAB54A"></path>
            <path d="M11.5841699,81.3007722 L14.7579151,81.3007722 C14.7579151,82.4644788 15.2868726,83.3637066 16.7150579,83.3637066 C18.1432432,83.3637066 18.6722008,82.411583 18.6722008,81.3007722 L21.8459459,81.3007722 C21.9517375,84.1042471 20.1003861,86.1671815 16.7150579,86.1671815 C13.276834,86.1671815 11.4783784,84.1042471 11.5841699,81.3007722 Z" id="Path" fill="#EAB54A"></path>
            <path d="M30.4150579,81.3007722 L33.5888031,81.3007722 C33.5888031,82.4644788 34.1177606,83.3637066 35.5459459,83.3637066 C36.9741313,83.3637066 37.5030888,82.411583 37.5030888,81.3007722 L40.676834,81.3007722 C40.7826255,84.1042471 38.9312741,86.1671815 35.5459459,86.1671815 C32.107722,86.1671815 30.3092664,84.1042471 30.4150579,81.3007722 Z" id="Path" fill="#EAB54A"></path>
            <path d="M49.3517375,81.3007722 L52.5254826,81.3007722 C52.5254826,82.4644788 53.0544402,83.3637066 54.4826255,83.3637066 C55.9108108,83.3637066 56.4397683,82.411583 56.4397683,81.3007722 L59.6135135,81.3007722 C59.719305,84.1042471 57.8679537,86.1671815 54.4826255,86.1671815 C51.0972973,86.1671815 49.2459459,84.1042471 49.3517375,81.3007722 Z" id="Path" fill="#EAB54A"></path>
            <path d="M65.3262548,0.687644788 L65.3262548,33.9061776 L0.105791506,33.9061776 L0.105791506,97.3281853 L56.3339768,97.3281853 L56.3339768,136.947104 L110.710811,136.947104 L110.710811,97.3281853 L162.019691,97.3281853 L162.019691,0.687644788 L65.3262548,0.687644788 Z M5.71274131,91.7212355 L5.71274131,39.5660232 L65.3262548,39.5660232 L65.3262548,91.7212355 L5.71274131,91.7212355 Z M61.9938224,131.287259 L61.9938224,97.3281853 L105.050965,97.3281853 L105.050965,131.287259 L61.9938224,131.287259 Z M70.9861004,51.7320463 L70.9861004,6.29459459 L156.359846,6.29459459 L156.359846,91.6683398 L110.710811,91.6683398 L110.710811,51.7320463 L70.9861004,51.7320463 Z" id="Shape" fill="#020608"></path>
            <circle id="Oval" fill="#D45A42" cx="70.6687259" cy="105.844402" r="2.90926641"></circle>
            <circle id="Oval" fill="#D45A42" cx="83.5223938" cy="105.844402" r="2.90926641"></circle>
            <circle id="Oval" fill="#D45A42" cx="96.3760618" cy="105.844402" r="2.90926641"></circle>
            <circle id="Oval" fill="#D45A42" cx="70.6687259" cy="122.506564" r="2.90926641"></circle>
            <circle id="Oval" fill="#D45A42" cx="83.5223938" cy="122.506564" r="2.90926641"></circle>
            <circle id="Oval" fill="#D45A42" cx="96.3760618" cy="122.506564" r="2.90926641"></circle>
            <rect id="Rectangle" fill="#BDD52F" x="71.0389961" y="57.3918919" width="34.0119691" height="34.2764479"></rect>
            <path d="M179.47529,24.9667954 L179.47529,0.740540541 C179.47529,0.740540541 189.102317,0.634749035 193.91583,0.634749035 C196.507722,0.793436293 199.046718,3.06795367 199.15251,6.03011583 C199.364093,10.7907336 195.608494,12.1660232 195.608494,12.1660232 C195.608494,12.1660232 200.104633,12.9065637 200.104633,18.196139 C200.104633,22.4277992 197.512741,24.4378378 193.651351,24.7552124 C189.049421,25.0725869 179.47529,24.9667954 179.47529,24.9667954 Z M186.087259,15.3397683 L186.087259,19.3598456 C186.087259,19.3598456 190.05444,19.3598456 191.376834,19.3598456 C192.011583,19.2540541 193.386873,18.9895753 193.386873,17.2440154 C193.386873,15.8687259 192.117375,15.4455598 191.482625,15.3397683 C190.05444,15.3397683 186.087259,15.3397683 186.087259,15.3397683 Z M186.087259,9.57413127 C186.087259,9.57413127 189.261004,9.57413127 190.318919,9.57413127 C191.218147,9.57413127 192.540541,9.15096525 192.540541,7.77567568 C192.540541,6.34749035 191.271042,6.08301158 190.266023,6.03011583 C188.943629,6.03011583 186.087259,6.03011583 186.087259,6.03011583 L186.087259,9.57413127 Z" id="Shape" fill="#000000"></path>
            <path d="M179.422394,60.0895753 C179.422394,60.0895753 179.47529,43.5861004 179.47529,35.3872587 C185.505405,35.3872587 191.42973,35.3872587 197.512741,35.3872587 C197.512741,37.1857143 197.512741,38.8254826 197.512741,40.7297297 C193.651351,40.7297297 189.948649,40.7297297 186.034363,40.7297297 C186.034363,41.9992278 186.034363,43.0042471 186.034363,44.4853282 C188.044402,44.4853282 190.107336,44.3266409 192.117375,44.5382239 C197.618533,45.1200772 200.422008,48.7698842 199.416988,53.9007722 C198.835135,57.1274131 195.608494,58.9787645 193.651351,59.4548263 C190.107336,60.1953668 179.422394,60.0895753 179.422394,60.0895753 Z M185.981467,54.2181467 C185.981467,54.2181467 189.155212,54.2181467 190.636293,54.2181467 C191.588417,54.2181467 192.593436,53.4776062 192.593436,52.1552124 C192.593436,50.8328185 191.641313,50.0393822 190.900772,50.0393822 C189.472587,50.0393822 185.981467,50.0393822 185.981467,50.0393822 L185.981467,54.2181467 Z" id="Shape" fill="#000000"></path>
            <path d="M230.889961,43.4274131 C230.889961,43.4274131 233.27027,39.7776062 239.459073,41.6289575 C241.998069,42.3694981 243.849421,44.4324324 243.849421,50.8857143 C243.849421,59.3490347 239.194595,60.9359073 231.947876,60.1953668 C231.947876,62.6814672 231.947876,67.7065637 231.947876,67.7065637 L225.706178,67.7065637 C225.706178,67.7065637 225.706178,48.3467181 225.706178,46.8656371 C225.706178,45.0671815 223.749035,45.1200772 223.749035,45.1200772 L223.749035,41.1 C223.749035,41.1 226.764093,40.1478764 229.144402,41.4702703 C230.4139,42.0521236 230.889961,43.4274131 230.889961,43.4274131 Z M231.313127,50.8857143 C231.313127,53.9007722 232.794208,55.0644788 234.592664,55.0644788 C236.655598,55.0644788 237.660618,53.2660232 237.660618,50.515444 C237.660618,46.9185328 236.020849,46.230888 234.592664,46.230888 C232.741313,46.230888 231.313127,47.4474903 231.313127,50.8857143 Z" id="Shape" fill="#000000"></path>
            <path d="M244.219691,6.34749035 L244.219691,20.1532819 L246.811583,20.1532819 L246.811583,28.8281853 L241.204633,28.8281853 L240.887259,24.9667954 L231.207336,24.9667954 L230.837066,28.8281853 L225.230116,28.8281853 L225.230116,20.1532819 L227.134363,20.1532819 C227.134363,20.1532819 227.822008,18.0374517 228.139382,16.6621622 C228.827027,13.3297297 229.461776,6.29459459 229.461776,6.29459459 L244.219691,6.29459459 L244.219691,6.34749035 Z M233.428958,20.1532819 L238.030888,20.1532819 C238.030888,20.1532819 238.030888,14.2818533 238.030888,11.7428571 C236.867181,11.7428571 235.862162,11.7428571 235.01583,11.7428571 C234.433977,14.4405405 233.428958,20.1532819 233.428958,20.1532819 Z" id="Shape" fill="#000000"></path>
            <path d="M216.343629,15.0752896 C214.703861,17.6671815 209.625869,24.9667954 209.625869,24.9667954 L203.860232,24.9667954 C203.860232,24.9667954 203.860232,12.6420849 203.860232,6.34749035 C205.764479,6.34749035 207.61583,6.34749035 209.625869,6.34749035 C209.625869,9.52123552 209.625869,12.6420849 209.625869,16.0803089 C211.212741,13.6471042 216.396525,6.34749035 216.396525,6.34749035 L222.162162,6.34749035 L222.162162,24.9667954 L216.343629,24.9667954 C216.343629,24.9667954 216.343629,18.619305 216.343629,15.0752896 Z" id="Path" fill="#000000"></path>
            <path d="M314.623938,15.0752896 C312.98417,17.6671815 307.906178,24.9667954 307.906178,24.9667954 L302.140541,24.9667954 C302.140541,24.9667954 302.140541,12.6420849 302.140541,6.34749035 C304.044788,6.34749035 305.896139,6.34749035 307.906178,6.34749035 C307.906178,9.52123552 307.906178,12.6420849 307.906178,16.0803089 C309.49305,13.6471042 314.676834,6.34749035 314.676834,6.34749035 L320.442471,6.34749035 L320.442471,24.9667954 L314.676834,24.9667954 C314.623938,24.9667954 314.623938,18.619305 314.623938,15.0752896 Z" id="Path" fill="#000000"></path>
            <path d="M267.758301,24.9667954 L261.833977,24.9667954 L261.833977,18.196139 L256.174131,18.196139 L256.174131,24.9667954 L250.196911,24.9667954 L250.196911,6.34749035 L256.121236,6.34749035 C256.121236,6.34749035 256.121236,10.4204633 256.121236,12.5891892 C258.131274,12.5891892 259.771042,12.5891892 261.781081,12.5891892 C261.781081,10.5791506 261.781081,6.34749035 261.781081,6.34749035 L267.758301,6.34749035 L267.758301,24.9667954 Z" id="Path" fill="#000000"></path>
            <path d="M273.206564,24.9667954 L273.206564,6.34749035 L279.23668,6.34749035 L279.23668,11.1610039 C279.23668,11.1610039 282.622008,11.2138996 284.155985,11.6370656 C287.382625,12.4833977 289.07529,14.9166023 289.181081,18.0903475 C289.339768,21.7930502 287.32973,24.5965251 284.314672,24.9667954 C280.611969,24.9667954 273.206564,24.9667954 273.206564,24.9667954 Z M279.183784,20.1003861 C279.183784,20.1003861 281.987259,20.2061776 281.987259,18.3019305 C281.987259,16.1332046 279.183784,16.2389961 279.183784,16.2389961 L279.183784,20.1003861 Z" id="Shape" fill="#000000"></path>
            <polygon id="Path" fill="#000000" points="269.292278 40.8355212 283.732819 40.8355212 283.732819 45.9664093 275.163707 45.9664093 275.163707 60.0366795 269.292278 60.0366795"></polygon>
            <rect id="Rectangle" fill="#000000" x="291.296911" y="6.34749035" width="5.76563707" height="18.619305"></rect>
            <path d="M298.966795,55.3818533 C300.712355,53.6362934 302.510811,51.8907336 304.256371,50.092278 C305.949035,48.3467181 306.901158,46.4953668 307.218533,44.3795367 C307.694595,40.676834 305.843243,37.6088803 302.352124,36.392278 C300.289189,35.6517375 298.120463,35.757529 295.951737,36.4451737 C291.138224,37.9791506 290.979537,42.9513514 291.667181,45.2258687 L291.984556,46.230888 L296.798069,46.230888 C296.798069,46.230888 296.374903,44.8027027 296.269112,43.7976834 C296.16332,42.5281853 296.798069,41.2586873 298.173359,40.7297297 C299.495753,40.253668 300.712355,40.7297297 301.347104,41.2586873 C302.299228,41.9992278 302.510811,43.1629344 302.034749,44.5382239 C301.717375,45.384556 301.188417,46.230888 300.289189,47.1301158 L291.244015,55.3818533 L291.244015,60.142471 L307.37722,60.142471 L307.37722,55.3818533 L298.966795,55.3818533 Z" id="Path" fill="#000000"></path>
            <path d="M209.044015,52.5254826 C209.149807,54.0065637 210.313514,55.1702703 211.84749,55.3818533 C213.698842,55.646332 215.444402,55.223166 216.925483,54.1123552 C217.137066,53.953668 217.348649,53.7949807 217.613127,53.5833977 C218.459459,54.9586873 219.252896,56.2281853 220.152124,57.7092664 C219.094208,58.2911197 218.142085,58.9258687 217.08417,59.4019305 C214.809653,60.4069498 212.376448,60.6185328 209.890347,60.1953668 C205.605792,59.4548263 202.855212,56.4926641 202.484942,52.1023166 C202.379151,50.6212355 202.379151,49.0872587 202.696525,47.6590734 C203.489961,43.5861004 206.557915,40.9942085 210.789575,40.676834 C212.376448,40.5710425 213.96332,40.6239382 215.497297,41.1528958 C219.252896,42.4223938 221.262934,45.9664093 220.363707,49.8277992 C220.046332,51.2559846 219.411583,52.4196911 219.411583,52.4196911 C219.411583,52.4196911 209.36139,52.5254826 209.044015,52.5254826 Z M209.044015,48.5583012 C210.630888,48.5583012 212.111969,48.6111969 213.59305,48.5583012 C214.333591,48.5583012 214.650965,48.0822394 214.598069,47.3416988 C214.492278,46.5482625 213.857529,45.8606178 212.905405,45.7019305 C211.001158,45.3316602 209.36139,46.4953668 209.044015,48.5583012 Z" id="Shape" fill="#000000"></path>
            <path d="M253.793822,52.4196911 C253.899614,53.9007722 255.06332,55.0644788 256.597297,55.2760618 C258.448649,55.5405405 260.194208,55.1173745 261.67529,54.0065637 C261.886873,53.8478764 262.098456,53.6891892 262.362934,53.4776062 C263.209266,54.8528958 264.002703,56.1223938 264.901931,57.6034749 C263.844015,58.1853282 262.891892,58.8200772 261.833977,59.296139 C259.559459,60.3011583 257.126255,60.5127413 254.640154,60.0895753 C250.355598,59.3490347 247.605019,56.3868726 247.234749,51.9965251 C247.128958,50.515444 247.128958,48.9814672 247.446332,47.5532819 C248.239768,43.4803089 251.307722,40.888417 255.539382,40.5710425 C257.126255,40.465251 258.713127,40.5181467 260.247104,41.0471042 C264.002703,42.3166023 266.012741,45.8606178 265.113514,49.7220077 C264.796139,51.1501931 264.16139,52.3138996 264.16139,52.3138996 C264.16139,52.3138996 254.058301,52.4196911 253.793822,52.4196911 Z M253.793822,48.5054054 C255.380695,48.5054054 256.861776,48.5583012 258.342857,48.5054054 C259.083398,48.5054054 259.400772,48.0293436 259.347876,47.2888031 C259.242085,46.4953668 258.607336,45.807722 257.655212,45.6490347 C255.750965,45.2258687 254.111197,46.442471 253.793822,48.5054054 Z" id="Shape" fill="#000000"></path>
            <path d="M316.369498,3.43822394 L316.369498,0.211583012 C316.210811,0.211583012 313.566023,0.423166023 311.344402,2.01003861 C309.175676,0.423166023 306.530888,0.211583012 306.372201,0.211583012 L306.372201,3.43822394 C308.382239,3.80849421 311.344402,5.44826255 311.344402,5.44826255 C311.344402,5.44826255 313.989189,3.86138996 316.369498,3.43822394 Z" id="Path" fill="#000000"></path>
        </g>
    </g>
</svg>