<svg xmlns="http://www.w3.org/2000/svg" width="57" height="41" viewBox="0 0 57 41">
    <g fill="none" fill-rule="evenodd">
        <path d="M0 0H57V119H0z" transform="translate(0 -68)"/>
        <g>
            <path fill="#FEFEFE" d="M0 41L57 41 57 0 0 0z" transform="translate(0 -68) translate(0 68)"/>
            <g fill="#656867">
                <path d="M10.345 8.584L5.89 7.475c-.759-.18-1.942-.49-1.942-1.956 0-1.674 1.738-2.241 3.199-2.241 3.323 0 3.627 1.983 3.726 2.832h2.12v3.486c-.778-.465-1.696-.767-2.648-1.012m-2.42 11.149c.957 0 3.31-.172 5.068-1.485v.996h3.549l.004-4.38 1.48-1.569 3.226 5.95h4.258l-4.887-8.5 4.76-5.356h-4.359l-4.478 5.256V.548h-3.553v1.598C11.912.958 10.159.06 7.426.06 1.507.06.396 3.742.396 5.802c0 2.831 1.489 4.405 4.082 5.048l3.676.926c1.939.49 3.326.85 3.326 2.317 0 1.958-2.017 2.421-3.83 2.421-3.324 0-3.878-1.982-3.878-3.038H.12c0 2.318 1.158 6.257 7.806 6.257M3.18 27.901c-.363 0-.644-.032-.843-.096v-1.112c.15.07.294.104.434.104.266 0 .46-.119.58-.356l.025-.053L.823 21.56h1.522l1.643 3.488 1.242-3.488h1.462l-2.204 5.2c-.102.247-.236.455-.401.626-.166.171-.332.3-.499.386-.167.086-.303.128-.408.128M10.531 27.806H9.342V25.9c-.12.07-.307.16-.565.266-.257.106-.517.16-.778.16-.476 0-.851-.129-1.126-.386-.276-.258-.413-.668-.413-1.231v-1.53h1.19v1.495c0 .417.258.626.774.626.16 0 .33-.036.513-.107.183-.071.318-.131.405-.18V23.18h1.19v4.627zM14.378 25.553c-.13.103-.4.187-.81.252-.17.03-.313.067-.428.112-.114.046-.207.114-.276.207-.07.091-.104.217-.104.376 0 .192.057.332.173.422.114.089.241.135.381.135.18 0 .35-.038.514-.113.163-.076.295-.182.397-.32.102-.14.153-.299.153-.48v-.591zm1.165 1.347c0 .252.023.427.067.526.045.098.11.164.197.197v.182H14.52c-.055-.173-.092-.357-.11-.549-.192.203-.395.365-.609.488-.213.121-.498.183-.855.183-.24 0-.465-.048-.674-.145-.21-.095-.379-.245-.51-.448-.128-.202-.193-.454-.193-.755 0-.29.056-.54.168-.75.112-.21.266-.374.462-.491.195-.118.424-.197.689-.237l1.072-.165c.278-.039.417-.16.417-.365 0-.224-.075-.37-.224-.438-.15-.067-.336-.1-.56-.1-.262 0-.444.06-.544.182-.1.122-.163.276-.188.46h-1.147c.044-.444.162-.785.356-1.022.195-.237.43-.395.707-.475.276-.08.596-.12.96-.12.268 0 .538.036.808.108.27.072.504.208.701.408.197.2.296.473.296.821V26.9zM20.472 26.117c-.014.155-.053.33-.12.524-.065.195-.174.391-.328.59-.152.198-.363.363-.632.496-.27.133-.598.2-.986.2-.403 0-.742-.07-1.018-.21-.275-.141-.49-.324-.647-.55-.156-.227-.266-.473-.33-.74-.066-.266-.099-.534-.099-.805 0-.512.077-.96.228-1.345.152-.383.39-.683.713-.897.324-.216.734-.322 1.23-.322.284 0 .57.051.86.156.29.104.544.288.76.553.217.265.343.619.378 1.064h-1.207c-.088-.499-.351-.748-.79-.748-.233 0-.42.068-.561.202-.142.134-.241.303-.3.504-.056.202-.085.413-.085.635 0 .25.016.48.05.69.033.21.118.399.254.564.137.165.341.248.614.248.181 0 .333-.047.455-.144.123-.096.213-.208.27-.338.057-.128.085-.237.085-.327h1.206zM22.277 27.806L22.277 24.153 20.925 24.153 20.925 23.179 24.821 23.179 24.821 24.153 23.467 24.153 23.467 27.806zM29.536 27.806L28.347 27.806 28.347 25.98 26.654 25.98 26.654 27.806 25.464 27.806 25.464 23.179 26.654 23.179 26.654 25.005 28.347 25.005 28.347 23.179 29.536 23.179zM34.675 27.806L33.486 27.806 33.486 25.022 31.879 27.806 30.604 27.806 30.604 23.179 31.794 23.179 31.794 25.962 33.401 23.179 34.675 23.179zM36.933 27.806L35.743 27.806 35.743 23.179 36.933 23.179 36.933 24.935 38.43 23.179 39.916 23.179 38.293 24.971 39.985 27.806 38.54 27.806 37.425 25.822 36.933 26.345z" transform="translate(0 -68) translate(0 68) translate(7 6)"/>
            </g>
        </g>
    </g>
</svg>
