<?xml version="1.0" encoding="UTF-8"?>
<svg width="32px" height="21px" viewBox="0 0 32 21" version="1.1" xmlns="http://www.w3.org/2000/svg" xmlns:xlink="http://www.w3.org/1999/xlink">
    <!-- Generator: Sketch 59.1 (86144) - https://sketch.com -->
    <title>иконка_раковина</title>
    <desc>Created with Sketch.</desc>
    <g id="overflow_отделка" stroke="none" stroke-width="1" fill="none" fill-rule="evenodd">
        <g id="Artboard" transform="translate(-113.000000, -204.000000)">
            <g id="иконка_раковина" transform="translate(113.000000, 204.000000)">
                <g id="Group">
                    <path d="M0.5,9.5 L0.5,12.0407532 C0.5,16.7126662 4.28733381,20.5 8.95924682,20.5 L23,20.5 C27.6944204,20.5 31.5,16.6944204 31.5,12 L31.5,9.5 L0.5,9.5 Z" id="Rectangle" stroke="#ee4237"></path>
                    <path d="M14.5,9.5 L19.5,9.5 L19.5,3 C19.5,1.61928813 18.3807119,0.5 17,0.5 C15.6192881,0.5 14.5,1.61928813 14.5,3 L14.5,9.5 Z" id="Rectangle" stroke="#ee4237"></path>
                    <rect id="Rectangle" fill="#FFFFFF" x="19" y="4" width="2" height="5"></rect>
                    <rect id="Rectangle" stroke="#ee4237" x="6.5" y="7.5" width="3" height="1"></rect>
                    <rect id="Rectangle-Copy" stroke="#ee4237" x="22.5" y="7.5" width="3" height="1"></rect>
                </g>
            </g>
        </g>
    </g>
</svg>