<svg xmlns="http://www.w3.org/2000/svg" xmlns:xlink="http://www.w3.org/1999/xlink" width="24" height="24" viewBox="0 0 24 24">
    <defs>
        <path id="a" d="M18.92 5.091L4.748 10.676c-.967.396-.962.948-.177 1.193l3.638 1.161 8.42-5.43c.398-.246.763-.113.464.159l-6.823 6.292h-.002.002l-.25 3.833c.368 0 .53-.173.735-.377l1.767-1.756 3.676 2.776c.677.382 1.166.184 1.334-.642l2.414-11.624c.247-1.012-.378-1.471-1.024-1.17"/>
    </defs>
    <g fill="none" fill-rule="evenodd">
        <path d="M0 0h24v24H0z"/>
        <mask id="b" fill="#fff">
            <use xlink:href="#a"/>
        </mask>
        <use fill="#0098cb" fill-rule="nonzero" xlink:href="#a"/>
        <g fill="#0098cb" mask="url(#b)">
            <path d="M0 0h24v24H0z"/>
        </g>
    </g>
</svg>
