<svg xmlns="http://www.w3.org/2000/svg" xmlns:xlink="http://www.w3.org/1999/xlink" width="24" height="24" viewBox="0 0 24 24">
    <defs>
        <path id="a" d="M20 6.543c-.63.27-1.26.44-1.888.508a3.184 3.184 0 0 0 1.442-1.807c-.65.386-1.344.65-2.082.792A3.162 3.162 0 0 0 15.076 5c-.907 0-1.68.32-2.32.96a3.16 3.16 0 0 0-.959 2.32c0 .243.027.493.081.75a9.138 9.138 0 0 1-3.771-1.01A9.297 9.297 0 0 1 5.117 5.6a3.212 3.212 0 0 0-.447 1.655c0 .561.132 1.083.396 1.563s.62.87 1.066 1.168a3.253 3.253 0 0 1-1.482-.417v.04c0 .793.249 1.488.746 2.087.497.6 1.125.976 1.883 1.132a3.397 3.397 0 0 1-.863.112c-.19 0-.396-.017-.62-.05.21.656.597 1.195 1.158 1.619a3.2 3.2 0 0 0 1.909.654 6.42 6.42 0 0 1-4.071 1.401c-.291 0-.555-.013-.792-.04a9.107 9.107 0 0 0 5.036 1.472 9.58 9.58 0 0 0 3.278-.554c1.023-.368 1.896-.862 2.62-1.482a9.919 9.919 0 0 0 1.873-2.137A9.53 9.53 0 0 0 17.98 11.3a9.32 9.32 0 0 0 .375-3.06A6.867 6.867 0 0 0 20 6.542z"/>
    </defs>
    <g fill="none" fill-rule="evenodd">
        <path d="M0 0h24v24H0z"/>
        <mask id="b" fill="#fff">
            <use xlink:href="#a"/>
        </mask>
        <use fill="#5eb2ef" fill-rule="nonzero" xlink:href="#a"/>
        <g fill="#5eb2ef" mask="url(#b)">
            <path d="M0 0h24v24H0z"/>
        </g>
    </g>
</svg>
