<svg xmlns="http://www.w3.org/2000/svg" width="42" height="42" viewBox="0 0 42 42">
    <g fill="none" fill-rule="evenodd">
        <circle cx="21" cy="21" r="21" fill="#EE534A"/>
        <path fill="#FFF" d="M28.564 16.745c.132-.43 0-.745-.629-.745h-2.078c-.529 0-.772.273-.905.573 0 0-1.056 2.512-2.554 4.143-.484.473-.705.623-.969.623-.132 0-.323-.15-.323-.58v-4.014c0-.515-.154-.745-.594-.745h-3.267c-.33 0-.529.24-.529.466 0 .488.75.6.826 1.975v2.984c0 .654-.12.773-.385.773-.705 0-2.419-2.523-3.435-5.41-.2-.561-.4-.788-.93-.788h-2.08c-.593 0-.712.273-.712.573 0 .537.705 3.199 3.281 6.72C15 25.696 17.42 27 19.621 27c1.321 0 1.485-.29 1.485-.788v-1.817c0-.58.125-.695.543-.695.309 0 .837.15 2.07 1.31 1.41 1.374 1.642 1.99 2.435 1.99h2.078c.594 0 .891-.29.72-.86-.187-.57-.86-1.396-1.753-2.375-.485-.559-1.212-1.16-1.432-1.46-.308-.387-.22-.558 0-.902 0 0 2.533-3.477 2.797-4.658"/>
    </g>
</svg>
