<svg xmlns="http://www.w3.org/2000/svg" width="17" height="20" viewBox="0 0 17 20">
    <path fill="#000" fill-rule="nonzero" d="M14.761 11.513c-.259-.262-.833-.401-1.707-.413a13.748 13.748 0 0 0-2.052.155c-.335-.2-.68-.416-.952-.677-.73-.702-1.34-1.676-1.719-2.746.025-.1.046-.188.066-.278 0 0 .41-2.403.302-3.216a.962.962 0 0 0-.053-.23l-.036-.095c-.112-.265-.331-.547-.675-.531l-.201-.007h-.006c-.383 0-.696.202-.778.503-.249.946.008 2.362.474 4.195l-.119.298c-.334.838-.752 1.68-1.12 2.425l-.049.097c-.388.782-.74 1.446-1.06 2.008l-.33.18c-.023.013-.588.32-.72.403-1.125.69-1.87 1.475-1.994 2.098-.039.198-.01.452.19.57l.32.165a.939.939 0 0 0 .433.108c.8 0 1.73-1.027 3.01-3.328a29.277 29.277 0 0 1 4.638-1.134c1.125.652 2.507 1.104 3.38 1.104.155 0 .289-.015.397-.045a.676.676 0 0 0 .395-.277c.17-.262.203-.624.157-.993-.013-.11-.098-.246-.19-.339zM2.801 15.9c.146-.41.724-1.223 1.579-1.944a8.15 8.15 0 0 0 .307-.291c-.893 1.467-1.492 2.052-1.886 2.235zM7.863 3.9c.258 0 .404.668.416 1.294.012.626-.13 1.066-.306 1.39-.147-.48-.217-1.24-.217-1.735 0 0-.01-.949.107-.949zm-1.51 8.551c.18-.33.366-.679.557-1.048.464-.905.758-1.613.976-2.195A7.215 7.215 0 0 0 9.5 11.27c.08.07.163.139.252.208-1.294.264-2.413.584-3.398.974zm8.16-.075c-.08.05-.305.08-.45.08-.469 0-1.049-.22-1.862-.58.313-.023.599-.035.856-.035.47 0 .61-.002 1.069.118.46.121.466.366.387.417zm1.414-8.48l-2.71-2.791C12.625.497 11.46 0 10.624 0H1.518C.683 0 0 .703 0 1.563v16.875C0 19.297.683 20 1.518 20h13.964c.835 0 1.518-.703 1.518-1.562V6.563c0-.86-.483-2.06-1.073-2.668zm-.859.883c.06.061.119.136.176.221h-3.101V1.808c.082.059.155.12.215.18l2.71 2.791zm.718 13.659c0 .169-.14.312-.304.312H1.518a.312.312 0 0 1-.304-.312V1.563c0-.17.14-.313.304-.313h9.107c.092 0 .195.012.304.033V6.25h4.824c.021.112.033.218.033.313v11.875z"/>
</svg>
