<svg xmlns="http://www.w3.org/2000/svg" xmlns:xlink="http://www.w3.org/1999/xlink" width="42" height="51" viewBox="0 0 42 51">
    <defs>
        <path id="prefix__a" d="M0 0.546L42 0.546 42 23.551 0 23.551z"/>
        <path id="prefix__c" d="M0 0.546L42 0.546 42 23.551 0 23.551z"/>
    </defs>
    <g fill="none" fill-rule="evenodd">
        <path fill="#0A77ED" d="M26 33.26H16v16.2l.026-.01c-.005.36.052.704.23.997.86 1.435 3.684 1.324 6.306-.25 2.126-1.276 3.441-3.114 3.413-4.532l.025-.01V33.262z" transform="translate(0 -1)"/>
        <path fill="#0062C4" d="M16.255 50.446c.471.785 1.536 1.091 2.826.965v-18.15H16v16.2l.026-.01c-.005.36.052.702.229.995" transform="translate(0 -1)"/>
        <path fill="#409BFF" d="M22.919 33.26v16.7c1.91-1.26 3.083-2.961 3.056-4.295l.025-.01V33.262h-3.081z" transform="translate(0 -1)"/>
        <path fill="#0061E5" d="M39.924 17.497H2.077l14.283 16.99.006-.002c.739 1.008 2.53 1.721 4.634 1.721 2.104 0 3.896-.713 4.634-1.72l.008.001 14.282-16.99z" transform="translate(0 -1)"/>
        <path fill="#004BB7" d="M16.36 34.487l.006-.002c.498.681 1.483 1.22 2.715 1.503l-5.294-12.68-2.73-4.798-2.763-1.013H2.078l14.282 16.99z" transform="translate(0 -1)"/>
        <path fill="#007EE5" d="M25.642 34.487l-.006-.002c-.5.681-1.484 1.22-2.715 1.503l5.294-12.68 2.729-4.798 2.763-1.013h6.217l-14.282 16.99z" transform="translate(0 -1)"/>
        <g transform="translate(0 -1) translate(0 .454)">
            <mask id="prefix__b" fill="#fff">
                <use xlink:href="#prefix__a"/>
            </mask>
            <path fill="#00F025" d="M42 12.049c0 6.353-9.402 11.502-21 11.502S0 18.4 0 12.049C0 5.696 9.402.546 21 .546s21 5.15 21 11.503" mask="url(#prefix__b)"/>
        </g>
        <path fill="#5AFF6A" d="M11.49 2.257C4.675 4.157 0 8.027 0 12.503c0 5.556 7.192 10.19 16.757 11.267L11.49 2.257z" transform="translate(0 -1)"/>
        <path fill="#0BD007" d="M30.51 2.257C37.325 4.157 42 8.027 42 12.503c0 5.556-7.193 10.19-16.757 11.267L30.51 2.257z" transform="translate(0 -1)"/>
        <g transform="translate(0 -1) translate(0 .454)">
            <mask id="prefix__d" fill="#fff">
                <use xlink:href="#prefix__c"/>
            </mask>
            <path fill="#409BFF" d="M21 .546C9.401.546 0 5.695 0 12.049c0 6.35 9.401 11.502 21 11.502 11.598 0 21-5.151 21-11.502C42 5.695 32.598.546 21 .546m0 2c11.365 0 19 4.913 19 9.503 0 4.588-7.635 9.502-19 9.502S2 16.637 2 12.049c0-4.59 7.635-9.503 19-9.503" mask="url(#prefix__d)"/>
        </g>
    </g>
</svg>
