<svg xmlns="http://www.w3.org/2000/svg" xmlns:xlink="http://www.w3.org/1999/xlink" width="169" height="41" viewBox="0 0 169 41">
    <defs>
        <path id="prefix__a" d="M0.205 40.397L168.249 40.397 168.249 0.397 0.205 0.397z"/>
        <path id="prefix__c" d="M0 61L177.249 61 177.249 0.669 0 0.669z"/>
        <path id="prefix__e" d="M.205 18.717c0 10.133 8.216 18.349 18.35 18.349 10.134 0 18.35-8.216 18.35-18.349 0-10.135-8.216-18.351-18.35-18.351C8.421.366.205 8.582.205 18.717m10.493 0c0-4.34 3.517-7.858 7.857-7.858 4.339 0 7.858 3.518 7.858 7.858 0 4.339-3.519 7.857-7.858 7.857-4.34 0-7.857-3.518-7.857-7.857"/>
        <path id="prefix__g" d="M.205 18.717c0 10.133 8.216 18.349 18.35 18.349 10.134 0 18.35-8.216 18.35-18.349 0-10.135-8.216-18.351-18.35-18.351C8.421.366.205 8.582.205 18.717m10.493 0c0-4.34 3.517-7.858 7.857-7.858 4.339 0 7.858 3.518 7.858 7.858 0 4.339-3.519 7.857-7.858 7.857-4.34 0-7.857-3.518-7.857-7.857"/>
        <path id="prefix__i" d="M.205 18.717c0 10.133 8.216 18.349 18.35 18.349 10.134 0 18.35-8.216 18.35-18.349 0-10.135-8.216-18.351-18.35-18.351C8.421.366.205 8.582.205 18.717m10.493 0c0-4.34 3.517-7.858 7.857-7.858 4.339 0 7.858 3.518 7.858 7.858 0 4.339-3.519 7.857-7.858 7.857-4.34 0-7.857-3.518-7.857-7.857"/>
        <path id="prefix__k" d="M.205 18.717c0 10.133 8.216 18.349 18.35 18.349 10.134 0 18.35-8.216 18.35-18.349 0-10.135-8.216-18.351-18.35-18.351C8.421.366.205 8.582.205 18.717m10.493 0c0-4.34 3.517-7.858 7.857-7.858 4.339 0 7.858 3.518 7.858 7.858 0 4.339-3.519 7.857-7.858 7.857-4.34 0-7.857-3.518-7.857-7.857"/>
        <path id="prefix__m" d="M.205 18.717c0 10.133 8.216 18.349 18.35 18.349 10.134 0 18.35-8.216 18.35-18.349 0-10.135-8.216-18.351-18.35-18.351C8.421.366.205 8.582.205 18.717m10.493 0c0-4.34 3.517-7.858 7.857-7.858 4.339 0 7.858 3.518 7.858 7.858 0 4.339-3.519 7.857-7.858 7.857-4.34 0-7.857-3.518-7.857-7.857"/>
        <path id="prefix__o" d="M.205 18.717c0 10.133 8.216 18.349 18.35 18.349 10.134 0 18.35-8.216 18.35-18.349 0-10.135-8.216-18.351-18.35-18.351C8.421.366.205 8.582.205 18.717m10.493 0c0-4.34 3.517-7.858 7.857-7.858 4.339 0 7.858 3.518 7.858 7.858 0 4.339-3.519 7.857-7.858 7.857-4.34 0-7.857-3.518-7.857-7.857"/>
        <path id="prefix__q" d="M.205 18.717c0 10.133 8.216 18.349 18.35 18.349 10.134 0 18.35-8.216 18.35-18.349 0-10.135-8.216-18.351-18.35-18.351C8.421.366.205 8.582.205 18.717m10.493 0c0-4.34 3.517-7.858 7.857-7.858 4.339 0 7.858 3.518 7.858 7.858 0 4.339-3.519 7.857-7.858 7.857-4.34 0-7.857-3.518-7.857-7.857"/>
        <path id="prefix__s" d="M.205 18.717c0 10.133 8.216 18.349 18.35 18.349 10.134 0 18.35-8.216 18.35-18.349 0-10.135-8.216-18.351-18.35-18.351C8.421.366.205 8.582.205 18.717m10.493 0c0-4.34 3.517-7.858 7.857-7.858 4.339 0 7.858 3.518 7.858 7.858 0 4.339-3.519 7.857-7.858 7.857-4.34 0-7.857-3.518-7.857-7.857"/>
        <path id="prefix__u" d="M.205 18.717c0 10.133 8.216 18.349 18.35 18.349 10.134 0 18.35-8.216 18.35-18.349 0-10.135-8.216-18.351-18.35-18.351C8.421.366.205 8.582.205 18.717m10.493 0c0-4.34 3.517-7.858 7.857-7.858 4.339 0 7.858 3.518 7.858 7.858 0 4.339-3.519 7.857-7.858 7.857-4.34 0-7.857-3.518-7.857-7.857"/>
        <path id="prefix__w" d="M.205 18.717c0 10.133 8.216 18.349 18.35 18.349 10.134 0 18.35-8.216 18.35-18.349 0-10.135-8.216-18.351-18.35-18.351C8.421.366.205 8.582.205 18.717m10.493 0c0-4.34 3.517-7.858 7.857-7.858 4.339 0 7.858 3.518 7.858 7.858 0 4.339-3.519 7.857-7.858 7.857-4.34 0-7.857-3.518-7.857-7.857"/>
        <path id="prefix__y" d="M.205 18.717c0 10.133 8.216 18.349 18.35 18.349 10.134 0 18.35-8.216 18.35-18.349 0-10.135-8.216-18.351-18.35-18.351C8.421.366.205 8.582.205 18.717m10.493 0c0-4.34 3.517-7.858 7.857-7.858 4.339 0 7.858 3.518 7.858 7.858 0 4.339-3.519 7.857-7.858 7.857-4.34 0-7.857-3.518-7.857-7.857"/>
        <path id="prefix__A" d="M.205 18.717c0 10.133 8.216 18.349 18.35 18.349 10.134 0 18.35-8.216 18.35-18.349 0-10.135-8.216-18.351-18.35-18.351C8.421.366.205 8.582.205 18.717m10.493 0c0-4.34 3.517-7.858 7.857-7.858 4.339 0 7.858 3.518 7.858 7.858 0 4.339-3.519 7.857-7.858 7.857-4.34 0-7.857-3.518-7.857-7.857"/>
    </defs>
    <g fill="none" fill-rule="evenodd">
        <mask id="prefix__b" fill="#fff">
            <use xlink:href="#prefix__a"/>
        </mask>
        <use fill="#0061E5" xlink:href="#prefix__a"/>
        <g mask="url(#prefix__b)">
            <g>
                <path fill="#0061E5" d="M9.205 49.397L177.249 49.397 177.249 9.397 9.205 9.397z" transform="translate(-9 -9)"/>
                <g transform="translate(-9 -9) translate(0 .33)">
                    <path fill="#FFF" d="M86.314 30.446v-5.864s-.09-.09-.36-.18c-1.082-.361-2.165-.542-3.247-.451-1.624.09-2.887.811-3.61 2.255-.54 1.083-.72 2.345-.811 3.518-.09 1.624 0 3.247.541 4.871.451 1.354 1.353 2.346 2.797 2.617 1.534.36 2.977 0 4.33-.722.27-.181.36-.271.36-.271v-5.773zm5.954 10.734c-1.624.091-3.428.272-5.231.452-.092-.631-.272-1.173-.363-1.714-.902.361-1.714.812-2.525 1.173-2.436.902-4.87.811-7.127-.541-1.984-1.173-3.067-2.978-3.788-5.052-.901-3.068-.992-6.225 0-9.292 1.172-3.698 3.88-5.683 7.668-6.225 1.805-.27 3.608-.18 5.502.361V9.517c1.895-.18 3.699-.27 5.504-.451v25.44c-.09 2.706.18 4.6.36 6.674zM61.687 37.392l.18-1.354c.09-.72.18-1.353.27-1.713.452-1.805 1.173-3.519 1.715-5.233.813-2.796 2.887-8.84 2.887-8.84h5.864c-.451 1.172-.813 2.255-1.263 3.337-2.257 5.774-6.947 17.682-6.947 17.682H58.8s-8.118-20.839-8.118-21.019c1.262-.09 6.133-.45 6.133-.45s2.076 6.855 3.068 10.012c.45 1.443.991 2.977 1.444 4.511.089.27.18.902.27 1.713l.09 1.354zM96.508 9.517c1.805-.18 3.698-.27 5.503-.45V41.18h-5.503V9.517zM116.353 20.162c-1.352 1.714-2.706 3.338-3.968 5.052-.812 1.083-1.715 2.165-2.526 3.248-.45.54-2.255 1.263-3.157 1.352.901 0 2.615.722 3.067 1.263 2.075 2.797 4.33 6.135 6.404 8.932v1.172h-5.683l-7.397-11.456c2.255-2.978 4.871-6.586 7.036-9.563h6.224zM128.142 29.448L128.142 25.264 125.466 25.264 125.466 29.448 124.64 29.448 124.64 24.544 128.969 24.544 128.969 29.448zM131.38 26.996c0 .963.448 1.858 1.538 1.858.983 0 1.508-.768 1.508-1.858s-.525-1.857-1.508-1.857c-1.09 0-1.537.894-1.537 1.857zm-.02-2.452v.525h.215c.273-.34.749-.651 1.528-.651 1.352 0 2.15 1.129 2.15 2.578 0 1.479-.798 2.578-2.15 2.578-.78 0-1.236-.302-1.498-.651h-.214v2.47h-.827v-6.85h.797zM140.244 26.996c0-.963-.507-1.857-1.586-1.857-1.09 0-1.586.894-1.586 1.857s.496 1.858 1.586 1.858c1.08 0 1.586-.895 1.586-1.858m.826 0c0 1.45-.885 2.578-2.412 2.578-1.537 0-2.413-1.128-2.413-2.578s.876-2.578 2.413-2.578c1.527 0 2.412 1.129 2.412 2.578M146.654 24.544L146.654 28.729 147.55 28.729 147.55 30.84 146.752 30.84 146.752 29.448 142.364 29.448 142.364 24.544 143.191 24.544 143.191 28.729 145.828 28.729 145.828 24.544zM149.184 26.296h2.83c-.048-.622-.524-1.157-1.351-1.157-.885 0-1.372.535-1.48 1.157zm3.688.69h-3.737c.029 1.167.555 1.869 1.567 1.869.69 0 1.099-.292 1.245-.76h.837c-.156.837-.867 1.479-2.082 1.479-1.528 0-2.383-1.12-2.383-2.626 0-1.508.875-2.53 2.363-2.53 1.46 0 2.16 1.08 2.19 2.286v.282zM158.299 27.968c-.185.963-.924 1.605-2.063 1.605-1.527 0-2.382-1.127-2.382-2.578 0-1.478.855-2.578 2.382-2.578 1.168 0 1.869.643 2.035 1.547h-.827c-.156-.495-.536-.825-1.208-.825-1.108 0-1.556.864-1.556 1.838 0 .982.458 1.878 1.556 1.878.702 0 1.11-.341 1.236-.887h.827zM163.679 27.968c-.185.963-.924 1.605-2.063 1.605-1.527 0-2.382-1.127-2.382-2.578 0-1.478.855-2.578 2.382-2.578 1.168 0 1.869.643 2.034 1.547h-.827c-.156-.495-.535-.825-1.207-.825-1.108 0-1.556.864-1.556 1.838 0 .982.457 1.878 1.556 1.878.702 0 1.11-.341 1.236-.887h.827z"/>
                    <mask id="prefix__d" fill="#fff">
                        <use xlink:href="#prefix__c"/>
                    </mask>
                    <path fill="#FFF" d="M169.731 29.448h.826v-4.904h-.826v4.904zm-3.99-.72h1.236c.856 0 1.138-.35 1.138-.925 0-.584-.282-.923-1.138-.923h-1.236v1.848zm0-4.184v1.634h1.353c1.196 0 1.847.614 1.847 1.625 0 1.022-.651 1.645-1.847 1.645h-2.18v-4.904h.827zM124.64 41.121L124.64 36.218 125.447 36.218 125.447 40.013 125.661 40.013 127.811 36.218 129.017 36.218 129.017 41.121 128.21 41.121 128.21 37.327 127.996 37.327 125.807 41.121zM136.118 39.136v-.447h-1.469c-.807 0-1.177.35-1.177.934 0 .555.41.906 1.138.906.818 0 1.508-.615 1.508-1.393zm.03 1.47h-.215c-.3.38-.827.642-1.527.642-1.129 0-1.76-.758-1.76-1.595 0-.788.515-1.624 1.876-1.624h1.596v-.197c0-.593-.34-1.02-1.196-1.02-.73 0-1.1.282-1.139.71h-.826c.067-.905.846-1.43 1.945-1.43 1.236 0 2.024.593 2.024 1.693v3.336h-.779v-.516zM141.945 41.121L141.945 36.938 139.269 36.938 139.269 41.121 138.443 41.121 138.443 36.218 142.772 36.218 142.772 41.121zM147.87 41.121L147.87 36.938 145.194 36.938 145.194 41.121 144.367 41.121 144.367 36.218 148.697 36.218 148.697 41.121zM153.386 39.136v-.447h-1.47c-.806 0-1.176.35-1.176.934 0 .555.409.906 1.138.906.818 0 1.508-.615 1.508-1.393zm.029 1.47h-.214c-.301.38-.827.642-1.527.642-1.13 0-1.761-.758-1.761-1.595 0-.788.516-1.624 1.878-1.624h1.595v-.197c0-.593-.341-1.02-1.196-1.02-.73 0-1.1.282-1.14.71h-.825c.067-.905.846-1.43 1.945-1.43 1.236 0 2.024.593 2.024 1.693v3.336h-.78v-.516zM156.528 38.67c0 .963.447 1.858 1.537 1.858.983 0 1.508-.768 1.508-1.858s-.525-1.857-1.508-1.857c-1.09 0-1.537.894-1.537 1.857zm-.02-2.452v.525h.214c.273-.34.75-.651 1.528-.651 1.351 0 2.15 1.129 2.15 2.578 0 1.479-.799 2.578-2.15 2.578-.779 0-1.236-.302-1.498-.652h-.215v2.47h-.826v-6.848h.797zM164.787 39.136v-.447h-1.469c-.807 0-1.177.35-1.177.934 0 .555.41.906 1.138.906.818 0 1.508-.615 1.508-1.393zm.03 1.47h-.215c-.3.38-.827.642-1.527.642-1.129 0-1.76-.758-1.76-1.595 0-.788.515-1.624 1.876-1.624h1.596v-.197c0-.593-.34-1.02-1.196-1.02-.73 0-1.1.282-1.139.71h-.826c.067-.905.846-1.43 1.945-1.43 1.236 0 2.024.593 2.024 1.693v3.336h-.779v-.516zM166.548 36.218L170.77 36.218 170.77 36.938 169.077 36.938 169.077 41.12 168.25 41.12 168.25 36.938 166.548 36.938zM176.422 41.121h.827v-4.903h-.827v4.903zm-3.988-.72h1.235c.856 0 1.139-.35 1.139-.924 0-.584-.283-.924-1.139-.924h-1.235v1.848zm0-4.183v1.634h1.351c1.197 0 1.849.614 1.849 1.625 0 1.022-.652 1.644-1.849 1.644h-2.179v-4.903h.828z" mask="url(#prefix__d)"/>
                </g>
                <g transform="translate(-9 -9) translate(9 12.33)">
                    <mask id="prefix__f" fill="#fff">
                        <use xlink:href="#prefix__e"/>
                    </mask>
                    <path stroke="#FFF" stroke-width="1.224" d="M18.887-11.092s-1.898 4.476-2.925 5.714C14.955-4.052 11.937-2.2 10.93-.872 10.08.327 9.436 3.33 8.586 4.53 7.806 5.623 5.22 6.92 4.44 8.01 3.365 9.447 2.55 12.95 1.474 14.384c-.83 1.288-3.642 2.818-4.56 4.126-.781 1.092-1.376 3.9-2.156 4.993-.623.966-3.37 3.22-3.37 3.22" mask="url(#prefix__f)"/>
                    <mask id="prefix__h" fill="#fff">
                        <use xlink:href="#prefix__g"/>
                    </mask>
                    <path stroke="#FFF" stroke-width="1.224" d="M21.436-9.112s-1.898 4.476-2.924 5.714c-1.008 1.326-4.026 3.18-5.031 4.514-.85 1.2-1.494 4.203-2.344 5.403C10.356 7.611 7.772 8.91 6.992 10c-1.077 1.434-1.891 4.937-2.967 6.37-.84 1.282-3.65 2.821-4.57 4.121-.781 1.091-1.375 3.9-2.156 4.992-.623.967-3.37 3.222-3.37 3.222" mask="url(#prefix__h)"/>
                    <mask id="prefix__j" fill="#fff">
                        <use xlink:href="#prefix__i"/>
                    </mask>
                    <path stroke="#FFF" stroke-width="1.224" d="M23.984-7.131s-1.898 4.476-2.924 5.714c-1.008 1.326-4.026 3.179-5.029 4.52-.85 1.2-1.495 4.204-2.345 5.405-.78 1.09-3.364 2.389-4.144 3.482-1.077 1.434-1.89 4.936-2.967 6.369-.85 1.276-3.657 2.822-4.58 4.114-.78 1.092-1.375 3.9-2.156 4.993-.623.966-3.369 3.222-3.369 3.222" mask="url(#prefix__j)"/>
                    <mask id="prefix__l" fill="#fff">
                        <use xlink:href="#prefix__k"/>
                    </mask>
                    <path stroke="#FFF" stroke-width="1.224" d="M26.533-5.15S24.635-.676 23.61.562c-1.008 1.326-4.025 3.18-5.027 4.53-.85 1.2-1.495 4.202-2.345 5.402-.78 1.093-3.364 2.39-4.144 3.483-1.077 1.433-1.89 4.935-2.967 6.37-.86 1.27-3.666 2.823-4.59 4.106-.78 1.093-1.375 3.901-2.155 4.994-.623.965-3.37 3.221-3.37 3.221" mask="url(#prefix__l)"/>
                    <g>
                        <mask id="prefix__n" fill="#fff">
                            <use xlink:href="#prefix__m"/>
                        </mask>
                        <path stroke="#FFF" stroke-width="1.224" d="M29.082-3.17s-1.897 4.476-2.924 5.713c-1.008 1.327-4.025 3.18-5.026 4.538-.85 1.2-1.494 4.203-2.344 5.403-.78 1.093-3.364 2.39-4.144 3.483-1.077 1.433-1.891 4.935-2.968 6.369-.869 1.263-3.673 2.826-4.599 4.1-.78 1.093-1.375 3.902-2.155 4.994-.623.966-3.37 3.222-3.37 3.222" mask="url(#prefix__n)"/>
                    </g>
                    <g>
                        <mask id="prefix__p" fill="#fff">
                            <use xlink:href="#prefix__o"/>
                        </mask>
                        <path stroke="#FFF" stroke-width="1.224" d="M31.63-1.19s-1.896 4.476-2.923 5.713c-1.008 1.326-4.025 3.18-5.024 4.546-.85 1.2-1.494 4.203-2.344 5.403-.78 1.093-3.364 2.39-4.146 3.483-1.076 1.433-1.89 4.935-2.966 6.37-.88 1.256-3.682 2.827-4.61 4.093-.78 1.093-1.374 3.901-2.155 4.994-.622.965-3.37 3.222-3.37 3.222" mask="url(#prefix__p)"/>
                    </g>
                    <g>
                        <mask id="prefix__r" fill="#fff">
                            <use xlink:href="#prefix__q"/>
                        </mask>
                        <path stroke="#FFF" stroke-width="1.224" d="M34.18.79s-1.897 4.477-2.924 5.714c-1.007 1.326-4.025 3.18-5.022 4.554-.85 1.2-1.494 4.204-2.344 5.403-.78 1.093-3.365 2.39-4.146 3.482-1.076 1.434-1.89 4.936-2.966 6.369-.89 1.25-3.69 2.83-4.62 4.089-.78 1.093-1.374 3.9-2.155 4.994-.623.965-3.37 3.22-3.37 3.22" mask="url(#prefix__r)"/>
                    </g>
                    <g>
                        <mask id="prefix__t" fill="#fff">
                            <use xlink:href="#prefix__s"/>
                        </mask>
                        <path stroke="#FFF" stroke-width="1.224" d="M36.728 2.771s-1.897 4.475-2.924 5.713c-1.007 1.326-4.025 3.18-5.02 4.561-.85 1.201-1.493 4.205-2.343 5.404-.781 1.093-3.365 2.39-4.146 3.482-1.077 1.434-1.89 4.936-2.967 6.37-.898 1.243-3.697 2.831-4.628 4.082-.781 1.092-1.375 3.901-2.156 4.992-.623.967-3.37 3.223-3.37 3.223" mask="url(#prefix__t)"/>
                    </g>
                    <g>
                        <mask id="prefix__v" fill="#fff">
                            <use xlink:href="#prefix__u"/>
                        </mask>
                        <path stroke="#FFF" stroke-width="1.224" d="M39.277 4.752s-1.897 4.475-2.924 5.713c-1.007 1.326-4.025 3.18-5.018 4.569-.85 1.2-1.496 4.204-2.345 5.404-.78 1.092-3.364 2.39-4.145 3.482-1.076 1.434-1.89 4.936-2.966 6.369-.91 1.238-3.706 2.833-4.639 4.076-.78 1.093-1.375 3.9-2.155 4.993-.623.966-3.37 3.223-3.37 3.223" mask="url(#prefix__v)"/>
                    </g>
                    <g>
                        <mask id="prefix__x" fill="#fff">
                            <use xlink:href="#prefix__w"/>
                        </mask>
                        <path stroke="#FFF" stroke-width="1.224" d="M41.826 6.732s-1.897 4.475-2.924 5.713c-1.007 1.326-4.025 3.18-5.016 4.578-.85 1.2-1.496 4.203-2.345 5.403-.78 1.092-3.364 2.39-4.145 3.482-1.076 1.433-1.89 4.936-2.966 6.37-.919 1.231-3.714 2.834-4.649 4.07-.78 1.092-1.375 3.9-2.155 4.992-.623.966-3.37 3.222-3.37 3.222" mask="url(#prefix__x)"/>
                    </g>
                    <g>
                        <mask id="prefix__z" fill="#fff">
                            <use xlink:href="#prefix__y"/>
                        </mask>
                        <path stroke="#FFF" stroke-width="1.224" d="M44.375 8.712s-1.897 4.476-2.924 5.714c-1.007 1.326-4.025 3.179-5.015 4.586-.85 1.199-1.495 4.203-2.344 5.403-.78 1.092-3.364 2.39-4.145 3.482-1.077 1.433-1.89 4.936-2.968 6.37-.927 1.224-3.72 2.836-4.657 4.063-.78 1.092-1.375 3.9-2.155 4.992-.623.967-3.37 3.223-3.37 3.223" mask="url(#prefix__z)"/>
                    </g>
                    <g>
                        <mask id="prefix__B" fill="#fff">
                            <use xlink:href="#prefix__A"/>
                        </mask>
                        <path stroke="#FFF" stroke-width="1.224" d="M46.924 10.692S45.027 15.168 44 16.406c-1.007 1.326-4.025 3.18-5.013 4.594-.85 1.2-1.495 4.203-2.344 5.403-.781 1.092-3.365 2.39-4.146 3.482-1.076 1.434-1.89 4.936-2.967 6.37-.937 1.218-3.73 2.837-4.667 4.056-.78 1.093-1.375 3.901-2.156 4.993-.622.966-3.37 3.223-3.37 3.223" mask="url(#prefix__B)"/>
                    </g>
                </g>
            </g>
        </g>
    </g>
</svg>
