<svg xmlns="http://www.w3.org/2000/svg" width="34" height="32" viewBox="0 0 34 32">
    <g fill="#D45A42" fill-rule="nonzero">
        <path d="M31.52 3.143C29.841 1.116 27.515 0 24.968 0c-3.583 0-5.85 2.28-7.123 4.192-.33.496-.61.993-.846 1.462a14.063 14.063 0 0 0-.846-1.462C14.882 2.279 12.614 0 9.03 0c-2.547 0-4.873 1.116-6.55 3.144C.88 5.077 0 7.667 0 10.436c0 3.014 1.105 5.817 3.476 8.822 2.12 2.685 5.169 5.453 8.7 8.659 1.315 1.194 2.676 2.43 4.124 3.78l.044.04A.959.959 0 0 0 17 32a.96.96 0 0 0 .656-.263l.044-.04c1.448-1.35 2.809-2.586 4.125-3.78 3.53-3.205 6.58-5.974 8.699-8.66C32.895 16.254 34 13.45 34 10.437c0-2.769-.881-5.359-2.48-7.293z"/>
        <path d="M20.532 26.301A470.797 470.797 0 0 0 17 29.531c-1.23-1.14-2.398-2.2-3.533-3.23-6.91-6.273-11.475-10.417-11.475-15.865 0-2.252.704-4.343 1.983-5.89 1.294-1.563 3.09-2.424 5.056-2.424 2.731 0 4.497 1.793 5.497 3.297a12.939 12.939 0 0 1 1.525 3.23c.133.437.516.732.947.732.431 0 .814-.295.947-.732a12.94 12.94 0 0 1 1.525-3.23c1-1.504 2.766-3.297 5.497-3.297 1.967 0 3.762.861 5.056 2.425 1.279 1.546 1.983 3.637 1.983 5.889 0 5.448-4.565 9.592-11.476 15.865z"/>
    </g>
</svg>
