<?xml version="1.0" encoding="UTF-8"?>
<svg width="19px" height="24px" viewBox="0 0 19 24" version="1.1" xmlns="http://www.w3.org/2000/svg" xmlns:xlink="http://www.w3.org/1999/xlink">
    <!-- Generator: Sketch 60 (88103) - https://sketch.com -->
    <title>Group Copy</title>
    <desc>Created with Sketch.</desc>
    <g id="(залит-десктоп)О-компании+админка+адаптив" stroke="none" stroke-width="1" fill="none" fill-rule="evenodd">
        <g id="3red_о-компании_команда_1280" transform="translate(-558.000000, -6353.000000)" fill="#EE4237">
            <g id="Group-Copy" transform="translate(558.000000, 6353.000000)">
                <path d="M1,24 L1,21 L2,21 L2,23 L18,23 L18,1 L2,1 L2,10 L1,10 L1,0 L19,0 L19,24 L1,24 Z" id="Combined-Shape"></path>
                <path d="M1.03222656,15.4951172 L1.03222656,18 L0.188476562,18 L0.188476562,11.6015625 L2.54833984,11.6015625 C3.24853866,11.6015625 3.79711716,11.7802717 4.1940918,12.1376953 C4.59106644,12.495119 4.78955078,12.9682588 4.78955078,13.5571289 C4.78955078,14.1782258 4.59546093,14.6564925 4.20727539,14.9919434 C3.81908986,15.3273943 3.26318721,15.4951172 2.53955078,15.4951172 L1.03222656,15.4951172 Z M1.03222656,14.8051758 L2.54833984,14.8051758 C2.99951397,14.8051758 3.34521364,14.6989757 3.58544922,14.4865723 C3.82568479,14.2741689 3.94580078,13.9672872 3.94580078,13.565918 C3.94580078,13.1850567 3.82568479,12.8803722 3.58544922,12.6518555 C3.34521364,12.4233387 3.01562709,12.3046875 2.59667969,12.2958984 L1.03222656,12.2958984 L1.03222656,14.8051758 Z M5.86621094,18 L5.86621094,11.6015625 L7.67236328,11.6015625 C8.22900669,11.6015625 8.72118927,11.7246081 9.14892578,11.9707031 C9.57666229,12.2167981 9.90698126,12.5668923 10.1398926,13.0209961 C10.3728039,13.4750999 10.4907226,13.9965791 10.4936523,14.5854492 L10.4936523,14.9941406 C10.4936523,15.5976593 10.3771984,16.1264626 10.1442871,16.5805664 C9.91137579,17.0346702 9.57885958,17.3832996 9.14672852,17.6264648 C8.71459745,17.8696301 8.21142865,17.9941406 7.63720703,18 L5.86621094,18 Z M6.70996094,12.2958984 L6.70996094,17.3100586 L7.59765625,17.3100586 C8.24805013,17.3100586 8.75414858,17.1079122 9.1159668,16.7036133 C9.47778501,16.2993144 9.65869141,15.7236365 9.65869141,14.9765625 L9.65869141,14.6030273 C9.65869141,13.8764612 9.48803882,13.3117696 9.14672852,12.9089355 C8.80541822,12.5061015 8.3212922,12.3017578 7.69433594,12.2958984 L6.70996094,12.2958984 Z M15.296875,15.1743164 L12.6118164,15.1743164 L12.6118164,18 L11.7680664,18 L11.7680664,11.6015625 L15.7319336,11.6015625 L15.7319336,12.2958984 L12.6118164,12.2958984 L12.6118164,14.484375 L15.296875,14.484375 L15.296875,15.1743164 Z" id="PDF" fill-rule="nonzero"></path>
            </g>
        </g>
    </g>
</svg>