<svg xmlns="http://www.w3.org/2000/svg" width="42" height="42" viewBox="0 0 42 42">
    <g fill="none" fill-rule="evenodd">
        <circle cx="21" cy="21" r="21" fill="#EE534A"/>
        <g fill="#FFF" transform="translate(14 14)">
            <path d="M9.616 0c1.872 0 2.55.195 3.235.561a3.816 3.816 0 0 1 1.588 1.588c.366.684.561 1.363.561 3.235v4.232c0 1.872-.195 2.55-.561 3.235a3.816 3.816 0 0 1-1.588 1.588c-.684.366-1.363.561-3.235.561H5.384c-1.872 0-2.55-.195-3.235-.561A3.816 3.816 0 0 1 .56 12.851C.195 12.167 0 11.488 0 9.616V5.384c0-1.872.195-2.55.561-3.235A3.816 3.816 0 0 1 2.149.56C2.833.195 3.512 0 5.384 0h4.232zM7.5 3.6a3.9 3.9 0 1 0 0 7.8 3.9 3.9 0 0 0 0-7.8zm4.2-1.2a.9.9 0 1 0 0 1.8.9.9 0 0 0 0-1.8z"/>
            <circle cx="7.5" cy="7.5" r="2.5"/>
        </g>
    </g>
</svg>
