<?xml version="1.0" encoding="UTF-8"?>
<svg width="16px" height="16px" viewBox="0 0 16 16" version="1.1" xmlns="http://www.w3.org/2000/svg" xmlns:xlink="http://www.w3.org/1999/xlink">
    <!-- Generator: Sketch 59.1 (86144) - https://sketch.com -->
    <title>settings</title>
    <desc>Created with Sketch.</desc>
    <g id="overflow_участники-проекта" stroke="none" stroke-width="1" fill="none" fill-rule="evenodd">
        <g id="3red_админка_участники-проекта" transform="translate(-104.000000, -124.000000)" fill="#FFFFFF" fill-rule="nonzero">
            <g id="Group-9" transform="translate(48.000000, 56.000000)">
                <g id="Group-8" transform="translate(40.000000, 59.000000)">
                    <g id="Group-3" transform="translate(16.000000, 5.000000)">
                        <g id="Group-13">
                            <g id="Group-12">
                                <g id="settings" transform="translate(0.000000, 4.000000)">
                                    <path d="M15.1809382,6.32045122 L14.0579097,6.12993524 C13.9409276,5.75224567 13.790522,5.38792563 13.6066929,5.04031753 L14.2684776,4.11447671 C14.5492347,3.7200752 14.5057842,3.18195112 14.1615225,2.84102778 L13.1655032,1.84499687 C12.9783318,1.65782327 12.7309981,1.55420932 12.4669527,1.55420932 C12.2597273,1.55420932 12.0625288,1.61771464 11.8954115,1.73804053 L10.9662391,2.39983288 C10.6052657,2.2093169 10.2275805,2.05222478 9.83652599,1.93524128 L9.64935458,0.82556925 C9.56913826,0.347608105 9.15802963,0 8.67338938,0 L7.26626147,0 C6.78162121,0 6.37051258,0.347608105 6.29029626,0.82556925 L6.09644016,1.96198036 C5.72209735,2.07896386 5.35778157,2.2327136 5.01017752,2.41988719 L4.09103221,1.75809484 C3.92391489,1.63776896 3.72337409,1.57426363 3.5161486,1.57426363 C3.25210322,1.57426363 3.00142723,1.67787759 2.81759817,1.86505118 L1.81823654,2.8610821 C1.47731719,3.20200543 1.43052434,3.74012952 1.71128145,4.13453102 L2.37975077,5.07374138 C2.1959217,5.42469187 2.04885845,5.78901191 1.93521867,6.16670148 L0.825559605,6.35387508 C0.347604044,6.43409233 0,6.84520577 0,7.32985168 L0,8.73699603 C0,9.22164195 0.347604044,9.63275538 0.825559605,9.71297263 L1.96195744,9.906831 C2.07893957,10.2811782 2.23268752,10.6454982 2.41985892,10.9931063 L1.76141665,11.90892 C1.48065954,12.3033215 1.52411004,12.8414456 1.86837174,13.1823689 L2.86439102,14.1783998 C3.05156243,14.3655734 3.29889607,14.4691874 3.56294145,14.4691874 C3.77016694,14.4691874 3.96736539,14.4056821 4.13448272,14.2853562 L5.07368211,13.616879 C5.41125911,13.7940255 5.76554785,13.9377481 6.12986363,14.0513892 L6.31703504,15.1744307 C6.39725135,15.6523919 6.80835998,16 7.29300024,16 L8.70347049,16 C9.18811075,16 9.59921938,15.6523919 9.6794357,15.1744307 L9.86994945,14.0513892 C10.2476346,13.9344057 10.6119504,13.7839983 10.9595544,13.6001671 L11.8853844,14.2619595 C12.0525018,14.3822854 12.2530426,14.4457907 12.4602681,14.4457907 L12.4602681,14.4457907 C12.7243134,14.4457907 12.9716471,14.3421767 13.1588185,14.1550031 L14.1548378,13.1589722 C14.4957571,12.8180489 14.54255,12.2799248 14.2617929,11.8855233 L13.6000082,10.9563401 C13.7838373,10.6053896 13.9375852,10.2410696 14.051225,9.86672237 L15.1742535,9.67954878 C15.652209,9.59933152 15.9999079,9.18821809 15.9999079,8.70357217 L15.9999079,7.29642783 C16.0064978,6.81178191 15.6588937,6.40066848 15.1809382,6.32045122 Z M15.1040642,8.70357217 C15.1040642,8.74702319 15.0739831,8.78378943 15.0305326,8.7904742 L13.626747,9.02444119 C13.4496026,9.05452267 13.3092241,9.18487571 13.2657736,9.35533737 C13.1387644,9.84666806 12.9449083,10.3179444 12.6842053,10.755797 C12.5939619,10.9095467 12.6006466,11.1000627 12.7042594,11.2471276 L13.529819,12.4102778 C13.5532154,12.4437017 13.549873,12.4938375 13.5197919,12.5239189 L12.5237726,13.5199499 C12.5003762,13.5433466 12.4769798,13.5466889 12.4602681,13.5466889 C12.440214,13.5466889 12.4235022,13.5400042 12.4101329,13.529977 L11.2503386,12.7044078 C11.1066177,12.6007938 10.9127616,12.594109 10.7590136,12.6843535 C10.3211662,12.9450595 9.84989537,13.1389179 9.35857042,13.2659286 C9.1847684,13.3093796 9.05441689,13.4531022 9.02767811,13.6269062 L8.79037151,15.0307082 C8.78368681,15.0741592 8.746921,15.1042407 8.70347049,15.1042407 L7.29634258,15.1042407 C7.25289208,15.1042407 7.21612627,15.0741592 7.20944157,15.0307082 L6.97547731,13.6269062 C6.94539619,13.4497598 6.81504468,13.3093796 6.644585,13.2659286 C6.16662944,13.1422603 5.70538561,12.9517443 5.2742229,12.7044078 C5.20403363,12.6642991 5.12381731,12.6442448 5.04694334,12.6442448 C4.95669998,12.6442448 4.86311427,12.6709839 4.7862403,12.7278045 L3.616419,13.5600585 C3.59970727,13.5700856 3.58299553,13.5767704 3.5662838,13.5767704 C3.55291441,13.5767704 3.52617564,13.573428 3.50277922,13.5500313 L2.50675994,12.5540004 C2.47667882,12.5239189 2.47333647,12.4771255 2.4967329,12.4403593 L3.31895015,11.2872363 C3.4225629,11.1401713 3.42924759,10.9463129 3.33900423,10.7925632 C3.0783012,10.3580531 2.87776041,9.88677669 2.75075124,9.395446 C2.70395838,9.22498433 2.56357983,9.09463129 2.3897778,9.06454982 L0.975965201,8.82389806 C0.932514696,8.81721329 0.902433577,8.78044704 0.902433577,8.73699603 L0.902433577,7.32985168 C0.902433577,7.28640067 0.932514696,7.24963443 0.975965201,7.24294966 L2.36972373,7.00898266 C2.54686809,6.97890119 2.690589,6.84854815 2.7340395,6.6747441 C2.85770633,6.18341341 3.04822008,5.70879465 3.30558077,5.27094213 C3.39582413,5.1171924 3.38579709,4.92667642 3.28218434,4.78295383 L2.44994004,3.61311886 C2.42654362,3.57969501 2.42988596,3.52955922 2.45996708,3.49947775 L3.45598636,2.50344684 C3.47938279,2.48005014 3.50277922,2.47670775 3.51949095,2.47670775 C3.53954503,2.47670775 3.55625676,2.48339252 3.56962615,2.49341968 L4.72273572,3.31564654 C4.86979897,3.4192605 5.06365507,3.42594527 5.21740301,3.33570086 C5.65190807,3.07499478 6.12317894,2.87445164 6.61450388,2.74744099 C6.78496356,2.70064759 6.91531507,2.56026739 6.94539619,2.38646334 L7.18604515,0.972634218 C7.19272984,0.929183205 7.22949565,0.899101734 7.27294616,0.899101734 L8.68007407,0.899101734 C8.72352457,0.899101734 8.76029039,0.929183205 8.76697508,0.972634218 L9.00093934,2.36640902 C9.03102046,2.54355546 9.16137198,2.68727804 9.335174,2.73072906 C9.83986833,2.85773971 10.3211662,3.05494046 10.7690407,3.31898893 C10.9227886,3.40923334 11.1133024,3.40254857 11.2603656,3.29893461 L12.4134752,2.47002298 C12.4301869,2.45999582 12.4468987,2.45331105 12.4636104,2.45331105 C12.4769798,2.45331105 12.5037186,2.45665344 12.527115,2.48005014 L13.5231343,3.47608105 C13.5532154,3.50616252 13.5565577,3.55295592 13.5331613,3.58972216 L12.7076017,4.74952998 C12.603989,4.89325256 12.5973043,5.08711093 12.6875476,5.24086066 C12.9482507,5.67871318 13.1421068,6.14998956 13.2691159,6.64132024 C13.3125664,6.81512429 13.4562873,6.94547733 13.6300894,6.97221642 L15.0338749,7.2095258 C15.0773254,7.21621057 15.1074065,7.25297681 15.1074065,7.29642783 L15.1074065,8.70357217 L15.1040642,8.70357217 L15.1040642,8.70357217 Z" id="Shape"></path>
                                    <path d="M8,4.5 C6.06873185,4.5 4.5,6.06873185 4.5,8 C4.5,9.93126815 6.06873185,11.5 8,11.5 C9.93126815,11.5 11.5,9.93126815 11.5,8 C11.5,6.06873185 9.93126815,4.5 8,4.5 Z M8,10.5851888 C6.57357212,10.5851888 5.41481123,9.42642788 5.41481123,8 C5.41481123,6.57357212 6.57357212,5.41481123 8,5.41481123 C9.42642788,5.41481123 10.5851888,6.57357212 10.5851888,8 C10.5851888,9.42642788 9.42642788,10.5851888 8,10.5851888 Z" id="Shape"></path>
                                </g>
                            </g>
                        </g>
                    </g>
                </g>
            </g>
        </g>
    </g>
</svg>