<svg xmlns="http://www.w3.org/2000/svg" xmlns:xlink="http://www.w3.org/1999/xlink" width="24" height="24" viewBox="0 0 24 24">
    <defs>
        <path id="a" d="M19.569 10.406c-1.818 2.356-2.015 2.135-.517 3.494 1.444 1.305 1.744 1.936 1.791 2.018 0 0 .6 1.022-.664 1.031l-2.4.037c-.516.1-1.2-.357-1.2-.357-.9-.602-1.743-2.162-2.4-1.962 0 0-.674.21-.656 1.616.01.301-.14.466-.14.466s-.169.173-.496.2h-1.078c-2.371.146-4.461-1.98-4.461-1.98s-2.288-2.3-4.293-6.89c-.13-.3.01-.446.01-.446s.14-.175.533-.175l2.569-.017c.243.036.413.163.413.163s.15.1.224.293a18.26 18.26 0 0 0 .965 1.952c.937 1.88 1.575 2.2 1.94 2.008 0 0 .479-.283.375-2.556-.037-.821-.271-1.194-.271-1.194-.216-.284-.62-.365-.796-.393-.141-.017.092-.346.403-.493.459-.22 1.273-.227 2.238-.22.76.01.975.057 1.265.12.891.21.592 1.013.592 2.947 0 .622-.123 1.488.337 1.771.197.128.684.018 1.883-1.97 0 0 .563-.95 1.003-2.054a.549.549 0 0 1 .235-.283s.149-.082.356-.055l2.699-.019c.815-.1.947.266.947.266.14.373-.3 1.25-1.406 2.682"/>
    </defs>
    <g fill="none" fill-rule="evenodd">
        <path d="M0 0h24v24H0z"/>
        <mask id="b" fill="#fff">
            <use xlink:href="#a"/>
        </mask>
        <use fill="#4c75a3" fill-rule="nonzero" xlink:href="#a"/>
        <g fill="#4c75a3" mask="url(#b)">
            <path d="M0 0h24v24H0z"/>
        </g>
    </g>
</svg>
