<svg xmlns="http://www.w3.org/2000/svg" xmlns:xlink="http://www.w3.org/1999/xlink" width="261" height="185" viewBox="0 0 261 185">
    <defs>
        <path id="erorr-404-a" d="M.744.756h24.37v14.848H.744z"/>
    </defs>
    <g fill="none" fill-rule="evenodd">
        <path fill="#D7C9AF" d="M248 58c-.552 0-1-.427-1-.954V42.954c0-.527.448-.954 1-.954s1 .427 1 .954v14.092c0 .527-.448.954-1 .954"/>
        <path fill="#D7C9AF" fill-opacity=".8" d="M257.896 20.974c0-1.09-4.432-1.974-9.896-1.974s-9.894.883-9.894 1.974L236 39.331C236 41.91 241.373 44 248 44c6.629 0 12-2.091 12-4.669l-2.104-18.357z"/>
        <g transform="translate(235 28)">
            <mask id="erorr-404-b" fill="#fff">
                <use xlink:href="#erorr-404-a"/>
            </mask>
            <path fill="#871741" d="M1.932 2.66c0-1.052 4.923-1.904 10.997-1.904 6.075 0 10.996.852 10.996 1.904l1.19 8.44c0 2.487-5.456 4.504-12.186 4.504-6.73 0-12.185-2.017-12.185-4.505l1.188-8.44z" mask="url(#erorr-404-b)"/>
        </g>
        <path fill="#D7C9AF" fill-opacity=".8" d="M103.253 72l-26.289 35.782-42.961 23.693S1.303 132.65.02 138.45c-1.282 5.8 58.35 12.876 73.098 5.158C87.864 135.89 118 87.008 118 87.008L103.253 72z"/>
        <path fill="#000" d="M205 66c0-24.853-23.282-45-52.001-45C124.282 21 101 41.147 101 66s23.282 45 51.999 45C181.719 111 205 90.853 205 66"/>
        <path fill="#FFC000" d="M152.86 21c-16.638 0-31.425 6.851-40.86 17.478.39 16.795 8.013 42.766 20.375 43.499 17.413 1.032 19.421-32.485 32.878-32.485 11.385 0 25.888-.027 32.747-5.362C189.202 30.34 172.288 21 152.86 21M214.8 110.627c8.168 24.092 1.283 47.64-27.417 57.202-22.808 7.6-75.383-3.824-75.383-49.089 0-25.438 20.409-36.706 44.45-36.706 24.04 0 47.914-2.18 58.35 28.593"/>
        <path fill="#000" d="M176.638 111.18c-19.791 6.113-39.33 29.065-49.638 42.86 8.332 7.77 19.208 12.602 29.976 14.96 3.998-9.245 12.121-22.196 28.007-30.49 16.445-8.58 27.15-4.314 33.005.321 1.894-8.419 1.083-17.73-2.037-27.14-8.519-3.494-21.723-5.943-39.313-.51M225.661 67h-20.7a.955.955 0 0 1-.961-.947c0-.523.43-.947.961-.947h20.387l22.124-15.923a.967.967 0 0 1 1.342.206.938.938 0 0 1-.207 1.324l-22.379 16.105a.98.98 0 0 1-.567.182M85.173 160H72.966a.961.961 0 0 1-.966-.958c0-.529.43-.958.966-.958h11.807l12.334-12.233 3.17-23.892a.85.85 0 0 1 .065-.238l10.798-26.125a.967.967 0 0 1 1.26-.523c.494.201.73.76.527 1.25l-10.75 26.01-3.197 24.091a.954.954 0 0 1-.275.552L85.857 159.72a.977.977 0 0 1-.684.28"/>
        <path fill="#000" d="M166.024 185a.985.985 0 0 1-.48-.125l-18.3-10.255a.954.954 0 0 1-.289-.247l-12.75-16.235a.953.953 0 0 1-.205-.605l.431-31.583a.97.97 0 0 1 .975-.95h.013a.97.97 0 0 1 .962.977l-.427 31.244 12.42 15.817 18.131 10.16a.96.96 0 0 1 .369 1.314.981.981 0 0 1-.85.488M259.031 153a.847.847 0 0 1-.17-.016l-18.054-3.22a.97.97 0 0 1-.786-.792l-6.218-36.485-18.358 10.318a.97.97 0 1 1-.95-1.69l19.558-10.992a.973.973 0 0 1 .892-.029.96.96 0 0 1 .537.711l6.337 37.17 17.38 3.103a.97.97 0 0 1-.168 1.922M198.043 185a.953.953 0 0 1-.193-.02l-18.697-3.85a.953.953 0 0 1-.61-.42l-10.387-16.04a.97.97 0 0 1 .17-1.252l10.387-9.178a.953.953 0 0 1 1.352.089.97.97 0 0 1-.09 1.362l-9.76 8.627 9.714 15.002 18.306 3.77a.964.964 0 0 1 .745 1.138.959.959 0 0 1-.937.772"/>
        <path fill="#000" d="M248.03 169a.974.974 0 0 1-.377-.074l-14.84-6.124a.964.964 0 0 1-.563-.635l-7.965-29.41-10.644 9.997a.984.984 0 0 1-1.372-.03.942.942 0 0 1 .03-1.348l11.83-11.11a.98.98 0 0 1 .934-.23c.33.092.586.347.675.673l8.264 30.517 14.404 5.942a.948.948 0 0 1 .518 1.249.973.973 0 0 1-.894.583M172.956 35a.958.958 0 0 1-.75-1.55l15.07-19.087a.952.952 0 0 1 .395-.296L222.686.069a.958.958 0 0 1 .71 1.778L188.62 15.748l-14.91 18.888a.956.956 0 0 1-.753.364M153.03 38a.977.977 0 0 1-.635-.232L134.553 22.66 87.572 1.82A.942.942 0 0 1 87.087.56.977.977 0 0 1 88.37.085l47.11 20.897a.973.973 0 0 1 .234.148l17.95 15.198c.405.343.45.945.098 1.343a.975.975 0 0 1-.733.329"/>
        <path fill="#383233" d="M178.95 75.116c16.946-4.356 26.269-33.18 12.173-40.838-14.096-7.656-51.896-8.932-58.304 9.57-6.407 18.506 26.269 36.372 46.131 31.268"/>
        <path fill="#FFF" d="M157 55.999C157 48.266 150.732 42 143.001 42 135.268 42 129 48.266 129 55.999 129 63.732 135.268 70 143.001 70 150.731 70 157 63.732 157 55.999M205 44c0-7.18-5.82-13-13.001-13C184.819 31 179 36.82 179 44c0 7.179 5.82 13 12.999 13C199.18 57 205 51.179 205 44"/>
        <path fill="#D7C9AF" fill-opacity=".8" d="M248.499 61c-4.142 0-7.499-1.342-7.499-3s3.357-3 7.499-3c4.142 0 7.501 1.342 7.501 3s-3.359 3-7.501 3z"/>
        <path fill="#6A0C30" d="M259 31c0 1.105-4.925 2-11 2s-11-.895-11-2 4.925-2 11-2 11 .895 11 2"/>
        <path fill="#D7C9AF" fill-opacity=".8" d="M258 21c0 1.105-4.478 2-10 2s-10-.895-10-2 4.478-2 10-2 10 .895 10 2"/>
        <path fill="#000" d="M153 53.001A2 2 0 1 1 150.999 51 2 2 0 0 1 153 53.001M203 42a2 2 0 1 1-4 0 2 2 0 0 1 4 0"/>
    </g>
</svg>
