<svg xmlns="http://www.w3.org/2000/svg" xmlns:xlink="http://www.w3.org/1999/xlink" width="1140" height="485" viewBox="0 0 1140 485">
    <defs>
        <path id="a" d="M.01.34h1V44h-1z"/>
        <path id="c" d="M.63.39h1v78.249h-1z"/>
    </defs>
    <g fill="none" fill-rule="evenodd" opacity=".492">
        <g stroke="#93D5D2">
            <path d="M116.772 32.663v167.985M119.02 35.71v167.325M120.77 38.57v166.666M122.044 41.256v166.003M122.86 43.774v165.343M123.237 46.135v164.682M123.196 48.348V212.37M122.755 50.424v163.36M121.934 52.37v162.7M120.752 54.196v162.04M119.229 55.914v161.378M117.384 57.53v160.718M115.236 59.056v160.057M112.806 60.5v159.397M110.111 61.873V220.61M107.174 63.184v158.075M104.01 64.441v157.414M100.644 65.655v156.753M97.09 66.835v156.093M93.37 67.99v155.432M89.503 69.131v154.771M85.509 70.266v154.11M81.407 71.405v153.45M77.216 72.558v152.789M72.956 73.733v152.129M68.647 74.941V226.41M64.307 76.191v150.807M59.956 77.493v150.146M55.613 78.855v149.486M51.3 80.288v148.825M47.033 81.8v148.164M42.833 83.403v147.502M38.72 85.103v146.843M34.712 86.913v146.182M30.83 88.84v145.52M27.092 90.894v144.86M23.519 93.085v144.2M20.128 95.422v143.54M16.94 97.916v142.879M13.976 100.574v142.218M11.253 103.407v141.557M8.791 106.425V247.32M6.61 109.636v140.235M4.73 113.05v139.575M3.168 116.678v138.914M1.946 120.527V258.78M1.082 124.608v137.593M.597 128.93v136.932M.5 133.267v136.27M.662 137.03v135.61M1.028 140.698v134.95M1.593 144.27v134.29M2.35 147.75v133.629M3.297 151.138v132.968M4.427 154.437v132.307M5.734 157.648v131.646M7.216 160.774V291.76M8.866 163.816v130.325M10.679 166.776V296.44M12.65 169.656V298.66M14.774 172.458v128.343M17.048 175.184v127.682M19.464 177.835v127.02M22.018 180.413v126.361M24.704 182.921v125.7M27.52 185.36V310.4M30.458 187.733V312.11M33.514 190.04v123.717M36.683 192.283V315.34M39.96 194.465v122.396M43.34 196.587v121.737M46.818 198.652v121.076M50.389 200.662v120.414M54.047 202.617V322.37M57.788 204.52v119.093M61.608 206.373v118.432M65.5 208.177v117.77M69.458 209.935v117.11M73.48 211.648v116.45M77.56 213.318v115.789M81.692 214.947v115.128M85.871 216.538v114.468M90.094 218.09v113.808M94.354 219.608v113.146M98.646 221.092v112.486M102.965 222.545V334.37M107.307 223.967v111.165M111.666 225.362v110.503M116.038 226.731v109.843M120.417 228.076v109.182M124.798 229.398v108.52M129.176 230.7v107.86M133.547 231.983v107.2M137.904 233.249v106.539M142.244 234.5v105.878M146.562 235.738v105.218M150.85 236.966v104.557M155.107 238.183V342.08M159.324 239.394v103.235M163.5 240.598v102.575M167.627 241.799v101.915M171.7 242.998v101.253M175.716 244.197V344.79M179.669 245.398v99.932M183.553 246.603v99.27M187.364 247.813v98.61M191.097 249.03v97.95M194.747 250.257v97.29M198.308 251.495v96.628M201.776 252.746v95.968M205.146 254.012v95.307M208.412 255.295v94.646M211.57 256.596v93.985M214.613 257.917v93.325M217.54 259.261v92.664M220.342 260.629v92.004M223.015 262.023v91.343M225.555 263.445v90.682M227.956 264.897v90.021M230.214 266.38v89.361M232.323 267.897v88.7M234.278 269.449v88.04M236.075 271.038v87.378M237.707 272.667v86.718M239.171 274.336v86.057M240.461 276.048v85.396M241.572 277.804v84.736M242.5 279.608v84.075M243.237 281.46v83.413M243.782 283.36v82.753M244.127 285.314v82.093M244.269 287.322v81.432M244.15 290.17v80.77M243.683 293.058v80.11M242.877 295.802v79.45M241.748 298.408v78.79M240.309 300.881v78.128M238.573 303.225v77.468M236.557 305.445v76.807M234.272 307.548v76.146M231.732 309.537v75.485M228.953 311.418v74.825M225.947 313.195v74.165M222.73 314.875v73.503M219.315 316.462v72.843M215.716 317.96v72.183M211.946 319.376v71.521M208.022 320.714v70.86M203.954 321.979v70.2M199.759 323.176v69.539M195.45 324.31v68.878M191.04 325.387v68.218M186.544 326.411v67.557M181.977 327.388v66.896M177.35 328.322v66.235M172.68 329.218v65.575M167.98 330.083v64.915M163.264 330.92v64.253M158.546 331.735v63.592M153.839 332.532v62.932M149.158 333.317v62.272M144.518 334.096v61.61M139.93 334.872v60.95M135.411 335.651v60.289M130.975 336.438v59.628M126.633 337.238v58.968M122.4 338.057v58.307M118.293 338.9v57.645M114.322 339.77v56.984M110.504 340.673v56.325M106.852 341.614v55.664M103.379 342.6v55.003M100.1 343.633v54.343M97.028 344.72v53.682M94.179 345.866v53.021M91.564 347.076v52.36M89.2 348.355v51.7M87.1 349.707v51.039M85.277 351.138v50.378M83.746 352.653v49.717M82.52 354.257v49.057M81.614 355.954v48.396M81.042 357.751v47.736M80.819 359.652v47.075M81.052 363.548v46.415M81.865 367.3v45.752M83.198 370.647v45.093M84.984 373.643v44.432M87.161 376.34v43.772M89.663 378.793v43.11M92.427 381.053v42.45M95.388 383.173v41.789M98.48 385.206v41.128M101.642 387.206v40.468M104.808 389.224v39.807M107.913 391.314v39.146M110.894 393.529v38.485M113.686 395.92v37.825M116.225 398.543v37.164M118.445 401.448v36.503M120.285 404.69v35.843M121.679 408.32v35.182M122.563 412.392v34.52M122.871 416.959v33.86"/>
        </g>
        <g transform="translate(104 440.61)">
            <mask id="b" fill="#fff">
                <use xlink:href="#a"/>
            </mask>
            <path stroke="#93D5D2" d="M.51.34V44" mask="url(#b)"/>
        </g>
        <path stroke="#93D5D2" d="M104.652 440.585v43.765M105.01 439.625v43.87M105.485 438.114v43.975M105.976 436.097v44.08M106.384 433.62v44.185M106.608 430.727v44.291M106.548 427.464v44.394M106.106 423.873v44.501M105.18 420.002v44.606M103.671 415.895v44.71M101.479 411.596v44.816M98.503 407.15v44.922M94.644 402.604v45.026M89.802 398v45.13M83.877 393.384v45.237M77.207 388.728v45.341M70.93 384.187v45.447M65.087 379.78v45.552M59.671 375.506v45.657M54.673 371.36v45.762M50.083 367.342v45.867M45.894 363.45v45.971M42.097 359.678v46.078M38.682 356.028v46.183M35.64 352.494v46.288M32.966 349.077v46.393M30.648 345.772v46.498M28.677 342.578v46.603M27.046 339.492V386.2M25.746 336.512v46.813M24.768 333.635v46.918M24.102 330.86v47.023M23.741 328.183v47.13M23.676 325.603v47.234M23.898 323.117v47.34M24.398 320.723v47.444M25.169 318.419v47.549M26.2 316.2v47.656M27.483 314.068v47.759M29.01 312.017v47.865M30.773 310.046v47.97M32.76 308.153v48.075M34.966 306.335v48.18M37.38 304.59v48.285M39.994 302.915v48.391M42.799 301.309v48.496M45.787 299.768v48.601M48.95 298.291v48.706M52.276 296.875v48.81M55.76 295.517v48.917M59.393 294.216v49.021M63.163 292.97v49.125M67.064 291.774v49.232M71.087 290.628v49.337M75.223 289.529v49.442M79.462 288.474v49.547M83.798 287.461v49.652M88.22 286.488v49.757M92.72 285.553v49.862M97.291 284.653v49.968M101.922 283.786v50.073M106.605 282.949v50.178M111.331 282.14v50.283M116.092 281.357v50.388M120.879 280.597v50.493M125.683 279.858v50.599M130.495 279.138v50.704M135.308 278.434v50.809M140.11 277.744v50.914M144.897 277.065v51.02M149.656 276.396v51.124M154.38 275.733v51.229M159.062 275.075v51.334M163.69 274.419v51.439M168.257 273.762v51.544M172.754 273.103v51.65M177.173 272.44v51.754M181.504 271.768v51.86M185.74 271.087v51.965M189.871 270.393v52.07M193.889 269.686v52.175M197.784 268.962v52.28M201.549 268.218v52.386M205.174 267.453v52.49M208.651 266.664v52.596M211.972 265.849v52.7M215.126 265.005v52.806M218.107 264.13v52.912M220.903 263.223v53.016M223.51 262.279V315.4M225.914 261.298v53.226M228.11 260.275v53.332M230.089 259.21v53.438M231.84 258.1v53.543M233.357 256.944v53.647M234.63 255.736v53.752M235.65 254.477v53.857M236.408 253.163v53.963M236.897 251.792v54.068M237.107 250.362v54.173M237.028 248.87v54.278M236.654 247.315v54.383M235.976 245.693v54.488M234.982 244.002v54.593M233.668 242.24v54.7M232.023 240.405v54.804M230.037 238.494v54.91M227.703 236.506v55.013M225.012 234.436v55.119M221.955 232.283v55.224M218.524 230.046v55.329M214.71 227.72v55.435M210.503 225.305v55.54M206.133 222.92v55.645M203.176 221.276v55.75M200.29 219.596v55.855M197.472 217.884v55.96M194.726 216.14v56.065M192.049 214.365v56.17M189.441 212.56v56.275M186.905 210.724v56.38M184.439 208.86v56.486M182.042 206.968v56.59M179.715 205.049v56.696M177.458 203.103v56.8M175.272 201.132v56.906M173.154 199.135v57.012M171.107 197.115v57.117M169.13 195.072v57.222M167.223 193.008v57.327M165.385 190.92v57.433M163.617 188.813v57.538M161.919 186.686v57.642M160.291 184.54v57.747M158.732 182.376v57.853M157.243 180.194v57.958M155.824 177.996v58.063M154.475 175.782v58.168M153.194 173.553v58.273M151.984 171.31v58.378M150.844 169.054v58.483M149.773 166.785v58.588M148.772 164.505v58.694M147.839 162.214v58.799M146.977 159.913v58.904M146.184 157.603v59.009M145.46 155.284v59.114M144.806 152.958v59.22M144.22 150.625v59.324M143.705 148.286v59.43M143.259 145.943v59.535M142.883 143.594v59.64M142.575 141.242v59.745M142.337 138.888v59.85M142.168 136.532v59.955M142.069 134.175v60.06M142.038 131.818v60.166M142.077 129.462v60.27M142.186 127.107v60.375M142.362 124.754v60.48M142.61 122.404v60.586M142.925 120.058v60.691M143.309 117.717v60.796M143.763 115.382v60.9M144.285 113.052v61.006M144.877 110.73v61.112M145.538 108.416v61.217M146.268 106.111v61.322M147.067 103.816v61.427M147.934 101.53v61.533M148.871 99.257v61.637M149.876 96.995v61.743M150.95 94.747v61.848M152.094 92.511v61.953M153.306 90.291v62.058M154.587 88.086v62.163M155.937 85.897v62.268M157.355 83.725V146.1M158.842 81.571v62.478M160.398 79.436v62.583M162.023 77.32v62.688M163.716 75.224v62.794M165.478 73.15v62.899M167.308 71.097V134.1M169.207 69.067v63.109M171.175 67.06v63.215M173.211 65.079v63.319M175.315 63.122v63.425M177.49 61.191v63.53M179.73 59.287v63.635M182.041 57.41v63.74M184.42 55.563v63.845M186.867 53.744v63.95M189.383 51.956v64.056M191.967 50.198v64.16M194.62 48.472v64.266M197.34 46.779v64.37M200.129 45.12v64.475M202.986 43.493v64.581M205.911 41.902v64.688M208.905 40.348v64.792M211.967 38.83v64.896M215.098 37.349v65M218.296 35.906v65.107M221.563 34.503v65.212M224.898 33.14v65.316M228.3 31.816v65.422M231.772 30.535v65.527M235.31 29.296V94.93M238.917 28.101v65.737M242.593 26.95v65.842M246.335 25.842V91.79M250.147 24.781v66.053M254.025 23.767v66.158M257.973 22.8v66.263M261.987 21.88v66.369M266.07 21.01v66.473M270.22 20.19v66.578M274.44 19.42v66.683M278.726 18.7v66.79M283.08 18.034v66.894M287.502 17.42v67M291.992 16.86v67.105M296.549 16.356v67.209M301.175 15.906V83.22M305.867 15.513v67.419M310.628 15.176v67.525M315.456 14.898v67.63M320.352 14.679v67.735M325.315 14.519v67.84M330.346 14.42v67.944M335.444 14.38v68.052M340.61 14.404V82.56M345.845 14.49v68.262M351.146 14.64v68.367M356.514 14.855v68.471M361.95 15.135v68.576M367.454 15.481v68.681M373.024 15.894V84.68M378.663 16.375v68.892M384.368 16.924V85.92M390.142 17.542v69.102M395.981 18.231v69.207M401.889 18.99v69.313M407.864 19.822V89.24M413.906 20.726v69.522M420.016 21.704v69.627M426.192 22.756v69.733M432.436 23.883V93.72M438.746 25.086V95.03M445.124 26.366v70.048M451.57 27.723v70.153M458.082 29.159v70.258M464.661 30.674v70.363M471.308 32.268v70.47M478.02 33.944v70.574M484.8 35.701v70.68M491.649 37.541v70.784M498.563 39.465v70.888M505.544 41.471v70.995M512.592 43.564v71.1M519.707 45.741v71.205M527.17 48.091v71.31M535.054 50.534v71.415M542.518 52.764v71.52M549.572 54.785v71.625M556.234 56.603v71.73M562.513 58.224v71.835M568.424 59.652v71.94M573.98 60.895v72.045M579.194 61.955v72.151M584.08 62.84v72.256M588.65 63.555v72.36M592.918 64.105v72.466M596.896 64.496v72.57M600.599 64.732v72.677M604.038 64.82v72.782M607.228 64.766v72.887M610.18 64.573v72.992M612.91 64.249v73.097M615.43 63.797V137M617.752 63.225v73.308M619.89 62.537v73.413M621.859 61.738v73.518M623.668 60.835v73.623M625.334 59.832v73.728M626.868 58.735v73.833M628.285 57.55v73.938M629.596 56.281v74.043M630.816 54.936v74.148M631.957 53.517v74.253M633.032 52.032v74.36M634.056 50.486v74.463M635.04 48.884v74.57M635.998 47.232v74.674M636.943 45.535v74.779M637.89 43.798v74.884M638.849 42.027v74.99M639.835 40.228v75.094M640.861 38.405v75.2M641.94 36.566v75.305M643.085 34.713v75.41M644.31 32.854v75.515M645.627 30.994v75.62M647.05 29.137v75.726M648.592 27.291v75.83M650.266 25.46v75.935M652.084 23.648V99.69M654.062 21.863v76.146M656.21 20.109V96.36M658.543 18.392v76.356M661.074 16.717v76.461M663.817 15.09v76.567M666.783 13.517v76.672M669.987 12.002v76.777M673.442 10.55v76.883M677.16 9.17v76.986M681.154 7.863v77.092M685.438 6.637v77.197M690.026 5.497v77.302M694.93 4.448v77.407M700.164 3.496v77.513M705.741 2.646v77.618M711.673 1.904v77.723M717.974 1.275v77.828M724.657.765v77.933M731.735.379v78.038M739.223.122v78.143"/>
        <g transform="translate(746 -.39)">
            <mask id="d" fill="#fff">
                <use xlink:href="#c"/>
            </mask>
            <path stroke="#93D5D2" d="M1.13.39v78.249" mask="url(#d)"/>
        </g>
        <g stroke="#0092BA">
            <path d="M104.51 398.692v33.153M99.354 395.596v33.38M94.464 392.57v33.608M89.84 389.615v33.834M85.477 386.727v34.062M81.37 383.905v34.29M77.516 381.15v34.516M73.91 378.459v34.743M70.55 375.832v34.97M67.43 373.267v35.198M64.546 370.764v35.424M61.895 368.32v35.652M59.472 365.937v35.879M57.273 363.611v36.106M55.295 361.342v36.333M53.533 359.129v36.561M51.983 356.97v36.789M50.64 354.866v37.015M49.503 352.814v37.242M48.565 350.813v37.47M47.822 348.863v37.696M47.273 346.962v37.924M46.91 345.108v38.151M46.73 343.303v38.378M46.731 341.543v38.605M46.907 339.827v38.832M47.255 338.155v39.06M47.77 336.526v39.288M48.45 334.94v39.513M49.287 333.392v39.74M50.28 331.884v39.968M51.424 330.414v40.196M52.716 328.981v40.423M54.15 327.584v40.65M55.724 326.222V367.1M57.433 324.894v41.104M59.272 323.598v41.332M61.238 322.335v41.558M63.327 321.1v41.787M65.535 319.896v42.013M67.858 318.72v42.24M70.291 317.57v42.468M72.83 316.448v42.694M75.473 315.35v42.92M78.213 314.276v43.147M81.048 313.224v43.375M83.973 312.194v43.603M86.984 311.184v43.83M90.077 310.194v44.056M93.25 309.221v44.285M96.495 308.266v44.512M99.81 307.327v44.74M103.192 306.404v44.966M106.636 305.493v45.193M110.137 304.595v45.421M113.692 303.71v45.648M117.297 302.834v45.875M120.947 301.968v46.102M124.64 301.11v46.33M128.37 300.26v46.556M132.132 299.416V346.2M135.924 298.576v47.011M139.742 297.74v47.239M143.581 296.908v47.465M147.437 296.077v47.692M151.307 295.246v47.92M155.185 294.415v48.146M159.069 293.582v48.374M162.952 292.747v48.6M166.834 291.907v48.828M170.708 291.063v49.056M174.57 290.213v49.281M178.418 289.355v49.51M182.246 288.488v49.737M186.052 287.613v49.964M189.83 286.727v50.191M193.575 285.83v50.418M197.285 284.92v50.646M200.956 283.995v50.873M204.583 283.056v51.1M208.162 282.101v51.328M211.69 281.129v51.555M215.161 280.139v51.782M218.572 279.129v52.009M221.92 278.099v52.236M225.2 277.047v52.463M228.407 275.972v52.69M231.538 274.874v52.917M234.589 273.751v53.145M237.556 272.602v53.372M240.435 271.425v53.6M243.22 270.22v53.827M245.91 268.987v54.053M248.498 267.723v54.28M250.982 266.427v54.508M253.358 265.099v54.735M255.621 263.737v54.962M257.768 262.34v55.189M259.792 260.907v55.417M261.692 259.437v55.644M263.464 257.929v55.87M265.103 256.382v56.098M266.604 254.794v56.325M267.964 253.165v56.552M269.179 251.493v56.78M270.244 249.777v57.008M271.156 248.017v57.234M271.911 246.211v57.461M272.505 244.358v57.688M272.933 242.457v57.915M273.19 240.506v58.143M273.275 238.492v58.37M273.124 235.874v58.597M272.692 233.37v58.824M271.992 230.976v59.05M271.04 228.684v59.278M269.844 226.488v59.506M268.423 224.382v59.733M266.788 222.36v59.96M264.953 220.415v60.188M262.932 218.541v60.415M260.737 216.732v60.642M258.384 214.98v60.87M255.885 213.28v61.096M253.254 211.626v61.323M250.504 210.011v61.55M247.649 208.429v61.777M244.702 206.873v62.004M241.678 205.337v62.232M238.588 203.815v62.459M235.448 202.3v62.685M232.27 200.785V263.7M229.07 199.266v63.141M225.858 197.735v63.368M222.65 196.186v63.595M219.46 194.612v63.822M216.298 193.008v64.049M213.18 191.366v64.276M210.121 189.681v64.504M207.132 187.946v64.731M204.228 186.155v64.958M201.422 184.302v65.185M198.728 182.38v65.413M196.158 180.382v65.64M193.728 178.302v65.867M191.45 176.135v66.094M189.337 173.874v66.32M187.404 171.512v66.548M185.664 169.043v66.775M184.131 166.46v67.002M182.816 163.757v67.23M181.736 160.93v67.456M180.903 157.968v67.684M180.331 154.87v67.91M180.033 151.625v68.138M179.993 149.315v68.366M180.01 148.203v68.593M180.047 147.062v68.82M180.103 145.893v69.047M180.179 144.697v69.274M180.275 143.475v69.502M180.394 142.228v69.729M180.534 140.956v69.956M180.697 139.66v70.184M180.885 138.343v70.411M181.097 137.005v70.637M181.334 135.646v70.864M181.597 134.267v71.092M181.886 132.87v71.32M182.202 131.456v71.546M182.546 130.025v71.773M182.919 128.578v72M183.321 127.116v72.228M183.754 125.641v72.455M184.217 124.153v72.683M184.711 122.654v72.909M185.237 121.143v73.136M185.797 119.623v73.364M186.39 118.093v73.591M187.018 116.556v73.818M187.68 115.012v74.045M188.378 113.462v74.272M189.111 111.906v74.5M189.883 110.346v74.727M190.692 108.783v74.954M191.54 107.218V182.4M192.426 105.653v75.407M193.353 104.086v75.635M194.32 102.52v75.863M195.328 100.955v76.09M196.379 99.394v76.317M197.472 97.836v76.544M198.608 96.282v76.77M199.79 94.734v76.998M201.015 93.192v77.226M202.285 91.657v77.453M203.603 90.13v77.68M204.966 88.613v77.907M206.378 87.107v78.135M207.838 85.611v78.362M209.347 84.128v78.589M210.905 82.657v78.816M212.515 81.2v79.044M214.175 79.76v79.27M215.887 78.334v79.498M217.651 76.926v79.725M219.469 75.535v79.952M221.34 74.164v80.179M223.268 72.812v80.406M225.25 71.48v80.634M227.287 70.171v80.86M229.382 68.884v81.087M231.533 67.621v81.315M233.744 66.382v81.542M236.013 65.17v81.769M238.342 63.983v81.997M240.73 62.824v82.224M243.18 61.694v82.45M245.691 60.592v82.678M248.266 59.521v82.905M250.902 58.481v83.132M253.604 57.474v83.359M256.37 56.5v83.586M259.2 55.56v83.813M262.096 54.654v84.041M265.059 53.786v84.268M268.089 52.954v84.495M271.188 52.16v84.723M274.355 51.405v84.95M277.59 50.69v85.177M280.898 50.016v85.404M284.275 49.383v85.631M287.724 48.794v85.858M291.245 48.248v86.085M294.839 47.747v86.313M298.507 47.291v86.54M302.25 46.882v86.767M306.067 46.52v86.995M309.96 46.208v87.222M313.928 45.944v87.45M317.975 45.732v87.676M322.099 45.57v87.903M326.302 45.46v88.13M330.584 45.404v88.357M334.946 45.403v88.584M339.389 45.456v88.812M343.913 45.566v89.04M348.52 45.733v89.266M353.208 45.958v89.494M357.98 46.242v89.72M362.837 46.586v89.947M367.78 46.99v90.176M372.806 47.458v90.402M377.92 47.987v90.63M383.12 48.58v90.857M388.408 49.24v91.082M393.784 49.963v91.311M399.25 50.754v91.538M404.806 51.612v91.765M410.452 52.54v91.992M416.19 53.536v92.22M422.019 54.604v92.447M427.94 55.742v92.674M433.955 56.953v92.901M440.065 58.238v93.128M446.268 59.597v93.355M452.567 61.031v93.583M458.963 62.542v93.81M465.455 64.13v94.037M472.045 65.796v94.264M478.733 67.54v94.492M485.485 69.356v94.718M491.25 70.902v94.945M496.864 72.39v95.173M502.33 73.822v95.4M507.65 75.198v95.627M512.826 76.518v95.854M517.86 77.783v96.082M522.757 78.995v96.309M527.516 80.152v96.536M532.14 81.257v96.763M536.633 82.31v96.99M540.996 83.31v97.217M545.23 84.26v97.444M549.34 85.16v97.672M553.327 86.01v97.899M557.193 86.811v98.126M560.94 87.564v98.354M564.572 88.27v98.58M568.09 88.927v98.808M571.496 89.539v99.035M574.792 90.105v99.262M577.981 90.626v99.49M581.067 91.103v99.716M584.05 91.536v99.943M586.932 91.926v100.17M589.716 92.273v100.398M592.405 92.579v100.625M595.001 92.843v100.853M597.506 93.068v101.079M599.922 93.252V194.56M602.251 93.398v101.534M604.497 93.504v101.761M606.66 93.573v101.988M608.744 93.605V195.82M610.751 93.6v102.443M612.684 93.56v102.67M614.543 93.484v102.897M616.331 93.374v103.124M618.052 93.23V196.58M619.707 93.052V196.63M621.299 92.842v103.806M622.83 92.6v104.033M624.3 92.326v104.26M625.715 92.023V196.51M627.074 91.689v104.714M628.383 91.325v104.942M629.64 90.934v105.168M630.852 90.514V195.91M632.018 90.067V195.69M633.14 89.593v105.85M634.223 89.093V195.17M635.266 88.567v106.305M636.274 88.017V194.55M637.247 87.444v106.758M638.19 86.846v106.986M639.103 86.225v107.213M639.99 85.583v107.44M640.85 84.92v107.667M641.69 84.234V192.13M642.51 83.53v108.122M643.31 82.805v108.35M644.097 82.062V190.64M644.87 81.3v108.805M645.632 80.522v109.031M646.385 79.727v109.258M647.132 78.915V188.4M647.875 78.087V187.8M648.616 77.245v109.939M649.359 76.388v110.167M650.103 75.518v110.394M650.853 74.635v110.62M651.61 73.74v110.847M652.377 72.832v111.076M653.155 71.914v111.303M653.95 70.986v111.53M654.759 70.048v111.757M655.587 69.1v111.985M656.437 68.146v112.21M657.31 67.182V179.62M658.209 66.212v112.666M659.136 65.236v112.893M660.093 64.254v113.12M661.083 63.266v113.347M662.107 62.275v113.574M663.17 61.279v113.8M664.27 60.28v114.03M665.414 59.28v114.255M666.6 58.276V172.76M667.834 57.272v114.71M669.116 56.268v114.938M670.45 55.263v115.165M671.835 54.26v115.392M673.277 53.258v115.618M674.776 52.258v115.846M676.336 51.26v116.073M677.957 50.267v116.3M679.644 49.277v116.528M681.396 48.292v116.755M683.22 47.313v116.982M685.113 46.339v117.209M687.081 45.372V162.81M689.125 44.413v117.664M691.247 43.462v117.89M693.45 42.519v118.118M695.735 41.586V159.93M698.106 40.662v118.572M700.564 39.75v118.799M703.113 38.848v119.027M705.753 37.959v119.254M708.487 37.082v119.48M711.32 36.218v119.708M714.25 35.368v119.936M717.281 34.533v120.162M720.416 33.713v120.39M723.657 32.91v120.616M727.006 32.122v120.844M730.465 31.351v121.071M734.037 30.599v121.298M737.725 29.865V151.39M741.528 29.15v121.753M745.452 28.455v121.98M749.498 27.78v122.207M753.668 27.127v122.434M757.964 26.495v122.662M762.389 25.886v122.889M766.944 25.3v123.116M771.634 24.737V148.08M776.458 24.2v123.57M781.421 23.687v123.797M786.524 23.2v124.023M791.769 22.738V146.99M797.158 22.304v124.48M802.695 21.898v124.707M808.382 21.52v124.934M814.22 21.171v125.162M820.211 20.852V146.24M826.359 20.563v125.615M832.665 20.305v125.842M839.132 20.079v126.069M845.762 19.884V146.18M852.557 19.723v126.523M859.52 19.595v126.751M866.652 19.502V146.48M873.957 19.444v127.204M881.437 19.42v127.433M889.093 19.433v127.66M896.928 19.483V147.37M904.944 19.57v128.114M913.145 19.696v128.34M921.531 19.86V148.43"/>
        </g>
        <g stroke="#93D5D2">
            <path d="M671.651 201.572V88.966M679.374 198.138V85.846M686.978 194.852V82.875M694.463 191.713V80.05M701.834 188.717V77.367M709.09 185.863V74.828M716.236 183.148V72.428M723.273 180.57V70.163M730.202 178.126V68.036M737.025 175.815V66.038M743.745 173.634V64.17M750.363 171.581V62.432M756.882 169.654V60.82M763.303 167.85V59.33M769.628 166.166V57.96M775.86 164.602V56.71M782 163.154V55.577M788.049 161.82V54.557M794.012 160.599V53.649M799.888 159.486V52.853M805.68 158.482V52.162M811.392 157.583V51.577M817.023 156.786V51.095M822.576 156.09V50.713M828.053 155.492V50.43M833.456 154.99V50.243M838.787 154.583V50.15M844.049 154.267V50.147M849.241 154.04V50.234M854.368 153.9V50.409M859.432 153.845V50.668M864.432 153.872V51.009M869.373 153.98V51.43M874.255 154.164V51.93M879.081 154.425V52.505M883.853 154.76V53.153M888.572 155.165V53.874M893.242 155.639V54.662M897.862 156.18V55.517M902.438 156.785V56.435M906.967 157.452V57.418M911.455 158.178v-99.72M915.902 158.963V59.558M920.31 159.802V60.71M924.684 160.694V61.917M929.02 161.637V63.174M933.326 162.629V64.48M937.6 163.666V65.832M941.847 164.747v-97.52M946.065 165.87V68.664M950.26 167.032v-96.89M954.432 168.232V71.655M958.583 169.466V73.203M962.715 170.732V74.784M966.831 172.029V76.395M970.932 173.353v-95.32M975.02 174.703V79.698M979.096 176.077v-94.69M983.164 177.472V83.096M987.225 178.885V84.823M991.281 180.316V86.567M995.334 181.76V88.326M999.386 183.217v-93.12M1003.44 184.684V91.879M1007.495 186.157v-92.49M1011.556 187.637V95.46M1015.623 189.119V97.257M1019.7 190.602V99.054M1023.787 192.083V100.85M1027.887 193.56v-90.918M1032.002 195.032v-90.605M1036.133 196.495v-90.291M1040.283 197.947V107.97M1044.454 199.387v-89.663M1048.648 200.811v-89.348M1052.865 202.218v-89.034M1057.11 203.605v-88.72M1061.383 204.97v-88.405M1065.687 206.31v-88.09M1070.2 207.666V119.89M1074.968 208.847v-87.462M1079.634 209.691v-87.148M1084.19 210.212v-86.834M1088.628 210.423v-86.52M1092.939 210.337v-86.205M1097.113 209.967v-85.891M1101.144 209.326v-85.577M1105.022 208.427v-85.262M1108.737 207.283v-84.948M1112.283 205.908v-84.634M1115.65 204.315v-84.32M1118.83 202.516V118.51M1121.815 200.525v-83.69M1124.594 198.355v-83.376M1127.16 196.019v-83.062M1129.505 193.53v-82.748M1131.62 190.901v-82.434M1133.495 188.146v-82.12M1135.124 185.277v-81.805M1136.496 182.308v-81.49M1137.604 179.252V98.075M1138.439 176.122V95.26M1138.991 172.93V92.382M1139.254 169.69V89.459M1139.217 166.417v-79.92M1138.873 163.12V83.517M1138.213 159.817V80.526M1137.228 156.517V77.54M1135.91 153.235V74.573M1134.25 149.983V71.635M1132.238 146.776V68.742M1129.868 143.626V65.907M1127.131 140.546V63.141M1124.017 137.549v-77.09M1120.519 134.649V57.873M1116.626 131.858V55.396M1112.332 129.19V53.043M1107.627 126.657V50.824M1102.503 124.274v-75.52M1096.951 122.052V46.847M1090.963 120.005v-74.89M1084.53 118.147V43.57M1077.643 116.49V42.228M1070.293 115.047V41.1M1062.473 113.832V40.2M1054.174 112.858V39.539M1045.387 112.137V39.133M1036.103 111.684v-72.69M1026.314 111.51V39.134M1016.01 111.63V39.568M1005.187 112.056V40.308M993.83 112.801V41.367M981.935 113.879V42.76M969.491 115.302V44.497"/>
        </g>
    </g>
</svg>
