<svg xmlns="http://www.w3.org/2000/svg" xmlns:xlink="http://www.w3.org/1999/xlink" width="111" height="59" viewBox="0 0 111 59">
    <defs>
        <path id="a" d="M0 0h40v32H0z"/>
    </defs>
    <g fill="none" fill-rule="evenodd">
        <path fill="#FFF" d="M24 3h1v56h-1z"/>
        <path fill="#D6712B" d="M55 19.85c-11.941 7.45-17.706-7.452-28 0V3.29c14-10.762 14.412 9.107 28 0V19.85z"/>
        <path fill="#FFF" d="M9.632 27.649c-.451-.755-1.846-.755-3.112 0-1.266.757-1.92 1.979-1.468 2.734.45.756 1.837.76 3.102.005 1.267-.756 1.928-1.984 1.478-2.74M12.16 59.002H8.933V48.558H8.28v10.444H5.05L3.464 43.558H13.75z"/>
        <path fill="#D6712B" d="M13.75 45.58v-2.883c5.36-1.726 3.236-5.485 1.9-7.788-.702-1.21-2.022-1.928-3.421-1.928H4.984c-1.4 0-2.72.718-3.422 1.928-1.336 2.303-3.46 6.062 1.9 7.788v2.884H13.75z"/>
        <path fill="#FFF" d="M6.815 27.322c-1.375-1.542 2.46-1.647 3.41-.767 1.548 1.433 1.792 2.334 2.077 4.26.225 1.513-1.6 1.43-2.708 1.33-2.987-.276-6.796-2.493-6.049-2.676 1.853-.452 2.77-1.398 3.27-2.148"/>
        <g transform="translate(71 27)">
            <mask id="b" fill="#fff">
                <use xlink:href="#a"/>
            </mask>
            <path fill="#FFF" d="M36.227 11.033c-1.393-1.291-3.319-1.68-4.546-1.801L16.165 7.717l-6.571-4.56c.155-.252.269-.534.269-.856 0-.903-.714-1.633-1.593-1.633-.545 0-1.001.296-1.289.724L-1-1S-.216 2.057.262 3.936C.74 5.814 3.756 8.44 3.756 8.44l1.826 6.725.925 14.221h-.042c-1.409 0-2.55 1.171-2.55 2.614H10.5s.828-3.804 1.47-8.932c.818.394 1.705.726 2.64 1.005l.692 5.32c-1.379.034-2.488 1.185-2.488 2.607h6.651s.581-1.71 1.01-6.805c2.227.242 4.375.312 6.116.312l1.268 3.88h-.519c-1.407 0-2.55 1.17-2.55 2.613H37.19s2.67-10.535 1.026-17.018c.784.144 1.43.007 1.679-.435.412-.73-.41-2.006-1.835-2.85-.634-.375-1.275-.592-1.832-.664z" mask="url(#b)"/>
        </g>
    </g>
</svg>
