<svg xmlns="http://www.w3.org/2000/svg" width="73" height="15" viewBox="0 0 73 15">
    <path fill="#FFF" fill-rule="nonzero" d="M2.297 2.06v2.528h2.829c.505 0 .915-.095 1.23-.284.315-.19.473-.525.473-1.007 0-.534-.208-.886-.625-1.057-.36-.12-.818-.18-1.375-.18H2.297zm0 4.425v3.056h2.829c.505 0 .898-.067 1.18-.202.51-.249.765-.726.765-1.43 0-.597-.247-1.006-.742-1.23-.276-.124-.664-.189-1.164-.194H2.297zM5.594.07c1.412.02 2.412.428 3 1.22.355.488.532 1.071.532 1.75 0 .7-.177 1.263-.531 1.688-.198.238-.49.456-.875.653.588.213 1.032.55 1.332 1.01.3.462.449 1.022.449 1.68 0 .68-.172 1.289-.516 1.828a3.173 3.173 0 0 1-.82.902 3.21 3.21 0 0 1-1.309.575 8.105 8.105 0 0 1-1.637.156H0V.07h5.594zm8.017 11.462h-2.227V.07h2.227v11.462zm5.993-1.563c.65 0 1.15-.23 1.5-.692.349-.462.523-1.117.523-1.968 0-.85-.174-1.504-.523-1.963-.35-.459-.85-.688-1.5-.688-.651 0-1.153.23-1.504.688-.352.459-.528 1.113-.528 1.963 0 .85.176 1.506.528 1.968.351.461.853.692 1.504.692zm4.36-2.66c0 1.245-.36 2.309-1.079 3.193-.719.883-1.81 1.325-3.274 1.325-1.463 0-2.554-.442-3.273-1.325-.72-.884-1.079-1.948-1.079-3.193 0-1.223.36-2.283 1.079-3.18.719-.897 1.81-1.345 3.273-1.345 1.464 0 2.555.448 3.274 1.345.72.897 1.079 1.957 1.079 3.18zm5.25 2.403c.521 0 .961-.195 1.32-.587.36-.391.54-1.015.54-1.87 0-.803-.171-1.415-.512-1.835-.341-.42-.798-.63-1.371-.63-.782 0-1.32.366-1.618 1.096-.156.39-.234.869-.234 1.439 0 .493.083.93.25 1.314.302.716.844 1.073 1.625 1.073zm-.555-6.858c.427 0 .8.065 1.118.194.541.223.979.633 1.312 1.229V3.056h2.165v8.04c0 1.094-.185 1.919-.555 2.473-.636.954-1.855 1.431-3.657 1.431-1.088 0-1.977-.213-2.664-.638-.688-.425-1.068-1.06-1.14-1.905h2.421c.063.26.164.446.305.56.24.202.643.303 1.211.303.802 0 1.339-.267 1.61-.8.177-.343.265-.918.265-1.727v-.544c-.213.363-.443.635-.687.816-.443.337-1.019.506-1.727.506-1.094 0-1.968-.383-2.621-1.147-.654-.765-.981-1.8-.981-3.107 0-1.26.315-2.318.945-3.176.63-.858 1.524-1.287 2.68-1.287zm12.54 4.44c0-.653-.149-1.231-.449-1.734-.3-.503-.785-.754-1.457-.754-.807 0-1.362.38-1.664 1.143-.156.404-.234.917-.234 1.54 0 .984.263 1.676.789 2.076.312.233.682.35 1.11.35.62 0 1.092-.239 1.417-.716.326-.477.489-1.112.489-1.905zm-1.265-4.425c.995 0 1.837.366 2.528 1.097.69.73 1.035 1.804 1.035 3.22 0 1.492-.337 2.63-1.012 3.413-.675.783-1.543 1.174-2.606 1.174-.677 0-1.24-.169-1.687-.506-.245-.186-.485-.458-.72-.816v4.417H35.27V3.056h2.133v1.252c.24-.368.495-.658.766-.871.495-.378 1.084-.568 1.766-.568zm8.993 7.1c.651 0 1.151-.23 1.5-.692.35-.462.524-1.117.524-1.968 0-.85-.175-1.504-.524-1.963-.349-.459-.849-.688-1.5-.688s-1.152.23-1.504.688c-.352.459-.527 1.113-.527 1.963 0 .85.175 1.506.527 1.968.352.461.853.692 1.504.692zm4.36-2.66c0 1.245-.36 2.309-1.078 3.193-.72.883-1.81 1.325-3.274 1.325s-2.555-.442-3.274-1.325c-.719-.884-1.078-1.948-1.078-3.193 0-1.223.36-2.283 1.078-3.18.719-.897 1.81-1.345 3.274-1.345s2.555.448 3.274 1.345c.719.897 1.078 1.957 1.078 3.18zm3.883-5.264h-2.258V0h2.258v2.045zm-2.258 1.011h2.258v8.476h-2.258V3.056zm9.134-.202c.88 0 1.6.23 2.16.688.56.459.84 1.22.84 2.282v5.708h-2.281V6.376c0-.445-.06-.788-.18-1.026-.219-.436-.635-.653-1.25-.653-.755 0-1.274.319-1.555.956-.146.337-.219.767-.219 1.291v4.588h-2.219v-8.46h2.149v1.236c.286-.436.557-.75.813-.941.458-.342 1.039-.513 1.742-.513zm4.18 1.858V3.134h1.188V.77h2.203v2.364H73v1.578h-1.383v4.48c0 .347.044.563.133.649.088.085.36.128.812.128A6.279 6.279 0 0 0 73 9.953v1.657l-1.055.039c-1.052.036-1.77-.146-2.156-.545-.25-.254-.375-.645-.375-1.174V4.712h-1.188z"/>
</svg>
