<svg xmlns="http://www.w3.org/2000/svg" width="25px" height="25px" viewBox="0 0 25 25">
    <defs>
        <radialGradient id="a" cx="99.897%" cy="4.005%" r="124.625%" fx="99.897%" fy="4.005%">
            <stop offset="73.29%"/>
            <stop offset="93.17%" stop-color="gray"/>
        </radialGradient>
        <linearGradient id="b" x1="-.045%" x2="100.045%" y1="50.001%" y2="50.001%">
            <stop offset="0%" stop-color="#E8DEBB"/>
            <stop offset="26.26%" stop-color="#E3D9B8"/>
            <stop offset="59.11%" stop-color="#D3CCB1"/>
            <stop offset="95.34%" stop-color="#BAB5A5"/>
            <stop offset="100%" stop-color="#B6B2A3"/>
        </linearGradient>
        <linearGradient id="c" x1=".029%" x2="100.095%" y1="50.05%" y2="50.05%">
            <stop offset="0%" stop-color="#E8DEBB"/>
            <stop offset="26.26%" stop-color="#E3D9B8"/>
            <stop offset="59.11%" stop-color="#D3CCB1"/>
            <stop offset="95.34%" stop-color="#BAB5A5"/>
            <stop offset="100%" stop-color="#B6B2A3"/>
        </linearGradient>
    </defs>
    <g fill="none" fill-rule="nonzero">
        <path fill="#808080" d="M2.184 13.65l-.402.747-.431.89-.575 1.38-.23.632-.172.718-.173.632-.115.776v1.696l.517 1.695 1.351 1.408.718.316 1.121.259.661.029h.46l.632-.058 1.034-.172 1.006-.259 1.437-.517.977-.46 1.35-.69 1.093-.66-.317-.202L9.8 20.086l-2.27-1.983-.69-.69-.488-.488-.604-.69-.575-.66L3.19 12.96l-.316-.489z"/>
        <path fill="#000" d="M19.08.201l-1.034.201-2.471.862-2.242 1.15-.89.517 1.235.833 3.362 2.759 1.408 1.437 2.27 2.672.604.805.69 1.034.43-.718.518-.92.517-.977.517-1.235.719-2.443.143-1.523-.028-.747-.546-1.81-.546-.747-1.61-.977-1.235-.23z"/>
        <path fill="url(#b)" d="M4.569.115L3.534.2 2.3.546 1.81.805.69 1.954.2 3.161.057 5.029l.144 1.178.862 2.816 1.552 3.017.259.431.2-.287 1.552-2.155L6.58 7.787l.69-.69.575-.545.632-.575.805-.718 3.16-2.328-1.465-.833-1.264-.661-1.006-.431L7.672.66 5.661.2z"/>
        <path fill="url(#c)" d="M20.805 14.224l-3.133 3.592-1.379 1.293-1.61 1.322-1.149.833-1.091.747 1.063.633.92.488.976.46 1.495.603.718.374 2.011.259 2.615-.288 1.38-.833.776-1.092.373-1.207.029-1.897-.201-1.321-.489-1.58-.488-1.15-.489-1.063-.69-1.236-.43-.69z"/>
        <path fill="#D6742A" d="M8.937 12.471l3.506 3.506 3.534-3.506-3.534-3.505z"/>
        <path fill="#B04228" d="M8.937 12.471L5.46 15.92l.287.316.604.69.488.488.029.029.66.66 1.495 1.322 3.42-3.448z"/>
        <path fill="#EA893F" d="M18.448 7.96l-.89-.92-.518-.517h-.029l-1.149-.948-3.42 3.39 3.535 3.506 3.42-3.42z"/>
        <path fill="#B94F31" d="M15.977 12.471l-3.534 3.506 3.448 3.448.402-.316 1.293-1.235.086-.058.03-.029 1.666-1.925z"/>
        <path fill="#A13F27" d="M9.023 19.425l.776.661 2.327 1.724.317.201 1.091-.747 1.15-.833 1.207-1.006-3.448-3.448z"/>
        <path fill="#C15C2E" d="M19.368 15.862l1.437-1.638 1.206-1.753-.69-1.034-.603-.805-1.321-1.58-3.42 3.42z"/>
        <path fill="#F58220" d="M8.994 5.517l-.517.46-.603.546-.03.029-.574.546-.69.69-.143.143-.948 1.12 3.448 3.42 3.506-3.505z"/>
        <path fill="#CB6E27" d="M5.489 9.052l-.863.977-1.551 2.155-.201.287.316.489 1.982 2.615.288.345 3.477-3.449z"/>
        <path fill="#EEAE74" d="M15.862 5.575l-2.184-1.81-1.235-.834-3.161 2.328-.288.258 3.449 3.449z"/>
    </g>
</svg>