<svg xmlns="http://www.w3.org/2000/svg" width="23" height="24" viewBox="0 0 23 24">
    <g fill="none" fill-rule="nonzero">
        <path fill="#FFF" d="M11.5.571c-1.517 0-6.135 0-8.688 2.317C1.292 4.393.575 6.568.575 9.714v1.715c0 3.146.716 5.32 2.255 6.843.765.694 1.81 1.25 3.086 1.633l.409.122v3.044c0 .358.104.358.139.358.07 0 .184-.023.399-.212.051-.051.43-.46 2.277-2.514l.186-.208.279.018c.618.038 1.256.058 1.895.058 1.517 0 6.135 0 8.688-2.317 1.52-1.505 2.237-3.68 2.237-6.825V9.714c0-3.146-.716-5.32-2.255-6.843C17.635.57 13.017.57 11.5.57z"/>
        <path fill="#666" d="M16.934 14.202c-.639-.535-.933-.696-1.816-1.223-.367-.218-.927-.408-1.22-.408-.201 0-.442.153-.59.3-.376.374-.5.843-1.161.843-.647 0-1.777-.654-2.588-1.5-.85-.805-1.509-1.928-1.509-2.571 0-.657.463-.789.84-1.164.148-.146.31-.385.31-.584 0-.292-.19-.84-.41-1.205-.53-.877-.692-1.17-1.231-1.805-.182-.215-.39-.313-.607-.314-.368 0-.85.181-1.177.423-.49.364-1.004.86-1.142 1.476a1.46 1.46 0 0 0-.032.253c-.027.643.227 1.296.502 1.848.645 1.303 1.5 2.563 2.43 3.689.297.36.62.695.956 1.018.325.333.662.655 1.024.95 1.133.925 2.402 1.774 3.712 2.415.55.27 1.2.518 1.84.5.091-.003.183-.013.274-.033.621-.136 1.12-.647 1.486-1.135.243-.325.426-.804.425-1.17 0-.215-.1-.422-.316-.603zM17.25 11.429a.573.573 0 0 1-.575-.572v-.571c0-2.836-2.322-5.143-5.175-5.143a.573.573 0 0 1-.575-.572c0-.315.258-.571.575-.571 3.487 0 6.325 2.82 6.325 6.286v.571a.573.573 0 0 1-.575.572zM13.718 10.286a.575.575 0 0 1-.556-.428 1.713 1.713 0 0 0-1.23-1.224.572.572 0 1 1 .287-1.107 2.863 2.863 0 0 1 2.056 2.043.571.571 0 0 1-.557.716z"/>
        <path fill="#666" d="M15.525 10.857a.573.573 0 0 1-.575-.571 3.434 3.434 0 0 0-3.265-3.42.573.573 0 0 1-.544-.601.576.576 0 0 1 .605-.541c2.442.128 4.354 2.132 4.354 4.562a.573.573 0 0 1-.575.571z"/>
        <path fill="#666" d="M11.5 0C8.912 0 4.88.237 2.424 2.466.688 4.185 0 6.595 0 9.714c0 .259-.001.547.001.857-.002.31-.001.599-.001.857 0 3.12.688 5.53 2.424 7.248.935.849 2.101 1.407 3.326 1.775v2.62c0 .912.603.929.714.929h.005c.284-.001.53-.14.775-.357.093-.081 1.162-1.265 2.325-2.56.692.044 1.35.06 1.93.06 2.588 0 6.62-.237 9.076-2.467C22.311 16.958 23 14.547 23 11.428c0-.258.002-.546 0-.857.002-.311 0-.598 0-.857 0-3.12-.687-5.53-2.424-7.248C18.12.236 14.088 0 11.5 0zm9.775 11.23v.198c0 2.803-.6 4.714-1.89 6.007-2.232 1.994-6.484 1.994-7.886 1.994-.426 0-1.119-.001-1.936-.058-.227.254-2.663 2.962-2.663 2.962v-3.35c-1.21-.289-2.405-.762-3.286-1.548-1.288-1.293-1.889-3.204-1.889-6.007v-.199l.001-.67a61.676 61.676 0 0 1-.001-.646v-.199c0-2.803.6-4.713 1.89-6.007 2.231-1.993 6.484-1.993 7.885-1.993 1.401 0 5.653 0 7.885 1.993 1.29 1.294 1.89 3.204 1.89 6.007v.2c0 .2 0 .416-.002.67.002.229.002.445.002.645z"/>
    </g>
</svg>
