<svg xmlns="http://www.w3.org/2000/svg" width="28" height="24" viewBox="0 0 28 24">
    <path fill="#666" fill-rule="evenodd" d="M21.448 23.735c.376.274.86.342 1.291.174.432-.17.75-.548.845-1.008 1.014-4.9 3.473-17.305 4.396-21.763a.953.953 0 0 0-.303-.91.914.914 0 0 0-.93-.168C21.855 1.923 6.79 7.737.633 10.08A.992.992 0 0 0 0 11.04a.99.99 0 0 0 .692.917c2.762.85 6.386 2.031 6.386 2.031s1.694 5.262 2.578 7.938c.11.336.366.6.703.692a.991.991 0 0 0 .946-.249l3.612-3.507s4.167 3.142 6.531 4.874zM8.603 13.323l1.96 6.645.434-4.208L22.88 4.737a.34.34 0 0 0 .039-.453.325.325 0 0 0-.439-.077L8.603 13.323z"/>
</svg>
