<svg xmlns="http://www.w3.org/2000/svg" xmlns:xlink="http://www.w3.org/1999/xlink" width="17" height="17" viewBox="0 0 17 17">
    <defs>
        <path id="a" d="M0 .005h16.995v16.662H0z"/>
    </defs>
    <g fill="none" fill-rule="evenodd" opacity=".704">
        <g>
            <mask id="b" fill="#fff">
                <use xlink:href="#a"/>
            </mask>
            <path fill="#666" d="M8.497.005c-2.307 0-2.597.01-3.503.05-.905.04-1.522.182-2.063.388a4.174 4.174 0 0 0-1.505.96 4.076 4.076 0 0 0-.98 1.476c-.21.53-.354 1.135-.395 2.022C.01 5.79 0 6.073 0 8.336c0 2.262.01 2.546.051 3.435.041.886.185 1.492.395 2.022.217.548.508 1.012.98 1.475.473.464.946.748 1.505.961.54.206 1.158.347 2.063.388.906.04 1.196.05 3.503.05 2.308 0 2.597-.01 3.504-.05.904-.04 1.522-.182 2.062-.388a4.175 4.175 0 0 0 1.505-.96c.473-.464.763-.928.98-1.476.21-.53.354-1.136.396-2.022.04-.889.05-1.173.05-3.435 0-2.263-.01-2.546-.05-3.435-.042-.887-.185-1.492-.395-2.022a4.076 4.076 0 0 0-.98-1.476 4.174 4.174 0 0 0-1.506-.96c-.54-.206-1.158-.347-2.062-.388-.907-.04-1.196-.05-3.504-.05m0 1.501c2.27 0 2.538.009 3.434.049.828.037 1.278.173 1.578.287.396.15.68.331.977.623.297.291.481.569.635.958.117.293.255.734.293 1.547.04.878.05 1.142.05 3.366s-.01 2.488-.05 3.366c-.038.813-.176 1.254-.293 1.547a2.577 2.577 0 0 1-.635.958c-.297.292-.58.472-.977.623-.3.114-.75.25-1.578.287-.896.04-1.165.049-3.434.049s-2.537-.009-3.433-.049c-.829-.037-1.279-.173-1.578-.287a2.638 2.638 0 0 1-.977-.623 2.577 2.577 0 0 1-.636-.958c-.116-.293-.255-.734-.292-1.547-.041-.878-.05-1.142-.05-3.366s.009-2.488.05-3.366c.037-.813.176-1.254.292-1.547.154-.39.338-.667.636-.958.297-.292.58-.472.977-.623.3-.114.75-.25 1.578-.287.896-.04 1.164-.049 3.433-.049" mask="url(#b)"/>
        </g>
        <path fill="#666" d="M8.5 11.08c-1.547 0-2.801-1.23-2.801-2.747 0-1.516 1.254-2.746 2.801-2.746 1.547 0 2.801 1.23 2.801 2.746 0 1.517-1.254 2.747-2.801 2.747m0-6.977c-2.383 0-4.315 1.894-4.315 4.23 0 2.337 1.932 4.231 4.315 4.231 2.383 0 4.315-1.894 4.315-4.23 0-2.337-1.932-4.231-4.315-4.231M14.123 3.846c0 .567-.468 1.026-1.046 1.026-.578 0-1.046-.46-1.046-1.026 0-.566.468-1.025 1.046-1.025.578 0 1.046.459 1.046 1.025"/>
    </g>
</svg>
