<svg xmlns="http://www.w3.org/2000/svg" xmlns:xlink="http://www.w3.org/1999/xlink" width="18" height="19" viewBox="0 0 18 19">
    <defs>
        <path id="a" d="M0 .006h17.994v18.072H0z"/>
    </defs>
    <g fill="none" fill-rule="evenodd" opacity=".704">
        <g>
            <mask id="b" fill="#fff">
                <use xlink:href="#a"/>
            </mask>
            <path fill="#666" d="M8.997.006c-2.443 0-2.75.01-3.71.054-.957.044-1.611.197-2.183.42-.592.231-1.094.54-1.594 1.042a4.432 4.432 0 0 0-1.038 1.6C.25 3.699.098 4.355.054 5.317.01 6.28 0 6.588 0 9.042c0 2.454.01 2.762.054 3.726.044.961.196 1.618.418 2.193.23.594.538 1.098 1.038 1.6.5.503 1.002.812 1.594 1.043.572.223 1.226.376 2.184.42.96.044 1.266.054 3.71.054 2.443 0 2.749-.01 3.709-.054.957-.044 1.611-.197 2.184-.42a4.408 4.408 0 0 0 1.593-1.042 4.43 4.43 0 0 0 1.038-1.6c.222-.576.375-1.233.418-2.194.044-.964.054-1.272.054-3.726 0-2.454-.01-2.762-.054-3.726-.043-.962-.196-1.618-.418-2.193a4.432 4.432 0 0 0-1.038-1.6A4.408 4.408 0 0 0 14.891.48c-.573-.223-1.227-.376-2.184-.42-.96-.044-1.266-.054-3.71-.054m0 1.628c2.403 0 2.687.009 3.636.053.877.04 1.353.187 1.67.31.42.165.72.36 1.035.677.315.316.51.617.673 1.039.123.318.27.797.31 1.678.043.952.052 1.238.052 3.651s-.009 2.699-.052 3.651c-.04.881-.187 1.36-.31 1.678a2.802 2.802 0 0 1-.673 1.04 2.786 2.786 0 0 1-1.035.675c-.317.124-.793.271-1.67.311-.949.044-1.233.053-3.636.053-2.402 0-2.687-.01-3.635-.053-.878-.04-1.354-.187-1.671-.31-.42-.165-.72-.36-1.035-.677a2.801 2.801 0 0 1-.673-1.039c-.123-.318-.27-.797-.31-1.678-.043-.952-.052-1.238-.052-3.651s.01-2.699.053-3.651c.04-.881.186-1.36.31-1.678.163-.422.358-.723.672-1.04a2.786 2.786 0 0 1 1.035-.675c.317-.124.793-.271 1.67-.311.95-.044 1.234-.053 3.636-.053" mask="url(#b)"/>
        </g>
        <path fill="#666" d="M9 12.018a2.973 2.973 0 0 1-2.966-2.979A2.972 2.972 0 0 1 9 6.06a2.972 2.972 0 0 1 2.966 2.98A2.973 2.973 0 0 1 9 12.017M9 4.45c-2.523 0-4.57 2.055-4.57 4.59 0 2.534 2.047 4.588 4.57 4.588 2.524 0 4.57-2.054 4.57-4.589 0-2.534-2.046-4.589-4.57-4.589M14.954 4.172a1.11 1.11 0 0 1-1.108 1.112 1.11 1.11 0 0 1-1.108-1.112 1.11 1.11 0 0 1 1.108-1.113 1.11 1.11 0 0 1 1.108 1.113"/>
    </g>
</svg>
