<svg xmlns="http://www.w3.org/2000/svg" xmlns:xlink="http://www.w3.org/1999/xlink" width="14" height="18" viewBox="0 0 14 18">
    <defs>
        <path id="a" d="M0 0h13.732v17.5H0z"/>
    </defs>
    <g fill="none" fill-rule="evenodd">
        <mask id="b" fill="#fff">
            <use xlink:href="#a"/>
        </mask>
        <path fill="#D6712B" d="M10.56 15.131H7.967v-.583h3.483c.04-.032.081-.062.117-.099.24-.239.39-.571.39-.94 0-.421-.2-.794-.509-1.038H8.853v-.584h3.482c.04-.032.082-.062.118-.098a1.32 1.32 0 0 0-.093-1.959H9.92v-.583h3.302c.341-.27.55-.699.503-1.177-.068-.693-.704-1.194-1.4-1.194H8.226s1.361-1.268 1.97-3.148C11.561-.52 8.581-.546 8.071.753 7.076 3.29 4.03 4.667 4.03 4.667L.417 7.693A1.167 1.167 0 0 0 0 8.587v5.967c0 .408.214.787.564.998l2.946 1.78c.15.11.332.168.519.168h5.71c.369 0 .701-.146.94-.39.24-.24.391-.572.391-.94 0-.422-.201-.795-.51-1.039" mask="url(#b)"/>
    </g>
</svg>
