<svg xmlns="http://www.w3.org/2000/svg" xmlns:xlink="http://www.w3.org/1999/xlink" width="14" height="18" viewBox="0 0 14 18">
    <defs>
        <path id="a" d="M0 0h13.732v18H0z"/>
    </defs>
    <g fill="none" fill-rule="evenodd">
        <mask id="b" fill="#fff">
            <use xlink:href="#a"/>
        </mask>
        <path fill="#666" d="M10.56 15.563H7.967v-.6h3.483c.04-.033.081-.063.117-.1a1.385 1.385 0 0 0-.119-2.036H8.853v-.6h3.482c.04-.033.082-.064.118-.1a1.387 1.387 0 0 0-.093-2.016H9.92v-.6h3.302a1.38 1.38 0 0 0 .503-1.21c-.068-.713-.704-1.228-1.4-1.228H8.226s1.361-1.305 1.97-3.238C11.561-.535 8.581-.562 8.071.775 7.076 3.383 4.03 4.8 4.03 4.8L.417 7.913a1.215 1.215 0 0 0-.417.92v6.136c0 .42.214.81.564 1.028l2.946 1.83c.15.114.332.173.519.173h5.71c.369 0 .701-.15.94-.401a1.386 1.386 0 0 0-.118-2.036" mask="url(#b)"/>
    </g>
</svg>
