<svg xmlns="http://www.w3.org/2000/svg" xmlns:xlink="http://www.w3.org/1999/xlink" width="24" height="24" viewBox="0 0 24 24">
    <defs>
        <path id="ok-a" d="M10 8.004a2 2 0 1 0 4-.008 2 2 0 0 0-4 .008m-2 0A4.005 4.005 0 0 1 12 4c2.202 0 4 1.79 4 4.004A4.004 4.004 0 0 1 12 12c-2.203 0-4-1.79-4-3.996m7.74 6.394c-.892.548-2.116.764-2.923.845l.677.648 2.478 2.4c.37.37.37.963 0 1.322l-.112.117c-.38.36-.994.36-1.373 0-.622-.61-1.53-1.493-2.478-2.41l-2.477 2.41a.997.997 0 0 1-1.364 0l-.11-.117a.908.908 0 0 1 0-1.322c.63-.61 1.53-1.493 2.476-2.4l.667-.648c-.797-.08-2.04-.288-2.94-.845-1.058-.665-1.522-1.052-1.114-1.862.243-.457.9-.845 1.773-.18 0 0 1.179.91 3.08.91 1.902 0 3.081-.91 3.081-.91.871-.665 1.53-.277 1.772.18.408.81-.056 1.197-1.114 1.862"/>
    </defs>
    <g fill="none" fill-rule="evenodd">
        <path d="M0 0h24v24H0z"/>
        <mask id="ok-b" fill="#fff">
            <use xlink:href="#ok-a"/>
        </mask>
        <use fill="#000" fill-rule="nonzero" xlink:href="#ok-a"/>
        <g fill="#9C9C9C" mask="url(#ok-b)">
            <path d="M0 0h24v24H0z"/>
        </g>
    </g>
</svg>
