<svg xmlns="http://www.w3.org/2000/svg" xmlns:xlink="http://www.w3.org/1999/xlink" width="24" height="24" viewBox="0 0 24 24">
    <defs>
        <path id="a" d="M18.687 12.877c.036-.288.063-.58.063-.877 0-.297-.027-.59-.063-.877l1.903-1.49a.449.449 0 0 0 .108-.576l-1.8-3.119c-.112-.193-.346-.274-.549-.193l-2.24.904a6.829 6.829 0 0 0-1.522-.886l-.337-2.385A.463.463 0 0 0 13.8 3h-3.6a.454.454 0 0 0-.445.378l-.338 2.385a6.66 6.66 0 0 0-1.521.886l-2.241-.904a.45.45 0 0 0-.549.194l-1.8 3.118a.45.45 0 0 0 .108.576l1.899 1.49c-.036.288-.063.58-.063.877 0 .297.027.59.063.877l-1.899 1.49a.449.449 0 0 0-.108.576l1.8 3.118a.445.445 0 0 0 .549.194l2.241-.904c.464.355.972.657 1.521.886l.338 2.385c.035.212.22.378.445.378h3.6c.225 0 .41-.166.445-.378l.338-2.385a6.66 6.66 0 0 0 1.521-.886l2.241.904a.45.45 0 0 0 .549-.194l1.8-3.118a.45.45 0 0 0-.108-.576l-1.899-1.49zM12 15.15A3.148 3.148 0 0 1 8.85 12 3.148 3.148 0 0 1 12 8.85 3.148 3.148 0 0 1 15.15 12 3.148 3.148 0 0 1 12 15.15z"/>
    </defs>
    <g fill="none" fill-rule="evenodd">
        <path d="M0 0h24v24H0z"/>
        <mask id="b" fill="#fff">
            <use xlink:href="#a"/>
        </mask>
        <use fill="#9C9C9C" fill-rule="nonzero" xlink:href="#a"/>
        <g fill="#9C9C9C" mask="url(#b)">
            <path d="M0 0h24v24H0z"/>
        </g>
    </g>
</svg>
