<svg xmlns="http://www.w3.org/2000/svg" xmlns:xlink="http://www.w3.org/1999/xlink" width="23" height="14" viewBox="0 0 23 14">
    <defs>
        <path id="a" d="M0 0h23v14H0z"/>
    </defs>
    <g fill="none" fill-rule="evenodd">
        <g>
            <mask id="b" fill="#fff">
                <use xlink:href="#a"/>
            </mask>
            <path fill="#7F7F7F" d="M11.5 0C5.15 0 0 7 0 7s5.15 7 11.5 7C17.852 14 23 7 23 7s-5.148-7-11.5-7m0 1.273c4.446 0 8.386 4.022 9.857 5.728-1.469 1.708-5.395 5.726-9.857 5.726-4.446 0-8.384-4.019-9.856-5.727 1.472-1.708 5.41-5.727 9.856-5.727" mask="url(#b)"/>
        </g>
        <path fill="#7F7F7F" d="M11.5 3.818A3.188 3.188 0 0 0 8.305 7a3.188 3.188 0 0 0 3.195 3.182A3.188 3.188 0 0 0 14.694 7 3.188 3.188 0 0 0 11.5 3.818m0 1.273c1.056 0 1.916.856 1.916 1.909s-.86 1.91-1.916 1.91A1.915 1.915 0 0 1 9.583 7c0-1.053.86-1.91 1.917-1.91"/>
    </g>
</svg>
