<svg xmlns="http://www.w3.org/2000/svg" width="24" height="24" viewBox="0 0 24 24">
    <path fill="#666" fill-rule="nonzero" d="M22.951 13.71c.09-.566.137-1.145.137-1.735 0-6.137-4.975-11.112-11.113-11.112-.589 0-1.169.048-1.734.137A6.715 6.715 0 0 0 1 10.242a11.315 11.315 0 0 0-.136 1.733c0 6.138 4.975 11.111 11.11 11.111.59 0 1.17-.045 1.736-.134a6.715 6.715 0 0 0 9.242-9.242zm-5.7 3.319c-.47.677-1.16 1.205-2.063 1.586-.904.381-1.973.57-3.207.57-1.479 0-2.703-.258-3.67-.78a4.756 4.756 0 0 1-1.671-1.503c-.43-.627-.647-1.24-.647-1.839 0-.353.135-.66.397-.91.264-.252.605-.378 1.008-.378.33 0 .613.1.843.296.229.197.42.483.578.86.188.437.392.802.61 1.094.216.288.52.528.914.716.39.19.908.283 1.557.283.888 0 1.605-.192 2.154-.57.552-.383.817-.848.817-1.41 0-.448-.143-.804-.436-1.082-.295-.281-.677-.495-1.151-.645a20.757 20.757 0 0 0-1.916-.48c-1.075-.234-1.974-.507-2.702-.821-.73-.315-1.31-.745-1.74-1.289-.432-.549-.647-1.231-.647-2.04 0-.77.227-1.46.682-2.06.454-.6 1.111-1.061 1.968-1.382.854-.32 1.86-.48 3.011-.48.921 0 1.718.106 2.392.318.673.214 1.234.495 1.682.85.445.352.773.724.98 1.115.208.392.312.774.312 1.148 0 .347-.134.662-.396.938a1.312 1.312 0 0 1-.99.416c-.353 0-.63-.082-.822-.254-.187-.167-.384-.433-.596-.803-.269-.516-.59-.919-.965-1.207-.364-.282-.965-.43-1.802-.427-.774 0-1.393.158-1.86.467-.47.314-.695.679-.696 1.106 0 .268.077.493.232.686.157.195.376.364.657.506.282.145.568.257.855.337.291.082.774.202 1.445.36.842.18 1.605.384 2.29.604.685.222 1.27.49 1.752.809.487.318.867.723 1.138 1.213.274.49.41 1.09.41 1.794a3.898 3.898 0 0 1-.707 2.288z"/>
</svg>
