<svg xmlns="http://www.w3.org/2000/svg" width="25" height="21" viewBox="0 0 25 21">
    <path fill="#000" fill-rule="evenodd" d="M19.15 20.768a1.216 1.216 0 0 0 1.907-.73c.905-4.288 3.101-15.142 3.925-19.042a.829.829 0 0 0-1.101-.943C19.514 1.683 6.063 6.77.565 8.82A.868.868 0 0 0 0 9.66c.013.37.26.693.618.801A441.36 441.36 0 0 1 6.32 12.24s1.513 4.604 2.301 6.946a.916.916 0 0 0 .628.605c.3.078.621-.005.845-.218l3.225-3.069s3.72 2.75 5.831 4.265zm-11.469-9.11l1.75 5.814.388-3.682s6.757-6.144 10.61-9.645a.293.293 0 0 0-.358-.464L7.68 11.657z"/>
</svg>
