<svg xmlns="http://www.w3.org/2000/svg" width="86" height="62" viewBox="0 0 86 62">
    <path fill="#000" fill-rule="evenodd" d="M33.4 44.253L55.277 31.02 33.4 17.795v26.458zM85.983 8.905h-8.58v8.745h8.501v8.875h-8.462v8.897h8.499v8.905h-8.534v8.752h8.515c0 2.267.126 4.389-.046 6.487-.105 1.277-1.574 2.304-2.894 2.417-.367.031-.738.01-1.108.01H4.167c-3.042 0-4.155-1.122-4.165-4.2-.004-1.482 0-2.965 0-4.598h8.593v-8.863H.088v-8.857h8.518v-8.859H.105V17.75h8.494V8.944H.075c0-2.227-.09-4.266.032-6.292C.186 1.331 1.543.23 2.984.042c.41-.054.83-.035 1.245-.035C30.085.006 55.94.007 81.797 0c.985 0 1.945.038 2.775.65.732.54 1.354 1.23 1.388 2.156.074 1.984.023 3.972.023 6.099z"/>
</svg>
