<svg xmlns="http://www.w3.org/2000/svg" xmlns:xlink="http://www.w3.org/1999/xlink" width="18" height="11" viewBox="0 0 18 11">
    <defs>
        <path id="a" d="M0 0h18v11H0z"/>
    </defs>
    <g fill="none" fill-rule="evenodd" opacity=".872">
        <g>
            <mask id="b" fill="#fff">
                <use xlink:href="#a"/>
            </mask>
            <path fill="#666" d="M9 0C4.03 0 0 5.5 0 5.5S4.03 11 9 11s9-5.5 9-5.5S13.97 0 9 0m0 1c3.48 0 6.563 3.16 7.714 4.501C15.564 6.843 12.492 10 9 10c-3.48 0-6.561-3.158-7.713-4.5C2.439 4.158 5.52 1 9 1" mask="url(#b)"/>
        </g>
        <path fill="#666" d="M9 3a2.5 2.5 0 1 0 0 5 2.5 2.5 0 0 0 0-5m0 1c.827 0 1.5.673 1.5 1.5S9.827 7 9 7s-1.5-.673-1.5-1.5S8.173 4 9 4"/>
    </g>
</svg>
