<svg xmlns="http://www.w3.org/2000/svg" width="24" height="24" viewBox="0 0 24 24">
    <g fill="none" fill-rule="nonzero">
        <path fill="#666" d="M0 24l2.064-6.192a11.73 11.73 0 0 1-1.65-6.015C.414 5.28 5.694 0 12.207 0 18.72 0 24 5.28 24 11.793c0 6.513-5.28 11.793-11.793 11.793a11.74 11.74 0 0 1-5.487-1.354L0 24z"/>
        <path fill="#FFF" d="M19.73 15.718c-.544-1.03-2.552-2.206-2.552-2.206-.454-.259-1.002-.288-1.261.174 0 0-.653.782-.819.895-.758.513-1.46.493-2.169-.215l-1.647-1.648-1.648-1.647c-.708-.709-.728-1.411-.215-2.17.113-.165.895-.818.895-.818.462-.259.433-.807.174-1.261 0 0-1.177-2.008-2.206-2.553a1.128 1.128 0 0 0-1.325.2l-.728.727c-2.307 2.308-1.171 4.913 1.137 7.22l2.109 2.11 2.109 2.109c2.307 2.308 4.913 3.444 7.22 1.136l.728-.727c.35-.351.43-.889.199-1.326z"/>
    </g>
</svg>
