<svg xmlns="http://www.w3.org/2000/svg" width="25" height="25" viewBox="0 0 25 25">
    <g fill="none" fill-rule="nonzero">
        <path fill="#000" d="M0 25l2.15-6.45a12.22 12.22 0 0 1-1.719-6.266C.431 5.5 5.931 0 12.716 0 19.5 0 25 5.5 25 12.284c0 6.785-5.5 12.285-12.284 12.285A12.23 12.23 0 0 1 7 23.159L0 25z"/>
        <path fill="#FFF" d="M20.553 16.373c-.567-1.072-2.659-2.298-2.659-2.298-.473-.27-1.044-.3-1.314.181 0 0-.68.815-.853.932-.79.535-1.521.515-2.26-.224l-1.715-1.716-1.716-1.716c-.739-.738-.76-1.47-.224-2.26.117-.172.932-.852.932-.852.481-.27.45-.84.181-1.314 0 0-1.226-2.092-2.298-2.659a1.175 1.175 0 0 0-1.38.208l-.758.757c-2.404 2.404-1.22 5.118 1.183 7.522l2.197 2.197 2.197 2.197c2.404 2.404 5.118 3.588 7.522 1.184l.758-.758c.364-.366.448-.926.207-1.381z"/>
    </g>
</svg>
