<svg xmlns="http://www.w3.org/2000/svg" xmlns:xlink="http://www.w3.org/1999/xlink" width="74" height="71" viewBox="0 0 74 71">
    <defs>
        <path id="a" d="M.125.003h73.82V71H.125z"/>
    </defs>
    <g fill="none" fill-rule="evenodd">
        <mask id="b" fill="#fff">
            <use xlink:href="#a"/>
        </mask>
        <path fill="#000" d="M73.817 71H.14c0-2.896-.05-5.727.025-8.554.028-1.049.905-1.692 1.66-2.303 2.791-2.26 6.045-3.678 9.296-5.096 3.44-1.5 7.06-2.558 10.42-4.256 1.361-.687 2.663-1.46 3.842-2.438 2.753-2.282 3.596-5.324 3.427-8.749-.045-.91-.43-1.732-1.07-2.39-1.715-1.76-2.653-3.904-3.08-6.286-.18-1-.603-1.725-1.563-2.131-.826-.35-1.358-1.017-1.584-1.876-.563-2.144-1.186-4.303.6-6.232.373-.404.105-.885.044-1.332-.336-2.472-1.072-4.93-.764-7.434.662-5.396 3.68-9.029 8.762-10.777C34.505-.35 38.97-.36 43.36 1.01c6.637 2.072 10.078 7.766 8.989 14.65-.132.836-.235 1.679-.395 2.51-.24 1.245-.27 2.298.524 3.536 1.376 2.144.148 5.976-2.044 7.31-.585.355-.94.823-1.06 1.492-.471 2.645-1.572 4.942-3.364 6.987-1.544 1.762-.963 3.945-.543 5.97.467 2.253 1.817 3.976 3.638 5.334 2.363 1.76 5.043 2.898 7.77 3.928 3.67 1.386 7.339 2.773 10.818 4.606.859.452 1.68.975 2.53 1.44 2.589 1.417 4.099 3.34 3.642 6.555-.26 1.823-.047 3.714-.047 5.672" mask="url(#b)"/>
    </g>
</svg>
