<svg xmlns="http://www.w3.org/2000/svg" xmlns:xlink="http://www.w3.org/1999/xlink" width="24" height="24" viewBox="0 0 24 24">
    <defs>
        <path id="a" d="M12 4c-4.4 0-8 3.6-8 8s3.6 8 8 8c3.7 0 6.8-2.6 8-6h-2c-1.2 2.3-3.4 4-6 4-3.3 0-6-2.7-6-6s2.7-6 6-6c1.7 0 3.1.7 4 2l-3 3h7V4l-2 2c-1.8-1-3.8-2-6-2z"/>
    </defs>
    <g fill="none" fill-rule="evenodd">
        <mask id="b" fill="#fff">
            <use xlink:href="#a"/>
        </mask>
        <use fill="none" xlink:href="#a"/>
        <g fill="#d8d8d8" mask="url(#b)">
            <path d="M0 0h24v24H0z"/>
        </g>
    </g>
</svg>
