<svg xmlns="http://www.w3.org/2000/svg" xmlns:xlink="http://www.w3.org/1999/xlink" width="24" height="24" viewBox="0 0 24 24">
    <defs>
        <path id="a" d="M11.998 8.737c2.007 0 3.636 1.532 3.636 3.42 0 .442-.095.863-.258 1.25l2.126 2A8.166 8.166 0 0 0 20 12.158c-1.262-3.003-4.363-5.13-8.002-5.13a8.983 8.983 0 0 0-2.897.478l1.57 1.475c.411-.15.858-.243 1.327-.243zm-7.27-1.865l1.657 1.56.33.312C5.517 9.626 4.568 10.8 4 12.158c1.258 3.004 4.363 5.131 7.998 5.131a8.995 8.995 0 0 0 3.189-.578l.309.291L17.616 19l.926-.869L5.654 6l-.927.872zm4.02 3.78l1.123 1.058a2.046 2.046 0 0 0-.054.448c0 1.132.978 2.053 2.181 2.053.164 0 .32-.021.473-.052l1.123 1.057a3.76 3.76 0 0 1-1.596.363c-2.007 0-3.635-1.533-3.635-3.421 0-.54.145-1.047.385-1.505zm3.13-.536l2.29 2.155.012-.113c0-1.132-.978-2.053-2.182-2.053l-.12.01z"/>
    </defs>
    <g fill="none" fill-rule="evenodd">
        <mask id="b" fill="#fff">
            <use xlink:href="#a"/>
        </mask>
        <use fill="#CCC" fill-rule="nonzero" xlink:href="#a"/>
        <g fill="#9C9C9C" mask="url(#b)">
            <path d="M0 0h24v24H0z"/>
        </g>
    </g>
</svg>
